<?xml version="1.0" standalone="no"?>
<!DOCTYPE svg PUBLIC "-//W3C//DTD SVG 20010904//EN"
 "http://www.w3.org/TR/2001/REC-SVG-20010904/DTD/svg10.dtd">
<svg version="1.0" xmlns="http://www.w3.org/2000/svg"
 width="500.000000pt" height="500.000000pt" viewBox="0 0 500.000000 500.000000"
 preserveAspectRatio="xMidYMid meet">

<g transform="translate(0.000000,500.000000) scale(0.100000,-0.100000)"
fill="#000000" stroke="none">
<path d="M0 2500 l0 -2500 2500 0 2500 0 0 2500 0 2500 -2500 0 -2500 0 0
-2500z m4060 1938 c84 -43 80 3 80 -805 0 -392 2 -713 5 -713 3 0 45 25 93 55
49 30 101 55 115 55 52 0 144 -155 173 -290 21 -99 20 -1645 -1 -1745 -44
-208 -176 -354 -382 -421 l-88 -29 -1560 0 -1560 0 -81 27 c-198 68 -320 202
-374 414 -19 74 -20 112 -20 876 0 894 -1 874 70 1023 71 147 115 172 200 115
l45 -30 5 698 c6 786 0 735 83 773 41 18 93 19 1597 19 l1556 0 44 -22z"/>
<path d="M915 4318 c-3 -7 -4 -335 -3 -728 l3 -714 793 -513 792 -512 750 487
750 487 0 753 0 752 -1540 0 c-1223 0 -1542 -3 -1545 -12z m2307 -437 l-3
-169 25 -6 c48 -12 27 -26 -39 -26 -68 0 -82 9 -40 28 25 12 25 12 25 157 l0
145 -26 10 c-34 13 -21 30 24 30 l37 0 -3 -169z m-1228 143 c3 -9 6 -29 6 -45
0 -38 -27 -39 -32 -1 -3 27 -4 27 -73 27 l-70 0 -3 -62 -3 -62 67 -3 c43 -2
69 -8 72 -15 3 -10 -15 -13 -67 -13 l-71 0 0 -70 0 -70 74 0 74 0 7 30 c10 45
25 36 25 -15 l0 -45 -135 0 c-113 0 -135 2 -135 15 0 10 10 15 30 15 l31 0 -3
148 -3 147 -27 3 c-16 2 -28 9 -28 18 0 22 255 21 264 -2z m377 -134 c35 -82
67 -150 70 -150 3 0 35 68 70 150 l63 150 59 0 c50 0 58 -2 55 -17 -2 -12 -14
-19 -36 -21 -17 -2 -32 -9 -33 -15 -4 -58 5 -245 12 -258 5 -10 19 -19 31 -21
12 -2 23 -9 26 -15 3 -10 -17 -13 -78 -13 -61 0 -81 3 -78 13 3 6 17 13 31 15
l27 3 0 137 c0 75 -4 132 -8 127 -5 -6 -35 -72 -67 -148 -41 -96 -63 -137 -73
-135 -8 2 -43 68 -77 147 l-63 144 -7 -94 c-4 -52 -5 -112 -3 -134 3 -35 6
-40 31 -43 15 -2 27 -9 27 -18 0 -11 -17 -14 -75 -14 -60 0 -75 3 -75 15 0 9
9 15 25 15 32 0 35 14 38 165 l2 120 -32 3 c-25 2 -33 8 -33 23 0 16 7 19 54
19 l54 0 63 -150z m687 121 c21 -13 10 -46 -16 -49 -27 -4 -40 22 -22 43 14
17 20 18 38 6z m-182 -109 c23 -15 34 -53 34 -120 0 -61 2 -70 20 -75 33 -8
23 -27 -15 -27 -32 0 -35 3 -35 29 l0 29 -34 -34 c-40 -40 -68 -43 -101 -9
-32 31 -32 59 0 90 20 21 34 25 80 25 61 0 71 14 35 50 -22 22 -46 25 -84 10
-33 -12 -43 4 -14 24 23 16 94 21 114 8z m186 -91 l-4 -98 26 -7 c48 -12 27
-26 -39 -26 -69 0 -82 9 -40 28 25 12 26 15 23 89 -3 72 -5 78 -25 81 -13 2
-23 10 -23 18 0 10 12 14 43 14 l42 0 -3 -99z m-894 2 c3 -10 -13 -13 -57 -13
-48 0 -61 3 -61 15 0 13 11 15 57 13 34 -2 58 -8 61 -15z m1231 -312 c11 -7
12 -25 1 -107 -7 -55 -10 -116 -9 -137 l4 -39 32 45 c40 57 71 78 127 84 136
16 227 -94 227 -272 0 -91 -10 -133 -45 -185 -44 -66 -142 -96 -221 -66 -41
16 -105 74 -105 96 0 6 -4 10 -9 10 -6 0 -11 -24 -13 -52 l-3 -53 -120 0 -120
0 -3 70 c-6 115 18 588 30 602 12 15 204 18 227 4z m-1669 -21 c58 -90 210
-602 192 -648 -3 -9 -35 -12 -131 -10 l-126 3 -5 66 c-7 87 -18 99 -90 99 -72
0 -83 -12 -90 -99 l-5 -66 -130 0 -130 0 3 35 c4 55 57 265 97 384 54 162 93
244 119 250 11 2 81 3 154 3 106 -2 135 -5 142 -17z m725 -139 c29 -6 30 -8
33 -66 l3 -60 -116 -112 c-114 -111 -116 -113 -91 -123 45 -17 110 3 158 48
44 41 54 26 62 -89 4 -56 3 -106 -2 -111 -4 -4 -130 -7 -278 -6 l-269 3 -3 57
c-3 55 -1 59 39 103 24 25 78 76 121 112 43 36 78 72 78 80 0 9 -15 13 -52 13
-39 0 -65 -7 -106 -31 -33 -18 -58 -27 -64 -21 -5 5 -5 48 -1 103 l8 94 30 6
c39 9 411 9 450 0z m486 -7 c74 -22 124 -75 138 -146 18 -91 32 -340 20 -355
-8 -9 -41 -13 -114 -13 -121 0 -131 6 -121 75 9 55 -2 58 -29 8 -35 -66 -114
-103 -190 -89 -78 15 -127 95 -105 174 18 69 76 104 213 133 95 19 113 28 104
53 -15 38 -129 28 -220 -19 -27 -14 -53 -22 -58 -19 -12 7 -11 155 0 173 24
37 264 54 362 25z"/>
<path d="M2762 3778 c-28 -28 -2 -68 46 -68 22 0 72 46 72 66 0 18 -101 19
-118 2z"/>
<path d="M3415 3145 c-52 -51 -18 -155 50 -155 14 0 37 11 50 25 52 51 18 155
-50 155 -14 0 -37 -11 -50 -25z"/>
<path d="M1555 3288 c-2 -7 -11 -48 -20 -92 -18 -88 -12 -106 35 -106 45 0 50
16 35 99 -8 41 -17 82 -20 92 -7 22 -24 25 -30 7z"/>
<path d="M2780 3058 c-23 -25 -26 -48 -8 -66 38 -38 111 22 86 71 -12 24 -53
21 -78 -5z"/>
<path d="M649 2839 c-11 -22 -29 -75 -40 -116 -18 -72 -19 -117 -19 -852 0
-427 3 -793 7 -814 4 -25 10 -36 19 -33 7 3 312 232 678 510 l666 505 -42 29
c-35 24 -767 500 -1150 748 l-98 64 -21 -41z"/>
<path d="M3675 2455 c-352 -227 -640 -418 -640 -424 0 -10 1342 -1021 1357
-1021 10 0 9 -71 8 855 -1 650 -4 801 -15 853 -14 60 -46 136 -63 145 -4 3
-295 -181 -647 -408z"/>
<path d="M1372 1424 c-581 -438 -710 -540 -703 -553 24 -43 96 -111 149 -139
121 -65 37 -62 1672 -62 1615 0 1557 -2 1674 56 51 25 157 121 155 141 0 4
-322 250 -716 546 l-715 538 -195 -122 -195 -122 -31 15 c-18 8 -110 65 -205
127 -95 61 -174 111 -175 111 -2 0 -323 -241 -715 -536z"/>
</g>
</svg>
