<?xml version="1.0" standalone="no"?>
<!DOCTYPE svg PUBLIC "-//W3C//DTD SVG 20010904//EN"
 "http://www.w3.org/TR/2001/REC-SVG-20010904/DTD/svg10.dtd">
<svg version="1.0" xmlns="http://www.w3.org/2000/svg"
 width="409.000000pt" height="400.000000pt" viewBox="0 0 409.000000 400.000000"
 preserveAspectRatio="xMidYMid meet">

<g transform="translate(0.000000,400.000000) scale(0.100000,-0.100000)"
fill="#000000" stroke="none">
<path d="M402 3943 c-18 -9 -43 -30 -55 -47 l-22 -31 -3 -698 -3 -698 -44 31
c-62 43 -95 40 -140 -12 -44 -51 -87 -139 -112 -228 -17 -61 -18 -121 -18
-895 l0 -830 23 -75 c70 -223 213 -357 432 -404 68 -15 226 -16 1615 -14
l1540 3 80 27 c193 66 318 200 372 398 17 60 18 133 18 900 0 780 -1 839 -18
900 -38 133 -123 260 -174 260 -14 0 -64 -25 -112 -55 -48 -30 -90 -55 -94
-55 -4 0 -7 328 -7 729 l0 728 -22 28 c-46 58 48 55 -1655 55 -1424 0 -1571
-2 -1601 -17z m3138 -866 l0 -754 -737 -479 c-405 -263 -741 -482 -747 -486
-6 -3 -367 224 -801 505 l-790 512 -3 715 c-1 393 0 721 3 728 3 9 321 12
1540 12 l1535 0 0 -753z m-2671 -1122 c347 -225 631 -412 630 -415 0 -5 -1325
-1013 -1339 -1018 -4 -2 -10 8 -14 22 -12 48 -7 1608 5 1666 16 78 55 162 73
158 7 -2 298 -187 645 -413z m3046 308 c9 -26 21 -86 26 -133 11 -94 8 -1604
-3 -1615 -3 -4 -313 224 -689 505 -484 364 -678 515 -668 521 8 4 300 192 649
417 l634 410 17 -28 c10 -15 25 -50 34 -77z m-2091 -928 c107 -69 203 -125
212 -125 10 0 102 54 206 120 l189 120 367 -276 c202 -152 523 -394 714 -538
192 -143 348 -265 348 -270 0 -19 -63 -86 -108 -114 -26 -17 -76 -41 -112 -54
l-65 -23 -1490 -3 c-979 -2 -1513 1 -1556 8 -117 18 -176 46 -252 122 -38 37
-67 73 -65 80 3 9 1399 1071 1415 1077 2 1 90 -55 197 -124z"/>
<path d="M2690 3536 c0 -7 9 -16 20 -19 19 -5 20 -14 20 -156 l0 -151 -25 -6
c-46 -12 -26 -24 40 -24 67 0 81 8 43 25 -23 10 -23 13 -23 178 l0 167 -37 0
c-26 0 -38 -5 -38 -14z"/>
<path d="M1280 3526 c0 -9 12 -16 28 -18 l27 -3 0 -145 0 -145 -27 -3 c-16 -2
-28 -9 -28 -18 0 -11 24 -14 135 -14 l135 0 0 46 c0 50 -22 59 -28 11 -3 -27
-5 -27 -78 -27 l-74 0 0 70 0 70 66 0 c85 0 84 22 -1 24 l-60 1 -3 68 -3 67
70 0 c69 0 69 0 76 -30 10 -45 25 -36 25 15 l0 45 -130 0 c-106 0 -130 -3
-130 -14z"/>
<path d="M1745 3530 c-11 -17 5 -30 36 -30 34 0 32 7 29 -140 -2 -125 -8 -147
-42 -152 -12 -2 -23 -9 -26 -15 -3 -10 16 -13 72 -13 59 0 76 3 76 14 0 9 -12
16 -27 18 -31 3 -29 -13 -25 175 1 53 6 93 10 88 5 -6 35 -72 68 -148 40 -93
64 -137 73 -135 8 2 42 68 75 146 l61 144 8 -69 c4 -37 6 -97 5 -133 -3 -63
-4 -65 -30 -68 -16 -2 -28 -9 -28 -18 0 -11 17 -14 75 -14 58 0 75 3 75 14 0
9 -12 16 -27 18 -27 3 -28 5 -36 88 -4 47 -6 110 -5 140 3 54 4 55 36 58 24 3
32 8 32 23 0 18 -6 20 -56 17 l-56 -3 -63 -148 c-34 -81 -64 -150 -67 -152 -2
-2 -33 64 -69 148 l-65 152 -51 3 c-28 2 -54 -2 -58 -8z"/>
<path d="M2573 3513 c-18 -7 -16 -42 3 -50 8 -3 23 1 31 10 13 13 14 19 3 31
-13 17 -17 18 -37 9z"/>
<path d="M2313 3398 c-28 -13 -32 -44 -5 -33 64 24 112 12 112 -30 0 -24 -3
-25 -55 -25 -63 0 -95 -22 -95 -66 0 -81 78 -96 138 -26 l22 27 -6 -32 c-6
-33 -6 -33 35 -33 45 0 53 10 19 25 -20 9 -24 19 -28 91 -3 47 -11 88 -19 98
-16 18 -83 21 -118 4z m107 -127 c0 -23 -45 -61 -71 -61 -34 0 -49 12 -49 40
0 33 9 38 73 39 40 1 47 -2 47 -18z"/>
<path d="M2530 3395 c0 -8 9 -15 20 -15 25 0 32 -27 28 -105 -3 -51 -6 -61
-25 -70 -39 -17 -25 -25 42 -25 37 0 65 4 65 10 0 6 -9 10 -20 10 -33 0 -43
36 -36 127 l6 83 -40 0 c-29 0 -40 -4 -40 -15z"/>
<path d="M1590 3310 c0 -6 27 -10 60 -10 33 0 60 4 60 10 0 6 -27 10 -60 10
-33 0 -60 -4 -60 -10z"/>
</g>
</svg>
