<svg xmlns="http://www.w3.org/2000/svg" xmlns:xlink="http://www.w3.org/1999/xlink" width="500" zoomAndPan="magnify" viewBox="0 0 375 374.999991" height="500" preserveAspectRatio="xMidYMid meet" version="1.0"><defs><clipPath id="8ea5763bbb"><path d="M 24.605469 111 L 350.105469 111 L 350.105469 261 L 24.605469 261 Z M 24.605469 111 " clip-rule="nonzero"/></clipPath></defs><g clip-path="url(#8ea5763bbb)"><path fill="#333333" d="M 334.964844 170.878906 C 330.117188 170.878906 325.5625 173.265625 322.71875 177.214844 L 249.101562 177.214844 L 249.101562 164.671875 L 265.542969 164.671875 C 273.648438 164.671875 281.128906 160.257812 285.054688 153.164062 L 293.554688 137.835938 C 294.378906 136.339844 295.957031 135.417969 297.664062 135.417969 L 303.089844 135.417969 C 305.917969 139.351562 310.488281 141.753906 315.335938 141.753906 C 323.6875 141.753906 330.460938 134.957031 330.460938 126.59375 C 330.460938 118.230469 323.671875 111.449219 315.335938 111.449219 C 310.488281 111.449219 305.933594 113.835938 303.105469 117.785156 L 297.683594 117.785156 C 289.578125 117.785156 282.097656 122.199219 278.167969 129.292969 L 269.667969 144.621094 C 268.832031 146.117188 267.253906 147.039062 265.542969 147.039062 L 246.277344 147.039062 C 240.71875 133.640625 227.535156 124.207031 212.164062 124.207031 L 162.515625 124.207031 C 147.164062 124.207031 133.960938 133.65625 128.40625 147.039062 L 109.136719 147.039062 C 107.429688 147.039062 105.851562 146.117188 105.011719 144.621094 L 96.511719 129.292969 C 92.582031 122.199219 85.105469 117.785156 77 117.785156 L 71.574219 117.785156 C 68.746094 113.851562 64.175781 111.449219 59.34375 111.449219 C 50.992188 111.449219 44.21875 118.246094 44.21875 126.59375 C 44.21875 134.941406 51.007812 141.753906 59.34375 141.753906 C 64.191406 141.753906 68.746094 139.367188 71.589844 135.417969 L 77.015625 135.417969 C 78.726562 135.417969 80.304688 136.339844 81.125 137.855469 L 89.625 153.179688 C 93.554688 160.277344 101.035156 164.6875 109.136719 164.6875 L 125.578125 164.6875 L 125.578125 177.230469 L 51.996094 177.230469 C 49.167969 173.296875 44.597656 170.894531 39.765625 170.894531 C 31.414062 170.894531 24.640625 177.691406 24.640625 186.039062 C 24.640625 194.386719 31.429688 201.183594 39.765625 201.183594 C 44.613281 201.183594 49.167969 198.796875 51.996094 194.847656 L 125.609375 194.847656 L 125.609375 207.375 L 109.171875 207.375 C 101.066406 207.375 93.585938 211.785156 89.640625 218.882812 L 81.140625 234.207031 C 80.320312 235.707031 78.742188 236.644531 77.03125 236.644531 L 71.605469 236.644531 C 68.78125 232.710938 64.210938 230.304688 59.359375 230.304688 C 51.007812 230.304688 44.234375 237.105469 44.234375 245.46875 C 44.234375 253.832031 51.023438 260.613281 59.359375 260.613281 C 64.210938 260.613281 68.761719 258.226562 71.589844 254.277344 L 77.015625 254.277344 C 85.121094 254.277344 92.601562 249.863281 96.546875 242.769531 L 105.042969 227.441406 C 105.882812 225.945312 107.460938 225.003906 109.171875 225.003906 L 128.421875 225.003906 C 133.976562 238.40625 147.164062 247.839844 162.535156 247.839844 L 212.179688 247.839844 C 227.550781 247.839844 240.734375 238.390625 246.292969 225.003906 L 265.542969 225.003906 C 267.253906 225.003906 268.832031 225.945312 269.667969 227.441406 L 278.167969 242.769531 C 282.113281 249.863281 289.578125 254.277344 297.699219 254.277344 L 303.125 254.277344 C 305.949219 258.210938 310.519531 260.613281 315.355469 260.613281 C 323.707031 260.613281 330.476562 253.816406 330.476562 245.46875 C 330.476562 237.121094 323.6875 230.304688 315.355469 230.304688 C 310.503906 230.304688 305.949219 232.695312 303.105469 236.644531 L 297.683594 236.644531 C 295.972656 236.644531 294.394531 235.707031 293.554688 234.207031 L 285.054688 218.882812 C 281.109375 211.785156 273.648438 207.375 265.527344 207.375 L 249.085938 207.375 L 249.085938 194.847656 L 322.703125 194.847656 C 325.53125 198.78125 330.101562 201.183594 334.949219 201.183594 C 343.300781 201.183594 350.074219 194.386719 350.074219 186.039062 C 350.074219 177.691406 343.285156 170.894531 334.949219 170.894531 Z M 235.933594 210.882812 C 235.933594 223.984375 225.28125 234.652344 212.195312 234.652344 L 162.550781 234.652344 C 149.449219 234.652344 138.8125 223.984375 138.8125 210.882812 L 138.8125 161.164062 C 138.8125 148.042969 149.464844 137.394531 162.550781 137.394531 L 212.195312 137.394531 C 225.300781 137.394531 235.933594 148.058594 235.933594 161.164062 Z M 235.933594 210.882812 " fill-opacity="1" fill-rule="nonzero"/></g><path fill="#333333" d="M 108.742188 119.183594 L 108.742188 67.113281 L 265.953125 67.113281 L 265.953125 119.183594 C 271.3125 111.035156 279.550781 105.339844 288.902344 103.117188 L 288.902344 46.914062 C 288.902344 40.132812 284.101562 34.171875 277.476562 32.742188 C 247.707031 26.320312 217.390625 23.0625 187.355469 23.0625 C 157.320312 23.0625 126.992188 26.320312 97.234375 32.742188 C 90.609375 34.171875 85.8125 40.132812 85.8125 46.914062 L 85.8125 103.101562 C 95.164062 105.324219 103.382812 111.019531 108.761719 119.183594 Z M 187.355469 35.984375 C 192.585938 35.984375 196.824219 40.230469 196.824219 45.46875 C 196.824219 50.703125 192.585938 54.949219 187.355469 54.949219 C 182.128906 54.949219 177.886719 50.703125 177.886719 45.46875 C 177.886719 40.230469 182.128906 35.984375 187.355469 35.984375 Z M 187.355469 35.984375 " fill-opacity="1" fill-rule="nonzero"/><path fill="#333333" d="M 265.96875 252.859375 L 265.96875 304.929688 L 108.742188 304.929688 L 108.742188 252.859375 C 103.367188 261.007812 95.148438 266.703125 85.792969 268.925781 L 85.792969 325.113281 C 85.792969 331.894531 90.59375 337.855469 97.21875 339.289062 C 157.027344 352.195312 217.671875 352.195312 277.460938 339.289062 C 284.085938 337.855469 288.886719 331.894531 288.886719 325.113281 L 288.886719 268.925781 C 279.53125 266.703125 271.3125 261.007812 265.9375 252.859375 Z M 195.90625 336.210938 L 178.839844 336.210938 C 173.53125 336.210938 169.207031 331.894531 169.207031 326.5625 C 169.207031 321.226562 173.515625 316.914062 178.839844 316.914062 L 195.90625 316.914062 C 201.214844 316.914062 205.539062 321.226562 205.539062 326.5625 C 205.539062 331.894531 201.230469 336.210938 195.90625 336.210938 Z M 195.90625 336.210938 " fill-opacity="1" fill-rule="nonzero"/><path fill="#333333" d="M 206.359375 148.390625 L 168.371094 148.390625 C 158.109375 148.390625 149.792969 156.71875 149.792969 166.992188 L 149.792969 205.035156 C 149.792969 215.308594 158.109375 223.640625 168.371094 223.640625 L 206.359375 223.640625 C 216.617188 223.640625 224.9375 215.308594 224.9375 205.035156 L 224.9375 166.992188 C 224.9375 156.71875 216.617188 148.390625 206.359375 148.390625 Z M 196.480469 205.84375 C 195.953125 206.089844 195.378906 206.207031 194.835938 206.207031 C 193.339844 206.207031 191.894531 205.347656 191.238281 203.882812 L 180.023438 179.339844 L 173.976562 192.558594 L 178.941406 192.558594 C 181.125 192.558594 182.902344 194.335938 182.902344 196.527344 C 182.902344 198.714844 181.125 200.492188 178.941406 200.492188 L 170.34375 200.492188 L 168.796875 203.882812 C 167.875 205.875 165.523438 206.75 163.550781 205.84375 C 161.5625 204.9375 160.691406 202.582031 161.597656 200.59375 L 176.410156 168.175781 C 177.050781 166.761719 178.464844 165.855469 180.007812 165.855469 C 181.554688 165.855469 182.96875 166.761719 183.609375 168.175781 L 198.421875 200.59375 C 199.324219 202.582031 198.453125 204.9375 196.464844 205.84375 Z M 213.496094 202.238281 C 213.496094 204.425781 211.71875 206.207031 209.535156 206.207031 C 207.347656 206.207031 205.570312 204.425781 205.570312 202.238281 L 205.570312 169.824219 C 205.570312 167.632812 207.347656 165.855469 209.535156 165.855469 C 211.71875 165.855469 213.496094 167.632812 213.496094 169.824219 Z M 213.496094 202.238281 " fill-opacity="1" fill-rule="nonzero"/></svg>