<svg xmlns="http://www.w3.org/2000/svg" xmlns:xlink="http://www.w3.org/1999/xlink" width="500" zoomAndPan="magnify" viewBox="0 0 375 374.999991" height="500" preserveAspectRatio="xMidYMid meet" version="1.0"><defs><g/><clipPath id="7eb4921eef"><path d="M 38.90625 72.222656 L 298.742188 72.222656 L 298.742188 191.757812 L 38.90625 191.757812 Z M 38.90625 72.222656 " clip-rule="nonzero"/></clipPath><clipPath id="c630ca7885"><path d="M 108 75 L 338.847656 75 L 338.847656 191.757812 L 108 191.757812 Z M 108 75 " clip-rule="nonzero"/></clipPath><clipPath id="36a5cdd927"><path d="M 106 74 L 341 74 L 341 191.757812 L 106 191.757812 Z M 106 74 " clip-rule="nonzero"/></clipPath><clipPath id="fdc1670773"><path d="M 107 74.90625 L 108.519531 74.90625 L 108.519531 191.757812 L 107 191.757812 Z M 107 74.90625 " clip-rule="nonzero"/></clipPath><clipPath id="57238d0b02"><path d="M 270 179 L 342.507812 179 L 342.507812 191.757812 L 270 191.757812 Z M 270 179 " clip-rule="nonzero"/></clipPath><clipPath id="b1f68c01a7"><path d="M 38.90625 72.222656 L 298.742188 72.222656 L 298.742188 242.140625 L 38.90625 242.140625 Z M 38.90625 72.222656 " clip-rule="nonzero"/></clipPath><clipPath id="46d1ae5ff0"><path d="M 108 75 L 317.828125 75 L 317.828125 247.066406 L 108 247.066406 Z M 108 75 " clip-rule="nonzero"/></clipPath><clipPath id="140ff73e06"><path d="M 106 74 L 317.828125 74 L 317.828125 247.90625 L 106 247.90625 Z M 106 74 " clip-rule="nonzero"/></clipPath><clipPath id="a3138ceb08"><path d="M 107 74.90625 L 108.519531 74.90625 L 108.519531 243.300781 L 107 243.300781 Z M 107 74.90625 " clip-rule="nonzero"/></clipPath><clipPath id="413382fa49"><path d="M 270 179 L 317.828125 179 L 317.828125 250.179688 L 270 250.179688 Z M 270 179 " clip-rule="nonzero"/></clipPath><clipPath id="72a534ab55"><rect x="0" width="300" y="0" height="117"/></clipPath></defs><g clip-path="url(#7eb4921eef)"><path fill="#000000" d="M 38.90625 242.140625 L 76.703125 242.140625 L 92.128906 204.296875 L 120.761719 204.296875 C 128.667969 192.710938 137.25 181.800781 146.410156 171.472656 L 105.433594 171.472656 L 127.703125 116.828125 L 148.914062 168.574219 C 157.207031 159.402344 165.980469 150.714844 175.140625 142.507812 L 145.25 72.128906 L 111.121094 72.128906 Z M 298.742188 73.480469 L 181.984375 73.480469 L 181.984375 106.015625 L 225.273438 106.015625 C 248.121094 92.402344 272.710938 81.492188 298.742188 73.480469 Z M 298.742188 73.480469 " fill-opacity="1" fill-rule="evenodd"/></g><g clip-path="url(#c630ca7885)"><path fill="#000000" d="M 179.089844 242.140625 L 319.371094 242.140625 L 319.371094 209.605469 L 226.722656 209.605469 L 319.371094 101.671875 L 319.371094 83.714844 C 325.734375 80.625 332.195312 77.824219 338.753906 75.121094 C 238.289062 93.753906 154.894531 156.21875 108.035156 247.066406 L 171.863281 247.066406 C 173.789062 238.570312 176.199219 230.265625 179.089844 222.445312 Z M 262.96875 116.25 L 186.035156 205.9375 C 203.097656 168.960938 230.191406 139.613281 262.96875 116.25 Z M 262.96875 116.25 " fill-opacity="1" fill-rule="evenodd"/></g><g clip-path="url(#36a5cdd927)"><path fill="#faab11" d="M 185.453125 206.226562 C 197.21875 184.410156 220.066406 149.074219 260.367188 117.984375 C 290.546875 94.816406 319.949219 81.976562 340.871094 74.832031 C 312.335938 79.949219 258.246094 93.5625 203.484375 133.722656 C 148.238281 174.269531 119.410156 221.964844 106.203125 247.546875 C 127.800781 247.546875 149.496094 247.546875 171.089844 247.546875 C 172.828125 240.019531 175.238281 231.8125 178.417969 223.027344 C 180.730469 216.945312 183.046875 211.34375 185.453125 206.226562 Z M 185.453125 206.226562 " fill-opacity="1" fill-rule="nonzero"/></g><g clip-path="url(#fdc1670773)"><path fill="#000000" d="M 178.613281 241.851562 L 318.890625 241.851562 C 318.890625 223.894531 304.332031 209.316406 286.398438 209.316406 L 226.238281 209.316406 L 318.890625 101.476562 L 318.890625 83.519531 C 325.25 80.429688 331.710938 77.632812 338.269531 74.929688 C 237.808594 93.5625 154.410156 156.023438 107.550781 246.871094 L 171.378906 246.871094 C 173.304688 238.375 175.71875 230.074219 178.613281 222.253906 Z M 262.488281 116.054688 L 185.453125 205.746094 C 202.617188 168.671875 229.710938 139.417969 262.488281 116.054688 Z M 262.488281 116.054688 " fill-opacity="1" fill-rule="evenodd"/></g><g clip-path="url(#57238d0b02)"><path fill="#000000" d="M 271.070312 338.203125 L 270.492188 319.085938 L 277.433594 302.289062 L 352.34375 214.046875 C 360.347656 207.773438 369.988281 201.109375 381.171875 194.640625 C 391.96875 188.367188 402.191406 183.636719 411.25 179.871094 C 411.25 185.855469 411.25 191.84375 411.25 197.828125 L 318.601562 305.765625 L 411.347656 305.765625 L 411.347656 338.300781 L 271.070312 338.300781 Z M 271.070312 338.203125 " fill-opacity="1" fill-rule="nonzero"/></g><g clip-path="url(#b1f68c01a7)"><path fill="#000000" d="M 38.90625 242.140625 L 76.703125 242.140625 L 92.128906 204.296875 L 120.761719 204.296875 C 128.667969 192.710938 137.25 181.800781 146.410156 171.472656 L 105.433594 171.472656 L 127.703125 116.828125 L 148.914062 168.574219 C 157.207031 159.402344 165.980469 150.714844 175.140625 142.507812 L 145.25 72.128906 L 111.121094 72.128906 Z M 298.742188 73.480469 L 181.984375 73.480469 L 181.984375 106.015625 L 225.273438 106.015625 C 248.121094 92.402344 272.710938 81.492188 298.742188 73.480469 Z M 298.742188 73.480469 " fill-opacity="1" fill-rule="evenodd"/></g><g clip-path="url(#46d1ae5ff0)"><path fill="#000000" d="M 179.089844 242.140625 L 319.371094 242.140625 L 319.371094 209.605469 L 226.722656 209.605469 L 319.371094 101.671875 L 319.371094 83.714844 C 325.734375 80.625 332.195312 77.824219 338.753906 75.121094 C 238.289062 93.753906 154.894531 156.21875 108.035156 247.066406 L 171.863281 247.066406 C 173.789062 238.570312 176.199219 230.265625 179.089844 222.445312 Z M 262.96875 116.25 L 186.035156 205.9375 C 203.097656 168.960938 230.191406 139.613281 262.96875 116.25 Z M 262.96875 116.25 " fill-opacity="1" fill-rule="evenodd"/></g><g clip-path="url(#140ff73e06)"><path fill="#faab11" d="M 185.453125 206.226562 C 197.21875 184.410156 220.066406 149.074219 260.367188 117.984375 C 290.546875 94.816406 319.949219 81.976562 340.871094 74.832031 C 312.335938 79.949219 258.246094 93.5625 203.484375 133.722656 C 148.238281 174.269531 119.410156 221.964844 106.203125 247.546875 C 127.800781 247.546875 149.496094 247.546875 171.089844 247.546875 C 172.828125 240.019531 175.238281 231.8125 178.417969 223.027344 C 180.730469 216.945312 183.046875 211.34375 185.453125 206.226562 Z M 185.453125 206.226562 " fill-opacity="1" fill-rule="nonzero"/></g><g clip-path="url(#a3138ceb08)"><path fill="#000000" d="M 178.613281 241.851562 L 318.890625 241.851562 C 318.890625 223.894531 304.332031 209.316406 286.398438 209.316406 L 226.238281 209.316406 L 318.890625 101.476562 L 318.890625 83.519531 C 325.25 80.429688 331.710938 77.632812 338.269531 74.929688 C 237.808594 93.5625 154.410156 156.023438 107.550781 246.871094 L 171.378906 246.871094 C 173.304688 238.375 175.71875 230.074219 178.613281 222.253906 Z M 262.488281 116.054688 L 185.453125 205.746094 C 202.617188 168.671875 229.710938 139.417969 262.488281 116.054688 Z M 262.488281 116.054688 " fill-opacity="1" fill-rule="evenodd"/></g><g clip-path="url(#413382fa49)"><path fill="#000000" d="M 271.070312 338.203125 L 270.492188 319.085938 L 277.433594 302.289062 L 352.34375 214.046875 C 360.347656 207.773438 369.988281 201.109375 381.171875 194.640625 C 391.96875 188.367188 402.191406 183.636719 411.25 179.871094 C 411.25 185.855469 411.25 191.84375 411.25 197.828125 L 318.601562 305.765625 L 411.347656 305.765625 L 411.347656 338.300781 L 271.070312 338.300781 Z M 271.070312 338.203125 " fill-opacity="1" fill-rule="nonzero"/></g><g transform="matrix(1, 0, 0, 1, 38, 218)"><g clip-path="url(#72a534ab55)"><g fill="#000000" fill-opacity="1"><g transform="translate(0.342104, 82.055826)"><g><path d="M 32.765625 -2.1875 C 30.296875 -0.726562 28.054688 0 26.046875 0 C 23.585938 0 22.207031 -1.191406 21.90625 -3.578125 C 20.40625 -2.210938 18.90625 -1.207031 17.40625 -0.5625 C 15.914062 0.0703125 14.273438 0.390625 12.484375 0.390625 C 10.410156 0.390625 8.59375 -0.00390625 7.03125 -0.796875 C 5.476562 -1.585938 4.269531 -2.691406 3.40625 -4.109375 C 2.550781 -5.523438 2.125 -7.160156 2.125 -9.015625 C 2.125 -11.285156 2.710938 -13.25 3.890625 -14.90625 C 5.078125 -16.5625 6.773438 -17.84375 8.984375 -18.75 C 11.191406 -19.65625 13.832031 -20.109375 16.90625 -20.109375 C 18.1875 -20.109375 19.785156 -19.976562 21.703125 -19.71875 L 21.703125 -20.875 C 21.703125 -22.488281 21.113281 -23.753906 19.9375 -24.671875 C 18.769531 -25.585938 17.117188 -26.046875 14.984375 -26.046875 C 11.378906 -26.046875 8.738281 -24.875 7.0625 -22.53125 C 5.332031 -23.375 4.46875 -24.566406 4.46875 -26.109375 C 4.46875 -27.347656 4.960938 -28.445312 5.953125 -29.40625 C 6.953125 -30.363281 8.382812 -31.113281 10.25 -31.65625 C 12.125 -32.195312 14.363281 -32.46875 16.96875 -32.46875 C 21.757812 -32.46875 25.257812 -31.453125 27.46875 -29.421875 C 29.675781 -27.390625 30.78125 -24.175781 30.78125 -19.78125 C 30.78125 -19.738281 30.773438 -19.507812 30.765625 -19.09375 C 30.753906 -18.6875 30.738281 -18.097656 30.71875 -17.328125 C 30.695312 -16.554688 30.679688 -15.789062 30.671875 -15.03125 C 30.660156 -14.269531 30.65625 -13.523438 30.65625 -12.796875 C 30.65625 -7.671875 31.359375 -4.132812 32.765625 -2.1875 Z M 21.578125 -12.484375 L 21.578125 -14.546875 C 20.316406 -14.742188 19.164062 -14.84375 18.125 -14.84375 C 15.914062 -14.84375 14.21875 -14.425781 13.03125 -13.59375 C 11.851562 -12.769531 11.265625 -11.609375 11.265625 -10.109375 C 11.265625 -8.847656 11.671875 -7.851562 12.484375 -7.125 C 13.304688 -6.394531 14.4375 -6.03125 15.875 -6.03125 C 17.96875 -6.03125 19.890625 -6.898438 21.640625 -8.640625 C 21.617188 -8.992188 21.601562 -9.484375 21.59375 -10.109375 C 21.582031 -10.742188 21.578125 -11.535156 21.578125 -12.484375 Z M 21.578125 -12.484375 "/></g></g><g transform="translate(35.298028, 82.055826)"><g><path d="M 16.140625 -1.796875 C 13.265625 -0.597656 10.765625 0 8.640625 0 C 7.429688 0 6.488281 -0.1875 5.8125 -0.5625 C 5.132812 -0.9375 4.671875 -1.566406 4.421875 -2.453125 C 4.171875 -3.335938 4.046875 -4.550781 4.046875 -6.09375 C 4.046875 -6.738281 4.175781 -9.785156 4.4375 -15.234375 C 4.550781 -17.953125 4.640625 -20.585938 4.703125 -23.140625 C 4.765625 -25.691406 4.796875 -28.171875 4.796875 -30.578125 C 4.796875 -34.222656 4.664062 -37.175781 4.40625 -39.4375 C 4.144531 -41.707031 3.660156 -43.515625 2.953125 -44.859375 C 5.554688 -46.097656 8.050781 -46.71875 10.4375 -46.71875 C 12.09375 -46.71875 13.273438 -46.320312 13.984375 -45.53125 C 14.691406 -44.75 15.046875 -43.441406 15.046875 -41.609375 C 15.046875 -41.191406 15.015625 -40.265625 14.953125 -38.828125 C 14.898438 -37.398438 14.820312 -35.4375 14.71875 -32.9375 C 14.601562 -30.4375 14.507812 -28.039062 14.4375 -25.75 C 14.375 -23.46875 14.34375 -21.289062 14.34375 -19.21875 C 14.34375 -16.125 14.390625 -13.457031 14.484375 -11.21875 C 14.585938 -8.976562 14.769531 -7.09375 15.03125 -5.5625 C 15.300781 -4.039062 15.671875 -2.785156 16.140625 -1.796875 Z M 16.140625 -1.796875 "/></g></g><g transform="translate(54.449236, 82.055826)"><g><path d="M 21.078125 -21 C 21.273438 -19.320312 21.375 -18.144531 21.375 -17.46875 C 21.375 -13.25 19.328125 -11.140625 15.234375 -11.140625 C 14.265625 -11.140625 12.851562 -11.269531 11 -11.53125 C 10.070312 -11.644531 9.269531 -11.734375 8.59375 -11.796875 C 7.925781 -11.859375 7.367188 -11.890625 6.921875 -11.890625 C 5.085938 -11.890625 3.441406 -11.570312 1.984375 -10.9375 C 1.878906 -11.726562 1.796875 -12.421875 1.734375 -13.015625 C 1.679688 -13.617188 1.65625 -14.109375 1.65625 -14.484375 C 1.65625 -16.648438 2.164062 -18.242188 3.1875 -19.265625 C 4.21875 -20.296875 5.796875 -20.8125 7.921875 -20.8125 C 8.429688 -20.8125 9.035156 -20.773438 9.734375 -20.703125 C 10.441406 -20.640625 11.238281 -20.550781 12.125 -20.4375 C 13.894531 -20.175781 15.125 -20.046875 15.8125 -20.046875 C 17.988281 -20.046875 19.742188 -20.363281 21.078125 -21 Z M 21.078125 -21 "/></g></g><g transform="translate(77.477072, 82.055826)"><g><path d="M 32.765625 -2.1875 C 30.296875 -0.726562 28.054688 0 26.046875 0 C 23.585938 0 22.207031 -1.191406 21.90625 -3.578125 C 20.40625 -2.210938 18.90625 -1.207031 17.40625 -0.5625 C 15.914062 0.0703125 14.273438 0.390625 12.484375 0.390625 C 10.410156 0.390625 8.59375 -0.00390625 7.03125 -0.796875 C 5.476562 -1.585938 4.269531 -2.691406 3.40625 -4.109375 C 2.550781 -5.523438 2.125 -7.160156 2.125 -9.015625 C 2.125 -11.285156 2.710938 -13.25 3.890625 -14.90625 C 5.078125 -16.5625 6.773438 -17.84375 8.984375 -18.75 C 11.191406 -19.65625 13.832031 -20.109375 16.90625 -20.109375 C 18.1875 -20.109375 19.785156 -19.976562 21.703125 -19.71875 L 21.703125 -20.875 C 21.703125 -22.488281 21.113281 -23.753906 19.9375 -24.671875 C 18.769531 -25.585938 17.117188 -26.046875 14.984375 -26.046875 C 11.378906 -26.046875 8.738281 -24.875 7.0625 -22.53125 C 5.332031 -23.375 4.46875 -24.566406 4.46875 -26.109375 C 4.46875 -27.347656 4.960938 -28.445312 5.953125 -29.40625 C 6.953125 -30.363281 8.382812 -31.113281 10.25 -31.65625 C 12.125 -32.195312 14.363281 -32.46875 16.96875 -32.46875 C 21.757812 -32.46875 25.257812 -31.453125 27.46875 -29.421875 C 29.675781 -27.390625 30.78125 -24.175781 30.78125 -19.78125 C 30.78125 -19.738281 30.773438 -19.507812 30.765625 -19.09375 C 30.753906 -18.6875 30.738281 -18.097656 30.71875 -17.328125 C 30.695312 -16.554688 30.679688 -15.789062 30.671875 -15.03125 C 30.660156 -14.269531 30.65625 -13.523438 30.65625 -12.796875 C 30.65625 -7.671875 31.359375 -4.132812 32.765625 -2.1875 Z M 21.578125 -12.484375 L 21.578125 -14.546875 C 20.316406 -14.742188 19.164062 -14.84375 18.125 -14.84375 C 15.914062 -14.84375 14.21875 -14.425781 13.03125 -13.59375 C 11.851562 -12.769531 11.265625 -11.609375 11.265625 -10.109375 C 11.265625 -8.847656 11.671875 -7.851562 12.484375 -7.125 C 13.304688 -6.394531 14.4375 -6.03125 15.875 -6.03125 C 17.96875 -6.03125 19.890625 -6.898438 21.640625 -8.640625 C 21.617188 -8.992188 21.601562 -9.484375 21.59375 -10.109375 C 21.582031 -10.742188 21.578125 -11.535156 21.578125 -12.484375 Z M 21.578125 -12.484375 "/></g></g><g transform="translate(112.432996, 82.055826)"><g><path d="M 29.515625 -9.21875 C 30.359375 -7.03125 30.78125 -5.472656 30.78125 -4.546875 C 30.78125 -2.953125 30.316406 -1.796875 29.390625 -1.078125 C 28.460938 -0.359375 26.984375 0 24.953125 0 C 24.703125 0 24.09375 -0.0195312 23.125 -0.0625 C 22.15625 -0.101562 20.832031 -0.171875 19.15625 -0.265625 C 17.476562 -0.347656 15.859375 -0.40625 14.296875 -0.4375 C 12.742188 -0.476562 11.25 -0.5 9.8125 -0.5 C 8.59375 -0.5 7.46875 -0.445312 6.4375 -0.34375 C 5.414062 -0.25 4.484375 -0.113281 3.640625 0.0625 C 2.710938 -1.375 2.25 -2.742188 2.25 -4.046875 C 2.25 -5.410156 2.710938 -6.691406 3.640625 -7.890625 C 3.753906 -8.066406 4.484375 -8.894531 5.828125 -10.375 C 7.179688 -11.875 8.8125 -13.769531 10.71875 -16.0625 C 12.625 -18.363281 14.597656 -20.882812 16.640625 -23.625 C 14.648438 -23.757812 13.015625 -23.828125 11.734375 -23.828125 C 8.503906 -23.828125 5.894531 -23.414062 3.90625 -22.59375 C 3.050781 -25.03125 2.625 -26.65625 2.625 -27.46875 C 2.625 -28.988281 3.128906 -30.066406 4.140625 -30.703125 C 5.160156 -31.347656 6.804688 -31.671875 9.078125 -31.671875 C 9.648438 -31.671875 10.46875 -31.65625 11.53125 -31.625 C 12.59375 -31.59375 13.882812 -31.53125 15.40625 -31.4375 C 16.925781 -31.351562 18.300781 -31.285156 19.53125 -31.234375 C 20.757812 -31.191406 21.847656 -31.171875 22.796875 -31.171875 C 25.203125 -31.171875 27.078125 -31.382812 28.421875 -31.8125 C 29.441406 -30.195312 29.953125 -28.769531 29.953125 -27.53125 C 29.953125 -26.5625 29.71875 -25.664062 29.25 -24.84375 C 28.789062 -24.03125 28.066406 -23.050781 27.078125 -21.90625 C 27.046875 -21.882812 26.867188 -21.691406 26.546875 -21.328125 C 26.234375 -20.960938 25.769531 -20.425781 25.15625 -19.71875 C 23.914062 -18.320312 22.476562 -16.648438 20.84375 -14.703125 C 19.207031 -12.765625 17.484375 -10.632812 15.671875 -8.3125 C 17.265625 -8.226562 18.570312 -8.160156 19.59375 -8.109375 C 20.625 -8.066406 21.367188 -8.046875 21.828125 -8.046875 C 25.097656 -8.046875 27.660156 -8.4375 29.515625 -9.21875 Z M 29.515625 -9.21875 "/></g></g><g transform="translate(145.003303, 82.055826)"><g><path d="M 32.765625 -2.1875 C 30.296875 -0.726562 28.054688 0 26.046875 0 C 23.585938 0 22.207031 -1.191406 21.90625 -3.578125 C 20.40625 -2.210938 18.90625 -1.207031 17.40625 -0.5625 C 15.914062 0.0703125 14.273438 0.390625 12.484375 0.390625 C 10.410156 0.390625 8.59375 -0.00390625 7.03125 -0.796875 C 5.476562 -1.585938 4.269531 -2.691406 3.40625 -4.109375 C 2.550781 -5.523438 2.125 -7.160156 2.125 -9.015625 C 2.125 -11.285156 2.710938 -13.25 3.890625 -14.90625 C 5.078125 -16.5625 6.773438 -17.84375 8.984375 -18.75 C 11.191406 -19.65625 13.832031 -20.109375 16.90625 -20.109375 C 18.1875 -20.109375 19.785156 -19.976562 21.703125 -19.71875 L 21.703125 -20.875 C 21.703125 -22.488281 21.113281 -23.753906 19.9375 -24.671875 C 18.769531 -25.585938 17.117188 -26.046875 14.984375 -26.046875 C 11.378906 -26.046875 8.738281 -24.875 7.0625 -22.53125 C 5.332031 -23.375 4.46875 -24.566406 4.46875 -26.109375 C 4.46875 -27.347656 4.960938 -28.445312 5.953125 -29.40625 C 6.953125 -30.363281 8.382812 -31.113281 10.25 -31.65625 C 12.125 -32.195312 14.363281 -32.46875 16.96875 -32.46875 C 21.757812 -32.46875 25.257812 -31.453125 27.46875 -29.421875 C 29.675781 -27.390625 30.78125 -24.175781 30.78125 -19.78125 C 30.78125 -19.738281 30.773438 -19.507812 30.765625 -19.09375 C 30.753906 -18.6875 30.738281 -18.097656 30.71875 -17.328125 C 30.695312 -16.554688 30.679688 -15.789062 30.671875 -15.03125 C 30.660156 -14.269531 30.65625 -13.523438 30.65625 -12.796875 C 30.65625 -7.671875 31.359375 -4.132812 32.765625 -2.1875 Z M 21.578125 -12.484375 L 21.578125 -14.546875 C 20.316406 -14.742188 19.164062 -14.84375 18.125 -14.84375 C 15.914062 -14.84375 14.21875 -14.425781 13.03125 -13.59375 C 11.851562 -12.769531 11.265625 -11.609375 11.265625 -10.109375 C 11.265625 -8.847656 11.671875 -7.851562 12.484375 -7.125 C 13.304688 -6.394531 14.4375 -6.03125 15.875 -6.03125 C 17.96875 -6.03125 19.890625 -6.898438 21.640625 -8.640625 C 21.617188 -8.992188 21.601562 -9.484375 21.59375 -10.109375 C 21.582031 -10.742188 21.578125 -11.535156 21.578125 -12.484375 Z M 21.578125 -12.484375 "/></g></g><g transform="translate(179.959227, 82.055826)"><g><path d="M 13.390625 -28.296875 C 16.148438 -30.859375 19.351562 -32.140625 23 -32.140625 C 25.03125 -32.140625 26.882812 -31.800781 28.5625 -31.125 C 30.238281 -30.457031 31.679688 -29.492188 32.890625 -28.234375 C 34.109375 -26.972656 35.054688 -25.484375 35.734375 -23.765625 C 36.410156 -22.054688 36.75 -20.15625 36.75 -18.0625 C 36.75 -15.34375 36.28125 -12.851562 35.34375 -10.59375 C 34.40625 -8.34375 33.066406 -6.394531 31.328125 -4.75 C 29.597656 -3.101562 27.53125 -1.832031 25.125 -0.9375 C 22.726562 -0.0507812 20.070312 0.390625 17.15625 0.390625 C 11.988281 0.390625 7.34375 -0.84375 3.21875 -3.3125 C 3.570312 -6.34375 3.828125 -9.875 3.984375 -13.90625 C 4.148438 -17.9375 4.234375 -22.457031 4.234375 -27.46875 C 4.234375 -31.882812 4.09375 -35.484375 3.8125 -38.265625 C 3.539062 -41.046875 3.039062 -43.242188 2.3125 -44.859375 C 4.925781 -46.097656 7.289062 -46.71875 9.40625 -46.71875 C 11.0625 -46.71875 12.265625 -46.296875 13.015625 -45.453125 C 13.765625 -44.617188 14.140625 -43.273438 14.140625 -41.421875 C 14.140625 -41.066406 14.109375 -40.335938 14.046875 -39.234375 C 14.003906 -38.429688 13.941406 -37.40625 13.859375 -36.15625 C 13.785156 -34.914062 13.703125 -33.601562 13.609375 -32.21875 C 13.523438 -30.84375 13.453125 -29.535156 13.390625 -28.296875 Z M 13.3125 -9.28125 C 14.863281 -8.257812 16.535156 -7.75 18.328125 -7.75 C 19.910156 -7.75 21.332031 -8.132812 22.59375 -8.90625 C 23.851562 -9.6875 24.84375 -10.75 25.5625 -12.09375 C 26.28125 -13.4375 26.640625 -14.972656 26.640625 -16.703125 C 26.640625 -18.203125 26.347656 -19.515625 25.765625 -20.640625 C 25.179688 -21.765625 24.367188 -22.632812 23.328125 -23.25 C 22.285156 -23.875 21.082031 -24.1875 19.71875 -24.1875 C 17.613281 -24.1875 15.523438 -23.546875 13.453125 -22.265625 C 13.359375 -20.921875 13.289062 -19.554688 13.25 -18.171875 C 13.207031 -16.796875 13.1875 -15.410156 13.1875 -14.015625 C 13.1875 -12.953125 13.195312 -12.023438 13.21875 -11.234375 C 13.238281 -10.441406 13.269531 -9.789062 13.3125 -9.28125 Z M 13.3125 -9.28125 "/></g></g><g transform="translate(218.758646, 82.055826)"><g><path d="M 8.90625 -3.671875 C 8.90625 -4.804688 8.546875 -5.742188 7.828125 -6.484375 C 7.117188 -7.222656 6.253906 -7.59375 5.234375 -7.59375 C 4.109375 -7.59375 3.175781 -7.222656 2.4375 -6.484375 C 1.695312 -5.742188 1.328125 -4.804688 1.328125 -3.671875 C 1.328125 -2.660156 1.695312 -1.796875 2.4375 -1.078125 C 3.175781 -0.359375 4.109375 0 5.234375 0 C 5.921875 0 6.539062 -0.164062 7.09375 -0.5 C 7.644531 -0.832031 8.082031 -1.28125 8.40625 -1.84375 C 8.738281 -2.40625 8.90625 -3.015625 8.90625 -3.671875 Z M 8.90625 -3.671875 "/></g></g><g transform="translate(228.996921, 82.055826)"><g><path d="M 26.25 -9.875 C 27.613281 -8.175781 28.296875 -6.570312 28.296875 -5.0625 C 28.296875 -3.320312 27.429688 -1.925781 25.703125 -0.875 C 23.984375 0.175781 21.578125 0.703125 18.484375 0.703125 C 16.015625 0.703125 13.765625 0.347656 11.734375 -0.359375 C 9.703125 -1.066406 7.960938 -2.070312 6.515625 -3.375 C 5.066406 -4.675781 3.945312 -6.234375 3.15625 -8.046875 C 2.375 -9.859375 1.984375 -11.867188 1.984375 -14.078125 C 1.984375 -19.796875 4.226562 -24.535156 8.71875 -28.296875 C 10.238281 -29.554688 12.0625 -30.554688 14.1875 -31.296875 C 16.320312 -32.035156 18.53125 -32.40625 20.8125 -32.40625 C 23 -32.40625 24.664062 -32.023438 25.8125 -31.265625 C 26.957031 -30.503906 27.53125 -29.425781 27.53125 -28.03125 C 27.53125 -26.332031 26.691406 -24.609375 25.015625 -22.859375 C 23.617188 -23.660156 22.109375 -24.0625 20.484375 -24.0625 C 18.929688 -24.0625 17.515625 -23.671875 16.234375 -22.890625 C 14.953125 -22.117188 13.929688 -21.082031 13.171875 -19.78125 C 12.410156 -18.476562 12.03125 -17.007812 12.03125 -15.375 C 12.03125 -13.832031 12.335938 -12.484375 12.953125 -11.328125 C 13.578125 -10.179688 14.441406 -9.285156 15.546875 -8.640625 C 16.648438 -8.003906 17.929688 -7.6875 19.390625 -7.6875 C 21.742188 -7.6875 24.03125 -8.414062 26.25 -9.875 Z M 26.25 -9.875 "/></g></g><g transform="translate(258.452671, 82.055826)"><g><path d="M 38.140625 -16.703125 C 38.140625 -12.460938 36.800781 -8.773438 34.125 -5.640625 C 30.476562 -1.367188 25.675781 0.765625 19.71875 0.765625 C 17.113281 0.765625 14.726562 0.367188 12.5625 -0.421875 C 10.394531 -1.222656 8.523438 -2.347656 6.953125 -3.796875 C 5.390625 -5.242188 4.179688 -6.957031 3.328125 -8.9375 C 2.472656 -10.925781 2.046875 -13.113281 2.046875 -15.5 C 2.046875 -17.976562 2.503906 -20.257812 3.421875 -22.34375 C 4.335938 -24.4375 5.632812 -26.25 7.3125 -27.78125 C 9 -29.320312 10.984375 -30.515625 13.265625 -31.359375 C 15.554688 -32.210938 18.070312 -32.640625 20.8125 -32.640625 C 23.351562 -32.640625 25.679688 -32.242188 27.796875 -31.453125 C 29.921875 -30.671875 31.753906 -29.5625 33.296875 -28.125 C 34.847656 -26.695312 36.039062 -25.015625 36.875 -23.078125 C 37.71875 -21.140625 38.140625 -19.015625 38.140625 -16.703125 Z M 12.15625 -15.734375 C 12.15625 -14.148438 12.492188 -12.75 13.171875 -11.53125 C 13.847656 -10.3125 14.785156 -9.363281 15.984375 -8.6875 C 17.191406 -8.019531 18.585938 -7.6875 20.171875 -7.6875 C 21.679688 -7.6875 23.035156 -8.046875 24.234375 -8.765625 C 25.441406 -9.484375 26.398438 -10.476562 27.109375 -11.75 C 27.816406 -13.019531 28.171875 -14.457031 28.171875 -16.0625 C 28.171875 -17.75 27.835938 -19.203125 27.171875 -20.421875 C 26.503906 -21.648438 25.566406 -22.609375 24.359375 -23.296875 C 23.160156 -23.984375 21.765625 -24.328125 20.171875 -24.328125 C 18.609375 -24.328125 17.21875 -23.96875 16 -23.25 C 14.789062 -22.53125 13.847656 -21.53125 13.171875 -20.25 C 12.492188 -18.96875 12.15625 -17.460938 12.15625 -15.734375 Z M 12.15625 -15.734375 "/></g></g></g></g></g></svg>