<svg xmlns="http://www.w3.org/2000/svg" xmlns:xlink="http://www.w3.org/1999/xlink" width="500" zoomAndPan="magnify" viewBox="0 0 375 374.999991" height="500" preserveAspectRatio="xMidYMid meet" version="1.0"><path fill="#020202" d="M 190.675781 27.96875 C 100.179688 26.460938 27.9375 99.148438 28.082031 187.335938 C 28.226562 273.445312 97.519531 345.773438 185.933594 345.484375 C 262.988281 348.210938 346.15625 286.503906 346.730469 187.910156 C 347.304688 95.132812 273.484375 29.40625 190.675781 27.96875 Z M 335.804688 192.074219 C 333.289062 273.730469 266.152344 332.570312 192.546875 334.578125 C 104.058594 337.019531 39.726562 267.34375 39.152344 187.335938 C 38.503906 102.234375 110.167969 37.941406 187.800781 39.378906 C 266.4375 38.160156 338.464844 103.886719 335.804688 192.074219 Z M 191.683594 92.621094 C 196.210938 92.691406 198.296875 94.703125 198.296875 99.222656 C 198.367188 111.132812 198.441406 123.042969 198.441406 135.027344 C 198.441406 136.894531 198.441406 138.832031 198.441406 140.695312 C 198.511719 140.695312 198.511719 140.695312 198.582031 140.695312 C 198.582031 153.757812 198.726562 166.816406 198.511719 179.875 C 198.441406 184.109375 199.878906 187.195312 202.96875 190.0625 C 215.476562 201.761719 227.839844 213.671875 240.273438 225.511719 C 241.066406 226.300781 241.925781 227.089844 242.71875 227.949219 C 246.527344 231.96875 246.886719 234.195312 244.515625 238.929688 C 242.070312 243.808594 238.621094 246.105469 233.949219 245.316406 C 232.007812 245.027344 229.921875 243.953125 228.484375 242.660156 C 213.101562 228.453125 197.863281 214.101562 182.554688 199.824219 C 179.390625 196.878906 177.664062 193.292969 177.664062 188.773438 C 177.59375 159.351562 177.449219 129.863281 177.304688 100.441406 C 177.304688 94.773438 179.320312 92.765625 184.925781 92.691406 C 187.15625 92.621094 189.382812 92.546875 191.683594 92.621094 Z M 69.054688 192.71875 C 66.105469 192.863281 63.160156 192.71875 60.285156 192.71875 C 60.285156 192.71875 60.285156 192.789062 60.285156 192.789062 C 57.410156 192.789062 54.605469 192.863281 51.730469 192.789062 C 49.070312 192.71875 47.488281 191.070312 47.273438 188.34375 C 47.058594 185.398438 48.496094 183.03125 51.011719 182.886719 C 57.121094 182.601562 63.304688 182.53125 69.484375 182.746094 C 72.214844 182.816406 74.15625 185.398438 74.011719 187.984375 C 73.871094 190.925781 72.214844 192.574219 69.054688 192.71875 Z M 187.800781 48.417969 C 190.53125 48.417969 192.328125 49.925781 192.472656 52.652344 C 192.617188 55.453125 192.472656 58.320312 192.472656 61.121094 C 192.472656 61.121094 192.472656 61.121094 192.546875 61.121094 C 192.546875 63.847656 192.617188 66.574219 192.546875 69.300781 C 192.472656 72.386719 190.460938 74.179688 187.441406 74.179688 C 184.636719 74.179688 182.554688 72.386719 182.480469 69.445312 C 182.339844 63.773438 182.339844 58.105469 182.480469 52.4375 C 182.554688 49.566406 184.277344 48.417969 187.800781 48.417969 Z M 241.496094 83.21875 C 244.445312 78.339844 247.460938 73.535156 250.480469 68.726562 C 252.351562 65.785156 254.722656 65.066406 257.167969 66.574219 C 259.464844 68.007812 260.257812 71.164062 258.675781 73.820312 C 255.871094 78.628906 252.996094 83.4375 249.90625 88.101562 C 249.042969 89.390625 247.390625 90.109375 246.742188 90.613281 C 241.710938 90.539062 239.410156 86.664062 241.496094 83.21875 Z M 309.566406 253.496094 C 309.566406 258.589844 306.046875 260.742188 302.378906 258.589844 C 297.203125 255.648438 292.101562 252.5625 286.996094 249.476562 C 284.265625 247.828125 283.835938 245.746094 285.414062 243.019531 C 286.925781 240.363281 289.152344 239.648438 291.886719 241.226562 C 297.203125 244.3125 302.453125 247.539062 307.625 250.839844 C 308.707031 251.558594 309.207031 252.992188 309.566406 253.496094 Z M 306.117188 181.8125 C 311.4375 181.667969 316.683594 181.597656 322.003906 181.667969 C 325.453125 181.667969 327.609375 183.820312 327.609375 186.761719 C 327.609375 189.777344 325.597656 191.5 321.859375 191.5 C 319.34375 191.5 316.753906 191.5 314.167969 191.5 C 314.167969 191.5 314.167969 191.570312 314.167969 191.570312 C 311.582031 191.570312 309.066406 191.644531 306.476562 191.570312 C 303.027344 191.5 300.941406 189.707031 300.941406 186.835938 C 300.941406 183.605469 302.59375 181.882812 306.117188 181.8125 Z M 89.253906 132.015625 C 87.816406 133.808594 85.945312 134.453125 84.003906 133.378906 C 78.398438 130.21875 72.933594 126.917969 67.472656 123.546875 C 65.675781 122.398438 65.101562 120.390625 66.035156 118.523438 C 66.824219 116.875 68.261719 115.582031 69.339844 114.289062 C 70.777344 114.863281 71.570312 115.007812 72.214844 115.367188 C 77.464844 118.378906 82.710938 121.394531 87.816406 124.550781 C 90.832031 126.34375 91.335938 129.429688 89.253906 132.015625 Z M 90.472656 246.390625 C 89.972656 247.039062 89.179688 248.472656 87.957031 249.261719 C 82.855469 252.492188 77.535156 255.503906 72.359375 258.660156 C 70.277344 259.953125 68.480469 259.953125 66.824219 257.945312 C 65.101562 255.792969 65.101562 252.921875 66.96875 251.199219 C 68.046875 250.195312 69.414062 249.40625 70.707031 248.617188 C 74.804688 246.105469 78.902344 243.523438 83.140625 241.082031 C 86.664062 239.144531 90.402344 241.367188 90.472656 246.390625 Z M 285.34375 131.511719 C 283.761719 128.929688 284.121094 126.417969 286.636719 124.839844 C 291.742188 121.609375 296.917969 118.453125 302.234375 115.511719 C 305.757812 113.5 309.136719 115.726562 309.207031 120.75 C 308.707031 121.394531 307.914062 123.042969 306.621094 123.835938 C 301.660156 126.992188 296.558594 129.933594 291.527344 132.875 C 289.007812 134.308594 286.78125 133.734375 285.34375 131.511719 Z M 258.386719 301.070312 C 258.820312 301.859375 259.105469 302.792969 259.324219 303.367188 C 259.035156 306.308594 257.453125 307.8125 255.152344 308.601562 C 252.996094 309.320312 251.488281 308.246094 250.410156 306.449219 C 247.460938 301.644531 244.445312 296.835938 241.566406 291.957031 C 239.84375 289.015625 240.488281 286.503906 243.078125 284.851562 C 245.664062 283.273438 248.039062 283.847656 249.835938 286.71875 C 252.78125 291.453125 255.585938 296.261719 258.386719 301.070312 Z M 134.96875 287.792969 C 134.105469 289.660156 133.675781 290.953125 133.027344 292.027344 C 130.222656 296.765625 127.347656 301.429688 124.472656 306.09375 C 122.820312 308.820312 120.808594 309.394531 118.292969 308.101562 C 115.847656 306.738281 114.984375 304.15625 116.421875 301.570312 C 119.371094 296.332031 122.460938 291.09375 125.625 285.929688 C 126.847656 283.847656 129.003906 283.203125 131.085938 284.277344 C 132.597656 285.066406 133.675781 286.644531 134.96875 287.792969 Z M 192.617188 312.765625 C 192.617188 315.492188 192.6875 318.21875 192.617188 321.015625 C 192.546875 324.175781 190.75 325.753906 187.441406 325.753906 C 184.277344 325.753906 182.699219 324.316406 182.625 321.089844 C 182.480469 315.707031 182.480469 310.324219 182.554688 304.945312 C 182.625 301.429688 184.566406 299.5625 187.730469 299.5625 C 190.964844 299.5625 192.472656 301.355469 192.546875 305.160156 C 192.617188 307.671875 192.617188 310.253906 192.617188 312.765625 Z M 115.921875 72.746094 C 114.625 70.449219 115.992188 67.863281 118.4375 66.574219 C 120.808594 65.425781 122.675781 66.070312 124.042969 68.222656 C 127.132812 73.175781 130.222656 78.199219 133.316406 83.21875 C 133.746094 83.9375 133.890625 84.800781 134.464844 86.378906 C 133.316406 87.527344 132.164062 89.175781 130.65625 90.039062 C 128.929688 91.042969 126.773438 90.613281 125.625 88.816406 C 122.246094 83.578125 118.9375 78.269531 115.921875 72.746094 Z M 115.921875 72.746094 " fill-opacity="1" fill-rule="nonzero"/></svg>