<svg xmlns="http://www.w3.org/2000/svg" xmlns:xlink="http://www.w3.org/1999/xlink" width="500" zoomAndPan="magnify" viewBox="0 0 375 374.999991" height="500" preserveAspectRatio="xMidYMid meet" version="1.0"><defs><clipPath id="575f8eece8"><path d="M 149 287 L 234 287 L 234 359.199219 L 149 359.199219 Z M 149 287 " clip-rule="nonzero"/></clipPath><clipPath id="f992be6377"><path d="M 12.785156 274 L 53 274 L 53 350 L 12.785156 350 Z M 12.785156 274 " clip-rule="nonzero"/></clipPath><clipPath id="301d3f901b"><path d="M 152 15.699219 L 231 15.699219 L 231 91 L 152 91 Z M 152 15.699219 " clip-rule="nonzero"/></clipPath><clipPath id="6937a41e1b"><path d="M 170 15.699219 L 197 15.699219 L 197 42 L 170 42 Z M 170 15.699219 " clip-rule="nonzero"/></clipPath></defs><path fill="#000000" d="M 191.644531 204.609375 C 180.050781 204.609375 170.660156 195.222656 170.660156 183.632812 C 170.660156 172.046875 180.050781 162.660156 191.644531 162.660156 C 203.238281 162.660156 212.628906 172.046875 212.628906 183.632812 C 212.628906 195.222656 203.238281 204.609375 191.644531 204.609375 Z M 191.644531 171.460938 C 184.96875 171.460938 179.464844 176.886719 179.464844 183.632812 C 179.464844 190.308594 184.894531 195.808594 191.644531 195.808594 C 198.320312 195.808594 203.824219 190.382812 203.824219 183.632812 C 203.824219 176.886719 198.394531 171.460938 191.644531 171.460938 Z M 191.644531 171.460938 " fill-opacity="1" fill-rule="nonzero"/><path fill="#000000" d="M 191.644531 240.101562 C 190.765625 240.101562 189.882812 239.808594 189.078125 239.296875 C 188.636719 239 178.363281 231.59375 168.019531 221.328125 C 153.492188 206.953125 146.152344 194.269531 146.152344 183.632812 C 146.152344 158.554688 166.550781 138.167969 191.644531 138.167969 C 216.738281 138.167969 237.136719 158.554688 237.136719 183.632812 C 237.136719 194.269531 229.796875 206.953125 215.269531 221.328125 C 204.851562 231.667969 194.652344 239 194.210938 239.296875 C 193.480469 239.808594 192.523438 240.101562 191.644531 240.101562 Z M 191.644531 146.96875 C 171.394531 146.96875 154.957031 163.394531 154.957031 183.632812 C 154.957031 199.179688 179.390625 220.960938 191.644531 230.203125 C 203.898438 220.960938 228.332031 199.179688 228.332031 183.632812 C 228.332031 163.394531 211.894531 146.96875 191.644531 146.96875 Z M 191.644531 146.96875 " fill-opacity="1" fill-rule="nonzero"/><g clip-path="url(#575f8eece8)"><path fill="#000000" d="M 229.210938 359.199219 L 154.078125 359.199219 C 151.65625 359.199219 149.675781 357.21875 149.675781 354.796875 L 149.675781 291.65625 C 149.675781 289.234375 151.65625 287.257812 154.078125 287.257812 L 229.210938 287.257812 C 231.632812 287.257812 233.613281 289.234375 233.613281 291.65625 L 233.613281 354.796875 C 233.613281 357.21875 231.632812 359.199219 229.210938 359.199219 Z M 158.480469 350.398438 L 224.808594 350.398438 L 224.808594 296.054688 L 158.480469 296.054688 Z M 158.480469 350.398438 " fill-opacity="1" fill-rule="nonzero"/></g><path fill="#000000" d="M 213.875 310.210938 C 211.453125 310.210938 209.472656 308.230469 209.472656 305.808594 L 209.472656 278.015625 C 209.472656 271.855469 204.484375 266.867188 198.320312 266.867188 L 191.644531 266.867188 C 189.222656 266.867188 187.242188 264.890625 187.242188 262.46875 C 187.242188 260.050781 189.222656 258.070312 191.644531 258.070312 L 198.320312 258.070312 C 209.328125 258.070312 218.277344 267.015625 218.277344 278.015625 L 218.277344 305.808594 C 218.277344 308.230469 216.296875 310.210938 213.875 310.210938 Z M 213.875 310.210938 " fill-opacity="1" fill-rule="nonzero"/><path fill="#000000" d="M 191.644531 296.054688 C 189.222656 296.054688 187.242188 294.078125 187.242188 291.65625 L 187.242188 277.796875 C 187.242188 275.375 189.222656 273.394531 191.644531 273.394531 C 194.066406 273.394531 196.046875 275.375 196.046875 277.796875 L 196.046875 291.65625 C 196.046875 294.078125 194.066406 296.054688 191.644531 296.054688 Z M 191.644531 296.054688 " fill-opacity="1" fill-rule="nonzero"/><path fill="#000000" d="M 191.644531 345.996094 C 189.222656 345.996094 187.242188 344.015625 187.242188 341.597656 C 187.242188 339.175781 189.222656 337.195312 191.644531 337.195312 C 198.613281 337.195312 204.191406 331.550781 204.191406 324.65625 C 204.191406 320.402344 202.0625 316.445312 198.394531 314.097656 C 196.339844 312.777344 195.753906 310.0625 197.074219 308.011719 C 198.394531 305.957031 201.109375 305.371094 203.164062 306.691406 C 209.328125 310.648438 212.921875 317.398438 212.921875 324.65625 C 213.070312 336.390625 203.457031 345.996094 191.644531 345.996094 Z M 191.644531 345.996094 " fill-opacity="1" fill-rule="nonzero"/><path fill="#000000" d="M 169.414062 310.210938 C 166.992188 310.210938 165.011719 308.230469 165.011719 305.808594 L 165.011719 278.015625 C 165.011719 267.015625 173.960938 258.070312 184.96875 258.070312 L 191.644531 258.070312 C 194.066406 258.070312 196.046875 260.050781 196.046875 262.46875 C 196.046875 264.890625 194.066406 266.867188 191.644531 266.867188 L 184.96875 266.867188 C 178.804688 266.867188 173.816406 271.855469 173.816406 278.015625 L 173.816406 305.808594 C 173.816406 308.230469 171.835938 310.210938 169.414062 310.210938 Z M 169.414062 310.210938 " fill-opacity="1" fill-rule="nonzero"/><path fill="#000000" d="M 191.644531 296.054688 C 189.222656 296.054688 187.242188 294.078125 187.242188 291.65625 L 187.242188 277.796875 C 187.242188 275.375 189.222656 273.394531 191.644531 273.394531 C 194.066406 273.394531 196.046875 275.375 196.046875 277.796875 L 196.046875 291.65625 C 196.046875 294.078125 194.066406 296.054688 191.644531 296.054688 Z M 191.644531 296.054688 " fill-opacity="1" fill-rule="nonzero"/><path fill="#000000" d="M 191.644531 345.996094 C 179.832031 345.996094 170.292969 336.390625 170.292969 324.65625 C 170.292969 317.398438 173.960938 310.648438 180.050781 306.691406 C 182.105469 305.371094 184.820312 305.957031 186.140625 308.011719 C 187.460938 310.0625 186.875 312.777344 184.820312 314.097656 C 181.226562 316.445312 179.023438 320.402344 179.023438 324.65625 C 179.023438 331.625 184.675781 337.195312 191.570312 337.195312 C 193.992188 337.195312 195.972656 339.175781 195.972656 341.597656 C 195.972656 344.015625 194.066406 345.996094 191.644531 345.996094 Z M 191.644531 345.996094 " fill-opacity="1" fill-rule="nonzero"/><path fill="#000000" d="M 191.644531 331.625 C 187.753906 331.625 184.601562 328.46875 184.601562 324.582031 C 184.601562 320.695312 187.753906 317.542969 191.644531 317.542969 C 195.535156 317.542969 198.6875 320.695312 198.6875 324.582031 C 198.6875 328.46875 195.535156 331.625 191.644531 331.625 Z M 191.644531 322.824219 C 190.691406 322.824219 189.882812 323.628906 189.882812 324.582031 C 189.882812 325.535156 190.691406 326.34375 191.644531 326.34375 C 192.597656 326.34375 193.40625 325.535156 193.40625 324.582031 C 193.40625 323.628906 192.671875 322.824219 191.644531 322.824219 Z M 191.644531 322.824219 " fill-opacity="1" fill-rule="nonzero"/><path fill="#000000" d="M 242.34375 321.429688 C 240.804688 321.429688 239.335938 320.625 238.527344 319.230469 C 237.28125 317.101562 238.015625 314.464844 240.070312 313.214844 L 256.136719 303.757812 C 258.265625 302.511719 260.90625 303.242188 262.15625 305.296875 C 263.402344 307.351562 262.667969 310.0625 260.613281 311.308594 L 244.546875 320.769531 C 243.886719 321.210938 243.078125 321.429688 242.34375 321.429688 Z M 242.34375 321.429688 " fill-opacity="1" fill-rule="nonzero"/><path fill="#000000" d="M 266.410156 266.796875 C 265.238281 266.796875 264.136719 266.355469 263.253906 265.476562 L 234.492188 236.140625 C 232.804688 234.382812 232.804688 231.59375 234.566406 229.910156 C 236.328125 228.222656 239.117188 228.222656 240.804688 229.980469 L 269.566406 259.316406 C 271.253906 261.074219 271.253906 263.863281 269.492188 265.550781 C 268.613281 266.355469 267.511719 266.796875 266.410156 266.796875 Z M 266.410156 266.796875 " fill-opacity="1" fill-rule="nonzero"/><path fill="#000000" d="M 237.648438 240.910156 C 233.320312 240.910156 229.796875 237.386719 229.796875 233.0625 C 229.796875 228.734375 233.320312 225.214844 237.648438 225.214844 C 241.976562 225.214844 245.5 228.734375 245.5 233.0625 C 245.5 237.386719 241.90625 240.910156 237.648438 240.910156 Z M 237.648438 232.109375 C 237.136719 232.109375 236.695312 232.546875 236.695312 233.0625 C 236.695312 233.574219 237.136719 234.015625 237.648438 234.015625 C 238.164062 234.015625 238.601562 233.574219 238.601562 233.0625 C 238.601562 232.546875 238.164062 232.109375 237.648438 232.109375 Z M 237.648438 232.109375 " fill-opacity="1" fill-rule="nonzero"/><path fill="#000000" d="M 286.441406 188.035156 L 250.34375 188.035156 C 247.921875 188.035156 245.941406 186.054688 245.941406 183.632812 C 245.941406 181.214844 247.921875 179.234375 250.34375 179.234375 L 286.441406 179.234375 C 288.863281 179.234375 290.84375 181.214844 290.84375 183.632812 C 290.84375 186.054688 288.863281 188.035156 286.441406 188.035156 Z M 286.441406 188.035156 " fill-opacity="1" fill-rule="nonzero"/><path fill="#000000" d="M 237.648438 146.96875 C 236.476562 146.96875 235.300781 146.527344 234.492188 145.574219 C 232.804688 143.8125 232.878906 141.027344 234.640625 139.339844 L 261.054688 114.113281 C 262.816406 112.425781 265.605469 112.5 267.292969 114.257812 C 268.980469 116.019531 268.90625 118.804688 267.144531 120.492188 L 240.730469 145.71875 C 239.777344 146.527344 238.75 146.96875 237.648438 146.96875 Z M 237.648438 146.96875 " fill-opacity="1" fill-rule="nonzero"/><path fill="#000000" d="M 237.648438 150.339844 C 233.320312 150.339844 229.796875 146.820312 229.796875 142.492188 C 229.796875 138.167969 233.320312 134.648438 237.648438 134.648438 C 241.976562 134.648438 245.5 138.167969 245.5 142.492188 C 245.5 146.820312 241.90625 150.339844 237.648438 150.339844 Z M 237.648438 141.539062 C 237.136719 141.539062 236.695312 141.980469 236.695312 142.492188 C 236.695312 143.007812 237.136719 143.445312 237.648438 143.445312 C 238.164062 143.445312 238.601562 143.007812 238.601562 142.492188 C 238.601562 141.980469 238.164062 141.539062 237.648438 141.539062 Z M 237.648438 141.539062 " fill-opacity="1" fill-rule="nonzero"/><path fill="#000000" d="M 191.644531 128.632812 C 189.222656 128.632812 187.242188 126.652344 187.242188 124.234375 L 187.242188 103.550781 C 187.242188 101.132812 189.222656 99.152344 191.644531 99.152344 C 194.066406 99.152344 196.046875 101.132812 196.046875 103.550781 L 196.046875 124.234375 C 196.046875 126.652344 194.066406 128.632812 191.644531 128.632812 Z M 191.644531 128.632812 " fill-opacity="1" fill-rule="nonzero"/><path fill="#000000" d="M 140.945312 321.429688 C 140.210938 321.429688 139.402344 321.210938 138.742188 320.84375 L 122.75 311.382812 C 120.621094 310.136719 119.960938 307.421875 121.207031 305.371094 C 122.453125 303.316406 125.167969 302.582031 127.222656 303.828125 L 143.292969 313.289062 C 145.421875 314.535156 146.082031 317.25 144.832031 319.304688 C 143.953125 320.625 142.484375 321.429688 140.945312 321.429688 Z M 140.945312 321.429688 " fill-opacity="1" fill-rule="nonzero"/><path fill="#000000" d="M 116.953125 266.796875 C 115.851562 266.796875 114.75 266.355469 113.871094 265.550781 C 112.109375 263.863281 112.109375 261.074219 113.796875 259.316406 L 142.558594 229.980469 C 144.246094 228.222656 147.035156 228.222656 148.796875 229.910156 C 150.554688 231.59375 150.554688 234.382812 148.867188 236.140625 L 120.105469 265.476562 C 119.226562 266.355469 118.050781 266.796875 116.953125 266.796875 Z M 116.953125 266.796875 " fill-opacity="1" fill-rule="nonzero"/><path fill="#000000" d="M 145.714844 240.910156 C 141.382812 240.910156 137.863281 237.386719 137.863281 233.0625 C 137.863281 228.734375 141.382812 225.214844 145.714844 225.214844 C 150.042969 225.214844 153.5625 228.734375 153.5625 233.0625 C 153.5625 237.386719 150.042969 240.910156 145.714844 240.910156 Z M 145.714844 232.109375 C 145.199219 232.109375 144.761719 232.546875 144.761719 233.0625 C 144.761719 233.574219 145.199219 234.015625 145.714844 234.015625 C 146.226562 234.015625 146.667969 233.574219 146.667969 233.0625 C 146.667969 232.546875 146.226562 232.109375 145.714844 232.109375 Z M 145.714844 232.109375 " fill-opacity="1" fill-rule="nonzero"/><path fill="#000000" d="M 132.945312 188.035156 L 96.847656 188.035156 C 94.425781 188.035156 92.445312 186.054688 92.445312 183.632812 C 92.445312 181.214844 94.425781 179.234375 96.847656 179.234375 L 132.945312 179.234375 C 135.367188 179.234375 137.347656 181.214844 137.347656 183.632812 C 137.347656 186.054688 135.367188 188.035156 132.945312 188.035156 Z M 132.945312 188.035156 " fill-opacity="1" fill-rule="nonzero"/><path fill="#000000" d="M 145.714844 146.96875 C 144.613281 146.96875 143.511719 146.527344 142.707031 145.71875 L 116.292969 120.492188 C 114.53125 118.804688 114.457031 116.019531 116.144531 114.257812 C 117.832031 112.5 120.621094 112.425781 122.382812 114.113281 L 148.796875 139.339844 C 150.554688 141.027344 150.628906 143.8125 148.941406 145.574219 C 147.988281 146.527344 146.886719 146.96875 145.714844 146.96875 Z M 145.714844 146.96875 " fill-opacity="1" fill-rule="nonzero"/><path fill="#000000" d="M 145.714844 150.339844 C 141.382812 150.339844 137.863281 146.820312 137.863281 142.492188 C 137.863281 138.167969 141.382812 134.648438 145.714844 134.648438 C 150.042969 134.648438 153.5625 138.167969 153.5625 142.492188 C 153.5625 146.820312 150.042969 150.339844 145.714844 150.339844 Z M 145.714844 141.539062 C 145.199219 141.539062 144.761719 141.980469 144.761719 142.492188 C 144.761719 143.007812 145.199219 143.445312 145.714844 143.445312 C 146.226562 143.445312 146.667969 143.007812 146.667969 142.492188 C 146.667969 141.980469 146.226562 141.539062 145.714844 141.539062 Z M 145.714844 141.539062 " fill-opacity="1" fill-rule="nonzero"/><path fill="#000000" d="M 191.644531 128.632812 C 189.222656 128.632812 187.242188 126.652344 187.242188 124.234375 L 187.242188 103.550781 C 187.242188 101.132812 189.222656 99.152344 191.644531 99.152344 C 194.066406 99.152344 196.046875 101.132812 196.046875 103.550781 L 196.046875 124.234375 C 196.046875 126.652344 194.066406 128.632812 191.644531 128.632812 Z M 191.644531 128.632812 " fill-opacity="1" fill-rule="nonzero"/><path fill="#000000" d="M 309.113281 105.460938 L 260.761719 105.460938 C 258.339844 105.460938 256.359375 103.480469 256.359375 101.058594 L 256.359375 90.644531 C 256.359375 86.027344 258.558594 81.699219 262.300781 79.058594 L 288.570312 60.285156 C 290.550781 58.890625 293.265625 59.332031 294.730469 61.3125 C 296.125 63.292969 295.6875 66.003906 293.703125 67.472656 L 267.4375 86.246094 C 266.042969 87.273438 265.164062 88.960938 265.164062 90.644531 L 265.164062 96.734375 L 309.113281 96.734375 C 311.535156 96.734375 313.515625 98.710938 313.515625 101.132812 C 313.515625 103.550781 311.535156 105.460938 309.113281 105.460938 Z M 309.113281 105.460938 " fill-opacity="1" fill-rule="nonzero"/><path fill="#000000" d="M 309.113281 85 C 297.445312 85 287.980469 75.539062 287.980469 63.878906 C 287.980469 52.21875 297.445312 42.757812 309.113281 42.757812 C 320.777344 42.757812 330.246094 52.21875 330.246094 63.878906 C 330.246094 75.539062 320.777344 85 309.113281 85 Z M 309.113281 51.484375 C 302.289062 51.484375 296.785156 56.984375 296.785156 63.804688 C 296.785156 70.625 302.289062 76.125 309.113281 76.125 C 315.9375 76.125 321.441406 70.625 321.441406 63.804688 C 321.441406 56.984375 315.863281 51.484375 309.113281 51.484375 Z M 309.113281 51.484375 " fill-opacity="1" fill-rule="nonzero"/><path fill="#000000" d="M 268.390625 105.460938 C 267.4375 105.460938 266.410156 105.164062 265.601562 104.433594 C 263.695312 102.894531 263.476562 100.105469 265.015625 98.273438 L 275.070312 86.027344 C 276.609375 84.117188 279.398438 83.898438 281.230469 85.4375 C 283.140625 86.980469 283.359375 89.765625 281.820312 91.597656 L 271.839844 103.847656 C 270.960938 104.945312 269.640625 105.460938 268.390625 105.460938 Z M 268.390625 105.460938 " fill-opacity="1" fill-rule="nonzero"/><path fill="#000000" d="M 357.464844 105.460938 L 309.113281 105.460938 C 306.691406 105.460938 304.710938 103.480469 304.710938 101.058594 C 304.710938 98.640625 306.691406 96.660156 309.113281 96.660156 L 353.0625 96.660156 L 353.0625 90.644531 C 353.0625 88.886719 352.183594 87.199219 350.789062 86.246094 L 324.519531 67.472656 C 322.539062 66.078125 322.101562 63.292969 323.492188 61.3125 C 324.886719 59.332031 327.675781 58.890625 329.65625 60.285156 L 355.925781 79.058594 C 359.667969 81.699219 361.867188 86.027344 361.867188 90.644531 L 361.867188 101.132812 C 361.867188 103.550781 359.886719 105.460938 357.464844 105.460938 Z M 357.464844 105.460938 " fill-opacity="1" fill-rule="nonzero"/><path fill="#000000" d="M 349.761719 105.460938 C 348.515625 105.460938 347.191406 104.871094 346.386719 103.847656 L 336.335938 91.597656 C 334.792969 89.691406 335.085938 86.980469 336.921875 85.4375 C 338.828125 83.898438 341.542969 84.191406 343.085938 86.027344 L 353.136719 98.273438 C 354.675781 100.179688 354.382812 102.894531 352.550781 104.433594 C 351.742188 105.164062 350.714844 105.460938 349.761719 105.460938 Z M 349.761719 105.460938 " fill-opacity="1" fill-rule="nonzero"/><path fill="#000000" d="M 316.890625 132.59375 C 315.351562 132.59375 313.808594 131.785156 313 130.320312 L 307.132812 119.464844 C 305.957031 117.339844 306.765625 114.625 308.894531 113.527344 C 311.019531 112.351562 313.734375 113.160156 314.835938 115.285156 L 320.707031 126.140625 C 321.878906 128.265625 321.074219 130.980469 318.945312 132.078125 C 318.285156 132.445312 317.550781 132.59375 316.890625 132.59375 Z M 316.890625 132.59375 " fill-opacity="1" fill-rule="nonzero"/><path fill="#000000" d="M 260.761719 63.4375 C 259.660156 63.4375 259.21875 63.4375 240.804688 55.738281 C 238.527344 54.785156 237.503906 52.21875 238.457031 50.019531 C 239.410156 47.746094 241.976562 46.71875 244.179688 47.671875 C 251.734375 50.824219 260.175781 54.273438 261.714844 54.785156 C 263.695312 55.226562 265.164062 56.984375 265.164062 59.113281 C 265.164062 61.457031 263.183594 63.4375 260.761719 63.4375 Z M 260.761719 54.636719 Z M 260.761719 54.636719 Z M 260.761719 54.636719 " fill-opacity="1" fill-rule="nonzero"/><path fill="#000000" d="M 66.472656 132.59375 C 65.738281 132.59375 65.078125 132.445312 64.34375 132.078125 C 62.214844 130.90625 61.410156 128.265625 62.582031 126.140625 L 68.453125 115.285156 C 69.625 113.160156 72.269531 112.351562 74.394531 113.527344 C 76.523438 114.699219 77.332031 117.339844 76.15625 119.464844 L 70.289062 130.320312 C 69.554688 131.785156 68.011719 132.59375 66.472656 132.59375 Z M 66.472656 132.59375 " fill-opacity="1" fill-rule="nonzero"/><path fill="#000000" d="M 122.601562 63.4375 C 120.179688 63.4375 118.199219 61.457031 118.199219 59.039062 C 118.199219 56.910156 119.667969 55.226562 121.648438 54.710938 C 123.1875 54.199219 131.625 50.75 139.183594 47.597656 C 141.457031 46.644531 144.027344 47.746094 144.90625 49.945312 C 145.859375 52.21875 144.761719 54.785156 142.558594 55.664062 C 124.070312 63.4375 123.628906 63.4375 122.601562 63.4375 Z M 122.601562 54.636719 Z M 122.601562 54.636719 Z M 122.601562 54.636719 " fill-opacity="1" fill-rule="nonzero"/><path fill="#000000" d="M 345.210938 234.089844 L 317.699219 234.089844 C 308.527344 234.089844 301.117188 226.683594 301.117188 217.515625 L 301.117188 158.1875 C 301.117188 149.019531 308.527344 141.613281 317.699219 141.613281 L 345.210938 141.613281 C 354.382812 141.613281 361.792969 149.019531 361.792969 158.1875 L 361.792969 217.515625 C 361.792969 226.609375 354.382812 234.089844 345.210938 234.089844 Z M 317.699219 150.339844 C 313.367188 150.339844 309.921875 153.859375 309.921875 158.113281 L 309.921875 217.515625 C 309.921875 221.839844 313.441406 225.289062 317.699219 225.289062 L 345.210938 225.289062 C 349.542969 225.289062 352.988281 221.769531 352.988281 217.515625 L 352.988281 158.1875 C 352.988281 153.859375 349.46875 150.414062 345.210938 150.414062 L 317.699219 150.414062 Z M 317.699219 150.339844 " fill-opacity="1" fill-rule="nonzero"/><path fill="#000000" d="M 357.390625 218.394531 L 305.519531 218.394531 C 303.097656 218.394531 301.117188 216.414062 301.117188 213.996094 L 301.117188 162.074219 C 301.117188 159.652344 303.097656 157.671875 305.519531 157.671875 L 357.464844 157.671875 C 359.886719 157.671875 361.867188 159.652344 361.867188 162.074219 L 361.867188 213.996094 C 361.792969 216.488281 359.8125 218.394531 357.390625 218.394531 Z M 309.921875 209.59375 L 353.0625 209.59375 L 353.0625 166.472656 L 309.921875 166.472656 Z M 309.921875 209.59375 " fill-opacity="1" fill-rule="nonzero"/><path fill="#000000" d="M 339.78125 203.289062 L 323.054688 203.289062 C 320.632812 203.289062 318.652344 201.308594 318.652344 198.886719 C 318.652344 196.46875 320.632812 194.488281 323.054688 194.488281 L 339.78125 194.488281 C 342.203125 194.488281 344.183594 196.46875 344.183594 198.886719 C 344.183594 201.308594 342.277344 203.289062 339.78125 203.289062 Z M 339.78125 203.289062 " fill-opacity="1" fill-rule="nonzero"/><path fill="#000000" d="M 314.46875 330.378906 L 271.546875 330.378906 C 269.125 330.378906 267.144531 328.398438 267.144531 325.976562 L 267.144531 276.257812 C 267.144531 274.789062 267.878906 273.46875 269.050781 272.664062 L 311.972656 242.742188 C 313.957031 241.347656 316.742188 241.863281 318.136719 243.84375 C 319.53125 245.820312 319.019531 248.609375 317.039062 250.003906 L 276.023438 278.601562 L 276.023438 321.648438 L 314.542969 321.648438 C 316.964844 321.648438 318.945312 323.628906 318.945312 326.050781 C 318.945312 328.46875 316.890625 330.378906 314.46875 330.378906 Z M 314.46875 330.378906 " fill-opacity="1" fill-rule="nonzero"/><path fill="#000000" d="M 314.46875 313.65625 C 313.589844 313.65625 312.636719 313.363281 311.902344 312.777344 L 268.980469 281.316406 C 267.4375 280.214844 266.777344 278.234375 267.363281 276.402344 C 267.953125 274.570312 269.640625 273.394531 271.546875 273.394531 L 314.46875 273.394531 C 316.890625 273.394531 318.871094 275.375 318.871094 277.796875 C 318.871094 280.214844 316.890625 282.195312 314.46875 282.195312 L 284.972656 282.195312 L 317.039062 305.664062 C 319.019531 307.128906 319.457031 309.84375 317.992188 311.824219 C 317.183594 312.996094 315.789062 313.65625 314.46875 313.65625 Z M 314.46875 313.65625 " fill-opacity="1" fill-rule="nonzero"/><path fill="#000000" d="M 357.390625 330.378906 L 314.46875 330.378906 C 312.046875 330.378906 310.066406 328.398438 310.066406 325.976562 C 310.066406 323.558594 312.046875 321.578125 314.46875 321.578125 L 352.988281 321.578125 L 352.988281 278.53125 L 311.972656 249.929688 C 309.992188 248.535156 309.480469 245.820312 310.875 243.769531 C 312.269531 241.789062 314.984375 241.273438 317.039062 242.667969 L 359.960938 272.589844 C 361.132812 273.394531 361.867188 274.789062 361.867188 276.183594 L 361.867188 325.902344 C 361.792969 328.398438 359.8125 330.378906 357.390625 330.378906 Z M 357.390625 330.378906 " fill-opacity="1" fill-rule="nonzero"/><path fill="#000000" d="M 314.46875 313.65625 C 313.148438 313.65625 311.753906 313.070312 310.949219 311.824219 C 309.480469 309.84375 309.921875 307.128906 311.902344 305.664062 L 343.964844 282.195312 L 314.46875 282.195312 C 312.046875 282.195312 310.066406 280.214844 310.066406 277.796875 C 310.066406 275.375 312.046875 273.394531 314.46875 273.394531 L 357.390625 273.394531 C 359.300781 273.394531 360.988281 274.644531 361.574219 276.402344 C 362.160156 278.234375 361.5 280.214844 359.960938 281.316406 L 317.039062 312.777344 C 316.304688 313.363281 315.351562 313.65625 314.46875 313.65625 Z M 314.46875 313.65625 " fill-opacity="1" fill-rule="nonzero"/><g clip-path="url(#f992be6377)"><path fill="#000000" d="M 47.761719 349.003906 C 45.855469 349.003906 44.09375 347.757812 43.578125 345.851562 L 24.941406 283.664062 L 17.3125 283.664062 C 14.890625 283.664062 12.910156 281.683594 12.910156 279.261719 C 12.910156 276.84375 14.890625 274.863281 17.3125 274.863281 L 28.171875 274.863281 C 30.152344 274.863281 31.839844 276.109375 32.355469 278.015625 L 51.945312 343.285156 C 52.679688 345.628906 51.285156 348.050781 49.007812 348.785156 C 48.640625 348.929688 48.203125 349.003906 47.761719 349.003906 Z M 47.761719 349.003906 " fill-opacity="1" fill-rule="nonzero"/></g><path fill="#000000" d="M 55.6875 356.925781 C 48.9375 356.925781 43.359375 351.425781 43.359375 344.605469 C 43.359375 337.785156 48.863281 332.285156 55.6875 332.285156 C 62.4375 332.285156 68.011719 337.785156 68.011719 344.605469 C 68.011719 351.425781 62.4375 356.925781 55.6875 356.925781 Z M 55.6875 341.082031 C 53.777344 341.082031 52.164062 342.625 52.164062 344.605469 C 52.164062 346.511719 53.707031 348.125 55.6875 348.125 C 57.667969 348.125 59.207031 346.582031 59.207031 344.605469 C 59.132812 342.699219 57.59375 341.082031 55.6875 341.082031 Z M 55.6875 341.082031 " fill-opacity="1" fill-rule="nonzero"/><path fill="#000000" d="M 96.113281 329.203125 L 42.1875 329.203125 C 39.765625 329.203125 37.785156 327.222656 37.785156 324.804688 C 37.785156 322.382812 39.765625 320.402344 42.1875 320.402344 L 92.886719 320.402344 L 101.398438 293.5625 L 31.179688 293.5625 C 28.757812 293.5625 26.777344 291.582031 26.777344 289.164062 C 26.777344 286.742188 28.757812 284.761719 31.179688 284.761719 L 107.488281 284.761719 C 108.882812 284.761719 110.203125 285.421875 111.007812 286.597656 C 111.816406 287.695312 112.109375 289.164062 111.667969 290.554688 L 100.371094 326.195312 C 99.710938 327.957031 98.023438 329.203125 96.113281 329.203125 Z M 96.113281 329.203125 " fill-opacity="1" fill-rule="nonzero"/><path fill="#000000" d="M 100.589844 311.96875 L 36.683594 311.96875 C 34.261719 311.96875 32.28125 309.988281 32.28125 307.570312 C 32.28125 305.148438 34.261719 303.167969 36.683594 303.167969 L 100.589844 303.167969 C 103.011719 303.167969 104.992188 305.148438 104.992188 307.570312 C 104.992188 309.988281 103.011719 311.96875 100.589844 311.96875 Z M 100.589844 311.96875 " fill-opacity="1" fill-rule="nonzero"/><path fill="#000000" d="M 89.730469 356.925781 C 82.980469 356.925781 77.40625 351.425781 77.40625 344.605469 C 77.40625 337.785156 82.90625 332.285156 89.730469 332.285156 C 96.480469 332.285156 102.058594 337.785156 102.058594 344.605469 C 102.058594 351.425781 96.554688 356.925781 89.730469 356.925781 Z M 89.730469 341.082031 C 87.824219 341.082031 86.207031 342.625 86.207031 344.605469 C 86.207031 346.511719 87.75 348.125 89.730469 348.125 C 91.710938 348.125 93.253906 346.582031 93.253906 344.605469 C 93.253906 342.699219 91.710938 341.082031 89.730469 341.082031 Z M 89.730469 341.082031 " fill-opacity="1" fill-rule="nonzero"/><path fill="#000000" d="M 72.339844 275.597656 C 70.652344 275.597656 69.039062 274.644531 68.304688 272.957031 L 56.125 245.015625 C 55.171875 242.816406 56.199219 240.175781 58.402344 239.222656 C 60.601562 238.269531 63.242188 239.296875 64.199219 241.496094 L 76.378906 269.4375 C 77.332031 271.636719 76.304688 274.277344 74.101562 275.230469 C 73.515625 275.523438 72.929688 275.597656 72.339844 275.597656 Z M 72.339844 275.597656 " fill-opacity="1" fill-rule="nonzero"/><path fill="#000000" d="M 76.964844 231.15625 L 33.746094 231.15625 C 26.558594 231.15625 20.761719 225.289062 20.761719 218.175781 L 20.761719 156.425781 C 20.761719 149.238281 26.632812 143.445312 33.746094 143.445312 L 76.890625 143.445312 C 84.082031 143.445312 89.878906 149.3125 89.878906 156.425781 L 89.878906 218.175781 C 89.949219 225.289062 84.082031 231.15625 76.964844 231.15625 Z M 33.746094 152.171875 C 31.398438 152.171875 29.566406 154.082031 29.566406 156.355469 L 29.566406 218.101562 C 29.566406 220.449219 31.472656 222.28125 33.746094 222.28125 L 76.890625 222.28125 C 79.238281 222.28125 81.074219 220.375 81.074219 218.101562 L 81.074219 156.355469 C 81.074219 154.007812 79.164062 152.171875 76.890625 152.171875 Z M 33.746094 152.171875 " fill-opacity="1" fill-rule="nonzero"/><path fill="#000000" d="M 85.546875 214.65625 L 25.164062 214.65625 C 22.742188 214.65625 20.761719 212.675781 20.761719 210.253906 L 20.761719 159.582031 C 20.761719 157.160156 22.742188 155.179688 25.164062 155.179688 L 85.546875 155.179688 C 87.96875 155.179688 89.949219 157.160156 89.949219 159.582031 L 89.949219 210.253906 C 89.949219 212.675781 87.96875 214.65625 85.546875 214.65625 Z M 29.566406 205.855469 L 81.144531 205.855469 L 81.144531 163.980469 L 29.566406 163.980469 Z M 29.566406 205.855469 " fill-opacity="1" fill-rule="nonzero"/><path fill="#000000" d="M 64.34375 189.28125 L 46.367188 189.28125 C 43.945312 189.28125 41.964844 187.300781 41.964844 184.882812 L 41.964844 173.660156 C 41.964844 171.242188 43.945312 169.261719 46.367188 169.261719 C 48.789062 169.261719 50.769531 171.242188 50.769531 173.660156 L 50.769531 180.480469 L 64.269531 180.480469 C 66.691406 180.480469 68.671875 182.460938 68.671875 184.882812 C 68.671875 187.300781 66.765625 189.28125 64.34375 189.28125 Z M 64.34375 189.28125 " fill-opacity="1" fill-rule="nonzero"/><path fill="#000000" d="M 70.066406 199.109375 L 40.644531 199.109375 C 38.222656 199.109375 36.242188 197.128906 36.242188 194.707031 C 36.242188 192.289062 38.222656 190.308594 40.644531 190.308594 L 70.140625 190.308594 C 72.5625 190.308594 74.542969 192.289062 74.542969 194.707031 C 74.542969 197.128906 72.488281 199.109375 70.066406 199.109375 Z M 70.066406 199.109375 " fill-opacity="1" fill-rule="nonzero"/><path fill="#000000" d="M 55.320312 224.996094 C 52.019531 224.996094 49.304688 222.28125 49.304688 218.980469 C 49.304688 215.679688 52.019531 212.96875 55.320312 212.96875 C 58.621094 212.96875 61.335938 215.679688 61.335938 218.980469 C 61.335938 222.28125 58.695312 224.996094 55.320312 224.996094 Z M 55.320312 216.195312 C 53.777344 216.195312 52.53125 217.441406 52.53125 218.980469 C 52.53125 220.523438 53.777344 221.769531 55.320312 221.769531 C 56.859375 221.769531 58.109375 220.523438 58.109375 218.980469 C 58.109375 217.441406 56.859375 216.195312 55.320312 216.195312 Z M 55.320312 216.195312 " fill-opacity="1" fill-rule="nonzero"/><path fill="#000000" d="M 107.121094 104.359375 L 42.847656 104.359375 C 38.8125 104.359375 35.070312 103.550781 31.695312 102.011719 C 26.925781 99.8125 23.253906 96.367188 21.128906 92.039062 C 15.039062 79.867188 23.84375 68.058594 24.871094 66.738281 C 29.199219 61.3125 34.773438 58.820312 38.882812 57.644531 C 38.664062 44.296875 47.394531 32.125 59.941406 29.335938 C 70.582031 26.992188 81.878906 31.683594 88.484375 41.21875 C 92.003906 42.832031 96.628906 45.691406 100.589844 50.605469 C 104.480469 55.445312 106.3125 60.433594 107.195312 64.539062 C 116.585938 66.152344 124.140625 73.117188 125.828125 82.210938 C 125.902344 82.578125 125.976562 83.019531 125.976562 83.386719 C 126.636719 88.59375 124.949219 93.800781 121.5 97.832031 C 117.832031 101.9375 112.621094 104.359375 107.121094 104.359375 Z M 65.371094 37.550781 C 64.199219 37.550781 63.023438 37.699219 61.921875 37.917969 C 52.53125 40.042969 46.222656 50.164062 47.980469 60.503906 C 48.203125 61.679688 47.910156 62.925781 47.175781 63.878906 C 46.441406 64.832031 45.339844 65.492188 44.167969 65.566406 C 41.820312 65.859375 35.949219 67.03125 31.914062 72.164062 C 31.253906 73.046875 25.457031 80.746094 29.125 88.078125 C 30.371094 90.644531 32.574219 92.625 35.507812 93.945312 C 37.710938 94.972656 40.277344 95.484375 42.992188 95.484375 L 107.195312 95.484375 C 110.203125 95.484375 112.988281 94.238281 114.972656 91.964844 C 116.804688 89.839844 117.6875 87.199219 117.320312 84.484375 C 117.320312 84.265625 117.246094 84.046875 117.246094 83.824219 C 116.144531 77.8125 110.128906 73.117188 103.378906 73.046875 C 101.175781 72.972656 99.269531 71.285156 99.050781 69.085938 C 98.753906 66.371094 97.726562 61.09375 93.839844 56.179688 C 90.539062 52.070312 86.648438 49.945312 84.007812 48.84375 C 83.128906 48.476562 82.394531 47.890625 81.953125 47.085938 C 78.066406 41.144531 71.679688 37.550781 65.371094 37.550781 Z M 65.371094 37.550781 " fill-opacity="1" fill-rule="nonzero"/><g clip-path="url(#301d3f901b)"><path fill="#000000" d="M 226.421875 90.792969 L 156.941406 90.792969 C 154.519531 90.792969 152.539062 88.8125 152.539062 86.390625 L 152.539062 20.097656 C 152.539062 17.675781 154.519531 15.699219 156.941406 15.699219 L 226.421875 15.699219 C 228.84375 15.699219 230.824219 17.675781 230.824219 20.097656 L 230.824219 86.390625 C 230.824219 88.8125 228.84375 90.792969 226.421875 90.792969 Z M 161.34375 81.992188 L 222.019531 81.992188 L 222.019531 24.496094 L 161.34375 24.496094 Z M 161.34375 81.992188 " fill-opacity="1" fill-rule="nonzero"/></g><path fill="#000000" d="M 226.421875 41.144531 L 158.261719 41.144531 C 155.839844 41.144531 153.859375 39.164062 153.859375 36.746094 C 153.859375 34.324219 155.839844 32.34375 158.261719 32.34375 L 226.421875 32.34375 C 228.84375 32.34375 230.824219 34.324219 230.824219 36.746094 C 230.824219 39.164062 228.84375 41.144531 226.421875 41.144531 Z M 226.421875 41.144531 " fill-opacity="1" fill-rule="nonzero"/><g clip-path="url(#6937a41e1b)"><path fill="#000000" d="M 191.644531 41.070312 L 175.0625 41.070312 C 172.640625 41.070312 170.660156 39.089844 170.660156 36.671875 L 170.660156 20.097656 C 170.660156 17.675781 172.640625 15.699219 175.0625 15.699219 L 191.644531 15.699219 C 194.066406 15.699219 196.046875 17.675781 196.046875 20.097656 L 196.046875 36.671875 C 196.046875 39.089844 194.066406 41.070312 191.644531 41.070312 Z M 179.464844 32.269531 L 187.242188 32.269531 L 187.242188 24.496094 L 179.464844 24.496094 Z M 179.464844 32.269531 " fill-opacity="1" fill-rule="nonzero"/></g><path fill="#000000" d="M 208.226562 51.484375 L 197.222656 51.484375 C 194.800781 51.484375 192.820312 49.503906 192.820312 47.085938 C 192.820312 44.664062 194.800781 42.683594 197.222656 42.683594 L 208.226562 42.683594 C 210.648438 42.683594 212.628906 44.664062 212.628906 47.085938 C 212.628906 49.503906 210.648438 51.484375 208.226562 51.484375 Z M 208.226562 51.484375 " fill-opacity="1" fill-rule="nonzero"/><path fill="#000000" d="M 208.226562 63.4375 L 197.222656 63.4375 C 194.800781 63.4375 192.820312 61.457031 192.820312 59.039062 C 192.820312 56.617188 194.800781 54.636719 197.222656 54.636719 L 208.226562 54.636719 C 210.648438 54.636719 212.628906 56.617188 212.628906 59.039062 C 212.628906 61.457031 210.648438 63.4375 208.226562 63.4375 Z M 208.226562 63.4375 " fill-opacity="1" fill-rule="nonzero"/><path fill="#000000" d="M 208.226562 75.320312 L 197.222656 75.320312 C 194.800781 75.320312 192.820312 73.339844 192.820312 70.917969 C 192.820312 68.5 194.800781 66.519531 197.222656 66.519531 L 208.226562 66.519531 C 210.648438 66.519531 212.628906 68.5 212.628906 70.917969 C 212.628906 73.339844 210.648438 75.320312 208.226562 75.320312 Z M 208.226562 75.320312 " fill-opacity="1" fill-rule="nonzero"/><path fill="#000000" d="M 176.75 73.484375 C 174.328125 73.484375 172.347656 71.503906 172.347656 69.085938 L 172.347656 49.503906 C 172.347656 47.085938 174.328125 45.105469 176.75 45.105469 C 179.171875 45.105469 181.152344 47.085938 181.152344 49.503906 L 181.152344 69.160156 C 181.152344 71.578125 179.171875 73.484375 176.75 73.484375 Z M 176.75 73.484375 " fill-opacity="1" fill-rule="nonzero"/></svg>