<svg xmlns="http://www.w3.org/2000/svg" xmlns:xlink="http://www.w3.org/1999/xlink" width="500" zoomAndPan="magnify" viewBox="0 0 375 374.999991" height="500" preserveAspectRatio="xMidYMid meet" version="1.0"><defs><clipPath id="732621d519"><path d="M 24.421875 52 L 350.671875 52 L 350.671875 322.75 L 24.421875 322.75 Z M 24.421875 52 " clip-rule="nonzero"/></clipPath></defs><path fill="#1800ad" d="M 201.46875 245.269531 L 196.992188 236.738281 L 218.65625 189.632812 L 225.800781 191.789062 Z M 213.175781 126.9375 C 213.175781 126.9375 198.507812 126.9375 198.507812 126.9375 C 197.296875 126.9375 196.320312 125.953125 196.320312 124.746094 L 196.320312 85.757812 C 196.320312 84.542969 197.300781 83.566406 198.507812 83.566406 L 228.851562 83.566406 C 230.066406 83.566406 231.042969 84.550781 231.042969 85.757812 L 231.042969 124.746094 C 231.042969 125.960938 230.058594 126.9375 228.851562 126.9375 L 214.1875 126.9375 C 214.1875 126.660156 213.957031 126.433594 213.679688 126.433594 C 213.402344 126.433594 213.175781 126.660156 213.175781 126.9375 Z M 225.105469 119.988281 C 225.105469 118.5625 223.945312 117.40625 222.523438 117.40625 C 221.101562 117.40625 219.941406 118.566406 219.941406 119.988281 C 219.941406 121.410156 221.101562 122.570312 222.523438 122.570312 C 223.945312 122.570312 225.105469 121.410156 225.105469 119.988281 Z M 201.777344 93.683594 L 225.90625 93.683594 L 225.90625 89.570312 L 201.777344 89.570312 Z M 201.273438 99.777344 C 201.273438 100.054688 201.5 100.28125 201.777344 100.28125 L 225.90625 100.28125 C 226.183594 100.28125 226.414062 100.054688 226.414062 99.777344 C 226.414062 99.5 226.183594 99.269531 225.90625 99.269531 L 201.777344 99.269531 C 201.5 99.269531 201.273438 99.5 201.273438 99.777344 Z M 201.777344 104.601562 L 225.90625 104.601562 C 226.183594 104.601562 226.414062 104.375 226.414062 104.097656 C 226.414062 103.820312 226.183594 103.589844 225.90625 103.589844 L 201.777344 103.589844 C 201.5 103.589844 201.273438 103.820312 201.273438 104.097656 C 201.273438 104.375 201.5 104.601562 201.777344 104.601562 Z M 207.425781 119.988281 C 207.425781 118.5625 206.265625 117.40625 204.84375 117.40625 C 203.421875 117.40625 202.261719 118.566406 202.261719 119.988281 C 202.261719 121.410156 203.421875 122.570312 204.84375 122.570312 C 206.265625 122.570312 207.425781 121.410156 207.425781 119.988281 Z M 213.679688 122.578125 C 215.109375 122.578125 216.261719 121.417969 216.261719 119.996094 C 216.261719 118.574219 215.101562 117.414062 213.679688 117.414062 C 212.257812 117.414062 211.097656 118.574219 211.097656 119.996094 C 211.097656 121.417969 212.257812 122.578125 213.679688 122.578125 Z M 204.84375 118.417969 C 203.976562 118.417969 203.273438 119.125 203.273438 119.988281 C 203.273438 120.851562 203.980469 121.558594 204.84375 121.558594 C 205.707031 121.558594 206.414062 120.851562 206.414062 119.988281 C 206.414062 119.125 205.707031 118.417969 204.84375 118.417969 Z M 296 126.9375 C 296 126.9375 281.175781 126.9375 281.175781 126.9375 C 279.960938 126.9375 278.984375 125.953125 278.984375 124.746094 L 278.984375 85.757812 C 278.984375 84.542969 279.96875 83.566406 281.175781 83.566406 L 311.515625 83.566406 C 312.730469 83.566406 313.707031 84.550781 313.707031 85.757812 L 313.707031 124.746094 C 313.707031 125.960938 312.722656 126.9375 311.515625 126.9375 L 297.011719 126.9375 C 297.011719 126.660156 296.785156 126.433594 296.507812 126.433594 C 296.230469 126.433594 296 126.660156 296 126.9375 Z M 307.761719 119.988281 C 307.761719 118.5625 306.605469 117.40625 305.179688 117.40625 C 303.757812 117.40625 302.601562 118.566406 302.601562 119.988281 C 302.601562 121.410156 303.757812 122.570312 305.179688 122.570312 C 306.605469 122.570312 307.761719 121.410156 307.761719 119.988281 Z M 284.441406 93.683594 L 308.570312 93.683594 L 308.570312 89.570312 L 284.441406 89.570312 Z M 283.9375 99.777344 C 283.9375 100.054688 284.167969 100.28125 284.441406 100.28125 L 308.570312 100.28125 C 308.847656 100.28125 309.078125 100.054688 309.078125 99.777344 C 309.078125 99.5 308.847656 99.269531 308.570312 99.269531 L 284.441406 99.269531 C 284.167969 99.269531 283.9375 99.5 283.9375 99.777344 Z M 284.441406 104.601562 L 308.570312 104.601562 C 308.847656 104.601562 309.078125 104.375 309.078125 104.097656 C 309.078125 103.820312 308.847656 103.589844 308.570312 103.589844 L 284.441406 103.589844 C 284.167969 103.589844 283.9375 103.820312 283.9375 104.097656 C 283.9375 104.375 284.167969 104.601562 284.441406 104.601562 Z M 290.085938 119.988281 C 290.085938 118.5625 288.925781 117.40625 287.503906 117.40625 C 286.082031 117.40625 284.921875 118.566406 284.921875 119.988281 C 284.921875 121.410156 286.082031 122.570312 287.503906 122.570312 C 288.925781 122.570312 290.085938 121.410156 290.085938 119.988281 Z M 296.34375 122.578125 C 297.773438 122.578125 298.925781 121.417969 298.925781 119.996094 C 298.925781 118.574219 297.769531 117.414062 296.34375 117.414062 C 294.921875 117.414062 293.765625 118.574219 293.765625 119.996094 C 293.765625 121.417969 294.921875 122.578125 296.34375 122.578125 Z M 287.503906 118.417969 C 286.632812 118.417969 285.933594 119.125 285.933594 119.988281 C 285.933594 120.851562 286.640625 121.558594 287.503906 121.558594 C 288.367188 121.558594 289.074219 120.851562 289.074219 119.988281 C 289.074219 119.125 288.367188 118.417969 287.503906 118.417969 Z M 311.515625 243.835938 L 288.246094 243.835938 C 288.238281 243.140625 288.222656 242.441406 288.195312 241.738281 C 288.675781 241.488281 289.003906 240.992188 289.003906 240.417969 L 289.003906 238.984375 C 289.660156 238.511719 290.085938 237.757812 290.085938 236.886719 C 290.085938 235.457031 288.925781 234.304688 287.503906 234.304688 C 286.082031 234.304688 284.921875 235.464844 284.921875 236.886719 C 284.921875 237.75 285.351562 238.511719 286 238.984375 L 286 240.417969 C 286 241.011719 286.351562 241.523438 286.847656 241.765625 C 286.871094 242.460938 286.882812 243.148438 286.894531 243.835938 L 281.175781 243.835938 C 279.960938 243.835938 278.984375 242.851562 278.984375 241.644531 L 278.984375 222.652344 C 279.261719 222.652344 279.488281 222.421875 279.488281 222.144531 C 279.488281 221.871094 279.261719 221.640625 278.984375 221.640625 L 278.984375 202.648438 C 278.984375 201.433594 279.96875 200.457031 281.175781 200.457031 L 311.515625 200.457031 C 312.730469 200.457031 313.707031 201.441406 313.707031 202.648438 L 313.707031 241.636719 C 313.707031 242.851562 312.722656 243.828125 311.515625 243.828125 Z M 284.441406 210.582031 L 308.570312 210.582031 L 308.570312 206.46875 L 284.441406 206.46875 Z M 298.925781 236.894531 C 298.925781 235.464844 297.769531 234.3125 296.34375 234.3125 C 294.921875 234.3125 293.765625 235.472656 293.765625 236.894531 C 293.765625 238.316406 294.921875 239.476562 296.34375 239.476562 C 297.769531 239.476562 298.925781 238.316406 298.925781 236.894531 Z M 307.761719 236.894531 C 307.761719 235.464844 306.605469 234.3125 305.179688 234.3125 C 303.757812 234.3125 302.601562 235.472656 302.601562 236.894531 C 302.601562 238.316406 303.757812 239.476562 305.179688 239.476562 C 306.605469 239.476562 307.761719 238.316406 307.761719 236.894531 Z M 309.070312 220.992188 C 309.070312 220.71875 308.839844 220.488281 308.566406 220.488281 L 284.4375 220.488281 C 284.160156 220.488281 283.929688 220.71875 283.929688 220.992188 C 283.929688 221.269531 284.160156 221.5 284.4375 221.5 L 308.566406 221.5 C 308.839844 221.5 309.070312 221.269531 309.070312 220.992188 Z M 309.070312 216.671875 C 309.070312 216.398438 308.839844 216.167969 308.566406 216.167969 L 284.4375 216.167969 C 284.160156 216.167969 283.929688 216.398438 283.929688 216.671875 C 283.929688 216.949219 284.160156 217.179688 284.4375 217.179688 L 308.566406 217.179688 C 308.839844 217.179688 309.070312 216.949219 309.070312 216.671875 Z M 287.503906 235.324219 C 286.632812 235.324219 285.933594 236.03125 285.933594 236.894531 C 285.933594 237.082031 285.972656 237.265625 286.035156 237.433594 C 286.175781 236.75 286.78125 236.238281 287.503906 236.238281 C 288.222656 236.238281 288.832031 236.75 288.972656 237.433594 C 289.03125 237.265625 289.074219 237.082031 289.074219 236.894531 C 289.074219 236.023438 288.367188 235.324219 287.503906 235.324219 Z M 244.179688 167.898438 L 241.394531 167.898438 C 241.117188 167.898438 240.890625 167.667969 240.890625 167.390625 L 240.890625 163.773438 L 239.359375 163.773438 L 239.359375 172.554688 L 246.214844 172.554688 L 246.214844 163.773438 L 244.683594 163.773438 L 244.683594 167.390625 C 244.683594 167.667969 244.453125 167.898438 244.179688 167.898438 Z M 243.296875 158.964844 L 247.65625 158.964844 C 248.519531 158.964844 249.214844 159.667969 249.214844 160.523438 L 249.214844 175.84375 C 249.214844 176.707031 248.511719 177.398438 247.65625 177.398438 L 237.929688 177.398438 C 237.066406 177.398438 236.375 176.699219 236.375 175.84375 L 236.375 160.523438 C 236.375 159.660156 237.074219 158.964844 237.929688 158.964844 L 242.292969 158.964844 C 242.292969 159.242188 242.519531 159.472656 242.796875 159.472656 C 243.074219 159.472656 243.300781 159.242188 243.300781 158.964844 Z M 241.394531 162.039062 C 241.117188 162.039062 240.890625 162.269531 240.890625 162.546875 L 240.890625 162.761719 L 238.855469 162.761719 C 238.578125 162.761719 238.347656 162.988281 238.347656 163.265625 L 238.347656 173.058594 C 238.347656 173.335938 238.578125 173.566406 238.855469 173.566406 L 246.71875 173.566406 C 246.996094 173.566406 247.226562 173.335938 247.226562 173.058594 L 247.226562 163.265625 C 247.226562 162.988281 246.996094 162.761719 246.71875 162.761719 L 244.683594 162.761719 L 244.683594 162.546875 C 244.683594 162.269531 244.453125 162.039062 244.179688 162.039062 Z M 268.632812 167.898438 L 265.847656 167.898438 C 265.570312 167.898438 265.34375 167.667969 265.34375 167.390625 L 265.34375 163.773438 L 263.8125 163.773438 L 263.8125 172.554688 L 270.667969 172.554688 L 270.667969 163.773438 L 269.136719 163.773438 L 269.136719 167.390625 C 269.136719 167.667969 268.90625 167.898438 268.632812 167.898438 Z M 267.742188 158.964844 L 272.101562 158.964844 C 272.964844 158.964844 273.660156 159.667969 273.660156 160.523438 L 273.660156 175.84375 C 273.660156 176.707031 272.957031 177.398438 272.101562 177.398438 L 262.375 177.398438 C 261.515625 177.398438 260.820312 176.699219 260.820312 175.84375 L 260.820312 160.523438 C 260.820312 159.660156 261.519531 158.964844 262.375 158.964844 L 266.738281 158.964844 C 266.738281 159.242188 266.964844 159.472656 267.242188 159.472656 C 267.519531 159.472656 267.75 159.242188 267.75 158.964844 Z M 265.839844 162.039062 C 265.5625 162.039062 265.335938 162.269531 265.335938 162.546875 L 265.335938 162.761719 L 263.300781 162.761719 C 263.023438 162.761719 262.792969 162.988281 262.792969 163.265625 L 262.792969 173.058594 C 262.792969 173.335938 263.023438 173.566406 263.300781 173.566406 L 271.164062 173.566406 C 271.441406 173.566406 271.671875 173.335938 271.671875 173.058594 L 271.671875 163.265625 C 271.671875 162.988281 271.441406 162.761719 271.164062 162.761719 L 269.128906 162.761719 L 269.128906 162.546875 C 269.128906 162.269531 268.902344 162.039062 268.625 162.039062 Z M 194.398438 158.964844 L 198.757812 158.964844 C 199.621094 158.964844 200.316406 159.667969 200.316406 160.523438 L 200.316406 175.84375 C 200.316406 176.707031 199.613281 177.398438 198.757812 177.398438 L 189.03125 177.398438 C 188.171875 177.398438 187.476562 176.699219 187.476562 175.84375 L 187.476562 160.523438 C 187.476562 159.660156 188.175781 158.964844 189.03125 158.964844 L 193.394531 158.964844 C 193.394531 159.242188 193.621094 159.472656 193.898438 159.472656 C 194.175781 159.472656 194.40625 159.242188 194.40625 158.964844 Z M 192.496094 162.039062 C 192.21875 162.039062 191.992188 162.269531 191.992188 162.546875 L 191.992188 162.761719 L 189.957031 162.761719 C 189.679688 162.761719 189.449219 162.988281 189.449219 163.265625 L 189.449219 173.058594 C 189.449219 173.335938 189.679688 173.566406 189.957031 173.566406 L 197.820312 173.566406 C 198.097656 173.566406 198.328125 173.335938 198.328125 173.058594 L 198.328125 163.265625 C 198.328125 162.988281 198.097656 162.761719 197.820312 162.761719 L 195.785156 162.761719 L 195.785156 162.546875 C 195.785156 162.269531 195.558594 162.039062 195.28125 162.039062 Z M 195.289062 167.898438 L 192.503906 167.898438 C 192.226562 167.898438 192 167.667969 192 167.390625 L 192 163.773438 L 190.46875 163.773438 L 190.46875 172.554688 L 197.324219 172.554688 L 197.324219 163.773438 L 195.792969 163.773438 L 195.792969 167.390625 C 195.792969 167.667969 195.5625 167.898438 195.289062 167.898438 Z M 218.84375 158.964844 L 223.203125 158.964844 C 224.066406 158.964844 224.761719 159.667969 224.761719 160.523438 L 224.761719 175.84375 C 224.761719 176.707031 224.058594 177.398438 223.203125 177.398438 L 213.476562 177.398438 C 212.617188 177.398438 211.921875 176.699219 211.921875 175.84375 L 211.921875 160.523438 C 211.921875 159.660156 212.621094 158.964844 213.476562 158.964844 L 217.839844 158.964844 C 217.839844 159.242188 218.066406 159.472656 218.34375 159.472656 C 218.621094 159.472656 218.851562 159.242188 218.851562 158.964844 Z M 216.949219 162.039062 C 216.671875 162.039062 216.445312 162.269531 216.445312 162.546875 L 216.445312 162.761719 L 214.410156 162.761719 C 214.132812 162.761719 213.902344 162.988281 213.902344 163.265625 L 213.902344 173.058594 C 213.902344 173.335938 214.132812 173.566406 214.410156 173.566406 L 222.273438 173.566406 C 222.550781 173.566406 222.78125 173.335938 222.78125 173.058594 L 222.78125 163.265625 C 222.78125 162.988281 222.550781 162.761719 222.273438 162.761719 L 220.238281 162.761719 L 220.238281 162.546875 C 220.238281 162.269531 220.007812 162.039062 219.734375 162.039062 Z M 219.734375 167.898438 L 216.949219 167.898438 C 216.671875 167.898438 216.445312 167.667969 216.445312 167.390625 L 216.445312 163.773438 L 214.914062 163.773438 L 214.914062 172.554688 L 221.769531 172.554688 L 221.769531 163.773438 L 220.238281 163.773438 L 220.238281 167.390625 C 220.238281 167.667969 220.007812 167.898438 219.734375 167.898438 Z M 292.1875 158.964844 L 296.546875 158.964844 C 297.410156 158.964844 298.105469 159.667969 298.105469 160.523438 L 298.105469 175.84375 C 298.105469 176.707031 297.402344 177.398438 296.546875 177.398438 L 286.820312 177.398438 C 285.960938 177.398438 285.265625 176.699219 285.265625 175.84375 L 285.265625 160.523438 C 285.265625 159.660156 285.964844 158.964844 286.820312 158.964844 L 291.183594 158.964844 C 291.183594 159.242188 291.410156 159.472656 291.6875 159.472656 C 291.964844 159.472656 292.195312 159.242188 292.195312 158.964844 Z M 290.292969 162.039062 C 290.015625 162.039062 289.789062 162.269531 289.789062 162.546875 L 289.789062 162.761719 L 287.753906 162.761719 C 287.476562 162.761719 287.246094 162.988281 287.246094 163.265625 L 287.246094 173.058594 C 287.246094 173.335938 287.476562 173.566406 287.753906 173.566406 L 295.617188 173.566406 C 295.894531 173.566406 296.125 173.335938 296.125 173.058594 L 296.125 163.265625 C 296.125 162.988281 295.894531 162.761719 295.617188 162.761719 L 293.582031 162.761719 L 293.582031 162.546875 C 293.582031 162.269531 293.351562 162.039062 293.078125 162.039062 Z M 293.078125 167.898438 L 290.292969 167.898438 C 290.015625 167.898438 289.789062 167.667969 289.789062 167.390625 L 289.789062 163.773438 L 288.257812 163.773438 L 288.257812 172.554688 L 295.113281 172.554688 L 295.113281 163.773438 L 293.582031 163.773438 L 293.582031 167.390625 C 293.582031 167.667969 293.351562 167.898438 293.078125 167.898438 Z M 316.640625 158.964844 L 321 158.964844 C 321.863281 158.964844 322.558594 159.667969 322.558594 160.523438 L 322.558594 175.84375 C 322.558594 176.707031 321.855469 177.398438 321 177.398438 L 311.273438 177.398438 C 310.410156 177.398438 309.71875 176.699219 309.71875 175.84375 L 309.71875 160.523438 C 309.71875 159.660156 310.417969 158.964844 311.273438 158.964844 L 315.636719 158.964844 C 315.636719 159.242188 315.863281 159.472656 316.140625 159.472656 C 316.417969 159.472656 316.644531 159.242188 316.644531 158.964844 Z M 314.738281 162.039062 C 314.460938 162.039062 314.234375 162.269531 314.234375 162.546875 L 314.234375 162.761719 L 312.199219 162.761719 C 311.921875 162.761719 311.691406 162.988281 311.691406 163.265625 L 311.691406 173.058594 C 311.691406 173.335938 311.921875 173.566406 312.199219 173.566406 L 320.0625 173.566406 C 320.339844 173.566406 320.570312 173.335938 320.570312 173.058594 L 320.570312 163.265625 C 320.570312 162.988281 320.339844 162.761719 320.0625 162.761719 L 318.027344 162.761719 L 318.027344 162.546875 C 318.027344 162.269531 317.796875 162.039062 317.523438 162.039062 Z M 317.523438 167.898438 L 314.738281 167.898438 C 314.460938 167.898438 314.234375 167.667969 314.234375 167.390625 L 314.234375 163.773438 L 312.703125 163.773438 L 312.703125 172.554688 L 319.558594 172.554688 L 319.558594 163.773438 L 318.027344 163.773438 L 318.027344 167.390625 C 318.027344 167.667969 317.796875 167.898438 317.523438 167.898438 Z M 317.523438 167.898438 " fill-opacity="1" fill-rule="nonzero"/><path fill="#faab11" d="M 336.089844 75.957031 L 173.933594 75.957031 L 173.933594 58.609375 L 336.089844 58.609375 Z M 129.9375 80.953125 C 126.121094 76.820312 120.863281 73.96875 114.785156 72.804688 C 108 71.496094 101.054688 72.40625 95.191406 75.289062 C 98.953125 74.394531 102.707031 73.941406 106.386719 73.941406 C 114.886719 73.941406 122.988281 76.320312 129.945312 80.945312 Z M 79.132812 102.433594 C 80.585938 102.371094 83.332031 101.972656 86.503906 101.515625 C 92.484375 100.652344 99.917969 99.574219 103.976562 99.953125 C 110.378906 100.539062 136.292969 107.386719 146.242188 111.105469 C 146.242188 110.519531 146.242188 109.476562 146.167969 108.078125 C 146.160156 108.078125 146.148438 108.078125 146.140625 108.078125 C 146.066406 108.078125 145.984375 108.066406 145.917969 108.027344 C 135.597656 102.917969 107.808594 91.601562 72.605469 96.917969 C 72.511719 96.933594 72.425781 96.910156 72.34375 96.878906 C 71.488281 98.972656 70.816406 100.835938 70.324219 102.296875 C 71.089844 102.34375 75.363281 102.585938 79.132812 102.425781 Z M 79.28125 105.351562 C 79.550781 105.332031 79.878906 105.304688 80.238281 105.261719 L 86.894531 104.496094 C 93.082031 103.753906 100.355469 102.910156 103.375 103.140625 C 104.628906 103.234375 108.671875 104.125 113.894531 105.417969 C 113.902344 105.417969 113.910156 105.417969 113.917969 105.417969 L 114.058594 105.457031 C 118.777344 106.625 124.421875 108.113281 129.871094 109.652344 L 130.003906 109.683594 C 130.003906 109.683594 130.011719 109.683594 130.019531 109.683594 C 132.855469 110.480469 135.625 111.289062 138.171875 112.070312 C 148.84375 115.027344 148.734375 116.289062 148.699219 116.707031 C 148.679688 116.96875 148.457031 117.171875 148.195312 117.171875 C 148.183594 117.171875 148.167969 117.171875 148.15625 117.171875 C 147.90625 117.152344 147.710938 116.957031 147.691406 116.714844 C 147.203125 116.019531 142.648438 114.402344 138.429688 113.203125 C 138.300781 113.964844 138.066406 115.417969 137.808594 116.976562 C 140.828125 117.582031 151.269531 119.492188 152.71875 117.359375 C 154.167969 115.230469 148.390625 112.570312 146.6875 111.839844 C 146.605469 112.035156 146.421875 112.152344 146.222656 112.152344 C 146.160156 112.152344 146.097656 112.136719 146.039062 112.117188 C 136.265625 108.421875 110.257812 101.542969 103.875 100.957031 C 99.9375 100.59375 92.5625 101.65625 86.640625 102.511719 C 83.4375 102.976562 80.667969 103.375 79.160156 103.441406 C 74.964844 103.617188 70.152344 103.308594 70.105469 103.300781 C 70.066406 103.300781 70.027344 103.28125 69.984375 103.269531 C 69.714844 104.089844 69.527344 104.722656 69.40625 105.128906 C 70.289062 105.167969 76.179688 105.429688 79.273438 105.34375 Z M 72.753906 95.886719 C 75.910156 88.386719 81.214844 78.429688 88.742188 73.105469 C 101.832031 63.851562 118.972656 63.851562 131.617188 74.03125 C 143.027344 83.433594 145.554688 99.203125 146.09375 106.996094 C 135.523438 101.796875 107.804688 90.671875 72.75 95.878906 Z M 91.675781 77.324219 C 106.386719 72.601562 121.203125 75.019531 132.328125 83.957031 C 132.425781 84.03125 132.53125 84.074219 132.648438 84.074219 C 132.769531 84.074219 132.890625 84.023438 132.992188 83.9375 C 133.171875 83.769531 133.207031 83.492188 133.0625 83.285156 C 129.074219 77.367188 122.652344 73.296875 114.980469 71.820312 C 106.570312 70.203125 97.921875 71.886719 91.238281 76.4375 C 91.027344 76.578125 90.953125 76.847656 91.066406 77.078125 C 91.175781 77.296875 91.4375 77.414062 91.675781 77.339844 Z M 123.433594 265.207031 C 123.183594 265.207031 122.96875 265.027344 122.933594 264.777344 C 122.894531 264.5 123.082031 264.242188 123.359375 264.203125 L 123.742188 264.148438 L 129.410156 253.9375 C 129.332031 253.898438 129.261719 253.832031 129.214844 253.75 C 129.082031 253.507812 129.160156 253.195312 129.40625 253.0625 C 129.425781 253.050781 129.503906 253 129.632812 252.933594 C 129.492188 248.65625 129.257812 244.382812 128.925781 240.113281 C 122.1875 247.078125 113.289062 252.234375 102.578125 255.871094 C 102.566406 255.960938 102.554688 256.046875 102.546875 256.128906 C 102.511719 256.378906 102.296875 256.558594 102.046875 256.558594 C 102.027344 256.558594 102.007812 256.558594 101.980469 256.558594 C 101.230469 262.34375 100.382812 266.476562 100.09375 267.835938 C 100.105469 267.835938 100.113281 267.835938 100.125 267.835938 C 100.34375 267.898438 100.476562 268.085938 100.484375 268.300781 L 101.253906 268.269531 C 101.253906 268.269531 101.253906 268.207031 101.265625 268.171875 C 101.351562 267.910156 101.636719 267.761719 101.90625 267.851562 C 101.960938 267.871094 102.269531 267.976562 102.726562 268.199219 L 124.039062 267.175781 C 124.253906 266.96875 124.464844 266.765625 124.671875 266.550781 C 124.039062 266.082031 123.738281 265.570312 123.589844 265.207031 L 123.519531 265.207031 C 123.519531 265.207031 123.472656 265.222656 123.445312 265.222656 Z M 28.304688 287.839844 C 38.671875 288.472656 48.371094 288.636719 57.386719 288.296875 C 56.355469 285.945312 55.300781 283.398438 54.195312 280.65625 C 52.246094 275.804688 50.035156 269.691406 47.8125 262.941406 C 41.355469 262.902344 34.648438 262.652344 27.71875 262.222656 C 27.867188 271.160156 28.078125 279.90625 28.304688 287.847656 Z M 140.640625 305.761719 C 140.429688 305.753906 140.242188 305.621094 140.175781 305.410156 C 140.175781 305.410156 140.175781 305.40625 140.175781 305.398438 C 122.261719 310.667969 99.808594 314.394531 84.523438 313.175781 C 76.023438 312.496094 70.398438 309.457031 65.558594 303.125 C 54.222656 303.835938 41.898438 303.726562 28.777344 302.945312 C 29.121094 312.898438 29.417969 319.9375 29.5 321.816406 L 140.058594 321.816406 L 140.640625 305.753906 Z M 103.71875 239.21875 C 113.484375 235.296875 121.332031 229.992188 127.113281 223.210938 C 126.109375 215.925781 124.820312 208.660156 123.230469 201.414062 C 123.195312 201.421875 123.164062 201.429688 123.128906 201.429688 C 122.902344 201.429688 122.699219 201.273438 122.636719 201.042969 C 122.636719 201.023438 122.457031 200.328125 122.085938 199.164062 C 114.523438 187.050781 96.566406 171.179688 96.566406 171.179688 L 89.820312 172.136719 C 79.347656 162.15625 72.066406 157.660156 67.660156 155.636719 C 67.640625 155.691406 67.605469 155.738281 67.566406 155.777344 C 67.527344 155.820312 63.378906 160.1875 61.453125 169.035156 C 61.398438 169.273438 61.191406 169.433594 60.960938 169.433594 C 60.925781 169.433594 60.886719 169.433594 60.851562 169.421875 C 60.582031 169.359375 60.40625 169.089844 60.46875 168.820312 C 62.300781 160.414062 65.988281 156.019531 66.714844 155.210938 C 64.800781 154.410156 63.550781 154.128906 62.914062 154.027344 C 62.886719 154.28125 62.664062 154.476562 62.417969 154.476562 C 62.394531 154.476562 62.375 154.476562 62.355469 154.476562 C 62.199219 154.457031 62.074219 154.363281 61.992188 154.242188 C 58.695312 156.34375 36.273438 171.152344 30.558594 188.164062 C 27.960938 195.882812 27.367188 220.820312 27.550781 247.125 C 32.914062 247.460938 38.113281 247.683594 43.128906 247.773438 C 37 226.582031 32.230469 203.792969 34.878906 194.507812 C 39.089844 179.699219 51.429688 173.941406 66.851562 174.042969 C 82.273438 174.144531 98.550781 196.832031 102.113281 220.414062 C 103.066406 226.6875 103.347656 233.003906 103.265625 238.910156 C 103.265625 238.910156 103.273438 238.910156 103.28125 238.910156 C 103.484375 238.914062 103.65625 239.042969 103.730469 239.226562 Z M 190.230469 275.480469 C 191.351562 275.480469 192.261719 274.570312 192.261719 273.449219 C 192.261719 272.332031 191.351562 271.421875 190.230469 271.421875 C 189.113281 271.421875 188.203125 272.332031 188.203125 273.449219 C 188.203125 274.570312 189.113281 275.480469 190.230469 275.480469 Z M 227.402344 275.480469 C 228.523438 275.480469 229.433594 274.570312 229.433594 273.449219 C 229.433594 272.332031 228.523438 271.421875 227.402344 271.421875 C 226.285156 271.421875 225.375 272.332031 225.375 273.449219 C 225.375 274.570312 226.285156 275.480469 227.402344 275.480469 Z M 264.574219 275.480469 C 265.691406 275.480469 266.601562 274.570312 266.601562 273.449219 C 266.601562 272.332031 265.691406 271.421875 264.574219 271.421875 C 263.453125 271.421875 262.542969 272.332031 262.542969 273.449219 C 262.542969 274.570312 263.453125 275.480469 264.574219 275.480469 Z M 301.75 275.480469 C 302.871094 275.480469 303.78125 274.570312 303.78125 273.449219 C 303.78125 272.332031 302.871094 271.421875 301.75 271.421875 C 300.632812 271.421875 299.722656 272.332031 299.722656 273.449219 C 299.722656 274.570312 300.632812 275.480469 301.75 275.480469 Z M 301.75 275.480469 " fill-opacity="1" fill-rule="nonzero"/><g clip-path="url(#732621d519)"><path fill="#000000" d="M 132.328125 83.949219 C 132.425781 84.023438 132.53125 84.066406 132.648438 84.066406 C 132.769531 84.066406 132.890625 84.019531 132.992188 83.929688 C 133.171875 83.761719 133.207031 83.484375 133.0625 83.277344 C 129.074219 77.359375 122.652344 73.289062 114.980469 71.8125 C 106.570312 70.195312 97.921875 71.878906 91.238281 76.429688 C 91.027344 76.570312 90.953125 76.839844 91.066406 77.070312 C 91.175781 77.292969 91.4375 77.40625 91.675781 77.332031 C 106.386719 72.609375 121.203125 75.027344 132.328125 83.964844 Z M 114.785156 72.804688 C 120.863281 73.96875 126.128906 76.820312 129.9375 80.953125 C 122.980469 76.320312 114.878906 73.949219 106.382812 73.949219 C 102.699219 73.949219 98.953125 74.394531 95.1875 75.296875 C 101.050781 72.414062 108 71.503906 114.777344 72.808594 Z M 70.113281 103.308594 C 70.074219 103.308594 70.03125 103.289062 69.992188 103.273438 C 69.777344 103.207031 69.628906 103.003906 69.640625 102.769531 C 69.660156 102.492188 69.898438 102.285156 70.179688 102.296875 C 70.179688 102.296875 70.242188 102.296875 70.316406 102.304688 C 71.085938 102.351562 75.355469 102.59375 79.125 102.433594 C 80.582031 102.371094 83.324219 101.972656 86.5 101.515625 C 92.476562 100.652344 99.910156 99.574219 103.96875 99.953125 C 110.371094 100.539062 136.285156 107.386719 146.234375 111.105469 C 146.289062 111.125 146.347656 111.148438 146.402344 111.167969 C 146.664062 111.269531 146.792969 111.558594 146.699219 111.820312 C 146.699219 111.820312 146.699219 111.828125 146.691406 111.835938 C 146.613281 112.03125 146.429688 112.144531 146.226562 112.144531 C 146.167969 112.144531 146.105469 112.128906 146.046875 112.109375 C 136.273438 108.417969 110.261719 101.535156 103.878906 100.949219 C 99.945312 100.585938 92.570312 101.648438 86.648438 102.507812 C 83.445312 102.972656 80.675781 103.367188 79.164062 103.4375 C 74.972656 103.613281 70.160156 103.300781 70.113281 103.292969 Z M 72.605469 96.925781 C 72.511719 96.9375 72.425781 96.917969 72.34375 96.886719 C 72.183594 96.816406 72.0625 96.683594 72.035156 96.5 C 71.992188 96.222656 72.183594 95.96875 72.460938 95.929688 C 72.558594 95.914062 72.660156 95.902344 72.761719 95.886719 C 107.816406 90.675781 135.539062 101.804688 146.105469 107 C 146.195312 107.042969 146.289062 107.089844 146.367188 107.128906 C 146.617188 107.25 146.71875 107.554688 146.597656 107.804688 C 146.515625 107.972656 146.347656 108.074219 146.171875 108.078125 C 146.167969 108.078125 146.152344 108.078125 146.148438 108.078125 C 146.074219 108.078125 145.992188 108.066406 145.925781 108.027344 C 135.605469 102.917969 107.816406 91.601562 72.613281 96.917969 Z M 98.914062 125.386719 C 99.101562 125.597656 99.082031 125.914062 98.878906 126.101562 C 98.785156 126.191406 98.664062 126.230469 98.542969 126.230469 C 98.40625 126.230469 98.265625 126.175781 98.164062 126.0625 C 97.289062 125.089844 95.921875 124.894531 95.171875 124.863281 C 95.449219 126.433594 96.296875 127.808594 97.632812 128.773438 C 97.863281 128.933594 97.910156 129.25 97.746094 129.480469 C 97.644531 129.613281 97.492188 129.6875 97.335938 129.6875 C 97.234375 129.6875 97.128906 129.65625 97.039062 129.59375 C 95.320312 128.347656 94.304688 126.527344 94.109375 124.457031 C 94.109375 124.4375 94.09375 124.425781 94.09375 124.410156 C 94.09375 124.390625 94.09375 124.378906 94.09375 124.355469 C 94.054688 123.898438 94.046875 123.433594 94.09375 122.953125 C 94.324219 120.507812 95.671875 118.359375 97.53125 117.480469 C 97.789062 117.367188 98.085938 117.46875 98.207031 117.726562 C 98.328125 117.980469 98.21875 118.277344 97.964844 118.398438 C 96.417969 119.125 95.292969 120.945312 95.097656 123.050781 C 95.070312 123.320312 95.066406 123.582031 95.070312 123.84375 C 95.949219 123.859375 97.734375 124.066406 98.921875 125.382812 Z M 94.714844 110.679688 C 95.636719 110.679688 96.386719 109.933594 96.386719 109.011719 C 96.386719 108.085938 95.636719 107.339844 94.714844 107.339844 C 93.789062 107.339844 93.042969 108.085938 93.042969 109.011719 C 93.042969 109.933594 93.789062 110.679688 94.714844 110.679688 Z M 94.714844 108.355469 C 95.078125 108.355469 95.375 108.652344 95.375 109.015625 C 95.375 109.378906 95.078125 109.675781 94.714844 109.675781 C 94.351562 109.675781 94.054688 109.378906 94.054688 109.015625 C 94.054688 108.652344 94.351562 108.355469 94.714844 108.355469 Z M 131.488281 140.84375 C 131.515625 141.117188 131.3125 141.367188 131.035156 141.394531 C 130.804688 141.421875 130.589844 141.429688 130.382812 141.429688 C 129.359375 141.429688 128.628906 141.132812 128.21875 140.546875 C 127.429688 139.414062 128.203125 137.757812 128.300781 137.566406 C 128.421875 137.316406 128.722656 137.214844 128.972656 137.339844 C 129.222656 137.460938 129.324219 137.761719 129.203125 138.011719 C 129.027344 138.371094 128.664062 139.421875 129.046875 139.964844 C 129.378906 140.445312 130.253906 140.457031 130.929688 140.382812 C 131.203125 140.359375 131.453125 140.558594 131.480469 140.835938 Z M 62.34375 154.476562 C 62.34375 154.476562 62.382812 154.476562 62.402344 154.476562 C 62.660156 154.476562 62.875 154.289062 62.902344 154.027344 C 63.515625 148.675781 64.613281 142.769531 65.394531 142.15625 C 66.246094 141.496094 70.640625 141.46875 73.664062 141.617188 C 73.441406 142.082031 73.199219 142.535156 72.945312 142.945312 C 70.894531 142.683594 68.980469 142.65625 68.839844 142.65625 C 68.5625 142.65625 68.335938 142.878906 68.335938 143.15625 C 68.335938 143.429688 68.558594 143.660156 68.832031 143.667969 C 68.867188 143.667969 70.894531 143.695312 72.964844 143.96875 C 73.03125 144.003906 73.105469 144.023438 73.179688 144.023438 C 73.207031 144.023438 73.226562 144.011719 73.246094 144.003906 C 74.570312 144.191406 75.871094 144.488281 76.652344 144.941406 C 78.613281 146.078125 109.207031 175.660156 114.886719 184.179688 C 118.925781 190.234375 121.140625 196.210938 122.085938 199.15625 C 122.460938 200.324219 122.632812 201.015625 122.636719 201.035156 C 122.691406 201.265625 122.902344 201.421875 123.128906 201.421875 C 123.164062 201.421875 123.195312 201.421875 123.230469 201.40625 C 123.230469 201.40625 123.246094 201.40625 123.25 201.40625 C 123.519531 201.339844 123.6875 201.0625 123.621094 200.792969 C 123.601562 200.714844 121.472656 192.226562 115.730469 183.621094 C 113.503906 180.292969 107.902344 174.144531 101.628906 167.675781 C 101.628906 167.675781 101.644531 167.667969 101.644531 167.660156 C 103.273438 164.9375 106.703125 162.046875 107.546875 161.351562 C 108.960938 161.710938 115.796875 163.367188 120.871094 163.367188 C 122.664062 163.367188 124.242188 163.160156 125.273438 162.613281 C 129.242188 160.53125 128.378906 154.59375 128.125 153.21875 C 129.15625 152.179688 130.300781 150.757812 130.003906 149.300781 C 130.878906 148.910156 131.527344 148.128906 131.917969 146.96875 C 133.023438 145.757812 133.273438 143.328125 133.28125 143.230469 C 133.292969 143.09375 133.253906 142.960938 133.164062 142.859375 C 133.144531 142.835938 133.125 142.824219 133.105469 142.804688 L 133.164062 142.582031 C 134.460938 142.507812 138.246094 142.117188 138.523438 139.960938 C 138.683594 138.679688 137.6875 135.597656 136.359375 131.703125 C 136.125 131.007812 135.886719 130.308594 135.679688 129.679688 C 136.964844 127.550781 137.828125 125.488281 137.484375 124.726562 C 137.304688 124.335938 136.964844 124.046875 136.542969 123.839844 C 136.710938 123.414062 136.839844 123.023438 136.878906 122.691406 C 136.964844 122.058594 137.398438 119.390625 137.800781 116.957031 C 138.058594 115.398438 138.292969 113.945312 138.421875 113.183594 C 142.640625 114.382812 147.199219 116 147.683594 116.695312 C 147.703125 116.9375 147.898438 117.132812 148.148438 117.152344 C 148.160156 117.152344 148.175781 117.152344 148.1875 117.152344 C 148.453125 117.152344 148.667969 116.949219 148.695312 116.6875 C 148.726562 116.269531 148.828125 115.007812 138.167969 112.050781 C 135.617188 111.269531 132.847656 110.464844 130.011719 109.664062 C 130.011719 109.664062 130.003906 109.664062 129.996094 109.664062 L 129.863281 109.628906 C 124.421875 108.101562 118.769531 106.609375 114.050781 105.4375 L 113.910156 105.398438 C 113.910156 105.398438 113.894531 105.398438 113.890625 105.398438 C 108.664062 104.101562 104.621094 103.214844 103.367188 103.121094 C 100.355469 102.890625 93.082031 103.734375 86.890625 104.472656 L 80.230469 105.242188 C 79.867188 105.277344 79.535156 105.308594 79.273438 105.332031 C 76.179688 105.410156 70.289062 105.15625 69.40625 105.113281 C 69.339844 105.113281 69.292969 105.113281 69.285156 105.113281 C 69.007812 105.109375 68.765625 105.316406 68.757812 105.59375 C 68.746094 105.871094 68.960938 106.113281 69.238281 106.117188 C 69.265625 106.117188 70.550781 106.179688 72.261719 106.238281 L 72.582031 113.085938 C 72.59375 113.355469 72.816406 113.566406 73.085938 113.566406 L 73.09375 113.566406 L 74.527344 113.539062 C 73.886719 120.03125 74.601562 128.625 75.398438 136.234375 C 75.316406 136.625 74.871094 138.613281 74.070312 140.605469 C 72.148438 140.5 66.136719 140.257812 64.75 141.339844 C 63.246094 142.515625 62.09375 152.003906 61.878906 153.890625 C 61.863281 154.011719 61.898438 154.121094 61.957031 154.214844 C 62.039062 154.34375 62.160156 154.429688 62.320312 154.449219 Z M 100.902344 166.941406 C 90.433594 156.191406 78.417969 144.804688 77.15625 144.078125 C 76.386719 143.632812 75.230469 143.328125 74.023438 143.121094 C 75.324219 140.871094 76.070312 137.945312 76.328125 136.839844 C 79.644531 136.867188 85.394531 130.707031 86.382812 128.871094 C 86.578125 128.515625 86.855469 127.886719 87.210938 127.085938 C 88.035156 125.246094 89.324219 122.382812 90.84375 119.886719 C 89.886719 124.378906 91.316406 129.59375 93.898438 132.113281 C 95.058594 133.238281 96.351562 133.804688 97.714844 133.804688 C 98.941406 133.804688 100.222656 133.347656 101.5 132.429688 C 101.730469 132.269531 101.777344 131.953125 101.617188 131.722656 C 101.453125 131.496094 101.136719 131.449219 100.910156 131.609375 C 98.011719 133.683594 95.878906 132.632812 94.601562 131.386719 C 91.527344 128.386719 90.300781 121.027344 93.226562 116.679688 C 93.960938 115.910156 94.722656 115.339844 95.488281 115.097656 C 96.714844 114.707031 97.863281 114.8125 98.886719 115.417969 C 100.726562 116.511719 102.234375 119.273438 102.910156 122.8125 C 103.402344 125.386719 102.816406 131.527344 102.25 137.464844 C 101.765625 142.566406 101.304688 147.394531 101.460938 150.285156 C 101.757812 155.699219 105.355469 159.574219 106.636719 160.792969 C 105.492188 161.742188 102.519531 164.34375 100.894531 166.945312 Z M 92.558594 106.097656 C 92.558594 106.097656 93.101562 104.796875 93.101562 104.796875 C 97.324219 104.347656 101.347656 104.003906 103.300781 104.144531 C 104.144531 104.203125 106.515625 104.695312 109.796875 105.464844 C 106.847656 105.558594 103.140625 105.789062 101.890625 106.3125 C 99.945312 107.144531 96.191406 111.566406 95.375 112.546875 L 89.855469 112.546875 L 92.550781 106.105469 Z M 134.136719 127.746094 C 133.65625 128.550781 132.964844 129.59375 132.113281 130.71875 C 130.253906 133.1875 129.035156 134.191406 128.621094 134.304688 C 128.394531 133.160156 131.953125 127.207031 132.699219 126.351562 C 132.875 126.148438 133.53125 125.941406 134.109375 125.941406 C 134.265625 125.941406 134.414062 125.960938 134.546875 125.996094 C 134.304688 126.640625 134.128906 127.25 134.136719 127.742188 Z M 127.4375 152.484375 C 126.386719 152.21875 125.320312 153 124.375 153.710938 C 123.785156 154.152344 123.109375 154.660156 122.753906 154.621094 C 122.292969 154.242188 123.007812 150.90625 123.480469 149.914062 C 123.667969 149.515625 124.894531 148.492188 125.96875 147.832031 C 126.613281 148.316406 127.714844 149.039062 128.988281 149.410156 C 129.210938 150.199219 128.71875 151.1875 127.441406 152.476562 Z M 129.371094 148.472656 C 128.441406 148.222656 127.589844 147.738281 126.976562 147.320312 C 127.066406 147.292969 127.148438 147.265625 127.214844 147.253906 C 127.984375 147.117188 129.75 147.15625 130.738281 147.191406 C 130.410156 147.859375 129.949219 148.285156 129.363281 148.464844 Z M 135.410156 132.039062 C 136.367188 134.84375 137.675781 138.691406 137.527344 139.84375 C 137.363281 141.09375 134.257812 141.5625 132.773438 141.597656 C 132.550781 141.597656 132.355469 141.753906 132.296875 141.96875 L 132.113281 142.628906 C 130.515625 142.5 127.199219 142.292969 126.316406 142.65625 C 125.785156 142.878906 125.070312 143.714844 123.945312 145.070312 C 123.128906 146.046875 121.761719 147.691406 121.332031 147.765625 C 120.796875 147.65625 119.476562 144.898438 118.574219 141.503906 C 118.136719 139.867188 116.503906 138.429688 114.617188 136.777344 C 113.585938 135.867188 112.515625 134.933594 111.476562 133.832031 C 109.859375 132.121094 110.417969 126.683594 111.808594 121.769531 L 126.835938 125.96875 C 126.707031 126.121094 126.601562 126.304688 126.519531 126.507812 C 126.210938 127.324219 126.464844 128.152344 127.105469 128.402344 C 127.226562 128.449219 127.347656 128.46875 127.46875 128.46875 C 128.007812 128.46875 128.546875 128.050781 128.804688 127.382812 C 128.914062 127.101562 128.945312 126.816406 128.925781 126.554688 L 129.554688 126.730469 C 128.488281 128.433594 125.777344 133.105469 126.472656 135.277344 C 126.640625 135.792969 126.984375 136.171875 127.492188 136.367188 C 127.738281 136.453125 128.003906 136.503906 128.277344 136.503906 C 129.53125 136.503906 131.035156 135.578125 132.679688 133.792969 C 133.457031 132.949219 134.257812 131.898438 134.976562 130.8125 C 135.105469 131.199219 135.242188 131.601562 135.394531 132.0625 Z M 135.886719 122.5625 C 135.855469 122.808594 135.738281 123.144531 135.59375 123.519531 C 134.414062 123.25 133.070312 123.304688 132.546875 123.339844 L 128.40625 122.023438 C 129.574219 122.085938 130.886719 122.246094 132.039062 122.625 C 132.09375 122.644531 132.148438 122.652344 132.203125 122.652344 C 132.410156 122.652344 132.613281 122.515625 132.679688 122.308594 C 132.769531 122.046875 132.625 121.753906 132.355469 121.667969 C 129.558594 120.746094 125.988281 120.992188 125.332031 121.046875 L 113.390625 117.261719 C 113.875 116.140625 114.386719 115.164062 114.898438 114.410156 C 117.550781 110.546875 128.945312 110.65625 129.808594 110.667969 C 132.410156 111.402344 135 112.15625 137.453125 112.90625 C 137.15625 114.71875 136.035156 121.480469 135.886719 122.5625 Z M 73.289062 106.289062 C 75.324219 106.347656 77.695312 106.402344 79.328125 106.355469 C 79.601562 106.335938 79.941406 106.300781 80.3125 106.265625 L 91.332031 106.402344 L 88.761719 112.542969 L 75.101562 112.542969 L 73.585938 112.570312 L 73.292969 106.289062 Z M 67.652344 155.636719 C 67.632812 155.691406 67.597656 155.738281 67.558594 155.777344 C 67.519531 155.820312 63.375 160.1875 61.445312 169.035156 C 61.390625 169.273438 61.183594 169.433594 60.953125 169.433594 C 60.921875 169.433594 60.878906 169.433594 60.847656 169.421875 C 60.578125 169.359375 60.402344 169.089844 60.460938 168.820312 C 62.296875 160.414062 65.980469 156.019531 66.710938 155.210938 C 66.777344 155.136719 66.824219 155.085938 66.839844 155.070312 C 67.035156 154.867188 67.351562 154.867188 67.550781 155.058594 C 67.707031 155.210938 67.742188 155.441406 67.652344 155.628906 Z M 67.085938 175.6875 L 66.914062 189.03125 C 71.785156 188.878906 78.066406 191.183594 85.589844 195.886719 C 91.371094 199.5 95.777344 203.273438 95.820312 203.308594 C 96.027344 203.492188 96.054688 203.808594 95.875 204.023438 C 95.691406 204.230469 95.375 204.257812 95.160156 204.078125 C 94.984375 203.929688 77.761719 189.261719 66.425781 190.058594 C 55.082031 190.859375 38.179688 207.628906 38.011719 207.804688 C 37.910156 207.90625 37.78125 207.953125 37.652344 207.953125 C 37.527344 207.953125 37.398438 207.90625 37.296875 207.804688 C 37.101562 207.609375 37.101562 207.285156 37.296875 207.089844 C 37.992188 206.394531 54.199219 190.320312 65.886719 189.105469 L 66.0625 175.675781 C 66.0625 175.398438 66.292969 175.175781 66.570312 175.175781 C 66.84375 175.175781 67.074219 175.410156 67.066406 175.6875 Z M 71.933594 193.628906 C 71.988281 193.914062 77.871094 222.335938 94.863281 243.167969 C 95.039062 243.382812 95.003906 243.699219 94.789062 243.875 C 94.695312 243.949219 94.578125 243.992188 94.472656 243.992188 C 94.324219 243.992188 94.183594 243.929688 94.082031 243.800781 C 76.925781 222.765625 71.003906 194.109375 70.949219 193.820312 C 70.894531 193.542969 71.070312 193.277344 71.347656 193.226562 C 71.617188 193.171875 71.886719 193.347656 71.941406 193.621094 Z M 100.476562 268.292969 C 100.476562 268.347656 100.476562 268.402344 100.464844 268.457031 C 100.335938 268.902344 97.289062 279.449219 94.175781 283.191406 C 94.074219 283.3125 93.933594 283.371094 93.785156 283.371094 C 93.667969 283.371094 93.554688 283.332031 93.460938 283.257812 C 93.246094 283.082031 93.21875 282.757812 93.394531 282.542969 C 96.371094 278.964844 99.460938 268.289062 99.492188 268.179688 C 99.566406 267.921875 99.828125 267.769531 100.085938 267.828125 C 100.097656 267.828125 100.105469 267.828125 100.121094 267.828125 C 100.335938 267.890625 100.46875 268.078125 100.476562 268.292969 Z M 101.890625 267.835938 C 101.945312 267.855469 102.257812 267.964844 102.714844 268.1875 C 104.535156 269.070312 108.828125 271.839844 110.046875 278.769531 C 110.09375 279.042969 109.914062 279.308594 109.636719 279.355469 C 109.609375 279.355469 109.574219 279.363281 109.550781 279.363281 C 109.304688 279.363281 109.097656 279.1875 109.050781 278.945312 C 107.628906 270.855469 101.636719 268.820312 101.574219 268.800781 C 101.339844 268.726562 101.210938 268.496094 101.238281 268.261719 C 101.238281 268.226562 101.238281 268.199219 101.253906 268.167969 C 101.339844 267.902344 101.621094 267.753906 101.890625 267.84375 Z M 117.488281 271.53125 C 117.21875 271.460938 117.058594 271.1875 117.125 270.917969 C 117.191406 270.648438 117.46875 270.484375 117.738281 270.550781 C 117.988281 270.613281 123.816406 272.183594 124.792969 277.636719 C 124.839844 277.914062 124.660156 278.175781 124.382812 278.222656 C 124.355469 278.222656 124.324219 278.230469 124.296875 278.230469 C 124.054688 278.230469 123.84375 278.0625 123.796875 277.8125 C 122.941406 273.003906 117.542969 271.542969 117.480469 271.53125 Z M 112.097656 274.878906 C 112.078125 274.601562 112.285156 274.359375 112.566406 274.339844 C 112.84375 274.320312 113.085938 274.527344 113.109375 274.8125 C 114.164062 289.941406 108.671875 300.691406 96.796875 306.757812 C 96.722656 306.800781 96.640625 306.8125 96.566406 306.8125 C 96.386719 306.8125 96.203125 306.710938 96.117188 306.535156 C 95.988281 306.289062 96.089844 305.984375 96.339844 305.855469 C 107.984375 299.910156 113.140625 289.78125 112.101562 274.878906 Z M 159.445312 248.472656 C 159.328125 248.777344 159.058594 249.808594 160.234375 250.378906 C 160.480469 250.5 160.582031 250.804688 160.460938 251.054688 C 160.375 251.234375 160.191406 251.335938 160.011719 251.335938 C 159.9375 251.335938 159.863281 251.324219 159.789062 251.28125 C 158.351562 250.574219 158.101562 249.1875 158.5 248.117188 C 158.953125 246.886719 160.117188 246.175781 161.203125 246.457031 C 161.472656 246.523438 161.636719 246.800781 161.566406 247.070312 C 161.5 247.339844 161.222656 247.5 160.953125 247.433594 C 160.285156 247.265625 159.679688 247.839844 159.449219 248.464844 Z M 102.039062 256.558594 C 102.039062 256.558594 102 256.558594 101.972656 256.558594 C 101.972656 256.558594 101.972656 256.558594 101.964844 256.558594 C 101.691406 256.519531 101.5 256.265625 101.542969 255.988281 C 102.378906 250.203125 102.75 239.5 102.75 239.394531 C 102.753906 239.117188 102.992188 238.921875 103.261719 238.910156 C 103.261719 238.910156 103.265625 238.910156 103.273438 238.910156 C 103.476562 238.914062 103.652344 239.042969 103.726562 239.226562 C 103.753906 239.292969 103.765625 239.359375 103.765625 239.433594 C 103.765625 239.542969 103.402344 249.988281 102.585938 255.878906 C 102.574219 255.96875 102.558594 256.054688 102.554688 256.136719 C 102.519531 256.386719 102.304688 256.566406 102.054688 256.566406 Z M 350.089844 321.824219 L 342.757812 321.824219 L 342.757812 52.664062 C 342.757812 52.386719 342.527344 52.160156 342.25 52.160156 L 167.773438 52.160156 C 167.5 52.160156 167.269531 52.386719 167.269531 52.664062 L 167.269531 229.054688 C 164.585938 229.019531 162.195312 229.027344 161.4375 229.027344 C 160.914062 228.765625 158.75 227.753906 156.128906 227.660156 C 153.851562 227.605469 145.898438 230.726562 141.628906 232.417969 C 140.53125 232.855469 139.488281 233.265625 139.324219 233.308594 C 138.726562 233.449219 131.964844 234.59375 128.472656 235.1875 C 128.199219 235.234375 128.015625 235.5 128.058594 235.769531 C 128.105469 236.042969 128.367188 236.234375 128.636719 236.179688 C 129.046875 236.113281 138.773438 234.46875 139.546875 234.292969 C 139.765625 234.246094 140.453125 233.96875 141.996094 233.355469 C 145.851562 231.824219 153.824219 228.664062 156.015625 228.664062 C 156.039062 228.664062 156.0625 228.664062 156.089844 228.664062 C 158.804688 228.757812 161.046875 229.957031 161.074219 229.972656 C 161.148438 230.011719 161.230469 230.023438 161.316406 230.03125 C 164.972656 230.011719 174.796875 230.074219 176.308594 230.558594 C 178.046875 231.117188 190.125 241.96875 190.257812 243.546875 C 190.144531 244.078125 189.597656 244.765625 188.667969 245.027344 C 187.609375 245.324219 185.3125 245.265625 181.714844 241.597656 L 182.171875 240.855469 C 182.320312 240.621094 182.246094 240.308594 182.007812 240.164062 C 181.773438 240.015625 181.464844 240.089844 181.316406 240.324219 L 180.871094 241.039062 C 179.726562 240.453125 176.867188 238.914062 175.824219 237.730469 C 175.222656 236.925781 174.832031 236.414062 174.8125 236.394531 C 173.585938 234.957031 168.832031 231.964844 168.632812 231.839844 C 168.394531 231.691406 168.085938 231.765625 167.9375 232 C 167.789062 232.234375 167.863281 232.546875 168.097656 232.695312 C 168.144531 232.722656 172.917969 235.726562 174.050781 237.046875 C 174.238281 237.269531 174.546875 237.675781 174.925781 238.171875 C 174.945312 238.234375 174.980469 238.296875 175.019531 238.347656 C 175.074219 238.410156 175.136719 238.46875 175.195312 238.53125 C 177.191406 241.207031 180.730469 246.242188 181.300781 247.386719 C 181.066406 247.601562 180.464844 248.015625 179.542969 248.019531 C 179.53125 248.019531 179.515625 248.019531 179.503906 248.019531 C 178.1875 248.019531 176.105469 247.207031 173.523438 243.453125 L 173.929688 242.796875 C 174.078125 242.5625 174.003906 242.25 173.765625 242.101562 C 173.53125 241.953125 173.222656 242.027344 173.074219 242.265625 L 172.742188 242.796875 C 172.042969 242.40625 170.570312 241.535156 169.390625 240.472656 C 168.851562 239.980469 168.375 239.453125 168.066406 238.910156 C 167.964844 238.160156 168.1875 237.0625 168.191406 237.054688 C 168.246094 236.777344 168.070312 236.515625 167.800781 236.457031 C 167.53125 236.394531 167.261719 236.578125 167.203125 236.847656 C 167.195312 236.894531 167.011719 237.796875 167.035156 238.640625 C 165.726562 238.78125 161.835938 239.0625 157.996094 237.84375 C 157.726562 237.757812 157.441406 237.902344 157.363281 238.171875 C 157.273438 238.4375 157.421875 238.726562 157.691406 238.808594 C 161.929688 240.148438 166.101562 239.777344 167.316406 239.621094 C 167.539062 239.964844 167.816406 240.304688 168.117188 240.628906 C 167.429688 240.828125 166.648438 240.957031 165.746094 241.011719 C 165.542969 241.023438 165.363281 241.160156 165.292969 241.347656 C 164.789062 242.816406 163.722656 244.003906 162.046875 244.972656 C 161.59375 244.792969 161.109375 244.617188 160.589844 244.460938 C 158.75 243.890625 156.808594 243.214844 155.117188 242.542969 C 155.453125 241.039062 156.09375 238.929688 156.101562 238.910156 C 156.183594 238.640625 156.035156 238.355469 155.765625 238.273438 C 155.496094 238.195312 155.210938 238.34375 155.132812 238.613281 C 155.105469 238.707031 154.511719 240.632812 154.160156 242.15625 C 152.164062 241.316406 150.65625 240.519531 150.332031 239.988281 C 150.191406 239.746094 149.875 239.671875 149.636719 239.816406 C 149.402344 239.960938 149.320312 240.269531 149.46875 240.511719 C 150.582031 242.351562 158.675781 244.941406 160.292969 245.4375 C 163.945312 246.570312 164.898438 247.746094 164.222656 250.285156 C 164.101562 250.738281 163.824219 251.085938 163.375 251.34375 C 161.6875 252.308594 158.054688 251.800781 155.21875 251.007812 C 154.101562 250.695312 151.914062 250.128906 149.679688 249.558594 C 149.644531 249.542969 149.609375 249.539062 149.570312 249.53125 C 146.222656 248.679688 142.804688 247.832031 142.75 247.820312 C 142.480469 247.75 142.203125 247.914062 142.136719 248.1875 C 142.070312 248.457031 142.238281 248.734375 142.507812 248.800781 C 142.554688 248.816406 145.066406 249.441406 147.890625 250.152344 C 141.164062 252.589844 135 248.945312 134.929688 248.902344 C 134.695312 248.761719 134.378906 248.835938 134.238281 249.070312 C 134.09375 249.308594 134.167969 249.617188 134.40625 249.765625 C 134.453125 249.792969 134.65625 249.914062 134.984375 250.082031 C 133.023438 251.035156 130.414062 252.484375 129.632812 252.925781 C 129.503906 253 129.425781 253.042969 129.40625 253.054688 C 129.160156 253.191406 129.074219 253.5 129.214844 253.742188 C 129.261719 253.824219 129.332031 253.890625 129.410156 253.933594 C 129.484375 253.972656 129.574219 254 129.652344 254 C 129.734375 254 129.824219 253.980469 129.902344 253.933594 C 129.921875 253.917969 130.949219 253.339844 132.242188 252.644531 L 129.195312 259.457031 C 129.121094 259.625 129.140625 259.824219 129.257812 259.96875 C 129.351562 260.097656 129.5 260.167969 129.660156 260.167969 C 129.6875 260.167969 129.714844 260.167969 129.742188 260.167969 L 146.253906 257.597656 C 146.457031 257.566406 146.617188 257.417969 146.664062 257.222656 L 148.160156 251.128906 C 148.613281 250.964844 149.070312 250.777344 149.53125 250.5625 C 150.425781 250.789062 151.308594 251.011719 152.117188 251.222656 L 150.554688 258.253906 L 155.675781 257.515625 L 156.511719 252.355469 C 156.824219 252.421875 157.152344 252.488281 157.503906 252.550781 L 156.726562 257.367188 L 162.957031 256.480469 L 163.164062 252.535156 C 163.425781 252.449219 163.671875 252.347656 163.898438 252.21875 C 164.015625 252.152344 164.109375 252.078125 164.210938 252.003906 L 163.980469 256.335938 L 170.160156 255.453125 L 169.714844 245.195312 L 164.527344 245.992188 L 164.5 246.503906 C 164.140625 246.125 163.691406 245.796875 163.164062 245.507812 C 163.535156 245.257812 163.878906 244.996094 164.1875 244.71875 L 171.933594 243.597656 C 171.972656 243.597656 172.007812 243.574219 172.042969 243.558594 C 172.285156 243.695312 172.480469 243.800781 172.59375 243.863281 C 172.78125 244.144531 172.976562 244.414062 173.167969 244.664062 L 170.714844 245.042969 L 171.160156 255.304688 L 178.429688 254.269531 L 176.933594 248.289062 C 177.34375 248.519531 177.738281 248.695312 178.105469 248.808594 L 179.433594 254.121094 L 185.738281 253.21875 L 182.671875 243.84375 C 183.164062 244.246094 183.628906 244.582031 184.070312 244.867188 L 186.753906 253.070312 L 192.5625 252.238281 L 189.847656 245.609375 C 190.644531 245.121094 191.121094 244.386719 191.257812 243.753906 C 191.359375 243.269531 190.703125 242.265625 189.625 241.003906 L 193.46875 240.351562 L 199.632812 253.136719 L 123.75 264.148438 L 123.367188 264.203125 C 123.089844 264.242188 122.902344 264.5 122.941406 264.777344 C 122.976562 265.027344 123.191406 265.207031 123.441406 265.207031 C 123.464844 265.207031 123.488281 265.207031 123.515625 265.207031 L 123.582031 265.207031 C 123.582031 265.207031 199.414062 254.195312 199.414062 254.195312 C 198.691406 255.152344 197.632812 255.804688 196.414062 255.988281 L 181.578125 258.210938 C 181.558594 257.660156 181.105469 257.222656 180.546875 257.222656 C 179.988281 257.222656 179.515625 257.6875 179.515625 258.253906 L 179.515625 258.515625 L 125.578125 266.589844 C 125.3125 266.628906 125.125 266.871094 125.144531 267.136719 C 125.171875 267.40625 125.394531 267.628906 125.664062 267.59375 L 147.738281 266.796875 C 156.445312 273.222656 158.890625 284.46875 155.007812 300.226562 L 140.5 304.785156 C 140.234375 304.863281 140.085938 305.148438 140.167969 305.410156 C 140.167969 305.410156 140.167969 305.417969 140.167969 305.425781 C 140.234375 305.632812 140.425781 305.769531 140.632812 305.773438 C 140.632812 305.773438 140.648438 305.773438 140.652344 305.773438 C 140.699219 305.773438 140.753906 305.769531 140.800781 305.753906 L 155.582031 301.109375 C 155.75 301.058594 155.878906 300.921875 155.917969 300.753906 C 158.171875 291.742188 158.40625 284.152344 156.632812 278.019531 C 157.859375 277.441406 161.984375 275.527344 164.210938 274.878906 C 164.925781 274.671875 165.921875 274.40625 167.039062 274.105469 C 167.085938 274.089844 167.140625 274.078125 167.1875 274.0625 L 167.1875 321.828125 L 24.929688 321.828125 C 24.652344 321.828125 24.421875 322.058594 24.421875 322.335938 C 24.421875 322.613281 24.652344 322.839844 24.929688 322.839844 L 350.089844 322.839844 C 350.367188 322.839844 350.59375 322.613281 350.59375 322.335938 C 350.59375 322.058594 350.367188 321.828125 350.089844 321.828125 Z M 145.753906 256.648438 L 130.496094 259.019531 L 133.699219 251.871094 C 134.59375 251.40625 135.484375 250.953125 136.199219 250.636719 C 137.734375 251.269531 140.148438 252.023438 142.984375 252.023438 C 144.257812 252.023438 145.621094 251.871094 147.03125 251.484375 L 145.761719 256.648438 Z M 179.496094 241.457031 L 178.632812 241.558594 C 178.390625 241.214844 178.140625 240.875 177.898438 240.539062 C 178.457031 240.882812 179.015625 241.191406 179.496094 241.457031 Z M 166.136719 242.007812 C 166.507812 241.980469 166.859375 241.933594 167.1875 241.878906 L 167.1875 243.261719 L 165.261719 243.539062 C 165.617188 243.058594 165.914062 242.554688 166.128906 242.007812 Z M 168.199219 243.113281 L 168.199219 241.660156 C 168.457031 241.589844 168.699219 241.511719 168.933594 241.421875 C 169.515625 241.929688 170.132812 242.371094 170.707031 242.75 Z M 180.070312 243.605469 C 179.820312 243.242188 179.5625 242.871094 179.300781 242.5 L 180.984375 242.304688 C 181.34375 242.667969 181.691406 243.007812 182.03125 243.304688 L 180.074219 243.605469 Z M 168.28125 53.171875 L 341.746094 53.171875 L 341.746094 321.824219 L 337.101562 321.824219 L 337.101562 58.105469 C 337.101562 57.828125 336.871094 57.597656 336.597656 57.597656 L 173.429688 57.597656 C 173.152344 57.597656 172.925781 57.828125 172.925781 58.105469 L 172.925781 229.210938 C 171.507812 229.140625 169.878906 229.09375 168.28125 229.066406 Z M 194.308594 239.777344 L 218.0625 186.183594 C 218.398438 185.414062 219.242188 185.003906 220.050781 185.210938 L 228.351562 187.273438 C 228.703125 187.363281 229 187.597656 229.15625 187.929688 C 229.308594 188.257812 229.316406 188.636719 229.167969 188.964844 L 200.371094 252.339844 L 194.304688 239.777344 Z M 196.5625 256.976562 C 198.441406 256.695312 200.03125 255.496094 200.835938 253.777344 C 200.835938 253.769531 200.839844 253.761719 200.847656 253.75 L 230.09375 189.390625 C 230.367188 188.785156 230.363281 188.097656 230.070312 187.496094 C 229.78125 186.898438 229.242188 186.464844 228.601562 186.304688 L 220.300781 184.242188 C 219.011719 183.925781 217.675781 184.570312 217.136719 185.785156 L 193.398438 239.347656 L 188.832031 240.128906 C 185.023438 235.988281 177.933594 230.03125 176.617188 229.609375 C 176.171875 229.464844 175.1875 229.359375 173.933594 229.277344 L 173.933594 58.609375 L 336.089844 58.609375 L 336.089844 286.828125 L 278.835938 286.828125 C 280.574219 283.535156 282.089844 280.054688 283.351562 276.410156 C 284.902344 276.308594 286.128906 275.035156 286.128906 273.457031 L 286.128906 266.894531 L 286.007812 266.894531 C 287.582031 259.695312 288.339844 251.976562 288.238281 243.835938 C 288.230469 243.140625 288.21875 242.441406 288.191406 241.738281 C 288.667969 241.488281 289 240.992188 289 240.417969 L 289 238.984375 C 289.652344 238.511719 290.078125 237.757812 290.078125 236.886719 C 290.078125 235.457031 288.917969 234.304688 287.496094 234.304688 C 286.074219 234.304688 284.914062 235.464844 284.914062 236.886719 C 284.914062 237.75 285.347656 238.511719 285.992188 238.984375 L 285.992188 240.417969 C 285.992188 241.011719 286.34375 241.523438 286.84375 241.765625 C 286.863281 242.460938 286.875 243.148438 286.890625 243.835938 C 286.992188 251.992188 286.230469 259.707031 284.632812 266.894531 L 280.191406 266.894531 L 280.191406 273.457031 C 280.191406 274.683594 280.929688 275.734375 281.996094 276.1875 C 280.6875 279.921875 279.117188 283.472656 277.304688 286.828125 L 187.496094 286.828125 C 185.089844 281.242188 183.261719 274.839844 182.171875 267.582031 C 186.800781 264.566406 192.28125 260.792969 192.855469 260.097656 C 193.527344 259.277344 193.871094 257.988281 194.011719 257.363281 Z M 285.191406 273.449219 C 285.191406 274.386719 284.558594 275.164062 283.695312 275.398438 C 284.050781 274.328125 284.390625 273.25 284.707031 272.148438 C 285.003906 272.5 285.191406 272.953125 285.191406 273.449219 Z M 282.328125 275.289062 C 281.625 274.972656 281.132812 274.265625 281.132812 273.445312 C 281.132812 272.324219 282.042969 271.414062 283.164062 271.414062 C 283.277344 271.414062 283.390625 271.429688 283.5 271.449219 C 283.136719 272.75 282.746094 274.03125 282.320312 275.289062 Z M 288.972656 237.433594 C 288.832031 236.75 288.222656 236.238281 287.503906 236.238281 C 286.78125 236.238281 286.175781 236.75 286.035156 237.433594 C 285.972656 237.265625 285.933594 237.082031 285.933594 236.894531 C 285.933594 236.023438 286.640625 235.324219 287.503906 235.324219 C 288.367188 235.324219 289.074219 236.03125 289.074219 236.894531 C 289.074219 237.082031 289.03125 237.265625 288.972656 237.433594 Z M 276.757812 287.839844 C 275 290.96875 273.019531 293.914062 270.816406 296.664062 C 260.925781 308.988281 247.007812 316.464844 232.625 317.171875 C 215.398438 318.027344 197.457031 308.949219 187.925781 287.839844 Z M 173.933594 272.128906 C 174.742188 271.867188 175.445312 271.605469 175.964844 271.367188 C 176.730469 271.015625 178.644531 269.84375 180.925781 268.382812 C 182.003906 275.285156 183.742188 281.425781 186.007812 286.828125 L 173.929688 286.828125 L 173.929688 272.128906 Z M 181.363281 260.363281 C 181.496094 260.1875 181.578125 259.972656 181.578125 259.734375 L 181.578125 259.214844 L 184.246094 258.816406 C 184.410156 259.261719 184.753906 259.917969 185.421875 260.300781 C 185.777344 260.503906 186.183594 260.609375 186.621094 260.609375 C 187.058594 260.609375 187.503906 260.515625 188 260.328125 C 188.265625 260.226562 188.390625 259.9375 188.292969 259.675781 C 188.191406 259.410156 187.898438 259.285156 187.636719 259.382812 C 186.929688 259.652344 186.355469 259.675781 185.925781 259.429688 C 185.601562 259.25 185.394531 258.941406 185.273438 258.671875 L 190.050781 257.957031 C 190.144531 258.164062 190.164062 258.378906 190.105469 258.617188 C 189.820312 259.742188 188.015625 261.007812 186.453125 261.710938 C 185.765625 262.019531 183.851562 262.667969 181.632812 263.375 C 181.53125 262.390625 181.445312 261.386719 181.363281 260.367188 Z M 186.867188 262.625 C 188.566406 261.859375 190.699219 260.414062 191.089844 258.859375 C 191.183594 258.496094 191.164062 258.136719 191.0625 257.800781 L 192.929688 257.515625 C 192.773438 258.105469 192.496094 258.925781 192.066406 259.453125 C 191.621094 259.992188 186.5 263.542969 181.996094 266.488281 C 181.902344 265.800781 181.820312 265.09375 181.738281 264.390625 C 184.070312 263.644531 186.113281 262.957031 186.855469 262.621094 Z M 145.363281 264.640625 C 145.074219 265.066406 144.925781 265.503906 144.878906 265.882812 L 134.609375 266.253906 L 145.371094 264.640625 Z M 166.785156 273.121094 C 165.660156 273.421875 164.65625 273.691406 163.933594 273.902344 C 161.6875 274.554688 157.726562 276.382812 156.335938 277.035156 C 154.808594 272.441406 152.097656 268.707031 148.195312 265.875 C 148.101562 265.808594 147.992188 265.765625 147.878906 265.78125 L 145.902344 265.855469 C 146.011719 265.390625 146.347656 264.707031 147.425781 264.34375 L 152.015625 263.65625 C 152.554688 263.71875 157.503906 264.386719 158.796875 267.734375 C 158.878906 267.9375 159.066406 268.058594 159.269531 268.058594 C 159.328125 268.058594 159.390625 268.046875 159.449219 268.023438 C 159.714844 267.925781 159.84375 267.632812 159.742188 267.371094 C 158.84375 265.058594 156.59375 263.859375 154.761719 263.246094 L 179.515625 259.539062 L 179.515625 259.75 C 179.515625 260.132812 179.726562 260.460938 180.035156 260.636719 C 180.117188 261.703125 180.21875 262.761719 180.324219 263.800781 C 176.382812 265.046875 172.066406 266.347656 171.992188 266.367188 C 171.722656 266.449219 171.578125 266.730469 171.65625 266.992188 C 171.722656 267.214844 171.925781 267.351562 172.140625 267.351562 C 172.191406 267.351562 172.238281 267.351562 172.289062 267.332031 C 172.582031 267.242188 176.636719 266.023438 180.445312 264.816406 C 180.546875 265.652344 180.65625 266.480469 180.769531 267.296875 C 178.417969 268.8125 176.394531 270.058594 175.554688 270.445312 C 173.820312 271.234375 169.757812 272.324219 166.789062 273.121094 Z M 168.199219 273.78125 C 169.785156 273.355469 171.460938 272.890625 172.917969 272.445312 L 172.917969 321.824219 L 168.199219 321.824219 Z M 173.933594 287.839844 L 186.4375 287.839844 C 195.71875 308.984375 213.214844 318.574219 230.414062 318.574219 C 231.175781 318.574219 231.9375 318.554688 232.699219 318.519531 C 247.460938 317.792969 261.742188 310.136719 271.871094 297.511719 C 274.277344 294.511719 276.410156 291.277344 278.296875 287.847656 L 312.433594 287.847656 L 312.433594 311.328125 L 288.675781 311.328125 L 288.675781 321.828125 L 173.941406 321.828125 L 173.941406 287.847656 Z M 332.671875 321.824219 L 332.671875 311.320312 L 313.4375 311.320312 L 313.4375 287.839844 L 336.089844 287.839844 L 336.089844 321.824219 Z M 204.84375 117.40625 C 203.414062 117.40625 202.261719 118.566406 202.261719 119.988281 C 202.261719 121.410156 203.421875 122.570312 204.84375 122.570312 C 206.265625 122.570312 207.425781 121.410156 207.425781 119.988281 C 207.425781 118.566406 206.265625 117.40625 204.84375 117.40625 Z M 204.84375 121.566406 C 203.976562 121.566406 203.273438 120.859375 203.273438 119.996094 C 203.273438 119.132812 203.980469 118.425781 204.84375 118.425781 C 205.707031 118.425781 206.414062 119.132812 206.414062 119.996094 C 206.414062 120.859375 205.707031 121.566406 204.84375 121.566406 Z M 201.273438 99.777344 C 201.273438 99.5 201.5 99.269531 201.777344 99.269531 L 225.90625 99.269531 C 226.183594 99.269531 226.414062 99.5 226.414062 99.777344 C 226.414062 100.054688 226.183594 100.28125 225.90625 100.28125 L 201.777344 100.28125 C 201.5 100.28125 201.273438 100.054688 201.273438 99.777344 Z M 225.90625 104.601562 L 201.777344 104.601562 C 201.5 104.601562 201.273438 104.375 201.273438 104.097656 C 201.273438 103.820312 201.5 103.589844 201.777344 103.589844 L 225.90625 103.589844 C 226.183594 103.589844 226.414062 103.820312 226.414062 104.097656 C 226.414062 104.375 226.183594 104.601562 225.90625 104.601562 Z M 287.503906 117.40625 C 286.074219 117.40625 284.921875 118.566406 284.921875 119.988281 C 284.921875 121.410156 286.082031 122.570312 287.503906 122.570312 C 288.925781 122.570312 290.085938 121.410156 290.085938 119.988281 C 290.085938 118.566406 288.925781 117.40625 287.503906 117.40625 Z M 287.503906 121.566406 C 286.632812 121.566406 285.933594 120.859375 285.933594 119.996094 C 285.933594 119.132812 286.640625 118.425781 287.503906 118.425781 C 288.367188 118.425781 289.074219 119.132812 289.074219 119.996094 C 289.074219 120.859375 288.367188 121.566406 287.503906 121.566406 Z M 283.9375 99.777344 C 283.9375 99.5 284.167969 99.269531 284.441406 99.269531 L 308.570312 99.269531 C 308.847656 99.269531 309.078125 99.5 309.078125 99.777344 C 309.078125 100.054688 308.847656 100.28125 308.570312 100.28125 L 284.441406 100.28125 C 284.167969 100.28125 283.9375 100.054688 283.9375 99.777344 Z M 308.566406 104.601562 L 284.4375 104.601562 C 284.160156 104.601562 283.929688 104.375 283.929688 104.097656 C 283.929688 103.820312 284.160156 103.589844 284.4375 103.589844 L 308.566406 103.589844 C 308.839844 103.589844 309.070312 103.820312 309.070312 104.097656 C 309.070312 104.375 308.839844 104.601562 308.566406 104.601562 Z M 309.070312 216.671875 C 309.070312 216.949219 308.839844 217.179688 308.566406 217.179688 L 284.4375 217.179688 C 284.160156 217.179688 283.929688 216.949219 283.929688 216.671875 C 283.929688 216.398438 284.160156 216.167969 284.4375 216.167969 L 308.566406 216.167969 C 308.839844 216.167969 309.070312 216.398438 309.070312 216.671875 Z M 309.070312 220.992188 C 309.070312 221.269531 308.839844 221.5 308.566406 221.5 L 284.4375 221.5 C 284.160156 221.5 283.929688 221.269531 283.929688 220.992188 C 283.929688 220.71875 284.160156 220.488281 284.4375 220.488281 L 308.566406 220.488281 C 308.839844 220.488281 309.070312 220.71875 309.070312 220.992188 Z M 240.890625 162.546875 L 240.890625 162.761719 L 238.855469 162.761719 C 238.578125 162.761719 238.347656 162.988281 238.347656 163.265625 L 238.347656 173.058594 C 238.347656 173.335938 238.578125 173.566406 238.855469 173.566406 L 246.71875 173.566406 C 246.996094 173.566406 247.226562 173.335938 247.226562 173.058594 L 247.226562 163.265625 C 247.226562 162.988281 246.996094 162.761719 246.71875 162.761719 L 244.683594 162.761719 L 244.683594 162.546875 C 244.683594 162.269531 244.453125 162.039062 244.179688 162.039062 L 241.394531 162.039062 C 241.117188 162.039062 240.890625 162.269531 240.890625 162.546875 Z M 246.214844 163.773438 L 246.214844 172.554688 L 239.359375 172.554688 L 239.359375 163.773438 L 240.890625 163.773438 L 240.890625 167.390625 C 240.890625 167.667969 241.117188 167.898438 241.394531 167.898438 L 244.179688 167.898438 C 244.453125 167.898438 244.683594 167.667969 244.683594 167.390625 L 244.683594 163.773438 Z M 265.335938 162.546875 L 265.335938 162.761719 L 263.300781 162.761719 C 263.023438 162.761719 262.792969 162.988281 262.792969 163.265625 L 262.792969 173.058594 C 262.792969 173.335938 263.023438 173.566406 263.300781 173.566406 L 271.164062 173.566406 C 271.441406 173.566406 271.671875 173.335938 271.671875 173.058594 L 271.671875 163.265625 C 271.671875 162.988281 271.441406 162.761719 271.164062 162.761719 L 269.128906 162.761719 L 269.128906 162.546875 C 269.128906 162.269531 268.902344 162.039062 268.625 162.039062 L 265.839844 162.039062 C 265.5625 162.039062 265.335938 162.269531 265.335938 162.546875 Z M 270.667969 163.773438 L 270.667969 172.554688 L 263.8125 172.554688 L 263.8125 163.773438 L 265.34375 163.773438 L 265.34375 167.390625 C 265.34375 167.667969 265.570312 167.898438 265.847656 167.898438 L 268.632812 167.898438 C 268.90625 167.898438 269.136719 167.667969 269.136719 167.390625 L 269.136719 163.773438 Z M 191.992188 162.546875 L 191.992188 162.761719 L 189.957031 162.761719 C 189.679688 162.761719 189.449219 162.988281 189.449219 163.265625 L 189.449219 173.058594 C 189.449219 173.335938 189.679688 173.566406 189.957031 173.566406 L 197.820312 173.566406 C 198.097656 173.566406 198.328125 173.335938 198.328125 173.058594 L 198.328125 163.265625 C 198.328125 162.988281 198.097656 162.761719 197.820312 162.761719 L 195.785156 162.761719 L 195.785156 162.546875 C 195.785156 162.269531 195.558594 162.039062 195.28125 162.039062 L 192.496094 162.039062 C 192.21875 162.039062 191.992188 162.269531 191.992188 162.546875 Z M 197.324219 163.773438 L 197.324219 172.554688 L 190.46875 172.554688 L 190.46875 163.773438 L 192 163.773438 L 192 167.390625 C 192 167.667969 192.226562 167.898438 192.503906 167.898438 L 195.289062 167.898438 C 195.5625 167.898438 195.792969 167.667969 195.792969 167.390625 L 195.792969 163.773438 Z M 216.445312 162.546875 L 216.445312 162.761719 L 214.410156 162.761719 C 214.132812 162.761719 213.902344 162.988281 213.902344 163.265625 L 213.902344 173.058594 C 213.902344 173.335938 214.132812 173.566406 214.410156 173.566406 L 222.273438 173.566406 C 222.550781 173.566406 222.78125 173.335938 222.78125 173.058594 L 222.78125 163.265625 C 222.78125 162.988281 222.550781 162.761719 222.273438 162.761719 L 220.238281 162.761719 L 220.238281 162.546875 C 220.238281 162.269531 220.007812 162.039062 219.734375 162.039062 L 216.949219 162.039062 C 216.671875 162.039062 216.445312 162.269531 216.445312 162.546875 Z M 221.769531 163.773438 L 221.769531 172.554688 L 214.914062 172.554688 L 214.914062 163.773438 L 216.445312 163.773438 L 216.445312 167.390625 C 216.445312 167.667969 216.671875 167.898438 216.949219 167.898438 L 219.734375 167.898438 C 220.007812 167.898438 220.238281 167.667969 220.238281 167.390625 L 220.238281 163.773438 Z M 289.789062 162.546875 L 289.789062 162.761719 L 287.753906 162.761719 C 287.476562 162.761719 287.246094 162.988281 287.246094 163.265625 L 287.246094 173.058594 C 287.246094 173.335938 287.476562 173.566406 287.753906 173.566406 L 295.617188 173.566406 C 295.894531 173.566406 296.125 173.335938 296.125 173.058594 L 296.125 163.265625 C 296.125 162.988281 295.894531 162.761719 295.617188 162.761719 L 293.582031 162.761719 L 293.582031 162.546875 C 293.582031 162.269531 293.351562 162.039062 293.078125 162.039062 L 290.292969 162.039062 C 290.015625 162.039062 289.789062 162.269531 289.789062 162.546875 Z M 295.113281 163.773438 L 295.113281 172.554688 L 288.257812 172.554688 L 288.257812 163.773438 L 289.789062 163.773438 L 289.789062 167.390625 C 289.789062 167.667969 290.015625 167.898438 290.292969 167.898438 L 293.078125 167.898438 C 293.351562 167.898438 293.582031 167.667969 293.582031 167.390625 L 293.582031 163.773438 Z M 314.234375 162.546875 L 314.234375 162.761719 L 312.199219 162.761719 C 311.921875 162.761719 311.691406 162.988281 311.691406 163.265625 L 311.691406 173.058594 C 311.691406 173.335938 311.921875 173.566406 312.199219 173.566406 L 320.0625 173.566406 C 320.339844 173.566406 320.570312 173.335938 320.570312 173.058594 L 320.570312 163.265625 C 320.570312 162.988281 320.339844 162.761719 320.0625 162.761719 L 318.027344 162.761719 L 318.027344 162.546875 C 318.027344 162.269531 317.796875 162.039062 317.523438 162.039062 L 314.738281 162.039062 C 314.460938 162.039062 314.234375 162.269531 314.234375 162.546875 Z M 319.558594 163.773438 L 319.558594 172.554688 L 312.703125 172.554688 L 312.703125 163.773438 L 314.234375 163.773438 L 314.234375 167.390625 C 314.234375 167.667969 314.460938 167.898438 314.738281 167.898438 L 317.523438 167.898438 C 317.796875 167.898438 318.027344 167.667969 318.027344 167.390625 L 318.027344 163.773438 Z M 187.261719 273.457031 C 187.261719 275.09375 188.585938 276.429688 190.230469 276.429688 C 191.871094 276.429688 193.203125 275.101562 193.203125 273.457031 L 193.203125 266.894531 L 187.265625 266.894531 L 187.265625 273.457031 Z M 190.230469 271.414062 C 191.351562 271.414062 192.261719 272.324219 192.261719 273.445312 C 192.261719 274.5625 191.351562 275.472656 190.230469 275.472656 C 189.113281 275.472656 188.203125 274.5625 188.203125 273.445312 C 188.203125 272.324219 189.113281 271.414062 190.230469 271.414062 Z M 208.8125 276.421875 C 210.453125 276.421875 211.785156 275.09375 211.785156 273.449219 L 211.785156 266.886719 L 205.847656 266.886719 L 205.847656 273.449219 C 205.847656 275.089844 207.175781 276.421875 208.820312 276.421875 Z M 208.8125 271.414062 C 209.933594 271.414062 210.84375 272.324219 210.84375 273.445312 C 210.84375 274.5625 209.933594 275.472656 208.8125 275.472656 C 207.695312 275.472656 206.785156 274.5625 206.785156 273.445312 C 206.785156 272.324219 207.695312 271.414062 208.8125 271.414062 Z M 227.402344 276.421875 C 229.039062 276.421875 230.375 275.09375 230.375 273.449219 L 230.375 266.886719 L 224.4375 266.886719 L 224.4375 273.449219 C 224.4375 275.089844 225.765625 276.421875 227.410156 276.421875 Z M 227.402344 271.414062 C 228.523438 271.414062 229.433594 272.324219 229.433594 273.445312 C 229.433594 274.5625 228.523438 275.472656 227.402344 275.472656 C 226.285156 275.472656 225.375 274.5625 225.375 273.445312 C 225.375 272.324219 226.285156 271.414062 227.402344 271.414062 Z M 245.992188 276.421875 C 247.628906 276.421875 248.964844 275.09375 248.964844 273.449219 L 248.964844 266.886719 L 243.027344 266.886719 L 243.027344 273.449219 C 243.027344 275.089844 244.355469 276.421875 246 276.421875 Z M 245.992188 271.414062 C 247.109375 271.414062 248.019531 272.324219 248.019531 273.445312 C 248.019531 274.5625 247.109375 275.472656 245.992188 275.472656 C 244.871094 275.472656 243.964844 274.5625 243.964844 273.445312 C 243.964844 272.324219 244.871094 271.414062 245.992188 271.414062 Z M 264.574219 276.421875 C 266.210938 276.421875 267.546875 275.09375 267.546875 273.449219 L 267.546875 266.886719 L 261.609375 266.886719 L 261.609375 273.449219 C 261.609375 275.089844 262.9375 276.421875 264.582031 276.421875 Z M 264.574219 271.414062 C 265.691406 271.414062 266.601562 272.324219 266.601562 273.445312 C 266.601562 274.5625 265.691406 275.472656 264.574219 275.472656 C 263.453125 275.472656 262.542969 274.5625 262.542969 273.445312 C 262.542969 272.324219 263.453125 271.414062 264.574219 271.414062 Z M 298.777344 273.457031 C 298.777344 275.09375 300.105469 276.429688 301.75 276.429688 C 303.390625 276.429688 304.722656 275.101562 304.722656 273.457031 L 304.722656 266.894531 L 298.785156 266.894531 L 298.785156 273.457031 Z M 301.75 271.414062 C 302.871094 271.414062 303.78125 272.324219 303.78125 273.445312 C 303.78125 274.5625 302.871094 275.472656 301.75 275.472656 C 300.632812 275.472656 299.722656 274.5625 299.722656 273.445312 C 299.722656 272.324219 300.632812 271.414062 301.75 271.414062 Z M 317.367188 273.457031 C 317.367188 275.09375 318.695312 276.429688 320.339844 276.429688 C 321.984375 276.429688 323.3125 275.101562 323.3125 273.457031 L 323.3125 266.894531 L 317.375 266.894531 L 317.375 273.457031 Z M 320.339844 271.414062 C 321.457031 271.414062 322.367188 272.324219 322.367188 273.445312 C 322.367188 274.5625 321.457031 275.472656 320.339844 275.472656 C 319.222656 275.472656 318.3125 274.5625 318.3125 273.445312 C 318.3125 272.324219 319.222656 271.414062 320.339844 271.414062 Z M 278.976562 222.652344 L 256.277344 222.652344 C 256 222.652344 255.769531 222.421875 255.769531 222.144531 L 255.769531 149.503906 L 243.296875 149.503906 L 243.296875 158.964844 C 243.296875 159.242188 243.066406 159.472656 242.789062 159.472656 C 242.515625 159.472656 242.285156 159.242188 242.285156 158.964844 L 242.285156 149.503906 L 218.851562 149.503906 L 218.851562 158.964844 C 218.851562 159.242188 218.621094 159.472656 218.34375 159.472656 C 218.066406 159.472656 217.839844 159.242188 217.839844 158.964844 L 217.839844 149.503906 L 194.40625 149.503906 L 194.40625 158.964844 C 194.40625 159.242188 194.175781 159.472656 193.898438 159.472656 C 193.621094 159.472656 193.394531 159.242188 193.394531 158.964844 L 193.394531 149 C 193.394531 148.722656 193.621094 148.492188 193.898438 148.492188 L 255.777344 148.492188 L 255.777344 140.78125 L 213.695312 140.78125 C 213.417969 140.78125 213.1875 140.554688 213.1875 140.277344 L 213.1875 126.9375 C 213.1875 126.660156 213.417969 126.433594 213.695312 126.433594 C 213.96875 126.433594 214.199219 126.660156 214.199219 126.9375 L 214.199219 139.769531 L 296.007812 139.769531 L 296.007812 126.9375 C 296.007812 126.660156 296.238281 126.433594 296.515625 126.433594 C 296.789062 126.433594 297.019531 126.660156 297.019531 126.9375 L 297.019531 140.277344 C 297.019531 140.554688 296.789062 140.78125 296.515625 140.78125 L 256.789062 140.78125 L 256.789062 148.492188 L 316.140625 148.492188 C 316.417969 148.492188 316.644531 148.722656 316.644531 149 L 316.644531 158.964844 C 316.644531 159.242188 316.417969 159.472656 316.140625 159.472656 C 315.863281 159.472656 315.636719 159.242188 315.636719 158.964844 L 315.636719 149.503906 L 292.199219 149.503906 L 292.199219 158.964844 C 292.199219 159.242188 291.972656 159.472656 291.695312 159.472656 C 291.417969 159.472656 291.191406 159.242188 291.191406 158.964844 L 291.191406 149.503906 L 267.753906 149.503906 L 267.753906 158.964844 C 267.753906 159.242188 267.527344 159.472656 267.25 159.472656 C 266.972656 159.472656 266.742188 159.242188 266.742188 158.964844 L 266.742188 149.503906 L 256.796875 149.503906 L 256.796875 221.640625 L 278.992188 221.640625 C 279.265625 221.640625 279.496094 221.871094 279.496094 222.144531 C 279.496094 222.421875 279.265625 222.652344 278.992188 222.652344 Z M 278.976562 222.652344 " fill-opacity="1" fill-rule="nonzero"/></g></svg>