<svg xmlns="http://www.w3.org/2000/svg" xmlns:xlink="http://www.w3.org/1999/xlink" width="500" zoomAndPan="magnify" viewBox="0 0 375 374.999991" height="500" preserveAspectRatio="xMidYMid meet" version="1.0"><path fill="#000000" d="M 234.140625 315.792969 C 224.796875 321.148438 219.09375 330.4375 218.265625 341.167969 L 216.164062 368.722656 C 215.890625 372.285156 212.941406 375.011719 209.367188 375.011719 L 165.695312 375.011719 C 162.121094 375.011719 159.183594 372.296875 158.910156 368.722656 L 156.796875 341.167969 C 155.84375 328.6875 148.324219 318.421875 136.710938 313.746094 C 135.882812 313.414062 135.058594 313.066406 134.230469 312.714844 C 122.785156 307.847656 110.0625 309.808594 100.621094 317.902344 L 79.644531 335.886719 C 76.929688 338.210938 72.921875 338.0625 70.398438 335.539062 L 39.515625 304.65625 C 36.992188 302.132812 36.84375 298.121094 39.164062 295.40625 L 57.160156 274.429688 C 65.253906 264.992188 67.214844 252.253906 62.335938 240.824219 C 61.988281 239.996094 61.648438 239.167969 61.320312 238.339844 C 56.632812 226.730469 46.375 219.21875 33.894531 218.253906 L 6.332031 216.144531 C 2.769531 215.867188 0.0429688 212.929688 0.0429688 209.355469 L 0.0429688 165.683594 C 0.0429688 162.109375 2.769531 159.164062 6.332031 158.898438 L 33.882812 156.777344 C 46.367188 155.820312 56.632812 148.304688 61.308594 136.699219 C 61.636719 135.863281 61.988281 135.035156 62.335938 134.207031 C 67.214844 122.777344 65.242188 110.039062 57.152344 100.601562 L 39.164062 79.632812 C 36.84375 76.917969 36.992188 72.910156 39.515625 70.386719 L 70.398438 39.503906 C 72.921875 36.96875 76.929688 36.820312 79.644531 39.15625 L 100.621094 57.140625 C 110.0625 65.234375 122.796875 67.195312 134.230469 62.328125 C 135.058594 61.976562 135.882812 61.636719 136.710938 61.296875 C 148.324219 56.621094 155.84375 46.355469 156.796875 33.871094 L 158.910156 6.308594 C 159.183594 2.746094 162.121094 0.03125 165.695312 0.03125 L 209.367188 0.03125 C 212.953125 0.03125 215.890625 2.746094 216.164062 6.308594 L 218.277344 33.871094 C 219.230469 46.355469 226.75 56.621094 238.363281 61.296875 C 239.191406 61.625 240.027344 61.976562 240.84375 62.328125 C 252.289062 67.195312 265.011719 65.234375 274.453125 57.140625 L 295.429688 39.15625 C 298.132812 36.820312 302.140625 36.96875 304.675781 39.503906 L 335.558594 70.386719 C 338.082031 72.910156 338.230469 76.917969 335.910156 79.625 L 317.914062 100.601562 C 309.820312 110.039062 307.859375 122.777344 312.738281 134.21875 C 313.085938 135.035156 313.425781 135.863281 313.765625 136.699219 C 318.441406 148.304688 328.707031 155.820312 341.191406 156.777344 L 368.742188 158.898438 C 372.304688 159.164062 375.03125 162.109375 375.03125 165.683594 L 375.03125 209.355469 C 375.03125 212.929688 372.304688 215.867188 368.742188 216.144531 L 341.191406 218.253906 C 331.488281 218.996094 322.855469 223.75 317.308594 231.753906 L 314.816406 235.351562 L 279.734375 204.914062 L 279.796875 204.5625 C 280.835938 198.941406 281.34375 193.238281 281.34375 187.519531 C 281.34375 135.703125 239.347656 93.707031 187.53125 93.707031 C 135.726562 93.707031 93.71875 135.703125 93.71875 187.519531 C 93.71875 239.328125 135.726562 281.335938 187.53125 281.335938 C 194.511719 281.335938 201.46875 280.5625 208.265625 279.023438 L 210.566406 278.515625 L 239.773438 312.554688 Z M 234.140625 315.792969 " fill-opacity="1" fill-rule="evenodd"/><path fill="#000000" d="M 164.539062 120.476562 C 188.933594 111.375 217.46875 116.667969 237.027344 136.328125 C 252.339844 151.738281 258.808594 172.609375 256.445312 192.632812 C 254.96875 205.113281 259.394531 216.535156 268.894531 224.777344 L 349.460938 294.675781 C 364.617188 307.828125 363.546875 332.132812 349.3125 346.28125 C 335.082031 360.429688 310.773438 361.371094 297.710938 346.132812 L 228.265625 265.183594 C 220.070312 255.636719 208.6875 251.152344 196.1875 252.550781 C 176.152344 254.800781 155.3125 248.214844 140 232.816406 C 120.441406 213.152344 115.308594 184.582031 124.546875 160.246094 L 169.84375 205.804688 C 171.390625 207.351562 173.449219 207.988281 175.601562 207.554688 L 201.320312 202.464844 C 203.894531 201.953125 205.804688 200.054688 206.324219 197.480469 L 211.5625 171.792969 C 212.007812 169.640625 211.394531 167.582031 209.835938 166.023438 Z M 313.933594 310.699219 C 319.289062 305.375 327.957031 305.398438 333.289062 310.765625 C 338.613281 316.121094 338.59375 324.785156 333.226562 330.109375 C 327.871094 335.441406 319.207031 335.410156 313.882812 330.054688 C 308.546875 324.699219 308.578125 316.035156 313.933594 310.699219 Z M 313.933594 310.699219 " fill-opacity="1" fill-rule="evenodd"/></svg>