<svg xmlns="http://www.w3.org/2000/svg" xmlns:xlink="http://www.w3.org/1999/xlink" width="500" zoomAndPan="magnify" viewBox="0 0 375 374.999991" height="500" preserveAspectRatio="xMidYMid meet" version="1.0"><defs><clipPath id="c2f239754b"><path d="M 48 39.109375 L 301 39.109375 L 301 331 L 48 331 Z M 48 39.109375 " clip-rule="nonzero"/></clipPath><clipPath id="0866fa5009"><path d="M 298 178 L 328.53125 178 L 328.53125 292 L 298 292 Z M 298 178 " clip-rule="nonzero"/></clipPath><clipPath id="378874a156"><path d="M 98.125 330 L 127.492188 330 L 127.492188 335.863281 L 98.125 335.863281 Z M 98.125 330 " clip-rule="nonzero"/></clipPath></defs><path fill="#d9cec5" d="M 63.453125 276.730469 C 62.792969 274.550781 62.957031 272.378906 62.789062 270.132812 C 62.78125 270.003906 62.601562 270.003906 62.589844 270.132812 C 62.441406 272.210938 62.035156 274.976562 63.117188 276.871094 C 63.21875 277.046875 63.511719 276.929688 63.453125 276.730469 " fill-opacity="1" fill-rule="nonzero"/><path fill="#d9cec5" d="M 65.449219 272.570312 C 65.480469 272.382812 65.199219 272.296875 65.15625 272.488281 C 64.789062 274.109375 64.507812 275.945312 64.925781 277.578125 C 64.972656 277.757812 65.238281 277.714844 65.242188 277.535156 C 65.300781 275.851562 65.160156 274.25 65.449219 272.570312 " fill-opacity="1" fill-rule="nonzero"/><path fill="#ffa382" d="M 274.234375 159.570312 C 274.136719 159.578125 264.363281 152.152344 264.269531 152.15625 L 236.710938 140.515625 C 236.710938 140.515625 233.5625 139.894531 233.003906 142.3125 C 232.289062 145.402344 235.609375 147.4375 235.609375 147.4375 C 235.609375 147.4375 253.734375 159.734375 259.933594 163.585938 C 266.222656 167.492188 266.5 166.066406 274.234375 159.570312 " fill-opacity="1" fill-rule="nonzero"/><path fill="#ffa382" d="M 275.054688 140.074219 C 271.824219 143.464844 265.667969 150.601562 261.269531 155.5625 C 263.507812 158.699219 270.707031 157.550781 273.046875 160.542969 C 275.820312 158.332031 275.933594 157.945312 282.566406 151.933594 C 279.933594 148.15625 276.75 144.320312 275.054688 140.074219 " fill-opacity="1" fill-rule="nonzero"/><path fill="#f6efe9" d="M 283.101562 126.660156 C 289.453125 127.097656 300.8125 127.925781 299.496094 132.609375 C 298.75 135.253906 289.527344 145.621094 281.625 154.160156 C 278.527344 150.753906 274.441406 146.570312 272.21875 142.574219 C 278.675781 133.175781 283.101562 126.660156 283.101562 126.660156 " fill-opacity="1" fill-rule="nonzero"/><path fill="#f2eded" d="M 237.964844 137.136719 C 237.390625 133.804688 233.816406 131.085938 231.675781 128.699219 C 231.164062 128.132812 230.425781 128.9375 230.769531 129.535156 C 231.453125 130.722656 232.910156 132.613281 233.058594 133.871094 C 232.605469 133.695312 231.910156 132.957031 231.429688 132.59375 C 228.816406 130.597656 224.523438 126.621094 222.964844 125.917969 C 222.511719 125.710938 221.820312 126.265625 222.210938 126.804688 C 223.109375 128.050781 228.980469 133.273438 230.074219 134.34375 C 229.863281 134.363281 226.117188 131.15625 225.558594 130.726562 C 223.933594 129.464844 222.648438 128.074219 220.96875 126.800781 C 220.488281 126.4375 219.839844 127.3125 220.191406 127.757812 C 221.152344 128.96875 222.46875 130.402344 223.707031 131.648438 C 223.703125 131.648438 227.988281 136.039062 227.988281 136.039062 C 227.988281 136.039062 224.097656 133.324219 222.890625 132.542969 C 221.785156 131.671875 220.792969 131.082031 219.503906 130.183594 C 218.914062 129.777344 218.484375 130.675781 218.839844 131.070312 C 220.054688 132.425781 220.984375 133.265625 222.214844 134.300781 C 223.246094 135.1875 226.726562 138.367188 226.988281 138.652344 C 225.785156 137.828125 221.953125 135.011719 220.886719 134.1875 C 220.054688 133.546875 219.496094 134.824219 220.300781 135.601562 C 221.953125 137.207031 224.710938 139.535156 226.457031 141.035156 C 226.683594 141.230469 226.914062 141.433594 227.144531 141.636719 C 227.160156 141.65625 227.175781 141.683594 227.191406 141.703125 C 228.34375 143.007812 229.191406 143.492188 229.917969 143.964844 C 230.597656 144.410156 232.371094 145.570312 232.371094 145.570312 L 235.015625 147.597656 C 235.015625 147.597656 236.972656 146.832031 238.195312 145.003906 C 239.800781 142.59375 239.59375 141.128906 239.59375 141.128906 C 239.59375 141.128906 238.59375 139.039062 237.964844 137.136719 " fill-opacity="1" fill-rule="nonzero"/><path fill="#d9cec5" d="M 238.980469 140.296875 C 238.066406 142.527344 236.234375 145.257812 234.300781 146.691406 C 233.871094 147.011719 233.4375 146.296875 233.867188 145.980469 C 235.683594 144.632812 237.722656 142.335938 238.578125 140.246094 C 238.78125 139.746094 239.179688 139.804688 238.980469 140.296875 " fill-opacity="1" fill-rule="nonzero"/><path fill="#f2eded" d="M 275.113281 138.359375 L 281.367188 147.597656 L 281.628906 153.84375 C 281.628906 153.84375 276.613281 153.1875 272.21875 142.574219 L 275.113281 138.359375 " fill-opacity="1" fill-rule="nonzero"/><path fill="#522928" d="M 287.753906 283.695312 C 287.753906 283.695312 276.308594 291.964844 274.03125 294.699219 C 272.253906 296.832031 272.578125 298.476562 273.707031 299.09375 C 275.894531 300.292969 280.773438 299.597656 286.847656 296.96875 C 292.925781 294.335938 297.609375 292.800781 297.996094 290.675781 C 298.386719 288.550781 297.066406 283.582031 297.066406 283.582031 C 297.066406 283.582031 288.742188 283.042969 287.753906 283.695312 " fill-opacity="1" fill-rule="nonzero"/><path fill="#e6dad0" d="M 272.78125 297.128906 C 272.78125 297.128906 273.285156 300.160156 281.996094 298.058594 C 285.457031 297.226562 292.144531 294.40625 293.179688 294.042969 C 295.199219 293.328125 298.089844 289.523438 298.070312 290.078125 C 298.042969 290.941406 298.222656 293.710938 298.222656 293.710938 C 298.222656 293.710938 297.863281 294.832031 287.347656 298.316406 C 284.832031 299.148438 274.121094 302.691406 272.980469 299.113281 C 272.90625 298.894531 272.773438 297.402344 272.78125 297.128906 " fill-opacity="1" fill-rule="nonzero"/><path fill="#522928" d="M 317.707031 288.539062 C 317.707031 288.539062 305.640625 295.871094 303.152344 298.417969 C 301.210938 300.398438 301.402344 302.0625 302.476562 302.773438 C 304.5625 304.140625 308.183594 303.789062 314.449219 301.652344 C 320.714844 299.515625 326.488281 298.378906 327.042969 296.292969 C 327.597656 294.203125 326.679688 289.148438 326.679688 289.148438 C 326.679688 289.148438 318.746094 287.96875 317.707031 288.539062 " fill-opacity="1" fill-rule="nonzero"/><path fill="#5c4342" d="M 97.125 290.753906 L 97.125 171.949219 L 106.519531 171.949219 L 106.519531 290.753906 C 106.519531 290.753906 102.539062 294.765625 97.125 290.753906 " fill-opacity="1" fill-rule="nonzero"/><path fill="#f6efe9" d="M 95.519531 220.75 C 78.738281 218.816406 64.726562 224.167969 63.707031 231.640625 C 63.28125 234.742188 62.910156 237.589844 62.585938 240.222656 C 62.011719 243.160156 59.578125 252.800781 59.382812 255.3125 C 59.183594 257.828125 59.40625 260.230469 59.652344 262.730469 C 59.878906 265.03125 58.839844 267.351562 59.453125 269.609375 C 59.769531 270.769531 60.023438 271.464844 59.8125 272.703125 C 59.679688 273.46875 60.222656 274.4375 60.6875 275.351562 C 60.789062 277.910156 60.921875 280.558594 61.035156 283.570312 C 61.414062 293.441406 98.542969 293.828125 98.542969 293.828125 C 98.09375 271.089844 98.628906 271.730469 100.113281 261.964844 C 102.535156 246.023438 108.066406 222.199219 95.519531 220.75 " fill-opacity="1" fill-rule="nonzero"/><path fill="#d9cec5" d="M 63.453125 276.730469 C 62.792969 274.550781 62.957031 272.378906 62.789062 270.132812 C 62.78125 270.003906 62.601562 270.003906 62.589844 270.132812 C 62.441406 272.210938 62.035156 274.976562 63.117188 276.871094 C 63.21875 277.046875 63.511719 276.929688 63.453125 276.730469 " fill-opacity="1" fill-rule="nonzero"/><path fill="#d9cec5" d="M 65.449219 272.570312 C 65.480469 272.382812 65.199219 272.296875 65.15625 272.488281 C 64.789062 274.109375 64.507812 275.945312 64.925781 277.578125 C 64.972656 277.757812 65.238281 277.714844 65.242188 277.535156 C 65.300781 275.851562 65.160156 274.25 65.449219 272.570312 " fill-opacity="1" fill-rule="nonzero"/><path fill="#ffa382" d="M 118.828125 256.863281 C 115.582031 250.960938 112.746094 246.027344 110.277344 241.894531 C 107.652344 245.710938 104.4375 249.09375 100.988281 252.234375 C 106.085938 258.914062 108.933594 262.488281 109.617188 263.34375 C 112 260.335938 116.449219 259.769531 119.207031 257.109375 L 118.828125 256.863281 " fill-opacity="1" fill-rule="nonzero"/><path fill="#ffa382" d="M 124.730469 227.84375 L 112.777344 254.914062 C 114.347656 256.015625 108.527344 262.097656 109.78125 263.550781 C 110.953125 264.910156 114.007812 267.746094 117.3125 266.3125 C 126.132812 262.492188 129.707031 232.402344 129.707031 232.402344 C 129.707031 232.402344 130.410156 228.367188 127.738281 226.578125 C 125.648438 225.179688 124.730469 227.84375 124.730469 227.84375 " fill-opacity="1" fill-rule="nonzero"/><path fill="#f6efe9" d="M 99.253906 222.199219 C 93.984375 218.476562 85.804688 223.226562 86.140625 228.148438 C 86.332031 230.921875 93.328125 243.121094 99.398438 253.238281 C 103.175781 250.5 108.515625 246.527344 111.550781 243.027344 C 103.269531 225.820312 101.394531 223.710938 99.253906 222.199219 " fill-opacity="1" fill-rule="nonzero"/><path fill="#f2eded" d="M 100.589844 252.617188 C 100.589844 252.617188 110.402344 245.769531 111.550781 243.027344 L 109.617188 239.042969 C 109.617188 239.042969 98.167969 248.875 98.191406 249.007812 C 98.21875 249.136719 100.589844 252.617188 100.589844 252.617188 " fill-opacity="1" fill-rule="nonzero"/><path fill="#6377ba" d="M 321.34375 183.730469 L 285.859375 188.820312 C 285.859375 188.820312 284.4375 220.832031 284.378906 228.707031 C 284.15625 256.636719 285.527344 279.875 285.453125 284.136719 C 285.4375 285.019531 287.441406 286.011719 290.035156 286.003906 C 292.644531 285.996094 296.609375 285.066406 296.933594 284.132812 C 296.976562 284.011719 297.019531 283.859375 297.0625 283.679688 C 297.613281 283.234375 297.972656 282.53125 297.824219 281.660156 C 297.34375 278.796875 298.835938 275.910156 299.296875 273.132812 C 299.558594 271.546875 299.484375 270.089844 299.34375 268.5 C 299.308594 268.117188 299.3125 267.75 299.328125 267.390625 C 299.402344 266.851562 299.472656 266.304688 299.546875 265.738281 C 299.699219 264.960938 299.894531 264.191406 300.046875 263.363281 C 300.261719 262.183594 300.296875 261.011719 300.335938 259.828125 C 300.464844 258.867188 300.601562 257.878906 300.742188 256.855469 C 300.828125 256.234375 300.914062 255.625 300.996094 255.027344 C 301.089844 254.644531 301.183594 254.261719 301.277344 253.875 C 301.644531 252.316406 301.839844 250.769531 301.816406 249.234375 C 305.949219 220.59375 307.433594 220.324219 315.972656 207.5625 C 325.472656 193.371094 321.34375 183.730469 321.34375 183.730469 " fill-opacity="1" fill-rule="nonzero"/><g clip-path="url(#c2f239754b)"><path fill="#cbe1f5" d="M 294.015625 307.515625 L 160.167969 330.953125 C 156.691406 331.316406 153.410156 329.285156 152.179688 326.015625 L 49.394531 51.601562 C 49.144531 50.925781 48.992188 50.25 48.929688 49.578125 C 48.542969 45.28125 51.878906 41.296875 56.472656 41.230469 L 189.570312 39.390625 C 192.726562 39.351562 195.585938 41.242188 196.777344 44.167969 L 197.484375 45.894531 L 300.316406 296.984375 C 302.25 301.71875 299.101562 306.980469 294.015625 307.515625 " fill-opacity="1" fill-rule="nonzero"/></g><path fill="#d7e9fa" d="M 213.28125 155.625 C 183.175781 131.46875 152.773438 110.894531 115.8125 100.753906 C 108.960938 98.964844 101.507812 100.15625 94.054688 101.050781 C 84.878906 102.175781 75.824219 102.003906 67.253906 99.28125 L 72.238281 112.59375 C 77.480469 116.105469 83.183594 118.96875 89.882812 120.433594 C 109.554688 124.90625 128.332031 126.398438 146.515625 133.855469 C 157.542969 138.328125 167.976562 143.398438 179.300781 146.976562 C 187.648438 149.660156 195.996094 151.152344 203.742188 155.027344 C 220.988281 163.96875 236.996094 174.476562 253.71875 183.730469 L 247.457031 168.378906 C 244.21875 168.03125 240.96875 167.671875 237.722656 167.253906 C 228.484375 166.359375 220.734375 161.292969 213.28125 155.625 " fill-opacity="1" fill-rule="nonzero"/><path fill="#d7e9fa" d="M 271.109375 296.085938 C 262.167969 289.523438 256.800781 280.578125 247.859375 273.71875 C 247.261719 273.421875 245.769531 273.421875 245.769531 274.316406 C 244.28125 279.382812 246.964844 285.347656 244.28125 289.824219 C 222.820312 288.03125 212.984375 264.769531 197.1875 251.648438 C 191.523438 247.175781 185.265625 245.386719 179.300781 241.210938 C 167.679688 232.863281 158.734375 223.617188 146.515625 215.863281 C 144.726562 214.96875 142.9375 214.371094 141.148438 214.371094 C 134.59375 214.074219 128.035156 215.863281 121.476562 215.269531 C 117.316406 214.777344 113.378906 213.769531 109.617188 212.375 L 122.675781 247.242188 C 133.6875 256.984375 144.402344 267.25 155.753906 277.296875 C 164.996094 285.347656 174.535156 292.503906 186.753906 294.890625 C 189.734375 295.789062 193.015625 297.574219 195.398438 293.699219 C 197.78125 290.121094 195.996094 284.753906 199.867188 282.367188 C 202.847656 280.578125 205.53125 284.453125 207.917969 286.242188 C 219.839844 295.488281 244.015625 316.273438 244.015625 316.273438 L 287.367188 308.679688 C 287.417969 308.675781 280.210938 302.980469 271.109375 296.085938 " fill-opacity="1" fill-rule="nonzero"/><path fill="#d7e9fa" d="M 93.757812 168.449219 C 100.613281 175.308594 107.46875 180.675781 116.113281 184.851562 C 128.929688 190.816406 140.253906 198.566406 154.265625 200.65625 C 172.746094 203.636719 190.925781 200.953125 207.917969 211.09375 C 232.65625 225.707031 255.609375 238.828125 280.347656 253.4375 C 281.144531 253.902344 281.941406 254.367188 282.730469 254.832031 L 271.644531 227.660156 C 270.871094 227.3125 270.09375 226.960938 269.316406 226.601562 C 243.089844 214.371094 220.433594 199.164062 196.886719 180.972656 C 189.140625 174.710938 181.6875 169.042969 172.148438 166.660156 C 160.226562 163.976562 151.285156 173.21875 140.851562 177.992188 C 131.613281 182.167969 120.582031 179.480469 112.535156 172.921875 C 99.492188 161.792969 90.152344 148.6875 80.707031 135.195312 L 92.820312 167.539062 C 93.132812 167.84375 93.441406 168.148438 93.757812 168.449219 " fill-opacity="1" fill-rule="nonzero"/><path fill="#f7b76d" d="M 134.289062 269.382812 C 136.09375 262.28125 131.601562 255.351562 136.949219 252.296875 C 142.300781 249.238281 156.855469 247.886719 153.730469 258.660156 C 148.144531 277.917969 150.675781 273.257812 152.203125 285.902344 C 153.730469 298.542969 135 282.105469 134.289062 280.210938 C 133.578125 278.316406 134.289062 269.382812 134.289062 269.382812 " fill-opacity="1" fill-rule="nonzero"/><path fill="#d99055" d="M 151.113281 253.851562 C 150.109375 256.332031 148.667969 258.054688 146.933594 260.046875 C 145.792969 261.359375 144.921875 262.746094 144.78125 264.507812 C 144.773438 264.636719 144.964844 264.632812 144.984375 264.507812 C 145.316406 261.875 147.265625 260.21875 148.878906 258.308594 C 149.96875 257.015625 150.855469 255.542969 151.316406 253.90625 C 151.351562 253.773438 151.164062 253.726562 151.113281 253.851562 " fill-opacity="1" fill-rule="nonzero"/><path fill="#d99055" d="M 147.792969 255.375 C 146.816406 256.539062 145.886719 257.441406 144.667969 258.363281 C 143.710938 259.082031 142.800781 259.839844 142.121094 260.839844 C 142.054688 260.9375 142.210938 261.023438 142.277344 260.929688 C 143.210938 259.640625 144.5625 258.832031 145.808594 257.882812 C 146.652344 257.238281 147.582031 256.496094 147.9375 255.460938 C 147.960938 255.382812 147.847656 255.3125 147.792969 255.375 " fill-opacity="1" fill-rule="nonzero"/><path fill="#d99055" d="M 151.167969 268.125 C 147.804688 271.636719 148.351562 277.410156 144.289062 280.441406 C 144.144531 280.550781 144.285156 280.796875 144.433594 280.6875 C 148.460938 277.765625 148.597656 272.109375 151.320312 268.242188 C 151.382812 268.152344 151.242188 268.046875 151.167969 268.125 " fill-opacity="1" fill-rule="nonzero"/><path fill="#d99055" d="M 147.890625 279.242188 C 146.484375 280.675781 145.3125 282.457031 144.8125 284.417969 C 144.761719 284.609375 145.054688 284.691406 145.109375 284.5 C 145.660156 282.515625 146.96875 281.058594 148.054688 279.363281 C 148.117188 279.265625 147.972656 279.15625 147.890625 279.242188 " fill-opacity="1" fill-rule="nonzero"/><path fill="#d99055" d="M 139.285156 269.144531 C 136.957031 270.898438 135.929688 273.792969 136.167969 276.648438 C 136.183594 276.839844 136.480469 276.839844 136.464844 276.648438 C 136.265625 273.785156 137.441406 271.328125 139.421875 269.316406 C 139.503906 269.234375 139.390625 269.066406 139.285156 269.144531 " fill-opacity="1" fill-rule="nonzero"/><path fill="#d99055" d="M 147.269531 263.910156 C 145.929688 265.097656 145.675781 266.269531 145.914062 268.015625 C 146.3125 270.953125 146.199219 273.917969 143.789062 275.984375 C 143.652344 276.097656 143.847656 276.289062 143.980469 276.175781 C 145.363281 274.996094 146.21875 273.390625 146.46875 271.585938 C 146.628906 270.425781 146.515625 269.300781 146.355469 268.148438 C 146.121094 266.464844 146.453125 265.410156 147.4375 264.042969 C 147.511719 263.9375 147.355469 263.835938 147.269531 263.910156 " fill-opacity="1" fill-rule="nonzero"/><path fill="#f7b76d" d="M 245.90625 194.273438 C 245.90625 194.273438 234.554688 194.066406 234.96875 199.066406 C 235.386719 204.070312 227.574219 211.304688 238.300781 212.375 C 249.027344 213.445312 244.96875 212.507812 251.945312 216.574219 C 258.921875 220.636719 262.046875 221.992188 262.359375 216.574219 C 262.675781 211.15625 261.394531 208.414062 260.785156 205.824219 C 260.171875 203.234375 253.300781 191.980469 245.90625 194.273438 " fill-opacity="1" fill-rule="nonzero"/><path fill="#d99055" d="M 242.160156 208.363281 C 244.125 207.042969 246.210938 205.800781 248.015625 204.261719 C 249.808594 202.730469 251.265625 200.898438 253.109375 199.410156 C 253.238281 199.304688 253.074219 199.125 252.941406 199.191406 C 251.058594 200.144531 249.824219 202.003906 248.324219 203.429688 C 246.433594 205.222656 244.140625 206.621094 242.019531 208.128906 C 241.878906 208.226562 242.011719 208.460938 242.160156 208.363281 " fill-opacity="1" fill-rule="nonzero"/><path fill="#d99055" d="M 243.269531 203.980469 C 245.316406 202.839844 247.53125 201.640625 249.234375 200.007812 C 249.332031 199.914062 249.207031 199.757812 249.09375 199.824219 C 247.039062 201.011719 245.167969 202.511719 243.117188 203.722656 C 242.949219 203.820312 243.097656 204.078125 243.269531 203.980469 " fill-opacity="1" fill-rule="nonzero"/><path fill="#d99055" d="M 254.75 210.390625 C 255.359375 211.566406 256.402344 212.171875 257.527344 212.785156 C 259.339844 213.777344 260.0625 214.851562 260.566406 216.820312 C 260.597656 216.941406 260.804688 216.957031 260.824219 216.820312 C 261.398438 213 256.4375 212.78125 255.015625 210.238281 C 254.917969 210.0625 254.660156 210.21875 254.75 210.390625 " fill-opacity="1" fill-rule="nonzero"/><path fill="#d99055" d="M 245.703125 213.261719 C 247.421875 213.125 249.152344 212.78125 250.84375 213.296875 C 252.441406 213.785156 253.742188 214.863281 255.15625 215.699219 C 255.269531 215.765625 255.398438 215.605469 255.296875 215.515625 C 254.0625 214.375 252.574219 213.378906 250.957031 212.886719 C 249.214844 212.359375 247.417969 212.757812 245.675781 213.082031 C 245.574219 213.097656 245.597656 213.269531 245.703125 213.261719 " fill-opacity="1" fill-rule="nonzero"/><path fill="#d99055" d="M 237.335938 199.046875 C 239.925781 199.507812 242.65625 199.175781 244.835938 197.632812 C 244.929688 197.566406 244.851562 197.425781 244.746094 197.476562 C 242.382812 198.574219 240.019531 199.179688 237.410156 198.78125 C 237.238281 198.753906 237.160156 199.015625 237.335938 199.046875 " fill-opacity="1" fill-rule="nonzero"/><g clip-path="url(#0866fa5009)"><path fill="#6377ba" d="M 327.589844 273.886719 C 327.742188 271.5625 328.207031 269.285156 328.265625 266.945312 C 328.320312 264.730469 328.207031 262.519531 327.984375 260.316406 C 327.660156 257.085938 327.109375 253.890625 326.5 250.703125 C 326.351562 245.0625 326.148438 239.582031 325.878906 234.90625 C 325.171875 222.613281 325.164062 190.242188 321.863281 178.277344 C 321.863281 178.277344 303.746094 186.972656 299.691406 194.222656 C 293.332031 205.613281 310.085938 262.414062 315.714844 288.96875 C 315.765625 289.199219 317.585938 291.140625 321.101562 291.015625 C 325.015625 290.878906 327.050781 289.402344 327.03125 289.097656 C 327.023438 288.964844 327.019531 288.691406 327.011719 288.300781 C 327.378906 287.980469 327.648438 287.527344 327.71875 286.9375 C 327.996094 284.5625 328.472656 282.125 328.507812 279.730469 C 328.539062 277.683594 327.457031 275.921875 327.589844 273.886719 " fill-opacity="1" fill-rule="nonzero"/></g><path fill="#4c61a6" d="M 304.726562 241.203125 C 303.507812 234.949219 302.25 228.703125 301.089844 222.433594 C 299.929688 216.179688 299.003906 209.882812 297.832031 203.628906 C 297.816406 203.546875 297.675781 203.5625 297.683594 203.648438 C 298.3125 209.894531 299.414062 216.101562 300.515625 222.277344 C 301.652344 228.640625 302.949219 234.988281 304.511719 241.261719 C 304.546875 241.40625 304.753906 241.34375 304.726562 241.203125 " fill-opacity="1" fill-rule="nonzero"/><path fill="#4c61a6" d="M 320.746094 204.074219 C 320.746094 203.898438 320.757812 203.792969 320.636719 203.757812 C 320.558594 203.757812 320.402344 203.765625 320.335938 203.773438 C 315.390625 204.289062 311.996094 200.984375 310.375 196.542969 C 310.296875 196.328125 309.953125 196.414062 310.027344 196.636719 C 311.421875 200.972656 315.421875 205.476562 320.425781 204.140625 C 320.308594 205.027344 320.375 206.007812 320.664062 206.832031 C 320.703125 206.941406 320.878906 206.929688 320.875 206.800781 C 320.851562 205.898438 320.84375 204.980469 320.746094 204.074219 " fill-opacity="1" fill-rule="nonzero"/><path fill="#4c61a6" d="M 320.722656 206.589844 C 318.824219 206.511719 316.890625 206.53125 315.082031 205.875 C 312.722656 205.019531 311.519531 203.285156 310.582031 201.054688 C 310.496094 200.847656 310.152344 200.933594 310.238281 201.148438 C 311.042969 203.1875 311.996094 204.910156 314 205.949219 C 316.046875 207.011719 318.46875 207.148438 320.722656 206.910156 C 320.921875 206.890625 320.929688 206.597656 320.722656 206.589844 " fill-opacity="1" fill-rule="nonzero"/><path fill="#4c61a6" d="M 305.402344 190.277344 C 298.859375 191.289062 292.449219 191.296875 285.851562 191.058594 C 285.722656 191.054688 285.6875 191.273438 285.820312 191.292969 C 292.269531 192.332031 299.097656 191.824219 305.464844 190.515625 C 305.628906 190.484375 305.554688 190.253906 305.402344 190.277344 " fill-opacity="1" fill-rule="nonzero"/><path fill="#4c61a6" d="M 322.839844 187.207031 C 321.25 187.796875 319.703125 188.328125 318.011719 188.546875 C 317.804688 188.574219 317.800781 188.902344 318.011719 188.878906 C 319.714844 188.671875 321.421875 188.269531 322.929688 187.421875 C 323.042969 187.359375 322.96875 187.160156 322.839844 187.207031 " fill-opacity="1" fill-rule="nonzero"/><path fill="#f6efe9" d="M 321.207031 182.378906 L 322.296875 179.707031 C 322.296875 179.707031 322.558594 180.742188 321.875 177.675781 C 321.804688 176.183594 321.820312 174.671875 321.613281 173.25 C 321.121094 169.875 319.421875 166.882812 319.046875 163.457031 C 318.671875 159.976562 318.398438 156.53125 317.605469 153.109375 C 316.789062 149.558594 315.566406 146.136719 314.070312 142.8125 C 313.996094 142.644531 313.902344 142.496094 313.804688 142.371094 C 311.117188 131.4375 308.199219 125.414062 299.945312 122.769531 C 293.503906 120.703125 281.234375 124.75 280.449219 133.210938 C 280.242188 135.410156 280.480469 153.296875 282.269531 164.675781 C 284.527344 179.023438 286.558594 186.5625 286.558594 186.5625 L 318.863281 183.878906 C 318.996094 184.230469 322.304688 184.691406 321.207031 182.378906 " fill-opacity="1" fill-rule="nonzero"/><path fill="#f2eded" d="M 284.546875 129.457031 C 284.546875 129.457031 284.578125 130.78125 286.972656 130.136719 C 289.363281 129.492188 292.878906 123.597656 293.921875 123.039062 C 294.960938 122.476562 295.160156 121.78125 295.160156 121.78125 C 295.160156 121.78125 292.164062 120.855469 290.550781 121.289062 C 288.9375 121.71875 284.441406 125.550781 284.546875 129.457031 " fill-opacity="1" fill-rule="nonzero"/><path fill="#6377ba" d="M 315.953125 186.617188 C 315.324219 184.488281 313.113281 183.960938 312.410156 181.925781 C 311.699219 179.863281 311.476562 177.792969 310.203125 175.949219 C 309.492188 174.921875 308.574219 174.03125 307.925781 172.964844 C 307.914062 172.949219 307.90625 172.929688 307.894531 172.910156 C 307.558594 172.0625 307.191406 171.179688 306.796875 170.253906 C 306.699219 169.960938 306.601562 169.664062 306.5 169.371094 C 305.613281 166.8125 304.453125 164.414062 302.945312 162.164062 C 302.863281 162.042969 302.773438 161.9375 302.679688 161.839844 C 302.261719 161.066406 301.828125 160.277344 301.367188 159.46875 C 291.574219 142.316406 290.945312 138.660156 291.628906 131.074219 C 292.148438 125.300781 297.957031 122.34375 297.957031 122.34375 L 295.160156 121.78125 C 291.578125 123.421875 289.371094 127.238281 288.972656 131.855469 C 288.046875 142.578125 287.199219 152.085938 287.199219 152.085938 L 284.351562 155.75 C 284.351562 155.75 283.710938 155.746094 283.085938 146.097656 C 282.460938 136.445312 284.796875 125.363281 284.796875 125.363281 L 283.101562 126.660156 C 280.585938 133.03125 280.824219 148.082031 281.1875 155.234375 C 281.699219 165.234375 285.875 187.109375 285.875 187.109375 L 310.488281 186.382812 C 310.640625 186.527344 310.804688 186.667969 310.972656 186.804688 C 311.140625 186.9375 311.945312 187.363281 311.996094 187.535156 C 312.734375 190.027344 316.699219 189.132812 315.953125 186.617188 " fill-opacity="1" fill-rule="nonzero"/><path fill="#4c61a6" d="M 298.457031 186.648438 C 296.667969 183.777344 296.226562 179.933594 295.972656 176.628906 C 295.960938 176.472656 295.722656 176.46875 295.726562 176.628906 C 295.753906 178.597656 295.984375 180.550781 296.425781 182.46875 C 296.78125 183.996094 297.175781 185.625 298.269531 186.792969 C 298.363281 186.890625 298.53125 186.765625 298.457031 186.648438 " fill-opacity="1" fill-rule="nonzero"/><path fill="#4c61a6" d="M 298.605469 181.234375 C 298.566406 181.011719 298.226562 181.109375 298.269531 181.328125 C 298.554688 182.984375 298.746094 184.699219 299.195312 186.320312 C 299.230469 186.445312 299.441406 186.425781 299.433594 186.289062 C 299.300781 184.597656 298.902344 182.90625 298.605469 181.234375 " fill-opacity="1" fill-rule="nonzero"/><path fill="#4c61a6" d="M 295.90625 185.144531 C 295.535156 183.550781 294.910156 182.09375 294.703125 180.445312 C 294.683594 180.285156 294.429688 180.277344 294.441406 180.445312 C 294.582031 182.035156 294.800781 183.871094 295.648438 185.253906 C 295.730469 185.394531 295.941406 185.304688 295.90625 185.144531 " fill-opacity="1" fill-rule="nonzero"/><path fill="#ffa382" d="M 290.347656 174.117188 C 291.90625 172.933594 297.46875 162.046875 301.425781 152.875 C 297.210938 149.875 293.238281 147.289062 287.976562 145.457031 C 284.730469 154.613281 280.972656 165.445312 280.972656 165.445312 L 280.515625 166.074219 C 283.046875 169.453125 286.664062 171.5 289.917969 174.386719 C 290.097656 174.285156 290.242188 174.195312 290.347656 174.117188 " fill-opacity="1" fill-rule="nonzero"/><path fill="#ffa382" d="M 280.515625 166.074219 L 259.046875 192.027344 C 259.046875 192.027344 258.464844 194.34375 259.808594 195.621094 C 261.589844 197.316406 263.632812 197.367188 263.632812 197.367188 C 265.324219 196.332031 286.726562 178.65625 289.917969 174.386719 C 287.972656 171.046875 284.183594 168.160156 280.515625 166.074219 " fill-opacity="1" fill-rule="nonzero"/><path fill="#f6efe9" d="M 295.097656 129.082031 C 298.855469 124.617188 300.851562 125.199219 302.664062 125.515625 C 304.675781 125.867188 309.804688 129.128906 308.824219 136.894531 C 308.386719 140.359375 304.605469 148.714844 301.425781 156.089844 C 297.210938 153.085938 290.96875 150.34375 286.972656 146.96875 C 289.425781 140.035156 293.476562 131.003906 295.097656 129.082031 " fill-opacity="1" fill-rule="nonzero"/><path fill="#f2eded" d="M 253.316406 198.582031 C 253.566406 197.355469 251.507812 197.5 249.59375 197.570312 C 248.882812 197.597656 247.453125 198.011719 247.453125 198.011719 C 247.453125 198.011719 246.980469 196.699219 247.949219 196.015625 C 250.335938 194.324219 251.265625 194.179688 253.8125 193.257812 C 255.503906 192.640625 259.417969 191.425781 259.417969 191.425781 C 259.417969 191.425781 260.246094 191.664062 262.257812 193.257812 C 263.734375 194.425781 264.652344 196.675781 264.652344 196.675781 C 264.652344 196.675781 260.851562 203.929688 259.734375 205.273438 C 258.246094 207.058594 253.605469 207.0625 251.851562 207.507812 C 250.925781 207.742188 248.421875 207.425781 247.640625 207.011719 C 244.011719 205.09375 252.730469 201.433594 253.316406 198.582031 " fill-opacity="1" fill-rule="nonzero"/><path fill="#d9cec5" d="M 258.125 192.117188 C 260.242188 192.96875 262.507812 195.957031 263.691406 197.910156 C 263.953125 198.34375 263.660156 198.480469 263.371094 198.066406 C 262.042969 196.15625 260.359375 194.125 258.003906 192.398438 C 257.59375 192.09375 257.648438 191.925781 258.125 192.117188 " fill-opacity="1" fill-rule="nonzero"/><path fill="#f2eded" d="M 288.273438 143.476562 L 303.410156 151.507812 L 301.425781 156.089844 C 301.425781 156.089844 288.910156 151 286.972656 146.96875 L 288.273438 143.476562 " fill-opacity="1" fill-rule="nonzero"/><path fill="#522928" d="M 56.738281 318.9375 C 59.410156 318.285156 67.285156 316.136719 67.285156 316.136719 L 67.78125 316.203125 C 68.648438 311.984375 69 308.019531 71.109375 304.242188 L 69.058594 302.898438 C 68.46875 302.511719 67.742188 302.410156 67.074219 302.632812 C 64.046875 303.625 55.128906 309.9375 53.289062 310.933594 C 51.054688 312.148438 47.53125 316.378906 47.917969 319.054688 C 48.328125 321.921875 54.417969 319.503906 56.738281 318.9375 " fill-opacity="1" fill-rule="nonzero"/><path fill="#e6dad0" d="M 48.199219 319.761719 C 48.199219 319.761719 47.234375 316.960938 54 311.082031 C 56.734375 308.707031 63.273438 305.472656 64.234375 304.9375 C 66.105469 303.902344 69.890625 303.886719 69.609375 303.410156 C 69.203125 302.707031 68.039062 301.214844 68.039062 301.214844 C 68.039062 301.214844 66.074219 301.019531 56.667969 306.871094 C 50.789062 310.53125 46.53125 317.335938 47.191406 318.695312 C 47.292969 318.902344 47.988281 319.585938 48.199219 319.761719 " fill-opacity="1" fill-rule="nonzero"/><path fill="#6377ba" d="M 99.34375 282.417969 C 99.34375 282.417969 134.984375 286.015625 136.882812 303.585938 C 137.632812 310.535156 132.378906 314.941406 105.894531 317.023438 C 98.015625 317.640625 70.714844 318.242188 67.710938 316.460938 C 64.820312 314.75 69 303.089844 69 303.089844 L 93.738281 302.890625 L 99.34375 282.417969 " fill-opacity="1" fill-rule="nonzero"/><path fill="#522928" d="M 119.359375 326.707031 C 117.152344 326.171875 112.058594 324.714844 110.082031 323.734375 L 110.417969 305.5 C 110.417969 305.5 103.121094 306.6875 96.972656 304.945312 L 98.214844 328.636719 L 98.234375 331.835938 C 98.417969 332.515625 98.804688 333.039062 99.449219 333.320312 C 102.371094 334.582031 115.566406 334.429688 117.660156 334.40625 C 120.824219 334.378906 125.574219 334.152344 127.0625 331.898438 C 128.652344 329.476562 121.679688 327.269531 119.359375 326.707031 " fill-opacity="1" fill-rule="nonzero"/><path fill="#6377ba" d="M 98.410156 285.253906 C 99.742188 274.734375 101.847656 262.238281 101.761719 251.101562 C 101.636719 235.058594 98.402344 221.539062 97.527344 221.21875 C 97.253906 221.121094 96.847656 220.972656 96.484375 220.898438 C 95.753906 220.742188 95.070312 220.703125 95.070312 220.703125 C 95.070312 220.703125 98.835938 236.367188 96.449219 245.09375 C 95.96875 246.84375 94.046875 246.777344 92.191406 247.039062 C 89.921875 247.363281 88.328125 247.023438 87.335938 245.09375 C 85.539062 241.601562 83.394531 234.476562 81.628906 231.242188 C 78.035156 224.667969 74.003906 222.5625 74.003906 222.5625 C 74.003906 222.5625 72.289062 223.195312 71.753906 223.4375 C 70.777344 223.878906 69.800781 224.398438 69.800781 224.398438 C 69.800781 224.398438 78.917969 226.367188 78.496094 247.796875 C 78.042969 270.902344 60.710938 276.871094 60.710938 276.871094 C 61.113281 286.082031 58.613281 289.640625 63.460938 300.230469 C 64.257812 301.976562 66.839844 304.324219 68.828125 305.347656 C 75.949219 308.996094 76.0625 309.105469 84.140625 308.457031 C 84.007812 307.503906 83.921875 306.953125 83.921875 306.953125 L 84.261719 308.445312 C 90.273438 307.953125 96.320312 306.660156 102.089844 305.089844 C 100.265625 294.566406 98.410156 285.253906 98.410156 285.253906 " fill-opacity="1" fill-rule="nonzero"/><path fill="#6377ba" d="M 65.394531 284.558594 C 65.394531 284.558594 100.988281 254.832031 110.097656 259.714844 C 120.875 265.488281 111.363281 322.445312 110.996094 322.914062 C 109.808594 324.441406 107.472656 324.375 103.46875 324.683594 C 100.570312 324.910156 98.214844 324.691406 97.394531 323.464844 C 95.984375 321.347656 96.589844 286.144531 96.589844 286.144531 C 96.589844 286.144531 89.097656 306.722656 73.949219 304.945312 C 58.804688 303.171875 65.394531 284.558594 65.394531 284.558594 " fill-opacity="1" fill-rule="nonzero"/><path fill="#4c61a6" d="M 85.214844 268.414062 C 81.023438 271.855469 77.03125 275.503906 72.671875 278.726562 C 72.234375 279.050781 72.507812 279.371094 72.941406 279.050781 C 77.304688 275.824219 81.578125 272.492188 85.769531 269.050781 C 86.191406 268.703125 85.632812 268.066406 85.214844 268.414062 " fill-opacity="1" fill-rule="nonzero"/><path fill="#ffa382" d="M 94.6875 268.472656 C 98.117188 269.507812 131.253906 268.90625 133.292969 268.464844 C 133.292969 268.464844 134.753906 266.992188 134.867188 264.503906 C 134.957031 262.625 132.90625 261.339844 132.90625 261.339844 L 100.550781 256.933594 C 100.550781 256.933594 93.921875 249.242188 87.625 241.679688 C 84.054688 245.539062 81.203125 249.230469 78.253906 253.566406 C 85.234375 260.894531 92.789062 267.898438 94.6875 268.472656 " fill-opacity="1" fill-rule="nonzero"/><path fill="#f6efe9" d="M 74.421875 227.902344 C 71.355469 226.183594 68.574219 227.078125 66.96875 228.015625 C 65.175781 229.058594 63.242188 235.398438 66.242188 241.175781 C 67.875 244.3125 72.640625 250.417969 78.253906 256.308594 C 81.398438 252.617188 86.484375 246.4375 89.417969 242.886719 C 84.417969 237.363281 76.644531 229.144531 74.421875 227.902344 " fill-opacity="1" fill-rule="nonzero"/><path fill="#f2eded" d="M 86.5 240.019531 L 73.949219 255.023438 L 77.71875 259.15625 L 90.773438 244.03125 L 86.5 240.019531 " fill-opacity="1" fill-rule="nonzero"/><path fill="#f2eded" d="M 147.691406 265.445312 C 147.691406 265.445312 147.449219 265.503906 147.082031 265.601562 C 145.988281 265.890625 143.757812 266.46875 143.523438 266.488281 C 142.097656 266.59375 141.128906 267.601562 140.097656 268.1875 C 137.441406 269.699219 136.902344 269.441406 134.167969 269.414062 C 132.246094 269.394531 127.59375 268.710938 127.59375 268.710938 C 127.59375 268.710938 126.941406 266.277344 127.359375 264.210938 C 127.714844 262.441406 128.707031 260.832031 128.707031 260.832031 C 128.707031 260.832031 133.574219 259.351562 134.472656 258.980469 C 135.371094 258.609375 140.371094 258.074219 141.109375 258.023438 C 142.253906 257.941406 146.113281 259.652344 147.054688 261.242188 C 147.140625 261.382812 147.214844 261.644531 147.28125 261.972656 C 147.316406 262.125 147.347656 262.292969 147.375 262.46875 C 147.433594 262.84375 147.484375 263.253906 147.53125 263.644531 C 147.542969 263.769531 147.554688 263.890625 147.566406 264.003906 C 147.636719 264.710938 147.679688 265.304688 147.6875 265.421875 C 147.691406 265.4375 147.691406 265.445312 147.691406 265.445312 " fill-opacity="1" fill-rule="nonzero"/><path fill="#4c61a6" d="M 96.242188 282.972656 C 96.203125 284.21875 96.183594 285.464844 96.171875 286.710938 C 96.089844 286.75 96.183594 287.402344 96.136719 287.503906 C 94.304688 291.210938 92.085938 294.203125 89.8125 297.660156 C 89.515625 298.117188 90.214844 298.589844 90.511719 298.136719 C 92.585938 294.980469 94.460938 291.71875 96.171875 288.355469 C 96.171875 296.289062 96.085938 304.21875 97.089844 312.09375 C 97.160156 312.636719 97.644531 312.632812 97.574219 312.09375 C 96.351562 302.511719 96.695312 292.882812 96.972656 283.230469 C 96.988281 282.683594 96.257812 282.429688 96.242188 282.972656 " fill-opacity="1" fill-rule="nonzero"/><path fill="#4c61a6" d="M 118.875 302.488281 C 117.242188 302.851562 115.609375 302.554688 114.308594 301.535156 C 114.851562 296.570312 115.003906 291.34375 115.089844 286.339844 C 115.097656 285.796875 114.441406 285.984375 114.429688 286.527344 C 114.253906 297.113281 113.933594 304.949219 111.804688 315.933594 C 111.703125 316.460938 111.917969 316.621094 112.035156 316.089844 C 113.105469 311.113281 113.542969 307.976562 114.148438 302.9375 C 114.15625 302.941406 114.160156 302.949219 114.167969 302.957031 C 114.988281 303.476562 115.636719 304.164062 115.984375 305.070312 C 116.179688 305.578125 116.324219 305.484375 116.261719 304.945312 C 116.183594 304.261719 115.957031 303.363281 115.394531 302.84375 C 116.53125 303.292969 117.664062 303.082031 118.902344 302.8125 C 119.429688 302.695312 119.40625 302.371094 118.875 302.488281 " fill-opacity="1" fill-rule="nonzero"/><path fill="#4c61a6" d="M 96.316406 300.242188 C 94.53125 300.214844 90.03125 300.265625 88.246094 300.242188 C 87.703125 300.230469 87.695312 300.609375 88.238281 300.617188 C 90.027344 300.640625 94.542969 301.058594 96.328125 301.085938 C 96.875 301.09375 96.859375 300.246094 96.316406 300.242188 " fill-opacity="1" fill-rule="nonzero"/><path fill="#4c61a6" d="M 89.839844 297.5625 C 86.550781 302.261719 80.808594 305.1875 75.175781 304.167969 C 74.640625 304.074219 74.625 304.308594 75.152344 304.40625 C 81.082031 305.476562 87.097656 302.953125 90.546875 298.027344 C 90.859375 297.578125 90.152344 297.117188 89.839844 297.5625 " fill-opacity="1" fill-rule="nonzero"/><path fill="#d9cec5" d="M 73.980469 254.894531 C 69.363281 248.660156 68.109375 246.113281 65.207031 238.917969 C 65.003906 238.414062 64.203125 238.675781 64.40625 239.183594 C 67.335938 246.449219 68.839844 248.835938 73.503906 255.128906 C 73.824219 255.566406 74.304688 255.332031 73.980469 254.894531 " fill-opacity="1" fill-rule="nonzero"/><path fill="#f7b76d" d="M 285.25 183.730469 C 285.25 183.730469 305.792969 184.625 322.296875 179.707031 L 323.253906 184.859375 C 323.253906 184.859375 315.828125 187.457031 306.886719 188.28125 C 295.066406 189.371094 285.859375 188.820312 285.859375 188.820312 L 285.25 183.730469 " fill-opacity="1" fill-rule="nonzero"/><path fill="#f7b76d" d="M 60.710938 275.886719 L 77.183594 275.175781 L 72.367188 279.003906 L 70.933594 280.117188 L 60.773438 280.761719 L 60.710938 275.886719 " fill-opacity="1" fill-rule="nonzero"/><path fill="#f7b76d" d="M 301.125 187.785156 C 301.125 187.785156 301.367188 199.46875 302.511719 200.863281 C 303.65625 202.257812 313.816406 200.824219 318.707031 199.480469 C 320.609375 198.960938 318.601562 184.972656 318.601562 184.972656 L 301.125 187.785156 " fill-opacity="1" fill-rule="nonzero"/><path fill="#f7b76d" d="M 320.75 182.242188 C 320.75 182.242188 322.472656 196.429688 323.027344 196.5 C 323.585938 196.566406 324.050781 196.535156 324.539062 195.910156 C 325.023438 195.285156 324.359375 182.382812 323.523438 181.765625 C 322.691406 181.144531 320.714844 181.761719 320.75 182.242188 " fill-opacity="1" fill-rule="nonzero"/><path fill="#ffa382" d="M 78.570312 216.566406 L 78.398438 222.265625 C 78.398438 222.265625 81.832031 227.097656 85.441406 226.925781 C 89.054688 226.75 89.816406 225.015625 89.816406 225.015625 L 78.570312 216.566406 " fill-opacity="1" fill-rule="nonzero"/><path fill="#ffa382" d="M 89.898438 225.289062 C 91.574219 225.296875 93.882812 225.441406 95.65625 223.453125 C 97.429688 221.460938 98.132812 217.527344 98.640625 214.09375 C 99.148438 210.660156 98.90625 210.054688 99.253906 208.183594 C 99.605469 206.308594 99.335938 199.757812 97.308594 197.066406 C 95.28125 194.371094 87.363281 187.800781 79.601562 196.929688 C 71.84375 206.054688 79.40625 216.917969 80.339844 218.402344 C 81.277344 219.882812 87.191406 225.273438 89.898438 225.289062 " fill-opacity="1" fill-rule="nonzero"/><path fill="#995540" d="M 101.554688 202.480469 C 101.554688 202.480469 102.023438 200.335938 100.539062 197.835938 C 100.539062 197.835938 103.777344 190.386719 93.640625 191.089844 C 93.640625 191.089844 83.035156 183.132812 78.511719 194.675781 C 78.511719 194.675781 72.964844 194.199219 73.871094 204.507812 C 73.871094 204.507812 75.042969 210.65625 77.421875 213.265625 C 77.421875 213.265625 78.589844 210.710938 78.941406 211.839844 C 79.292969 212.972656 79.644531 214.097656 79.894531 214.246094 C 80.234375 214.445312 81.476562 214.976562 81.476562 214.105469 C 81.476562 213.128906 80.914062 209.574219 80.929688 208.992188 C 80.960938 207.816406 81.476562 204.9375 83.191406 204.859375 C 84.804688 204.785156 91.101562 205.230469 94.863281 203.371094 C 95.574219 203.550781 96.269531 203.875 96.863281 204.164062 C 97.585938 204.515625 98.3125 204.875 99.101562 205.046875 C 99.761719 205.191406 100.804688 205.335938 101.324219 204.78125 C 101.425781 204.671875 101.402344 204.4375 101.226562 204.40625 C 100.832031 204.339844 100.421875 204.441406 100.019531 204.429688 C 99.546875 204.417969 99.09375 204.316406 98.644531 204.179688 C 97.789062 203.910156 96.996094 203.488281 96.164062 203.164062 C 96.117188 203.144531 96.070312 203.128906 96.023438 203.113281 C 97.164062 203.386719 100.089844 203.898438 101.554688 202.480469 " fill-opacity="1" fill-rule="nonzero"/><path fill="#eb7f59" d="M 94.28125 216.636719 C 94.261719 216.574219 93.867188 214.863281 93.765625 214.355469 C 93.570312 213.371094 93.363281 212.390625 93.144531 211.414062 C 93.101562 211.21875 92.765625 211.257812 92.789062 211.460938 C 92.917969 212.445312 93.070312 213.429688 93.261719 214.40625 C 93.359375 214.882812 93.449219 215.363281 93.554688 215.839844 C 93.601562 216.035156 93.800781 216.84375 93.117188 217.265625 C 92.800781 217.460938 92.277344 217.714844 91.910156 217.875 C 91.652344 217.984375 91.882812 218.355469 92.164062 218.257812 C 92.652344 218.089844 93.203125 217.988281 93.644531 217.6875 C 93.828125 217.5625 94.140625 217.367188 94.246094 217.191406 C 94.34375 217.03125 94.347656 216.828125 94.28125 216.636719 " fill-opacity="1" fill-rule="nonzero"/><path fill="#ffa382" d="M 78.976562 212.367188 C 78.976562 212.367188 76.730469 210.1875 75.546875 210.96875 C 74.367188 211.75 74.296875 214.652344 75.246094 215.917969 C 76.199219 217.183594 79.53125 218.21875 80.414062 218.273438 C 81.296875 218.328125 79.585938 214.550781 78.976562 212.367188 " fill-opacity="1" fill-rule="nonzero"/><path fill="#eb7f59" d="M 77.238281 214.847656 C 77.023438 214.4375 76.691406 214.144531 76.59375 213.671875 C 76.507812 213.253906 76.492188 212.609375 76.863281 212.316406 C 77.140625 212.097656 76.785156 211.6875 76.496094 211.84375 C 75.828125 212.207031 75.628906 212.972656 75.699219 213.695312 C 75.765625 214.382812 76.230469 215.253906 77.019531 215.226562 C 77.21875 215.222656 77.328125 215.019531 77.238281 214.847656 " fill-opacity="1" fill-rule="nonzero"/><path fill="#995540" d="M 89.929688 209.832031 C 89.328125 209.132812 88.113281 209.398438 87.320312 209.5625 C 86.925781 209.648438 86.375 209.671875 86.003906 209.832031 C 85.644531 209.988281 85.414062 210.101562 85.199219 210.441406 C 85.101562 210.589844 85.15625 211.015625 85.332031 211.054688 C 85.628906 211.121094 85.933594 211.046875 86.214844 210.9375 C 86.570312 210.800781 86.832031 210.757812 87.183594 210.726562 C 87.863281 210.664062 88.601562 210.75 89.261719 210.953125 C 89.929688 211.15625 90.347656 210.316406 89.929688 209.832031 " fill-opacity="1" fill-rule="nonzero"/><path fill="#995540" d="M 98.160156 208.84375 C 97.558594 208.582031 96.660156 208.503906 95.992188 208.605469 C 95.347656 208.703125 94.550781 209.113281 94.859375 209.847656 C 94.976562 210.128906 95.375 210.273438 95.644531 210.125 C 95.933594 209.96875 96.109375 209.867188 96.453125 209.800781 C 96.816406 209.730469 97.507812 209.78125 97.871094 209.71875 C 98.332031 209.636719 98.582031 209.027344 98.160156 208.84375 " fill-opacity="1" fill-rule="nonzero"/><path fill="#522928" d="M 87.515625 214.292969 C 87.550781 214.351562 87.757812 214.585938 87.929688 214.585938 C 88.273438 214.589844 88.492188 214.457031 88.566406 214.347656 C 88.839844 213.925781 89.074219 212.398438 88.21875 212.433594 C 87.46875 212.460938 87.171875 213.765625 87.515625 214.292969 " fill-opacity="1" fill-rule="nonzero"/><path fill="#522928" d="M 95.796875 212.878906 C 95.832031 212.933594 96.039062 213.171875 96.210938 213.171875 C 96.558594 213.175781 96.773438 213.042969 96.847656 212.933594 C 97.121094 212.511719 97.355469 210.984375 96.5 211.019531 C 95.75 211.046875 95.453125 212.351562 95.796875 212.878906 " fill-opacity="1" fill-rule="nonzero"/><path fill="#7d402d" d="M 97.445312 195.738281 C 97.21875 195.652344 97.058594 196.027344 97.277344 196.128906 C 98.066406 196.488281 98.734375 197.011719 99.289062 197.679688 C 99.847656 198.355469 100.183594 199.167969 100.496094 199.980469 C 100.578125 200.1875 100.933594 200.183594 100.917969 199.921875 C 100.796875 198 99.164062 196.398438 97.445312 195.738281 " fill-opacity="1" fill-rule="nonzero"/><path fill="#7d402d" d="M 96.082031 191.878906 C 95.34375 191.339844 94.1875 191.597656 93.371094 191.777344 C 92.351562 192 91.390625 192.382812 90.460938 192.851562 C 90.277344 192.945312 90.4375 193.210938 90.621094 193.125 C 91.46875 192.746094 92.363281 192.484375 93.273438 192.304688 C 94.1875 192.121094 95.007812 192.085938 95.925781 192.25 C 96.15625 192.292969 96.269531 192.015625 96.082031 191.878906 " fill-opacity="1" fill-rule="nonzero"/><path fill="#7d402d" d="M 89.832031 198.179688 C 89.113281 198.015625 88.226562 198.253906 87.558594 198.519531 C 86.835938 198.808594 86.191406 199.226562 85.621094 199.746094 C 85.46875 199.886719 85.6875 200.09375 85.839844 199.96875 C 86.429688 199.496094 87.09375 199.144531 87.816406 198.917969 C 88.484375 198.710938 89.15625 198.710938 89.832031 198.566406 C 90.023438 198.523438 90.023438 198.222656 89.832031 198.179688 " fill-opacity="1" fill-rule="nonzero"/><path fill="#7d402d" d="M 79.234375 194.765625 C 79.269531 194.597656 79.035156 194.480469 78.941406 194.644531 C 78.328125 195.746094 78.363281 197.214844 78.65625 198.402344 C 78.714844 198.648438 79.085938 198.542969 79.03125 198.300781 C 78.902344 197.714844 78.859375 197.121094 78.894531 196.519531 C 78.929688 195.914062 79.105469 195.355469 79.234375 194.765625 " fill-opacity="1" fill-rule="nonzero"/><path fill="#7d402d" d="M 98.90625 198.539062 C 98.5 197.667969 97.660156 197.074219 96.859375 196.589844 C 96.003906 196.074219 95.074219 195.703125 94.148438 195.328125 C 93.988281 195.265625 93.871094 195.539062 94.03125 195.609375 C 94.878906 195.996094 95.726562 196.40625 96.523438 196.894531 C 97.34375 197.394531 98 198.050781 98.71875 198.683594 C 98.824219 198.773438 98.964844 198.660156 98.90625 198.539062 " fill-opacity="1" fill-rule="nonzero"/><path fill="#7d402d" d="M 93.507812 193.039062 C 92.292969 193.21875 91.105469 193.769531 89.945312 194.164062 C 89.777344 194.21875 89.84375 194.480469 90.019531 194.429688 C 91.214844 194.097656 92.515625 193.878906 93.636719 193.339844 C 93.820312 193.25 93.679688 193.011719 93.507812 193.039062 " fill-opacity="1" fill-rule="nonzero"/><path fill="#7d402d" d="M 88.507812 191.925781 C 86.457031 192.1875 84.566406 193.738281 83.441406 195.402344 C 83.332031 195.566406 83.59375 195.714844 83.703125 195.554688 C 84.285156 194.710938 85.011719 193.980469 85.859375 193.402344 C 86.699219 192.835938 87.605469 192.507812 88.539062 192.15625 C 88.652344 192.113281 88.652344 191.90625 88.507812 191.925781 " fill-opacity="1" fill-rule="nonzero"/><path fill="#7d402d" d="M 85.910156 194.777344 C 85.003906 195.332031 84.246094 196.121094 83.558594 196.921875 C 83.433594 197.070312 83.648438 197.285156 83.773438 197.136719 C 84.464844 196.335938 85.261719 195.664062 86.035156 194.941406 C 86.121094 194.859375 86.007812 194.71875 85.910156 194.777344 " fill-opacity="1" fill-rule="nonzero"/><path fill="#ffa382" d="M 292.347656 111.234375 C 292.34375 110.871094 292.347656 110.46875 292.367188 110.023438 C 292.585938 105.164062 289.234375 97.859375 282.710938 97.765625 C 276.417969 97.671875 271.007812 102.730469 270.371094 104.445312 C 270.25 104.773438 268.871094 107.867188 269.363281 110.519531 C 269.894531 113.355469 271.171875 115.472656 271.171875 115.472656 C 271.101562 116.503906 270.734375 120.179688 270.953125 120.722656 C 271.257812 121.476562 273.4375 121.058594 273.4375 121.058594 C 275.152344 125.339844 276.40625 127.917969 277.976562 127.84375 C 280.714844 127.710938 285.371094 123.40625 285.371094 123.40625 C 285.371094 123.40625 286.707031 122.070312 287.414062 121.367188 C 290.1875 117.9375 291.460938 115.835938 292.347656 111.234375 " fill-opacity="1" fill-rule="nonzero"/><path fill="#ffa382" d="M 283.570312 124.917969 L 285.371094 128.410156 C 285.371094 128.410156 287.652344 128.058594 289.542969 125.742188 C 291.757812 123.039062 294.445312 121.589844 294.445312 121.589844 L 290.664062 109.453125 L 283.570312 124.917969 " fill-opacity="1" fill-rule="nonzero"/><path fill="#5c4342" d="M 273.800781 111.535156 C 274.625 111.398438 274.644531 111.464844 275.472656 111.46875 C 275.953125 111.46875 276.042969 112.179688 275.726562 112.390625 C 275.386719 112.613281 274.789062 112.628906 274.417969 112.757812 C 273.648438 113.027344 273.289062 113.566406 272.941406 113.703125 C 272.710938 113.792969 272.328125 113.898438 272.089844 113.734375 C 271.960938 113.652344 271.828125 113.453125 271.832031 113.304688 C 271.84375 112.167969 272.835938 111.691406 273.800781 111.535156 " fill-opacity="1" fill-rule="nonzero"/><path fill="#522928" d="M 275.519531 115.960938 C 275.496094 116.023438 275.351562 116.289062 275.152344 116.347656 C 274.785156 116.453125 274.515625 116.304688 274.441406 116.222656 C 274.09375 115.824219 273.523438 114.339844 274.40625 114.195312 C 275.183594 114.066406 275.761719 115.34375 275.519531 115.960938 " fill-opacity="1" fill-rule="nonzero"/><path fill="#eb7f59" d="M 95.023438 219.929688 C 94.121094 220.246094 93.304688 220.570312 92.34375 220.652344 C 91.464844 220.730469 90.589844 220.65625 89.714844 220.5625 C 89.835938 220.082031 89.847656 220.300781 89.816406 219.875 C 89.808594 219.765625 89.667969 219.71875 89.601562 219.820312 C 89.359375 220.199219 89.402344 220.140625 89.167969 220.53125 C 88.957031 220.882812 88.789062 221.007812 88.632812 221.386719 C 88.589844 221.488281 88.714844 221.601562 88.8125 221.566406 C 89.101562 221.464844 89.171875 221.390625 89.359375 221.128906 C 91.246094 221.570312 93.796875 221.96875 95.304688 220.414062 C 95.496094 220.21875 95.304688 219.832031 95.023438 219.929688 " fill-opacity="1" fill-rule="nonzero"/><path fill="#7d402d" d="M 82.28125 204.59375 C 81.40625 205.03125 80.753906 204.988281 79.957031 204.390625 C 79.785156 204.261719 79.644531 203.96875 79.410156 203.914062 C 79.289062 203.886719 79.132812 203.929688 79.03125 203.90625 C 78.476562 204.332031 77.8125 204.335938 77.042969 203.921875 C 76.808594 203.632812 76.609375 203.320312 76.449219 202.984375 C 76.402344 202.890625 76.261719 202.976562 76.308594 203.070312 C 76.585938 203.628906 76.921875 204.304688 77.5625 204.519531 C 77.835938 204.613281 78.035156 204.621094 78.308594 204.5625 C 78.851562 204.441406 78.726562 204.246094 79.351562 204.410156 C 79.933594 204.566406 80.285156 205.058594 80.910156 205.15625 C 81.484375 205.246094 81.964844 205.109375 82.402344 204.75 C 82.496094 204.675781 82.375 204.546875 82.28125 204.59375 " fill-opacity="1" fill-rule="nonzero"/><path fill="#eb7f59" d="M 82.683594 221.316406 C 82.683594 221.316406 86.855469 224.894531 89.542969 225.257812 C 89.542969 225.257812 84.539062 225.363281 83.082031 223.050781 C 81.625 220.742188 82.683594 221.316406 82.683594 221.316406 " fill-opacity="1" fill-rule="nonzero"/><path fill="#eb7f59" d="M 286.117188 121.15625 L 283.570312 124.917969 C 283.570312 124.917969 285.640625 123.421875 286.117188 122.238281 C 286.59375 121.054688 286.117188 121.15625 286.117188 121.15625 " fill-opacity="1" fill-rule="nonzero"/><path fill="#d9cec5" d="M 304.414062 127.378906 C 304.230469 127.261719 304.0625 127.546875 304.242188 127.667969 C 308.28125 130.398438 309.605469 135.25 308.132812 139.730469 C 306.425781 143.273438 304.960938 146.929688 303.253906 150.472656 C 303.132812 150.726562 303.503906 150.953125 303.636719 150.699219 C 305.546875 147.039062 307.410156 143.382812 308.691406 139.445312 C 308.699219 139.414062 308.699219 139.386719 308.695312 139.359375 C 310.316406 134.910156 308.480469 129.980469 304.414062 127.378906 " fill-opacity="1" fill-rule="nonzero"/><path fill="#d9cec5" d="M 308.320312 142.746094 C 308.023438 143.984375 307.542969 145.152344 307.203125 146.375 C 307.167969 146.5 307.34375 146.574219 307.410156 146.464844 C 308.074219 145.371094 308.402344 144.082031 308.679688 142.847656 C 308.734375 142.613281 308.375 142.511719 308.320312 142.746094 " fill-opacity="1" fill-rule="nonzero"/><path fill="#eb7f59" d="M 265.539062 157.894531 C 264.875 156.285156 264.390625 154.921875 264.605469 153.144531 C 264.621094 152.984375 264.347656 152.949219 264.320312 153.105469 C 264.027344 154.746094 264.214844 156.695312 265.289062 158.039062 C 265.378906 158.152344 265.59375 158.027344 265.539062 157.894531 " fill-opacity="1" fill-rule="nonzero"/><path fill="#d9cec5" d="M 66.339844 246.347656 C 65.472656 244.578125 64.695312 242.949219 64.445312 240.960938 C 64.414062 240.738281 64.066406 240.722656 64.082031 240.960938 C 64.234375 242.925781 64.769531 245.027344 66.019531 246.597656 C 66.171875 246.789062 66.4375 246.546875 66.339844 246.347656 " fill-opacity="1" fill-rule="nonzero"/><path fill="#eb7f59" d="M 114.933594 249.71875 C 113.671875 251.105469 112.960938 252.9375 112.609375 254.753906 C 112.578125 254.902344 112.796875 254.964844 112.832031 254.820312 C 113.285156 252.988281 114.132812 251.445312 115.101562 249.851562 C 115.164062 249.75 115.015625 249.628906 114.933594 249.71875 " fill-opacity="1" fill-rule="nonzero"/><path fill="#d9cec5" d="M 131.839844 259.957031 C 128.941406 263.34375 129.871094 266.019531 130.304688 268.925781 C 130.332031 269.109375 130.652344 269.066406 130.636719 268.878906 C 130.375 265.96875 130.046875 263.101562 132.027344 260.101562 C 132.101562 259.992188 131.929688 259.851562 131.839844 259.957031 " fill-opacity="1" fill-rule="nonzero"/><path fill="#d9cec5" d="M 254.296875 202.710938 C 252.058594 204.03125 249.929688 205.519531 247.664062 206.800781 C 247.507812 206.886719 247.644531 207.125 247.804688 207.039062 C 250.105469 205.835938 252.417969 204.539062 254.398438 202.847656 C 254.472656 202.785156 254.378906 202.664062 254.296875 202.710938 " fill-opacity="1" fill-rule="nonzero"/><path fill="#d9cec5" d="M 255.046875 205.203125 C 253.839844 205.769531 252.738281 206.550781 251.640625 207.296875 C 251.5 207.390625 251.625 207.609375 251.765625 207.523438 C 252.898438 206.820312 254.085938 206.179688 255.160156 205.390625 C 255.273438 205.308594 255.175781 205.140625 255.046875 205.203125 " fill-opacity="1" fill-rule="nonzero"/><path fill="#d9cec5" d="M 257.371094 205.257812 C 256.921875 205.414062 256.519531 205.703125 256.136719 205.980469 C 255.75 206.261719 255.351562 206.539062 255.027344 206.890625 C 254.96875 206.949219 255.039062 207.042969 255.113281 207.003906 C 255.542969 206.757812 255.933594 206.449219 256.347656 206.175781 C 256.71875 205.929688 257.125 205.699219 257.449219 205.394531 C 257.507812 205.339844 257.445312 205.230469 257.371094 205.257812 " fill-opacity="1" fill-rule="nonzero"/><path fill="#d99055" d="M 304.300781 189.582031 C 304.542969 191.96875 304.429688 194.640625 305.3125 196.90625 C 305.351562 197 305.527344 197 305.511719 196.878906 C 305.199219 194.445312 304.902344 192.019531 304.625 189.582031 C 304.601562 189.378906 304.28125 189.375 304.300781 189.582031 " fill-opacity="1" fill-rule="nonzero"/><path fill="#d99055" d="M 303.507812 185.230469 C 307.433594 184.960938 311.511719 184.507812 315.316406 183.472656 C 315.441406 183.441406 315.421875 183.222656 315.285156 183.238281 C 311.339844 183.671875 307.464844 184.5625 303.507812 184.917969 C 303.308594 184.9375 303.304688 185.246094 303.507812 185.230469 " fill-opacity="1" fill-rule="nonzero"/><path fill="#d99055" d="M 316.921875 187.40625 C 317.058594 189.136719 317.273438 190.859375 317.339844 192.597656 C 317.410156 194.335938 317.304688 196.082031 317.402344 197.816406 C 317.414062 197.988281 317.6875 198.046875 317.71875 197.859375 C 318.316406 194.523438 318 190.660156 317.238281 187.363281 C 317.199219 187.191406 316.90625 187.222656 316.921875 187.40625 " fill-opacity="1" fill-rule="nonzero"/><path fill="#d99055" d="M 306.449219 199.40625 C 310.117188 199.390625 314.082031 199.023438 317.605469 197.96875 C 317.769531 197.921875 317.75 197.640625 317.5625 197.660156 C 313.835938 198.042969 310.222656 198.925781 306.449219 199.003906 C 306.195312 199.011719 306.191406 199.40625 306.449219 199.40625 " fill-opacity="1" fill-rule="nonzero"/><path fill="#d99055" d="M 304.460938 189.6875 C 308.707031 189.199219 312.953125 188.292969 317.136719 187.417969 C 317.21875 187.398438 317.203125 187.257812 317.113281 187.265625 C 312.867188 187.636719 308.574219 188.480469 304.433594 189.480469 C 304.320312 189.507812 304.34375 189.699219 304.460938 189.6875 " fill-opacity="1" fill-rule="nonzero"/><path fill="#d99055" d="M 303.386719 185 C 303.292969 185.40625 303.28125 185.832031 303.296875 186.246094 C 303.3125 186.613281 303.308594 187.0625 303.492188 187.394531 C 303.542969 187.488281 303.679688 187.441406 303.683594 187.34375 C 303.710938 186.570312 303.464844 185.800781 303.554688 185.023438 C 303.566406 184.925781 303.40625 184.90625 303.386719 185 " fill-opacity="1" fill-rule="nonzero"/><path fill="#d99055" d="M 315.246094 183.382812 C 315.441406 184.042969 315.335938 184.757812 315.53125 185.414062 C 315.558594 185.503906 315.710938 185.519531 315.730469 185.414062 C 315.835938 184.746094 315.675781 183.929688 315.402344 183.316406 C 315.359375 183.226562 315.21875 183.289062 315.246094 183.382812 " fill-opacity="1" fill-rule="nonzero"/><path fill="#d99055" d="M 315.59375 185.273438 C 312.554688 185.789062 306.652344 186.734375 303.59375 187.164062 C 303.453125 187.183594 303.484375 187.433594 303.628906 187.417969 C 306.703125 187.074219 312.664062 186.28125 315.65625 185.488281 C 315.796875 185.453125 315.734375 185.25 315.59375 185.273438 " fill-opacity="1" fill-rule="nonzero"/><path fill="#d99055" d="M 302.40625 188.960938 C 302.394531 188.867188 302.246094 188.859375 302.253906 188.960938 C 302.3125 189.738281 302.242188 190.589844 302.417969 191.351562 C 302.433594 191.417969 302.550781 191.425781 302.5625 191.351562 C 302.691406 190.582031 302.507812 189.722656 302.40625 188.960938 " fill-opacity="1" fill-rule="nonzero"/><path fill="#d99055" d="M 302.75 193.347656 C 302.742188 193.277344 302.625 193.292969 302.632812 193.363281 C 302.675781 193.953125 302.609375 194.597656 302.761719 195.171875 C 302.769531 195.210938 302.835938 195.214844 302.847656 195.171875 C 302.976562 194.589844 302.835938 193.925781 302.75 193.347656 " fill-opacity="1" fill-rule="nonzero"/><path fill="#d99055" d="M 303.46875 198.6875 C 303.40625 198.230469 303.3125 197.777344 303.234375 197.324219 C 303.214844 197.226562 303.050781 197.246094 303.0625 197.347656 C 303.101562 197.808594 303.121094 198.269531 303.152344 198.730469 C 303.179688 199.09375 303.15625 199.46875 303.328125 199.796875 C 303.371094 199.875 303.488281 199.851562 303.511719 199.773438 C 303.625 199.421875 303.523438 199.042969 303.46875 198.6875 " fill-opacity="1" fill-rule="nonzero"/><path fill="#996337" d="M 318.472656 185.113281 C 318.472656 185.664062 318.027344 186.109375 317.476562 186.109375 C 316.925781 186.109375 316.480469 185.664062 316.480469 185.113281 C 316.480469 184.566406 316.925781 184.121094 317.476562 184.121094 C 318.027344 184.121094 318.472656 184.566406 318.472656 185.113281 " fill-opacity="1" fill-rule="nonzero"/><path fill="#996337" d="M 302.429688 184.460938 C 302.429688 184.867188 302.101562 185.195312 301.699219 185.195312 C 301.296875 185.195312 300.96875 184.867188 300.96875 184.460938 C 300.96875 184.058594 301.296875 183.730469 301.699219 183.730469 C 302.101562 183.730469 302.429688 184.058594 302.429688 184.460938 " fill-opacity="1" fill-rule="nonzero"/><path fill="#996337" d="M 302.667969 187.265625 C 302.667969 187.667969 302.339844 187.996094 301.9375 187.996094 C 301.535156 187.996094 301.207031 187.667969 301.207031 187.265625 C 301.207031 186.859375 301.535156 186.535156 301.9375 186.535156 C 302.339844 186.535156 302.667969 186.859375 302.667969 187.265625 " fill-opacity="1" fill-rule="nonzero"/><path fill="#e6dad0" d="M 301.675781 301.296875 C 301.675781 301.296875 302.183594 304.324219 310.894531 302.230469 C 314.355469 301.394531 321.042969 298.574219 322.078125 298.210938 C 324.09375 297.496094 327.238281 293.515625 327.222656 294.070312 C 327.191406 294.933594 327.371094 297.703125 327.371094 297.703125 C 327.371094 297.703125 326.761719 298.996094 316.246094 302.484375 C 313.730469 303.316406 304.742188 306.3125 301.875 303.285156 C 301.71875 303.117188 301.671875 301.570312 301.675781 301.296875 " fill-opacity="1" fill-rule="nonzero"/><g clip-path="url(#378874a156)"><path fill="#e6dad0" d="M 127.296875 331.175781 C 127.296875 331.175781 124.257812 333.339844 115.320312 333.988281 C 111.707031 334.246094 104.496094 333.085938 103.445312 332.761719 C 101.636719 332.203125 98.226562 329.539062 98.164062 330.089844 C 98.070312 330.894531 98.171875 333.460938 98.171875 333.460938 C 98.171875 333.460938 99.625 334.796875 110.660156 335.757812 C 117.558594 336.359375 127.011719 334.222656 127.296875 332.738281 C 127.335938 332.511719 127.355469 331.441406 127.296875 331.175781 " fill-opacity="1" fill-rule="nonzero"/></g><path fill="#f6efe9" d="M 315.136719 294.082031 C 314.804688 292.9375 313.449219 292.441406 312.453125 292.050781 C 312.277344 291.976562 312.144531 292.285156 312.324219 292.363281 C 312.820312 292.582031 313.328125 292.804688 313.78125 293.109375 C 314.226562 293.417969 314.542969 293.816406 314.878906 294.230469 C 314.976562 294.355469 315.175781 294.222656 315.136719 294.082031 " fill-opacity="1" fill-rule="nonzero"/><path fill="#f6efe9" d="M 314.238281 291.199219 C 314.019531 291.214844 314.015625 291.535156 314.238281 291.539062 C 315.332031 291.566406 316.160156 292.347656 316.511719 293.34375 C 316.574219 293.535156 316.90625 293.523438 316.882812 293.292969 C 316.765625 292 315.5 291.097656 314.238281 291.199219 " fill-opacity="1" fill-rule="nonzero"/><path fill="#f6efe9" d="M 312.617188 293.917969 C 312.082031 293.554688 311.503906 293.273438 310.910156 293.027344 C 310.726562 292.949219 310.597656 293.253906 310.773438 293.347656 C 311.582031 293.757812 312.597656 294.25 313.125 295.011719 C 313.199219 295.117188 313.398438 295.089844 313.390625 294.9375 C 313.359375 294.460938 312.984375 294.171875 312.617188 293.917969 " fill-opacity="1" fill-rule="nonzero"/><path fill="#f6efe9" d="M 112.394531 324.722656 C 111.53125 324.894531 110.953125 325.730469 110.667969 326.515625 C 110.601562 326.699219 110.90625 326.832031 110.988281 326.648438 C 111.324219 325.898438 111.917969 325.457031 112.511719 324.921875 C 112.601562 324.835938 112.503906 324.703125 112.394531 324.722656 " fill-opacity="1" fill-rule="nonzero"/><path fill="#f6efe9" d="M 113.984375 325.316406 C 113.230469 325.386719 112.691406 326.257812 112.488281 326.910156 C 112.4375 327.074219 112.6875 327.183594 112.765625 327.027344 C 112.917969 326.71875 113.109375 326.425781 113.347656 326.175781 C 113.578125 325.941406 113.859375 325.761719 114.0625 325.503906 C 114.113281 325.4375 114.089844 325.308594 113.984375 325.316406 " fill-opacity="1" fill-rule="nonzero"/><path fill="#f6efe9" d="M 115.703125 325.859375 C 115.085938 326.152344 114.71875 326.753906 114.484375 327.375 C 114.421875 327.542969 114.6875 327.648438 114.769531 327.496094 C 115.070312 326.957031 115.496094 326.511719 115.867188 326.023438 C 115.945312 325.921875 115.796875 325.816406 115.703125 325.859375 " fill-opacity="1" fill-rule="nonzero"/><path fill="#f6efe9" d="M 63.707031 314.054688 C 63.683594 313.882812 63.410156 313.925781 63.410156 314.09375 C 63.410156 314.671875 63.453125 315.246094 63.550781 315.820312 C 63.613281 316.203125 63.664062 316.644531 64.023438 316.859375 C 64.140625 316.925781 64.265625 316.8125 64.238281 316.691406 C 64.058594 315.8125 63.839844 314.949219 63.707031 314.054688 " fill-opacity="1" fill-rule="nonzero"/><path fill="#f6efe9" d="M 61.949219 314.398438 C 61.953125 314.242188 61.734375 314.222656 61.6875 314.363281 C 61.535156 314.804688 61.605469 315.289062 61.671875 315.742188 C 61.738281 316.226562 61.816406 316.722656 62.042969 317.160156 C 62.109375 317.289062 62.339844 317.234375 62.324219 317.085938 C 62.234375 316.175781 61.929688 315.324219 61.949219 314.398438 " fill-opacity="1" fill-rule="nonzero"/><path fill="#f6efe9" d="M 60.558594 317.5625 C 60.484375 317.191406 60.304688 316.84375 60.203125 316.480469 C 60.089844 316.074219 60.039062 315.660156 60.015625 315.238281 C 60.003906 315.0625 59.753906 315.0625 59.742188 315.238281 C 59.683594 316.023438 59.773438 317.085938 60.316406 317.703125 C 60.417969 317.820312 60.585938 317.691406 60.558594 317.5625 " fill-opacity="1" fill-rule="nonzero"/><path fill="#d9cec5" d="M 147.375 262.46875 C 145.507812 261.519531 143.738281 260.125 141.582031 260.078125 C 141.417969 260.074219 141.421875 259.84375 141.582031 259.832031 C 143.519531 259.710938 145.648438 260.785156 147.28125 261.972656 C 147.316406 262.125 147.347656 262.292969 147.375 262.46875 " fill-opacity="1" fill-rule="nonzero"/><path fill="#d9cec5" d="M 147.566406 264.003906 C 146.851562 263.554688 145.851562 263.339844 145.101562 263.054688 C 144.179688 262.703125 143.25 262.34375 142.316406 262.023438 C 142.183594 261.976562 142.238281 261.765625 142.375 261.8125 C 143.65625 262.207031 144.9375 262.59375 146.191406 263.070312 C 146.636719 263.242188 147.128906 263.382812 147.53125 263.644531 C 147.542969 263.769531 147.554688 263.890625 147.566406 264.003906 " fill-opacity="1" fill-rule="nonzero"/><path fill="#d9cec5" d="M 147.691406 265.445312 C 147.691406 265.445312 147.449219 265.503906 147.082031 265.601562 C 145.632812 265.121094 144.21875 264.578125 142.710938 264.234375 C 142.558594 264.195312 142.628906 263.972656 142.777344 263.996094 C 144.414062 264.269531 146.175781 264.652344 147.6875 265.421875 C 147.691406 265.4375 147.691406 265.445312 147.691406 265.445312 " fill-opacity="1" fill-rule="nonzero"/><path fill="#5c4342" d="M 267.675781 109.675781 C 268.15625 109.757812 268.957031 109.835938 269.683594 109.871094 C 270.210938 109.902344 271.460938 109.578125 271.765625 109.550781 C 272.488281 109.480469 275.3125 109.871094 276.019531 110.214844 C 276.691406 110.546875 278.757812 111.75 279.609375 111.773438 C 279.863281 112.652344 280.558594 114.355469 280.828125 114.46875 C 281.535156 114.761719 283.082031 113.945312 283.53125 113.296875 C 284.398438 112.046875 283.308594 110.820312 284.066406 109.925781 C 284.269531 109.6875 285.3125 108.882812 285.578125 108.824219 C 286.515625 108.597656 286.292969 108.714844 286.820312 109.582031 C 287.394531 110.515625 286.726562 111.183594 286.660156 112.238281 C 286.65625 112.285156 287.90625 113.300781 287.957031 113.382812 C 288.066406 113.558594 288.269531 113.78125 288.375 113.882812 C 288.683594 114.1875 289.730469 114.75 290.496094 114.824219 C 290.605469 114.835938 290.734375 114.8125 290.875 114.8125 C 292.167969 114.792969 292.328125 114.796875 292.328125 114.796875 C 292.328125 114.796875 293.457031 105.992188 292.925781 104.277344 C 292.789062 101.792969 293.046875 100.292969 292.117188 98.09375 C 291.539062 97.019531 290.28125 95.746094 290.234375 95.722656 C 289.21875 94.835938 287.625 94.582031 286.261719 94.292969 C 284.328125 93.152344 280.949219 92.746094 278.964844 93.808594 C 277.890625 94.382812 277.285156 94.265625 276.105469 94.238281 C 275.550781 94.226562 273.914062 94.289062 273.378906 94.46875 C 272.320312 94.824219 271.582031 96.140625 270.707031 96.78125 C 270.5625 96.894531 269.679688 97.121094 269.625 97.269531 C 268.617188 97.75 268.121094 98.648438 267.390625 99.589844 C 266.515625 100.726562 265.71875 101.570312 265.871094 102.878906 C 265.855469 102.890625 264.769531 104.082031 264.757812 104.097656 C 263.140625 105.761719 264.554688 109.148438 267.675781 109.675781 " fill-opacity="1" fill-rule="nonzero"/><path fill="#453130" d="M 274.464844 107.804688 C 275.679688 108.128906 279.222656 108.789062 278.539062 106.046875 C 278.5 105.902344 278.597656 105.753906 278.757812 105.78125 C 280.695312 106.085938 282.136719 105.964844 283.050781 104.085938 C 283.394531 103.378906 283.632812 102.816406 284.34375 102.410156 C 284.425781 102.363281 284.503906 102.472656 284.429688 102.527344 C 283.242188 103.453125 283.417969 105.226562 282.035156 105.976562 C 281.5625 106.230469 281.050781 106.324219 280.527344 106.347656 C 280.144531 106.363281 279.1875 106.121094 279.015625 106.328125 C 278.867188 106.503906 278.933594 107.226562 278.761719 107.515625 C 278.597656 107.796875 278.371094 108 278.09375 108.164062 C 277.003906 108.808594 275.460938 108.617188 274.371094 108.113281 C 274.207031 108.039062 274.28125 107.757812 274.464844 107.804688 " fill-opacity="1" fill-rule="nonzero"/><path fill="#453130" d="M 269.878906 99.1875 C 270.996094 99.699219 272.050781 100.394531 273.339844 100.347656 C 274.148438 100.316406 274.90625 99.9375 275.722656 99.910156 C 277.144531 99.863281 278.203125 100.832031 279.160156 101.765625 C 279.285156 101.886719 279.121094 102.089844 278.988281 101.976562 C 278.101562 101.210938 277.171875 100.445312 275.957031 100.375 C 275.066406 100.328125 274.257812 100.738281 273.378906 100.789062 C 272.046875 100.867188 270.761719 100.207031 269.71875 99.433594 C 269.582031 99.335938 269.726562 99.117188 269.878906 99.1875 " fill-opacity="1" fill-rule="nonzero"/><path fill="#453130" d="M 278.445312 98.410156 C 278.996094 98.0625 279.675781 97.992188 280.304688 98.15625 C 281.128906 98.367188 281.765625 98.992188 282.613281 99.15625 C 282.695312 99.171875 282.691406 99.296875 282.605469 99.308594 C 281.988281 99.375 281.507812 99.121094 280.960938 98.855469 C 280.132812 98.449219 279.441406 98.40625 278.550781 98.613281 C 278.433594 98.640625 278.324219 98.484375 278.445312 98.410156 " fill-opacity="1" fill-rule="nonzero"/><path fill="#453130" d="M 266.707031 100.714844 C 267.917969 101.179688 269.09375 101.609375 270.390625 101.761719 C 270.558594 101.78125 270.511719 102.027344 270.347656 102.015625 C 269.027344 101.941406 267.707031 101.632812 266.601562 100.882812 C 266.503906 100.816406 266.605469 100.675781 266.707031 100.714844 " fill-opacity="1" fill-rule="nonzero"/><path fill="#453130" d="M 289.617188 100.039062 C 289.863281 99.160156 289.808594 98.277344 289.253906 97.523438 C 289.144531 97.378906 289.382812 97.246094 289.492188 97.382812 C 290.105469 98.140625 290.316406 99.242188 289.863281 100.132812 C 289.796875 100.265625 289.574219 100.1875 289.617188 100.039062 " fill-opacity="1" fill-rule="nonzero"/><path fill="#dd7b43" d="M 274.371094 123.300781 C 274.425781 123.433594 274.480469 123.570312 274.53125 123.710938 C 275.773438 123.855469 277.179688 123.277344 277.988281 122.347656 C 278.121094 122.199219 277.957031 121.972656 277.773438 122.070312 C 277.167969 122.386719 276.589844 122.734375 275.929688 122.941406 C 275.421875 123.097656 274.890625 123.183594 274.371094 123.300781 " fill-opacity="1" fill-rule="nonzero"/><path fill="#ffa382" d="M 283.855469 110.488281 C 283.902344 109.566406 285.074219 108.023438 286.394531 108.539062 C 287.710938 109.0625 288.378906 111.890625 287.707031 113.324219 C 287.039062 114.757812 286.378906 115.191406 285.523438 115.425781 C 284.671875 115.65625 283.75 112.570312 283.855469 110.488281 " fill-opacity="1" fill-rule="nonzero"/><path fill="#eb7f59" d="M 285.539062 112.6875 C 285.664062 112.242188 285.929688 111.882812 285.929688 111.402344 C 285.925781 110.976562 285.808594 110.339844 285.386719 110.132812 C 285.070312 109.976562 285.332031 109.496094 285.648438 109.59375 C 286.378906 109.8125 286.730469 110.515625 286.808594 111.242188 C 286.886719 111.929688 286.609375 112.875 285.832031 113.011719 C 285.636719 113.046875 285.488281 112.871094 285.539062 112.6875 " fill-opacity="1" fill-rule="nonzero"/><path fill="#d7e9fa" d="M 111.699219 67.855469 C 132.144531 66.582031 150.707031 72.078125 167.585938 83.496094 C 173.914062 87.773438 179.25 93.351562 185.789062 97.382812 C 196.445312 103.953125 208.140625 102.820312 219.671875 100.070312 L 211.394531 79.863281 C 210.933594 80.058594 210.464844 80.246094 209.992188 80.417969 C 201.507812 83.519531 193.105469 81.210938 185.34375 77.304688 C 176.90625 73.054688 168.644531 68.914062 160.007812 65.085938 C 147.921875 59.726562 134.707031 54.011719 121.304688 53.691406 C 110.542969 53.4375 100.292969 57.355469 89.660156 58.359375 C 80.734375 59.199219 71.902344 56.882812 63.367188 54.558594 C 59.617188 53.539062 55.871094 52.515625 52.097656 51.582031 C 51.570312 51.449219 50.507812 51.289062 49.222656 51.097656 C 49.273438 51.265625 49.332031 51.433594 49.394531 51.601562 L 55.164062 67.011719 C 60.109375 69.308594 65.675781 70.570312 70.726562 71.332031 C 84.035156 73.339844 98.25 68.691406 111.699219 67.855469 " fill-opacity="1" fill-rule="nonzero"/></svg>