<svg xmlns="http://www.w3.org/2000/svg" xmlns:xlink="http://www.w3.org/1999/xlink" width="500" zoomAndPan="magnify" viewBox="0 0 375 374.999991" height="500" preserveAspectRatio="xMidYMid meet" version="1.0"><defs><clipPath id="8144997ad3"><path d="M 20 43.722656 L 345 43.722656 L 345 329 L 20 329 Z M 20 43.722656 " clip-rule="nonzero"/></clipPath></defs><g clip-path="url(#8144997ad3)"><path fill="#aec2cb" d="M 246.902344 43.722656 C 242.585938 43.722656 238.195312 43.90625 233.730469 44.265625 C 229.265625 44.628906 224.746094 45.167969 220.167969 45.886719 C 215.589844 46.605469 210.96875 47.5 206.3125 48.570312 C 201.65625 49.640625 196.976562 50.882812 192.273438 52.296875 C 187.574219 53.710938 182.867188 55.292969 178.160156 57.039062 C 173.449219 58.785156 168.753906 60.691406 164.074219 62.761719 C 159.390625 64.828125 154.742188 67.046875 150.125 69.417969 C 145.503906 71.789062 140.9375 74.300781 136.414062 76.957031 C 133.871094 78.453125 131.347656 79.992188 128.839844 81.574219 C 126.335938 83.15625 123.855469 84.777344 121.394531 86.441406 C 118.9375 88.105469 116.503906 89.808594 114.097656 91.546875 C 111.6875 93.289062 109.308594 95.066406 106.960938 96.882812 C 104.609375 98.699219 102.292969 100.546875 100.003906 102.433594 C 97.71875 104.316406 95.464844 106.234375 93.246094 108.183594 C 91.03125 110.132812 88.847656 112.113281 86.703125 114.121094 C 84.558594 116.128906 82.457031 118.167969 80.390625 120.230469 C 78.324219 122.296875 76.300781 124.386719 74.320312 126.503906 C 72.339844 128.617188 70.402344 130.753906 68.511719 132.914062 C 66.621094 135.074219 64.773438 137.253906 62.976562 139.457031 C 61.175781 141.65625 59.425781 143.875 57.726562 146.109375 C 56.027344 148.34375 54.375 150.59375 52.777344 152.859375 C 51.179688 155.121094 49.632812 157.398438 48.140625 159.6875 C 46.644531 161.976562 45.207031 164.273438 43.824219 166.578125 C 42.441406 168.886719 41.113281 171.199219 39.839844 173.519531 C 38.570312 175.839844 37.355469 178.160156 36.203125 180.488281 C 35.046875 182.816406 33.949219 185.140625 32.914062 187.46875 C 31.875 189.800781 30.898438 192.125 29.984375 194.449219 C 29.066406 196.773438 28.214844 199.09375 27.421875 201.40625 C 26.628906 203.722656 25.898438 206.03125 25.230469 208.328125 C 24.5625 210.628906 23.957031 212.917969 23.417969 215.195312 C 22.878906 217.476562 22.398438 219.742188 21.988281 221.996094 C 21.574219 224.246094 21.226562 226.484375 20.941406 228.707031 C 20.660156 230.925781 20.441406 233.128906 20.285156 235.3125 C 20.132812 237.496094 20.042969 239.660156 20.019531 241.800781 C 19.996094 243.945312 20.035156 246.0625 20.140625 248.15625 C 20.25 250.25 20.417969 252.320312 20.65625 254.359375 C 20.890625 256.402344 21.191406 258.417969 21.558594 260.402344 C 21.921875 262.386719 22.351562 264.339844 22.847656 266.261719 C 23.339844 268.183594 23.898438 270.074219 24.519531 271.929688 C 25.140625 273.785156 25.824219 275.605469 26.570312 277.390625 C 27.316406 279.175781 28.128906 280.921875 28.996094 282.628906 C 29.867188 284.339844 30.800781 286.007812 31.792969 287.636719 C 32.785156 289.265625 33.839844 290.855469 34.949219 292.398438 C 36.0625 293.945312 37.234375 295.449219 38.460938 296.90625 C 39.691406 298.363281 40.976562 299.777344 42.320312 301.144531 C 43.664062 302.511719 45.058594 303.832031 46.511719 305.105469 C 47.96875 306.378906 49.472656 307.605469 51.035156 308.78125 C 52.59375 309.957031 54.207031 311.085938 55.871094 312.160156 C 57.535156 313.238281 59.246094 314.261719 61.011719 315.234375 C 62.773438 316.210938 64.585938 317.128906 66.441406 318 C 68.300781 318.867188 70.203125 319.683594 72.152344 320.445312 C 74.101562 321.207031 76.09375 321.914062 78.128906 322.566406 C 80.164062 323.21875 82.238281 323.816406 84.351562 324.359375 C 86.46875 324.902344 88.621094 325.386719 90.8125 325.820312 C 93.007812 326.25 95.234375 326.625 97.496094 326.941406 C 99.757812 327.257812 102.050781 327.519531 104.378906 327.722656 C 106.707031 327.929688 109.0625 328.074219 111.449219 328.164062 C 113.835938 328.253906 116.25 328.289062 118.691406 328.265625 C 121.132812 328.242188 123.597656 328.160156 126.085938 328.019531 C 128.574219 327.882812 131.085938 327.6875 133.617188 327.433594 C 136.144531 327.183594 138.695312 326.875 141.261719 326.507812 C 143.828125 326.144531 146.410156 325.722656 149.003906 325.242188 C 151.601562 324.765625 154.210938 324.230469 156.828125 323.644531 C 159.449219 323.054688 162.078125 322.410156 164.714844 321.710938 C 167.351562 321.011719 169.992188 320.257812 172.640625 319.453125 C 175.285156 318.644531 177.9375 317.785156 180.585938 316.871094 C 183.238281 315.957031 185.890625 314.992188 188.539062 313.976562 C 191.191406 312.957031 193.835938 311.890625 196.476562 310.773438 C 199.117188 309.652344 201.753906 308.484375 204.378906 307.265625 C 207.003906 306.050781 209.621094 304.785156 212.226562 303.46875 C 214.832031 302.15625 217.425781 300.796875 220.003906 299.390625 C 222.582031 297.984375 225.140625 296.53125 227.6875 295.039062 C 230.054688 293.644531 232.40625 292.214844 234.742188 290.75 C 237.882812 290.644531 240.875 290.535156 243.722656 290.417969 C 246.570312 290.300781 249.25 290.175781 251.765625 290.042969 C 254.28125 289.914062 256.613281 289.773438 258.765625 289.632812 C 260.914062 289.488281 262.867188 289.339844 264.625 289.1875 C 266.378906 289.035156 267.925781 288.875 269.265625 288.714844 C 270.601562 288.554688 271.722656 288.390625 272.625 288.222656 C 273.527344 288.058594 274.203125 287.886719 274.660156 287.71875 C 275.113281 287.546875 275.339844 287.378906 275.339844 287.207031 C 275.339844 287.058594 275.171875 286.914062 274.839844 286.765625 C 274.503906 286.621094 274.007812 286.476562 273.339844 286.332031 C 272.675781 286.1875 271.851562 286.046875 270.863281 285.90625 C 269.875 285.765625 268.726562 285.625 267.425781 285.492188 C 266.121094 285.355469 264.667969 285.222656 263.066406 285.09375 C 261.460938 284.964844 259.714844 284.839844 257.824219 284.71875 C 255.933594 284.597656 253.910156 284.480469 251.753906 284.367188 C 249.597656 284.253906 247.316406 284.148438 244.914062 284.042969 C 247.183594 282.480469 249.429688 280.878906 251.652344 279.246094 C 253.875 277.617188 256.070312 275.953125 258.242188 274.257812 C 260.414062 272.5625 262.558594 270.835938 264.675781 269.082031 C 266.792969 267.328125 268.882812 265.546875 270.941406 263.738281 C 272.996094 261.925781 275.023438 260.089844 277.019531 258.230469 C 279.011719 256.367188 280.972656 254.480469 282.898438 252.570312 C 284.824219 250.664062 286.714844 248.730469 288.570312 246.777344 C 290.425781 244.824219 292.242188 242.847656 294.019531 240.855469 C 295.800781 238.859375 297.539062 236.847656 299.238281 234.820312 C 300.9375 232.789062 302.597656 230.746094 304.214844 228.683594 C 305.832031 226.621094 307.40625 224.546875 308.9375 222.457031 C 310.464844 220.367188 311.953125 218.269531 313.394531 216.15625 C 314.835938 214.042969 316.230469 211.921875 317.578125 209.792969 C 318.929688 207.660156 320.230469 205.523438 321.484375 203.378906 C 322.738281 201.234375 323.941406 199.085938 325.097656 196.929688 C 326.253906 194.777344 327.359375 192.617188 328.417969 190.457031 C 329.472656 188.296875 330.476562 186.136719 331.429688 183.976562 C 332.386719 181.816406 333.285156 179.65625 334.136719 177.5 C 334.984375 175.34375 335.78125 173.191406 336.523438 171.042969 C 337.269531 168.894531 337.957031 166.75 338.59375 164.613281 C 339.226562 162.476562 339.808594 160.347656 340.335938 158.230469 C 340.863281 156.109375 341.335938 154 341.75 151.902344 C 342.167969 149.804688 342.527344 147.71875 342.835938 145.648438 C 343.140625 143.574219 343.390625 141.519531 343.585938 139.476562 C 343.777344 137.433594 343.917969 135.410156 344 133.402344 C 344.082031 131.394531 344.105469 129.40625 344.078125 127.433594 C 344.046875 125.464844 343.960938 123.519531 343.820312 121.589844 C 343.679688 119.664062 343.480469 117.761719 343.226562 115.878906 C 342.972656 114 342.664062 112.144531 342.296875 110.316406 C 341.933594 108.484375 341.511719 106.683594 341.039062 104.90625 C 340.5625 103.128906 340.03125 101.382812 339.449219 99.667969 C 338.863281 97.949219 338.222656 96.261719 337.53125 94.605469 C 335.867188 90.632812 333.902344 86.855469 331.632812 83.265625 C 329.363281 79.679688 326.800781 76.308594 323.949219 73.152344 C 321.101562 69.996094 317.976562 67.070312 314.578125 64.382812 C 311.183594 61.691406 307.53125 59.25 303.628906 57.058594 C 299.726562 54.867188 295.59375 52.941406 291.234375 51.273438 C 286.871094 49.609375 282.304688 48.214844 277.535156 47.09375 C 272.765625 45.972656 267.820312 45.128906 262.699219 44.566406 C 257.578125 44.003906 252.3125 43.722656 246.902344 43.722656 Z M 246.902344 43.722656 " fill-opacity="1" fill-rule="evenodd"/></g><path fill="#000000" d="M 163.128906 54.476562 C 158.160156 54.476562 154.167969 58.679688 154.167969 63.84375 L 154.167969 281.859375 C 154.167969 284.441406 155.269531 286.054688 156.949219 286.839844 C 158.515625 287.570312 160.492188 287.683594 162.644531 287.699219 C 162.914062 288.15625 163.316406 288.445312 163.765625 288.445312 L 176.054688 288.445312 C 176.503906 288.445312 176.902344 288.15625 177.171875 287.699219 L 238.355469 287.699219 C 238.625 288.15625 239.023438 288.445312 239.472656 288.445312 L 251.761719 288.445312 C 252.210938 288.445312 252.613281 288.15625 252.882812 287.699219 C 255.035156 287.683594 257.011719 287.570312 258.578125 286.839844 C 260.257812 286.054688 261.359375 284.441406 261.359375 281.859375 L 261.359375 63.84375 C 261.359375 58.679688 257.367188 54.476562 252.398438 54.476562 Z M 163.128906 54.476562 " fill-opacity="1" fill-rule="evenodd"/><path fill="#f9f9f9" d="M 163.128906 55.054688 C 158.484375 55.054688 154.742188 58.976562 154.742188 63.84375 L 154.742188 65.941406 L 260.785156 65.941406 L 260.785156 63.84375 C 260.785156 58.976562 257.042969 55.054688 252.398438 55.054688 Z M 154.742188 66.539062 L 154.742188 233.070312 L 260.785156 233.070312 L 260.785156 66.539062 Z M 160.320312 76.097656 L 255.207031 76.097656 L 255.207031 129.117188 L 160.320312 129.117188 Z M 161.195312 76.910156 C 161.1875 76.910156 161.179688 76.917969 161.179688 76.925781 L 161.179688 128.289062 C 161.179688 128.296875 161.1875 128.304688 161.195312 128.304688 L 254.332031 128.304688 C 254.339844 128.304688 254.347656 128.296875 254.347656 128.289062 L 254.347656 76.925781 C 254.347656 76.917969 254.339844 76.910156 254.332031 76.910156 Z M 163.285156 78.980469 L 252.242188 78.980469 C 252.25 78.980469 252.253906 78.984375 252.253906 78.992188 L 252.253906 126.222656 C 252.253906 126.230469 252.25 126.234375 252.242188 126.234375 L 163.285156 126.234375 C 163.277344 126.234375 163.273438 126.230469 163.273438 126.222656 L 163.273438 78.992188 C 163.273438 78.984375 163.277344 78.980469 163.285156 78.980469 Z M 172.414062 79.269531 C 172.40625 79.269531 172.398438 79.273438 172.398438 79.28125 L 172.398438 81.09375 L 163.46875 81.09375 L 163.46875 82.066406 L 172.398438 82.066406 L 172.398438 89.503906 L 163.46875 89.503906 L 163.46875 90.480469 L 172.398438 90.480469 L 172.398438 97.914062 L 163.46875 97.914062 L 163.46875 98.890625 L 172.398438 98.890625 L 172.398438 106.324219 L 163.46875 106.324219 L 163.46875 107.300781 L 172.398438 107.300781 L 172.398438 114.734375 L 163.46875 114.734375 L 163.46875 115.710938 L 172.398438 115.710938 L 172.398438 123.148438 L 163.46875 123.148438 L 163.46875 124.121094 L 172.398438 124.121094 L 172.398438 125.933594 C 172.398438 125.941406 172.40625 125.949219 172.414062 125.949219 L 176.09375 125.949219 C 176.101562 125.949219 176.109375 125.941406 176.109375 125.933594 L 176.109375 124.121094 L 239.417969 124.121094 L 239.417969 125.933594 C 239.417969 125.941406 239.425781 125.949219 239.433594 125.949219 L 243.113281 125.949219 C 243.121094 125.949219 243.128906 125.941406 243.128906 125.933594 L 243.128906 124.121094 L 252.058594 124.121094 L 252.058594 123.148438 L 243.128906 123.148438 L 243.128906 115.710938 L 252.058594 115.710938 L 252.058594 114.734375 L 243.128906 114.734375 L 243.128906 107.300781 L 252.058594 107.300781 L 252.058594 106.324219 L 243.128906 106.324219 L 243.128906 98.890625 L 252.058594 98.890625 L 252.058594 97.914062 L 243.128906 97.914062 L 243.128906 90.480469 L 252.058594 90.480469 L 252.058594 89.503906 L 243.128906 89.503906 L 243.128906 82.066406 L 252.058594 82.066406 L 252.058594 81.09375 L 243.128906 81.09375 L 243.128906 79.28125 C 243.128906 79.273438 243.121094 79.269531 243.113281 79.269531 L 239.433594 79.269531 C 239.425781 79.269531 239.417969 79.273438 239.417969 79.28125 L 239.417969 81.09375 L 176.109375 81.09375 L 176.109375 79.28125 C 176.109375 79.273438 176.101562 79.269531 176.09375 79.269531 Z M 176.109375 82.066406 L 239.417969 82.066406 L 239.417969 89.503906 L 176.109375 89.503906 Z M 176.109375 90.480469 L 239.417969 90.480469 L 239.417969 97.914062 L 176.109375 97.914062 Z M 176.109375 98.890625 L 239.417969 98.890625 L 239.417969 106.324219 L 176.109375 106.324219 Z M 176.109375 107.300781 L 239.417969 107.300781 L 239.417969 114.734375 L 176.109375 114.734375 Z M 176.109375 115.710938 L 239.417969 115.710938 L 239.417969 123.148438 L 176.109375 123.148438 Z M 193.402344 156.125 L 222.125 156.125 L 222.125 186.050781 L 193.402344 186.050781 Z M 193.8125 156.539062 L 193.8125 185.640625 L 221.714844 185.640625 L 221.714844 156.539062 Z M 195.773438 158.296875 L 219.753906 158.296875 L 219.753906 183.882812 L 195.773438 183.882812 Z M 154.742188 233.667969 L 154.742188 281.859375 C 154.742188 286.730469 158.484375 287.125 163.128906 287.125 L 252.398438 287.125 C 257.042969 287.125 260.785156 286.730469 260.785156 281.859375 L 260.785156 233.667969 Z M 163.46875 249.882812 L 252.058594 249.882812 L 252.058594 250.371094 L 163.46875 250.371094 Z M 163.46875 254.082031 L 252.058594 254.082031 L 252.058594 254.566406 L 163.46875 254.566406 Z M 163.46875 258.28125 L 252.058594 258.28125 L 252.058594 258.765625 L 163.46875 258.765625 Z M 163.46875 262.476562 L 252.058594 262.476562 L 252.058594 262.964844 L 163.46875 262.964844 Z M 163.46875 266.675781 L 252.058594 266.675781 L 252.058594 267.160156 L 163.46875 267.160156 Z M 163.46875 270.875 L 252.058594 270.875 L 252.058594 271.359375 L 163.46875 271.359375 Z M 163.46875 270.875 " fill-opacity="1" fill-rule="evenodd"/><path fill="#000000" d="M 112.058594 257.675781 L 103.101562 257.746094 L 94.144531 257.675781 L 92.03125 263.203125 L 79.238281 263.230469 C 78.222656 263.234375 77.410156 263.675781 77.402344 264.28125 L 77.359375 267.625 C 77.351562 268.261719 77.785156 269.042969 78.503906 269.042969 L 79.21875 269.042969 L 81.183594 287.808594 L 125.015625 287.808594 L 126.984375 269.050781 C 128.285156 268.976562 128.929688 268.566406 128.949219 267.6875 L 129.011719 264.515625 C 129.023438 263.910156 128.152344 263.121094 127.136719 263.125 L 114.152344 263.152344 Z M 96.417969 260.214844 L 103.101562 260.34375 L 109.785156 260.214844 L 110.34375 263.160156 L 95.851562 263.191406 Z M 96.417969 260.214844 " fill-opacity="1" fill-rule="evenodd"/><path fill="#4b7eaf" d="M 79.273438 263.949219 C 78.492188 263.949219 77.863281 264.558594 77.863281 265.3125 L 77.863281 267.023438 C 77.863281 267.78125 78.492188 268.386719 79.273438 268.386719 L 82.496094 268.386719 C 83.28125 268.386719 83.910156 267.78125 83.910156 267.023438 L 83.910156 265.3125 C 83.910156 264.558594 83.28125 263.949219 82.496094 263.949219 Z M 86.679688 263.949219 C 85.894531 263.949219 85.265625 264.558594 85.265625 265.3125 L 85.265625 267.023438 C 85.265625 267.78125 85.894531 268.386719 86.679688 268.386719 L 89.902344 268.386719 C 90.683594 268.386719 91.316406 267.78125 91.316406 267.023438 L 91.316406 265.3125 C 91.316406 264.558594 90.683594 263.949219 89.902344 263.949219 Z M 94.085938 263.949219 C 93.300781 263.949219 92.671875 264.558594 92.671875 265.3125 L 92.671875 267.023438 C 92.671875 267.78125 93.300781 268.386719 94.085938 268.386719 L 97.308594 268.386719 C 98.089844 268.386719 98.71875 267.78125 98.71875 267.023438 L 98.71875 265.3125 C 98.71875 264.558594 98.089844 263.949219 97.308594 263.949219 Z M 101.488281 263.949219 C 100.707031 263.949219 100.078125 264.558594 100.078125 265.3125 L 100.078125 267.023438 C 100.078125 267.78125 100.707031 268.386719 101.488281 268.386719 L 104.710938 268.386719 C 105.496094 268.386719 106.125 267.78125 106.125 267.023438 L 106.125 265.3125 C 106.125 264.558594 105.496094 263.949219 104.710938 263.949219 Z M 108.894531 263.949219 C 108.113281 263.949219 107.480469 264.558594 107.480469 265.3125 L 107.480469 267.023438 C 107.480469 267.78125 108.113281 268.386719 108.894531 268.386719 L 112.117188 268.386719 C 112.902344 268.386719 113.53125 267.78125 113.53125 267.023438 L 113.53125 265.3125 C 113.53125 264.558594 112.902344 263.949219 112.117188 263.949219 Z M 116.300781 263.949219 C 115.515625 263.949219 114.886719 264.558594 114.886719 265.3125 L 114.886719 267.023438 C 114.886719 267.78125 115.515625 268.386719 116.300781 268.386719 L 119.523438 268.386719 C 120.304688 268.386719 120.9375 267.78125 120.9375 267.023438 L 120.9375 265.3125 C 120.9375 264.558594 120.304688 263.949219 119.523438 263.949219 Z M 123.703125 263.949219 C 122.921875 263.949219 122.292969 264.558594 122.292969 265.3125 L 122.292969 267.023438 C 122.292969 267.78125 122.921875 268.386719 123.703125 268.386719 L 126.929688 268.386719 C 127.710938 268.386719 128.339844 267.78125 128.339844 267.023438 L 128.339844 265.3125 C 128.339844 264.558594 127.710938 263.949219 126.929688 263.949219 Z M 123.703125 263.949219 " fill-opacity="1" fill-rule="evenodd"/><path fill="#4b7eaf" d="M 123.28125 55.199219 C 118.230469 55.230469 115.171875 57.640625 109.628906 62.191406 C 108.558594 64.117188 108.992188 69.601562 109.046875 71.902344 C 109.277344 71.917969 109.503906 71.933594 109.734375 71.945312 C 109.300781 74.371094 107.886719 82.554688 112.25 88.363281 L 112.050781 99.550781 C 111.832031 99.644531 111.617188 99.746094 111.40625 99.855469 C 110.667969 100.238281 109.164062 101.273438 108.476562 101.734375 C 101.886719 106.152344 99.789062 116.816406 100.023438 123.859375 C 100.148438 126.472656 100.585938 128.871094 102.042969 133.09375 C 102.652344 136.257812 103.34375 139.839844 103.964844 142.433594 C 103.511719 144.289062 103.375 146.585938 104.597656 148.421875 L 107.867188 148.582031 C 107.8125 148.410156 107.75 148.21875 107.6875 148.03125 C 107.75 148.21875 107.808594 148.402344 107.867188 148.582031 C 109.328125 153.121094 110.199219 158.148438 109.488281 164.40625 C 110.054688 168.597656 110.320312 179 109.875 182.148438 C 107.878906 196.261719 111.101562 210.457031 112.75 227.199219 C 102.765625 237.699219 112.828125 261.238281 108.246094 277.667969 C 107.605469 279.550781 106.480469 286.210938 107.660156 288.191406 C 114.285156 288.21875 120.628906 289.023438 127.777344 287.601562 C 129.816406 286.042969 126.039062 280.054688 121.148438 283.128906 C 117.851562 282.675781 115.558594 279.214844 114.160156 278.378906 C 114.160156 278.378906 120.597656 236.355469 121.308594 229.015625 C 123.195312 219.964844 124.800781 215.699219 125.015625 202.011719 C 127.183594 213.960938 131.152344 218.097656 134.457031 228.171875 C 126.867188 241.609375 137.332031 256.378906 135.398438 277.667969 C 134.757812 279.550781 133.632812 286.210938 134.8125 288.191406 C 141.4375 288.21875 147.78125 289.023438 154.929688 287.601562 C 156.972656 286.042969 153.191406 280.054688 148.300781 283.128906 C 145.003906 282.675781 142.429688 278.574219 141.03125 277.742188 C 143.714844 258.332031 144.03125 227.269531 144.03125 227.269531 C 144.03125 227.269531 143.484375 214.703125 141.324219 200.738281 C 139.699219 190.253906 135.691406 176.289062 135.570312 168.175781 C 135.609375 160.546875 135.773438 154.039062 138.179688 144.59375 C 138.40625 143.707031 138.628906 142.601562 138.839844 141.363281 C 139.480469 141.578125 140.113281 141.6875 140.695312 141.679688 C 140.753906 141.679688 140.8125 141.675781 140.871094 141.675781 C 141.527344 141.640625 142.117188 141.453125 142.5625 141.101562 C 143.25 140.117188 143.871094 139.246094 145.015625 137.636719 C 146.164062 136.027344 147.578125 134.027344 149.386719 130.929688 C 149.316406 129.605469 147.476562 125.726562 144.765625 125.96875 C 139.5 120.066406 135.734375 108.402344 133.894531 105.851562 C 132.882812 104.453125 132.03125 102.945312 130.871094 101.976562 C 130.015625 101.296875 128.988281 100.703125 127.863281 100.214844 L 127.90625 95.886719 L 132.121094 97.449219 C 134.832031 98.628906 137.328125 98.261719 137.578125 95.804688 C 138.195312 89.769531 140.574219 83.585938 139.152344 78.234375 L 139.425781 74.558594 L 148.609375 76.75 C 149.109375 76.359375 149.578125 75.40625 148.605469 74.699219 C 147.96875 74.238281 143.074219 72.574219 139.789062 71.578125 L 140.140625 61.023438 C 134.925781 57.691406 129.664062 55.515625 124.316406 55.226562 C 123.960938 55.207031 123.617188 55.199219 123.28125 55.199219 Z M 194.441406 114.519531 C 194.441406 114.519531 194.171875 114.523438 194.121094 114.703125 L 193.699219 116.257812 C 193.679688 116.328125 193.714844 116.375 193.761719 116.414062 C 193.933594 116.546875 194.101562 116.683594 194.269531 116.820312 C 194.355469 116.890625 194.457031 117.019531 194.425781 117.140625 C 194.390625 117.257812 194.238281 117.316406 194.128906 117.335938 L 193.796875 117.390625 L 193.125 117.207031 L 190.84375 125.570312 L 190.554688 126.632812 C 190.402344 127.191406 190.464844 127.792969 191.148438 127.976562 L 192.277344 128.285156 L 193.402344 128.589844 C 194.085938 128.777344 194.445312 128.289062 194.597656 127.734375 L 194.886719 126.671875 L 197.167969 118.308594 L 196.496094 118.125 L 196.238281 117.910156 C 196.152344 117.835938 196.050781 117.710938 196.082031 117.589844 C 196.113281 117.472656 196.269531 117.414062 196.378906 117.394531 C 196.59375 117.359375 196.808594 117.332031 197.019531 117.300781 C 197.082031 117.289062 197.136719 117.269531 197.15625 117.199219 L 197.578125 115.644531 C 197.628906 115.464844 197.398438 115.320312 197.398438 115.320312 Z M 201.457031 163.074219 L 201.148438 163.382812 L 201.457031 163.6875 L 203.863281 163.6875 L 204.171875 163.382812 L 203.863281 163.074219 Z M 206.558594 163.074219 L 206.253906 163.382812 L 206.558594 163.6875 L 208.96875 163.6875 L 209.273438 163.382812 L 208.96875 163.074219 Z M 211.664062 163.074219 L 211.355469 163.382812 L 211.664062 163.6875 L 214.070312 163.6875 L 214.378906 163.382812 L 214.070312 163.074219 Z M 204.171875 163.421875 L 203.863281 163.730469 L 203.863281 166.136719 L 204.171875 166.441406 L 204.480469 166.136719 L 204.480469 163.730469 Z M 206.253906 163.421875 L 205.945312 163.730469 L 205.945312 166.136719 L 206.253906 166.441406 L 206.558594 166.136719 L 206.558594 163.730469 Z M 209.273438 163.421875 L 208.96875 163.730469 L 208.96875 166.136719 L 209.273438 166.441406 L 209.582031 166.136719 L 209.582031 163.730469 Z M 211.355469 163.421875 L 211.046875 163.730469 L 211.046875 166.136719 L 211.355469 166.441406 L 211.664062 166.136719 L 211.664062 163.730469 Z M 201.457031 166.175781 L 201.148438 166.484375 L 201.457031 166.792969 L 203.863281 166.792969 L 204.171875 166.484375 L 203.863281 166.175781 Z M 211.664062 166.175781 L 211.355469 166.484375 L 211.664062 166.792969 L 214.070312 166.792969 L 214.378906 166.484375 L 214.070312 166.175781 Z M 201.148438 166.527344 L 200.839844 166.832031 L 200.839844 169.238281 L 201.148438 169.546875 L 201.457031 169.238281 L 201.457031 166.832031 Z M 206.253906 166.527344 L 205.945312 166.832031 L 205.945312 169.238281 L 206.253906 169.546875 L 206.558594 169.238281 L 206.558594 166.832031 Z M 209.273438 166.527344 L 208.96875 166.832031 L 208.96875 169.238281 L 209.273438 169.546875 L 209.582031 169.238281 L 209.582031 166.832031 Z M 201.457031 169.28125 L 201.148438 169.585938 L 201.457031 169.894531 L 203.863281 169.894531 L 204.171875 169.585938 L 203.863281 169.28125 Z M 206.558594 169.28125 L 206.253906 169.585938 L 206.558594 169.894531 L 208.96875 169.894531 L 209.273438 169.585938 L 208.96875 169.28125 Z M 206.558594 169.28125 " fill-opacity="1" fill-rule="evenodd"/><path fill="#f1b28a" d="M 112.324219 71.75 C 113.6875 78.585938 111.8125 83.222656 112.25 88.363281 L 112.035156 100.421875 C 115.441406 99.109375 121.507812 97.960938 127.859375 100.480469 L 127.90625 95.886719 L 132.121094 97.449219 C 134.828125 98.628906 137.328125 98.261719 137.578125 95.804688 C 138.191406 89.769531 140.574219 83.585938 139.148438 78.234375 L 139.425781 74.558594 C 128.097656 71.792969 120.167969 71.996094 112.324219 71.75 Z M 196.328125 117.636719 C 196.308594 117.636719 196.289062 117.640625 196.273438 117.640625 C 194.03125 117.859375 189.691406 119.472656 189.691406 119.472656 L 191.546875 118.414062 C 189.917969 117.742188 188.070312 117.230469 186.53125 118.683594 C 185.652344 119.511719 185.488281 122.8125 185.207031 123.890625 C 167.558594 133.945312 162.421875 123.136719 151.429688 131.042969 L 149.242188 130.925781 L 142.488281 140.707031 L 146.277344 143.136719 C 148.101562 144.308594 150.472656 142.742188 152.296875 142.628906 C 168.5625 141.625 169.464844 135.53125 187.320312 130.296875 C 187.691406 130.417969 195.308594 130.457031 195.308594 130.457031 C 197.871094 130.816406 197.714844 127.976562 196.582031 127.851562 L 195.132812 127.695312 L 196.921875 127.289062 C 197.984375 127.050781 198.433594 124.589844 196.953125 124.640625 L 195.070312 124.707031 L 196.84375 124.027344 C 198.15625 123.949219 199.035156 120.933594 196.871094 121.199219 L 194.625 121.476562 L 197 120.640625 C 198.34375 120.171875 197.472656 117.609375 196.328125 117.636719 Z M 105.5625 148.28125 C 105.902344 150.339844 106.738281 153.007812 109.097656 153.289062 L 107.867188 148.582031 Z M 105.5625 148.28125 " fill-opacity="1" fill-rule="evenodd"/><path fill="#000000" d="M 113.6875 71.746094 C 112.378906 71.746094 111.066406 71.769531 109.753906 71.820312 C 109.351562 74.089844 107.8125 82.460938 112.25 88.363281 C 114.484375 88.46875 116.710938 88.585938 117.675781 87.355469 C 118.800781 85.917969 119.226562 83.714844 120.542969 82.367188 C 117.847656 76.921875 120.542969 73.152344 122.03125 72.917969 C 123.898438 72.625 126.34375 76.804688 126.027344 81.171875 C 128.890625 80.457031 126.417969 76.410156 130.695312 72.753906 C 125.007812 72.15625 119.359375 71.746094 113.6875 71.746094 Z M 198.378906 103.257812 L 197.292969 105.136719 L 197.375 106.574219 L 195.15625 114.710938 L 196.683594 115.128906 L 198.902344 106.988281 L 199.707031 105.792969 L 199.722656 103.625 Z M 108.246094 277.671875 C 107.605469 279.554688 106.480469 286.210938 107.660156 288.191406 C 114.285156 288.21875 120.628906 289.027344 127.777344 287.601562 C 129.816406 286.042969 126.039062 280.054688 121.148438 283.128906 C 117.847656 282.675781 115.558594 279.214844 114.160156 278.378906 Z M 135.398438 277.671875 C 134.757812 279.554688 133.632812 286.210938 134.8125 288.191406 C 141.4375 288.21875 147.78125 289.027344 154.929688 287.601562 C 156.972656 286.042969 153.191406 280.054688 148.300781 283.128906 C 145.003906 282.675781 142.425781 278.578125 141.03125 277.742188 Z M 135.398438 277.671875 " fill-opacity="1" fill-rule="evenodd"/><path fill="#f9f9f9" d="M 119.4375 98.570312 C 116.519531 98.601562 114.039062 98.730469 111.648438 99.976562 C 103.949219 103.992188 99.320312 114.222656 101.816406 125.25 C 102.613281 126.125 103.957031 126.632812 105.21875 127.125 C 102.398438 103.195312 117.742188 99.0625 120.777344 99.207031 C 125.652344 99.441406 128.683594 100.960938 129.675781 101.660156 C 131.210938 102.742188 132.625 104.128906 133.894531 105.851562 C 133.078125 104.308594 131.9375 102.84375 130.71875 101.871094 C 128.042969 99.742188 123.847656 98.582031 119.4375 98.570312 Z M 121.667969 101.175781 C 115.4375 101.175781 107.699219 109.117188 108.257812 120.304688 C 108.59375 126.996094 113.519531 131.332031 116.242188 134.167969 C 119.414062 135.476562 131.273438 134.53125 131.273438 134.53125 C 131.273438 134.53125 128.585938 132.914062 125.375 130.710938 C 121.941406 129.113281 117.046875 126.730469 115.179688 119.421875 C 115.054688 119.011719 114.964844 118.613281 114.910156 118.234375 C 114.992188 118.640625 115.082031 119.039062 115.179688 119.421875 C 116.300781 123.097656 120.253906 127.574219 126.886719 128.839844 C 131.589844 131.386719 134.339844 132.1875 136.246094 133.359375 C 138.917969 130.402344 141.792969 127.125 144.570312 126.171875 C 144.570312 126.171875 139.105469 131.097656 137.984375 134.089844 C 139.3125 134.707031 142.324219 136.113281 144.460938 138.421875 C 146.296875 135.835938 147.472656 134.203125 149.386719 130.929688 C 149.316406 129.605469 146.992188 125.121094 144.765625 125.96875 C 141.273438 119.785156 138.394531 116.792969 136.035156 114.511719 C 134.488281 109.359375 132.039062 104.960938 129.257812 103.246094 C 126.054688 101.265625 122.785156 101.175781 121.667969 101.175781 Z M 198.507812 103.570312 L 197.5625 105.199219 L 197.636719 106.5 L 197.890625 106.566406 L 198.714844 106.792969 L 199.441406 105.710938 L 199.453125 103.828125 Z M 101.953125 132.644531 C 102.585938 135.910156 103.316406 139.71875 103.964844 142.4375 C 103.511719 144.289062 103.375 146.585938 104.601562 148.425781 L 107.867188 148.582031 C 106.144531 143.21875 103.683594 137.855469 101.953125 132.644531 Z M 101.953125 132.644531 " fill-opacity="1" fill-rule="evenodd"/></svg>