<svg xmlns="http://www.w3.org/2000/svg" xmlns:xlink="http://www.w3.org/1999/xlink" width="500" zoomAndPan="magnify" viewBox="0 0 375 374.999991" height="500" preserveAspectRatio="xMidYMid meet" version="1.0"><defs><clipPath id="b4cf6c00d8"><path d="M 16.339844 16.339844 L 358.339844 16.339844 L 358.339844 358.339844 L 16.339844 358.339844 Z M 16.339844 16.339844 " clip-rule="nonzero"/></clipPath></defs><g clip-path="url(#b4cf6c00d8)"><path fill="#ffffff" d="M 230.074219 304.609375 C 221.546875 309.496094 216.339844 317.976562 215.582031 327.777344 L 213.667969 352.925781 C 213.414062 356.179688 210.722656 358.667969 207.460938 358.667969 L 167.59375 358.667969 C 164.332031 358.667969 161.652344 356.1875 161.398438 352.925781 L 159.472656 327.777344 C 158.601562 316.382812 151.738281 307.011719 141.136719 302.742188 C 140.382812 302.441406 139.628906 302.121094 138.871094 301.800781 C 128.425781 297.359375 116.808594 299.148438 108.191406 306.535156 L 89.042969 322.953125 C 86.566406 325.074219 82.90625 324.9375 80.601562 322.636719 L 52.410156 294.445312 C 50.109375 292.140625 49.972656 288.480469 52.09375 286.003906 L 68.519531 266.855469 C 75.90625 258.238281 77.699219 246.609375 73.246094 236.175781 C 72.925781 235.417969 72.617188 234.664062 72.316406 233.910156 C 68.035156 223.308594 58.675781 216.453125 47.28125 215.574219 L 22.121094 213.648438 C 18.867188 213.394531 16.378906 210.714844 16.378906 207.453125 L 16.378906 167.585938 C 16.378906 164.324219 18.867188 161.632812 22.121094 161.390625 L 47.269531 159.453125 C 58.664062 158.582031 68.035156 151.71875 72.304688 141.128906 C 72.605469 140.363281 72.925781 139.609375 73.246094 138.851562 C 77.699219 128.417969 75.898438 116.789062 68.511719 108.175781 L 52.09375 89.035156 C 49.972656 86.554688 50.109375 82.898438 52.410156 80.59375 L 80.601562 52.402344 C 82.90625 50.089844 86.566406 49.953125 89.042969 52.082031 L 108.191406 68.5 C 116.808594 75.886719 128.4375 77.679688 138.871094 73.234375 C 139.628906 72.917969 140.382812 72.605469 141.136719 72.296875 C 151.738281 68.027344 158.601562 58.65625 159.472656 47.261719 L 161.398438 22.101562 C 161.652344 18.847656 164.332031 16.371094 167.59375 16.371094 L 207.460938 16.371094 C 210.734375 16.371094 213.414062 18.847656 213.667969 22.101562 L 215.59375 47.261719 C 216.464844 58.65625 223.328125 68.027344 233.929688 72.296875 C 234.683594 72.597656 235.449219 72.917969 236.195312 73.234375 C 246.640625 77.679688 258.257812 75.886719 266.871094 68.5 L 286.023438 52.082031 C 288.492188 49.953125 292.148438 50.089844 294.464844 52.402344 L 322.652344 80.59375 C 324.957031 82.898438 325.09375 86.554688 322.972656 89.023438 L 306.546875 108.175781 C 299.160156 116.789062 297.367188 128.417969 301.820312 138.863281 C 302.140625 139.609375 302.449219 140.363281 302.761719 141.128906 C 307.027344 151.71875 316.398438 158.582031 327.792969 159.453125 L 352.945312 161.390625 C 356.199219 161.632812 358.6875 164.324219 358.6875 167.585938 L 358.6875 207.453125 C 358.6875 210.714844 356.199219 213.394531 352.945312 213.648438 L 327.792969 215.574219 C 318.9375 216.25 311.054688 220.589844 305.992188 227.898438 L 303.71875 231.179688 L 271.695312 203.394531 L 271.753906 203.074219 C 272.699219 197.945312 273.164062 192.738281 273.164062 187.519531 C 273.164062 140.21875 234.828125 101.882812 187.527344 101.882812 C 140.238281 101.882812 101.890625 140.21875 101.890625 187.519531 C 101.890625 234.808594 140.238281 273.15625 187.527344 273.15625 C 193.898438 273.15625 200.25 272.449219 206.453125 271.046875 L 208.554688 270.582031 L 235.214844 301.65625 Z M 230.074219 304.609375 " fill-opacity="1" fill-rule="evenodd"/></g><path fill="#ffffff" d="M 166.539062 126.316406 C 188.804688 118.011719 214.859375 122.839844 232.710938 140.789062 C 246.6875 154.855469 252.59375 173.90625 250.433594 192.183594 C 249.089844 203.578125 253.125 214.003906 261.800781 221.527344 L 335.347656 285.335938 C 349.179688 297.339844 348.203125 319.527344 335.210938 332.441406 C 322.21875 345.355469 300.03125 346.21875 288.101562 332.304688 L 224.710938 258.410156 C 217.230469 249.699219 206.839844 245.605469 195.429688 246.882812 C 177.140625 248.933594 158.117188 242.921875 144.136719 228.867188 C 126.285156 210.917969 121.601562 184.835938 130.035156 162.621094 L 171.378906 204.207031 C 172.792969 205.621094 174.671875 206.203125 176.636719 205.804688 L 200.113281 201.160156 C 202.464844 200.695312 204.207031 198.960938 204.683594 196.609375 L 209.464844 173.160156 C 209.871094 171.195312 209.308594 169.320312 207.886719 167.894531 Z M 302.914062 299.960938 C 307.804688 295.101562 315.714844 295.121094 320.582031 300.019531 C 325.441406 304.910156 325.421875 312.820312 320.523438 317.679688 C 315.636719 322.546875 307.726562 322.519531 302.867188 317.628906 C 297.996094 312.742188 298.027344 304.832031 302.914062 299.960938 Z M 302.914062 299.960938 " fill-opacity="1" fill-rule="evenodd"/></svg>