<svg xmlns="http://www.w3.org/2000/svg" xmlns:xlink="http://www.w3.org/1999/xlink" width="500" zoomAndPan="magnify" viewBox="0 0 375 374.999991" height="500" preserveAspectRatio="xMidYMid meet" version="1.0"><defs><clipPath id="dc8202761b"><path d="M 16.339844 16.339844 L 358.339844 16.339844 L 358.339844 358.339844 L 16.339844 358.339844 Z M 16.339844 16.339844 " clip-rule="nonzero"/></clipPath></defs><g clip-path="url(#dc8202761b)"><path fill="#000000" d="M 229.878906 304.34375 C 221.355469 309.226562 216.152344 317.699219 215.398438 327.488281 L 213.484375 352.613281 C 213.234375 355.863281 210.542969 358.351562 207.285156 358.351562 L 167.457031 358.351562 C 164.195312 358.351562 161.515625 355.875 161.265625 352.613281 L 159.339844 327.488281 C 158.46875 316.105469 151.613281 306.742188 141.023438 302.476562 C 140.269531 302.175781 139.511719 301.855469 138.757812 301.539062 C 128.324219 297.097656 116.714844 298.886719 108.109375 306.265625 L 88.976562 322.671875 C 86.5 324.789062 82.84375 324.652344 80.542969 322.351562 L 52.378906 294.1875 C 50.078125 291.886719 49.941406 288.230469 52.058594 285.753906 L 68.472656 266.621094 C 75.851562 258.015625 77.640625 246.398438 73.191406 235.972656 C 72.875 235.21875 72.5625 234.460938 72.265625 233.707031 C 67.988281 223.117188 58.636719 216.269531 47.253906 215.390625 L 22.113281 213.464844 C 18.867188 213.214844 16.378906 210.535156 16.378906 207.273438 L 16.378906 167.445312 C 16.378906 164.1875 18.867188 161.496094 22.113281 161.253906 L 47.242188 159.320312 C 58.625 158.449219 67.988281 151.59375 72.253906 141.011719 C 72.554688 140.25 72.875 139.492188 73.191406 138.738281 C 77.640625 128.3125 75.84375 116.695312 68.464844 108.089844 L 52.058594 88.96875 C 49.941406 86.492188 50.078125 82.835938 52.378906 80.535156 L 80.542969 52.367188 C 82.84375 50.058594 86.5 49.921875 88.976562 52.050781 L 108.109375 68.453125 C 116.714844 75.832031 128.332031 77.621094 138.757812 73.183594 C 139.511719 72.863281 140.269531 72.554688 141.023438 72.246094 C 151.613281 67.980469 158.46875 58.617188 159.339844 47.234375 L 161.265625 22.097656 C 161.515625 18.847656 164.195312 16.371094 167.457031 16.371094 L 207.285156 16.371094 C 210.554688 16.371094 213.234375 18.847656 213.484375 22.097656 L 215.410156 47.234375 C 216.28125 58.617188 223.136719 67.980469 233.726562 72.246094 C 234.480469 72.542969 235.246094 72.863281 235.992188 73.183594 C 246.425781 77.621094 258.035156 75.832031 266.640625 68.453125 L 285.773438 52.050781 C 288.238281 49.921875 291.894531 50.058594 294.207031 52.367188 L 322.371094 80.535156 C 324.671875 82.835938 324.808594 86.492188 322.691406 88.957031 L 306.277344 108.089844 C 298.898438 116.695312 297.109375 128.3125 301.558594 138.75 C 301.875 139.492188 302.1875 140.25 302.496094 141.011719 C 306.761719 151.59375 316.121094 158.449219 327.507812 159.320312 L 352.632812 161.253906 C 355.882812 161.496094 358.371094 164.1875 358.371094 167.445312 L 358.371094 207.273438 C 358.371094 210.535156 355.882812 213.214844 352.632812 213.464844 L 327.507812 215.390625 C 318.65625 216.066406 310.785156 220.398438 305.726562 227.703125 L 303.453125 230.980469 L 271.457031 203.222656 L 271.515625 202.902344 C 272.464844 197.777344 272.929688 192.574219 272.929688 187.359375 C 272.929688 140.101562 234.628906 101.800781 187.371094 101.800781 C 140.121094 101.800781 101.8125 140.101562 101.8125 187.359375 C 101.8125 234.609375 140.121094 272.917969 187.371094 272.917969 C 193.734375 272.917969 200.078125 272.210938 206.277344 270.808594 L 208.378906 270.34375 L 235.015625 301.394531 Z M 229.878906 304.34375 " fill-opacity="1" fill-rule="evenodd"/></g><path fill="#000000" d="M 166.402344 126.214844 C 188.648438 117.914062 214.675781 122.742188 232.507812 140.675781 C 246.476562 154.726562 252.375 173.761719 250.21875 192.023438 C 248.875 203.40625 252.90625 213.824219 261.574219 221.339844 L 335.050781 285.085938 C 348.871094 297.078125 347.894531 319.246094 334.914062 332.148438 C 321.9375 345.050781 299.769531 345.914062 287.851562 332.015625 L 224.519531 258.1875 C 217.042969 249.484375 206.664062 245.390625 195.261719 246.667969 C 176.992188 248.71875 157.988281 242.714844 144.019531 228.667969 C 126.183594 210.738281 121.503906 184.679688 129.929688 162.484375 L 171.238281 204.035156 C 172.648438 205.445312 174.527344 206.027344 176.488281 205.628906 L 199.945312 200.988281 C 202.292969 200.523438 204.035156 198.792969 204.507812 196.441406 L 209.285156 173.015625 C 209.691406 171.054688 209.132812 169.175781 207.710938 167.753906 Z M 302.648438 299.699219 C 307.535156 294.84375 315.4375 294.863281 320.300781 299.757812 C 325.15625 304.640625 325.136719 312.542969 320.242188 317.398438 C 315.359375 322.265625 307.457031 322.234375 302.601562 317.351562 C 297.738281 312.46875 297.765625 304.566406 302.648438 299.699219 Z M 302.648438 299.699219 " fill-opacity="1" fill-rule="evenodd"/></svg>