<svg xmlns="http://www.w3.org/2000/svg" xmlns:xlink="http://www.w3.org/1999/xlink" width="500" zoomAndPan="magnify" viewBox="0 0 375 374.999991" height="500" preserveAspectRatio="xMidYMid meet" version="1.0"><defs><clipPath id="e93d177008"><path d="M 25 14.953125 L 350 14.953125 L 350 359.953125 L 25 359.953125 Z M 25 14.953125 " clip-rule="nonzero"/></clipPath></defs><g clip-path="url(#e93d177008)"><path fill="#000000" d="M 149.859375 112.992188 C 152.71875 112.945312 155.058594 115.242188 155.101562 118.109375 C 155.125 120.96875 152.851562 123.308594 149.988281 123.355469 L 133.375 123.5625 C 130.53125 123.609375 128.179688 121.3125 128.15625 118.445312 C 128.109375 115.578125 130.40625 113.246094 133.273438 113.199219 Z M 289.984375 63.152344 C 287.984375 65.195312 284.703125 65.253906 282.660156 63.253906 C 280.597656 61.257812 280.558594 57.972656 282.558594 55.90625 L 294.132812 44.027344 C 296.132812 41.964844 299.414062 41.925781 301.457031 43.925781 C 303.519531 45.921875 303.558594 49.207031 301.558594 51.25 Z M 310.609375 121.207031 C 307.753906 121.253906 305.390625 118.957031 305.367188 116.089844 C 305.324219 113.222656 307.617188 110.890625 310.484375 110.84375 L 327.074219 110.636719 C 329.933594 110.59375 332.273438 112.886719 332.316406 115.753906 C 332.359375 118.617188 330.066406 120.957031 327.199219 121 Z M 284.152344 176.878906 C 282.113281 174.882812 282.066406 171.597656 284.070312 169.535156 C 286.046875 167.492188 289.335938 167.445312 291.394531 169.453125 L 303.289062 181.035156 C 305.332031 183.007812 305.375 186.300781 303.371094 188.359375 C 301.394531 190.402344 298.105469 190.445312 296.050781 188.460938 Z M 234.351562 36.695312 C 234.371094 39.542969 232.078125 41.898438 229.234375 41.917969 C 226.375 41.964844 224.011719 39.667969 223.992188 36.800781 L 223.761719 20.203125 C 223.738281 17.335938 226.011719 15.003906 228.875 14.960938 C 231.734375 14.9375 234.097656 17.234375 234.121094 20.078125 Z M 176.296875 57.3125 C 178.359375 59.308594 178.398438 62.59375 176.398438 64.636719 C 174.402344 66.703125 171.121094 66.738281 169.078125 64.742188 L 157.183594 53.160156 C 155.140625 51.183594 155.082031 47.890625 157.078125 45.835938 C 159.074219 43.792969 162.367188 43.730469 164.398438 45.730469 Z M 80 297.609375 L 91.957031 290.699219 C 92.585938 290.34375 92.839844 289.414062 92.460938 288.761719 L 50.652344 216.34375 C 50.171875 215.460938 49.265625 215.503906 48.425781 215.964844 L 36.492188 222.875 C 35.839844 223.230469 35.585938 224.160156 35.964844 224.8125 L 77.773438 297.25 C 78.316406 298.203125 79.21875 298.007812 80 297.609375 Z M 97.109375 299.695312 L 84.902344 306.753906 C 79.234375 310.015625 72.039062 308.0625 68.792969 302.460938 L 26.988281 230.019531 C 23.730469 224.375 25.660156 217.175781 31.300781 213.90625 L 43.511719 206.835938 C 47.90625 204.308594 53.34375 204.871094 57.085938 208.097656 C 61.882812 199.085938 66.320312 190.113281 73.292969 179.503906 C 87.988281 157.140625 109.078125 136.378906 135.765625 151.726562 C 156.039062 140.925781 155.304688 140.710938 171.90625 131.066406 C 163.316406 92.925781 190.933594 54.917969 230.167969 54.816406 C 263.679688 54.734375 289.988281 82.949219 290.070312 116.726562 C 290.117188 138.964844 278.703125 159.601562 259.929688 170.789062 C 255.871094 173.210938 253.449219 177.171875 253.003906 181.867188 L 253.335938 181.867188 L 253.335938 181.84375 C 260.242188 181.84375 265.921875 187.527344 265.921875 194.414062 L 265.945312 194.414062 C 265.886719 199.191406 263.421875 203.296875 259.382812 205.46875 L 259.382812 205.636719 L 314.050781 227.308594 C 314.828125 227.5625 315.542969 228.007812 316.152344 228.636719 L 348.542969 262.328125 C 351.007812 264.898438 350.226562 269.238281 346.878906 270.6875 L 317.597656 283.449219 L 317.597656 317.964844 C 317.597656 319.941406 316.460938 321.820312 314.523438 322.703125 L 233.824219 359.058594 C 232.011719 359.945312 230.601562 359.796875 228.855469 358.980469 L 148.554688 328.214844 C 146.488281 327.433594 145.203125 325.460938 145.203125 323.371094 L 145.203125 284.875 C 140.050781 282.660156 134.914062 280.476562 129.753906 278.285156 L 102.574219 286.332031 C 104.015625 291.441406 101.824219 296.960938 97.109375 299.695312 Z M 63.492188 217.84375 L 97.613281 276.976562 L 133.949219 266.214844 C 148.769531 257.476562 151.582031 256.066406 154.894531 254.378906 C 157.925781 252.839844 161.398438 251.074219 175.710938 242.796875 L 175.710938 242.820312 C 185.957031 236.757812 179.601562 225.53125 176.109375 226.519531 L 156.445312 238.503906 C 154.003906 239.996094 150.804688 239.238281 149.332031 236.796875 C 147.839844 234.328125 148.597656 231.148438 151.054688 229.65625 L 174.023438 215.609375 L 179.324219 212.175781 C 184.628906 208.765625 178.546875 195.683594 173.496094 198.65625 L 147.460938 214.472656 C 145.019531 215.941406 141.839844 215.167969 140.371094 212.726562 C 138.898438 210.28125 139.671875 207.101562 142.117188 205.609375 L 168.148438 189.792969 C 172.257812 187.289062 169.605469 181.308594 166.933594 178.632812 C 165.648438 177.371094 164.175781 176.53125 162.765625 176.589844 L 134.980469 192.957031 C 132.515625 194.414062 129.335938 193.589844 127.886719 191.121094 C 126.433594 188.65625 127.277344 185.476562 129.738281 184.027344 L 158.386719 167.15625 C 167.691406 161.679688 177.625 156.226562 186.824219 150.730469 C 189.039062 149.363281 190.679688 148.605469 191.460938 145.632812 C 193.167969 139.296875 186.238281 134.683594 181.144531 137.691406 C 172.492188 142.683594 167.824219 145.484375 164.140625 147.691406 C 157.070312 151.925781 153.402344 154.117188 138.0625 162.28125 L 138.0625 162.261719 L 107.792969 179.742188 C 105.3125 181.195312 102.128906 180.328125 100.703125 177.867188 C 99.269531 175.386719 100.117188 172.199219 102.597656 170.773438 L 124.488281 158.113281 C 107.332031 153.25 92.726562 168.8125 81.96875 185.179688 C 76.539062 193.453125 71.949219 202.191406 68.429688 208.871094 C 66.507812 212.515625 64.902344 215.570312 63.492188 217.84375 Z M 180.378906 188.886719 C 188.695312 192.570312 193.621094 203.921875 191.117188 212.621094 L 201.871094 208.890625 C 201.617188 207.800781 201.492188 206.664062 201.46875 205.503906 C 197.464844 203.355469 194.777344 199.121094 194.777344 194.40625 L 194.757812 194.40625 C 194.859375 187.222656 200.308594 181.835938 207.699219 181.835938 C 207.195312 177.246094 204.773438 173.351562 200.757812 170.988281 C 196.359375 168.398438 192.277344 165.238281 188.675781 161.621094 L 173.371094 170.46875 C 178.359375 174.90625 181.515625 182.214844 180.378906 188.886719 Z M 189.121094 224.285156 C 192.089844 229.609375 192.527344 236.3125 189.980469 242.039062 L 232.203125 258.464844 L 298.359375 232.226562 L 255.964844 215.421875 C 254.828125 216.855469 253.464844 218.097656 251.902344 219.085938 C 252.007812 228.265625 244.664062 235.679688 235.632812 235.703125 L 225.640625 235.703125 C 216.484375 235.703125 209.074219 228.164062 209.117188 219.105469 C 208.546875 218.75 207.980469 218.347656 207.476562 217.902344 Z M 182.742188 250.613281 C 182.15625 251.015625 181.539062 251.414062 180.90625 251.773438 L 180.90625 251.792969 C 166.339844 260.195312 162.722656 262.03125 159.566406 263.652344 C 156.664062 265.121094 154.136719 266.40625 143.273438 272.75 L 192.964844 293.910156 L 221.972656 266.152344 Z M 181.605469 126.660156 C 194.085938 124.433594 204.804688 135.96875 201.5 148.332031 C 200.761719 151.027344 199.398438 153.574219 197.4375 155.679688 C 200.050781 158.101562 202.910156 160.226562 206.007812 162.039062 C 213.246094 166.292969 217.558594 173.492188 218.109375 181.835938 L 224.191406 181.835938 L 224.761719 139.953125 C 213.417969 137.402344 205.1875 127.210938 205.316406 115.332031 L 205.292969 115.332031 C 205.292969 101.894531 216.59375 90.480469 230.53125 90.652344 L 230.53125 90.628906 C 243.957031 90.628906 255.347656 101.9375 255.199219 115.859375 L 255.222656 115.859375 C 255.222656 127.546875 246.59375 137.828125 235.121094 140.078125 L 234.550781 181.835938 L 242.652344 181.859375 C 243.113281 173.476562 247.425781 166.191406 254.671875 161.894531 C 283.195312 144.898438 288.347656 104.21875 265.070312 80.125 C 245.726562 60.097656 214.507812 60.203125 195.246094 80.378906 C 183.75 92.398438 178.507812 109.5 181.605469 126.660156 Z M 230.519531 101.03125 L 230.519531 101.007812 C 222.453125 100.816406 215.679688 107.449219 215.679688 115.332031 L 215.660156 115.332031 C 215.382812 128.199219 231.046875 135.1875 240.429688 126.050781 C 243.058594 123.480469 244.8125 119.820312 244.8125 115.859375 L 244.835938 115.859375 C 245.003906 107.792969 238.390625 101.03125 230.519531 101.03125 Z M 248.828125 206.996094 C 236.578125 207.019531 224.324219 206.996094 212.058594 206.976562 C 212.792969 209.417969 215.066406 211.1875 217.703125 211.1875 L 217.703125 211.210938 L 243.355469 211.210938 C 245.890625 211.210938 248.160156 209.441406 248.828125 206.996094 Z M 253.359375 192.214844 L 207.261719 192.191406 C 206.125 192.214844 205.160156 193.140625 205.160156 194.40625 L 205.136719 194.40625 C 205.160156 195.585938 206.148438 196.597656 207.386719 196.597656 C 207.492188 196.597656 207.582031 196.621094 207.683594 196.621094 L 253.210938 196.621094 C 254.621094 196.574219 255.585938 195.839844 255.585938 194.40625 L 255.609375 194.40625 C 255.585938 193.246094 254.578125 192.214844 253.359375 192.214844 Z M 241.128906 221.550781 C 234.074219 221.507812 227.027344 221.574219 219.972656 221.574219 C 220.9375 223.800781 223.152344 225.339844 225.640625 225.339844 L 235.597656 225.339844 C 238.03125 225.339844 240.222656 223.78125 241.128906 221.550781 Z M 240.957031 266.132812 L 269.792969 292.957031 L 335.925781 264.148438 L 311.085938 238.332031 Z M 307.226562 287.964844 L 271.015625 303.714844 C 269.144531 304.644531 266.828125 304.367188 265.210938 302.851562 L 236.605469 276.257812 L 236.605469 346.421875 L 307.226562 314.605469 Z M 226.226562 276.449219 L 197.644531 303.78125 C 196.109375 305.238281 193.894531 305.570312 192.046875 304.792969 C 179.882812 299.71875 167.734375 294.539062 155.609375 289.332031 L 155.609375 319.785156 L 226.226562 346.847656 Z M 226.226562 276.449219 " fill-opacity="1" fill-rule="nonzero"/></g></svg>