<svg xmlns="http://www.w3.org/2000/svg" xmlns:xlink="http://www.w3.org/1999/xlink" width="500" zoomAndPan="magnify" viewBox="0 0 375 374.999991" height="500" preserveAspectRatio="xMidYMid meet" version="1.0"><defs><clipPath id="883ff7ef3a"><path d="M 102 273 L 272 273 L 272 350.949219 L 102 350.949219 Z M 102 273 " clip-rule="nonzero"/></clipPath><clipPath id="5b7b0be663"><path d="M 83 23.949219 L 291 23.949219 L 291 306 L 83 306 Z M 83 23.949219 " clip-rule="nonzero"/></clipPath></defs><g clip-path="url(#883ff7ef3a)"><path fill="#000000" d="M 135.617188 291.503906 C 136.753906 290.921875 137.933594 290.367188 139.132812 289.839844 C 143.484375 287.929688 145.464844 282.855469 143.5625 278.503906 C 141.65625 274.148438 136.578125 272.175781 132.234375 274.074219 C 130.726562 274.734375 129.261719 275.429688 127.804688 276.171875 C 111.664062 284.445312 102.769531 295.492188 102.769531 307.273438 C 102.769531 319.121094 111.664062 330.179688 127.816406 338.417969 C 143.667969 346.496094 164.757812 350.949219 187.203125 350.949219 C 209.652344 350.949219 230.738281 346.496094 246.582031 338.417969 C 262.730469 330.175781 271.625 319.117188 271.625 307.273438 C 271.625 295.496094 262.734375 284.449219 246.582031 276.164062 C 244.925781 275.316406 243.199219 274.507812 241.429688 273.746094 C 237.0625 271.871094 232.011719 273.882812 230.132812 278.242188 C 228.257812 282.609375 230.269531 287.671875 234.628906 289.546875 C 236.054688 290.164062 237.433594 290.8125 238.753906 291.480469 C 250.328125 297.417969 254.433594 303.695312 254.433594 307.269531 C 254.433594 310.878906 250.328125 317.1875 238.773438 323.082031 C 225.304688 329.957031 206.988281 333.738281 187.203125 333.738281 C 167.417969 333.738281 149.101562 329.957031 135.628906 323.082031 C 124.066406 317.191406 119.972656 310.882812 119.972656 307.269531 C 119.96875 303.699219 124.070312 297.421875 135.617188 291.503906 Z M 135.617188 291.503906 " fill-opacity="1" fill-rule="nonzero"/></g><g clip-path="url(#5b7b0be663)"><path fill="#000000" d="M 188.339844 23.976562 C 188.105469 23.957031 187.875 23.949219 187.636719 23.949219 L 186.769531 23.949219 C 186.535156 23.949219 186.300781 23.957031 186.078125 23.976562 C 129.417969 24.8125 83.4375 71.457031 83.4375 128.09375 C 82.542969 184.441406 125.628906 236.011719 157.085938 273.660156 C 166.3125 284.699219 174.28125 294.242188 179.671875 302.140625 C 181.269531 304.488281 183.929688 305.894531 186.773438 305.894531 L 187.640625 305.894531 C 190.484375 305.894531 193.144531 304.488281 194.746094 302.140625 C 200.128906 294.238281 208.101562 284.699219 217.328125 273.65625 C 248.785156 236.007812 291.863281 184.433594 290.972656 128.230469 C 290.96875 71.460938 244.984375 24.820312 188.339844 23.976562 Z M 204.132812 262.617188 C 197.8125 270.183594 192.066406 277.058594 187.203125 283.34375 C 182.335938 277.058594 176.59375 270.183594 170.277344 262.621094 C 140.550781 227.039062 99.839844 178.308594 100.632812 128.230469 C 100.632812 80.65625 139.304688 41.605469 186.847656 41.175781 C 186.964844 41.175781 187.082031 41.171875 187.203125 41.164062 C 187.320312 41.171875 187.4375 41.175781 187.5625 41.175781 C 235.097656 41.605469 273.773438 80.65625 273.773438 128.367188 C 274.5625 178.308594 233.859375 227.035156 204.132812 262.617188 Z M 204.132812 262.617188 " fill-opacity="1" fill-rule="nonzero"/></g><path fill="#000000" d="M 187.203125 90.210938 C 166.1875 90.441406 149.203125 107.371094 149.203125 128.246094 C 149.203125 149.121094 166.171875 166.046875 187.203125 166.277344 C 208.238281 166.046875 225.203125 149.121094 225.203125 128.246094 C 225.203125 107.371094 208.214844 90.441406 187.203125 90.210938 Z M 187.203125 90.210938 " fill-opacity="1" fill-rule="nonzero"/></svg>