<svg xmlns="http://www.w3.org/2000/svg" xmlns:xlink="http://www.w3.org/1999/xlink" width="500" zoomAndPan="magnify" viewBox="0 0 375 374.999991" height="500" preserveAspectRatio="xMidYMid meet" version="1.0"><defs><clipPath id="9549483d72"><path d="M 25.675781 82.058594 L 349.675781 82.058594 L 349.675781 292.808594 L 25.675781 292.808594 Z M 25.675781 82.058594 " clip-rule="nonzero"/></clipPath></defs><g clip-path="url(#9549483d72)"><path fill="#000000" d="M 346.941406 82.101562 L 28.410156 82.101562 C 26.902344 82.101562 25.675781 83.324219 25.675781 84.832031 L 25.675781 140.433594 C 25.675781 141.941406 26.902344 143.164062 28.410156 143.164062 L 46.242188 143.164062 L 46.242188 290.035156 C 46.242188 291.539062 47.464844 292.761719 48.976562 292.761719 L 326.378906 292.761719 C 327.886719 292.761719 329.113281 291.539062 329.113281 290.035156 L 329.113281 143.164062 L 346.941406 143.164062 C 348.453125 143.164062 349.675781 141.941406 349.675781 140.433594 L 349.675781 84.832031 C 349.675781 83.324219 348.453125 82.101562 346.941406 82.101562 Z M 219.070312 286.996094 L 190.410156 286.996094 L 190.410156 226.699219 C 190.410156 226.414062 190.367188 226.152344 190.28125 225.890625 L 219.070312 225.890625 Z M 184.941406 226.699219 L 184.941406 286.996094 L 156.28125 286.996094 L 156.28125 225.890625 L 185.074219 225.890625 C 184.984375 226.152344 184.941406 226.414062 184.941406 226.699219 Z M 323.644531 287.304688 L 224.539062 287.304688 L 224.539062 223.160156 C 224.539062 221.65625 223.3125 220.433594 221.804688 220.433594 L 153.546875 220.433594 C 152.039062 220.433594 150.8125 221.65625 150.8125 223.160156 L 150.8125 287.304688 L 51.710938 287.304688 L 51.710938 143.382812 L 323.644531 143.382812 Z M 344.207031 137.703125 L 31.144531 137.703125 L 31.144531 87.5625 L 344.207031 87.5625 Z M 344.207031 137.703125 " fill-opacity="1" fill-rule="nonzero"/></g><path fill="#000000" d="M 69.976562 196.300781 L 305.375 196.300781 C 306.886719 196.300781 308.109375 195.078125 308.109375 193.570312 L 308.109375 168.105469 C 308.109375 166.597656 306.886719 165.375 305.375 165.375 L 69.976562 165.375 C 68.46875 165.375 67.242188 166.597656 67.242188 168.105469 L 67.242188 193.546875 C 67.242188 195.078125 68.46875 196.300781 69.976562 196.300781 Z M 184.941406 190.839844 L 130.359375 190.839844 L 130.359375 170.835938 L 184.941406 170.835938 Z M 190.410156 170.835938 L 249.152344 170.835938 L 249.152344 190.816406 L 190.410156 190.816406 Z M 302.640625 190.839844 L 254.621094 190.839844 L 254.621094 170.835938 L 302.640625 170.835938 Z M 72.710938 170.835938 L 124.890625 170.835938 L 124.890625 190.816406 L 72.710938 190.816406 Z M 72.710938 170.835938 " fill-opacity="1" fill-rule="nonzero"/><path fill="#000000" d="M 69.867188 260.441406 L 138.125 260.441406 C 139.632812 260.441406 140.859375 259.21875 140.859375 257.710938 L 140.859375 221.023438 C 140.859375 219.515625 139.632812 218.292969 138.125 218.292969 L 69.867188 218.292969 C 68.359375 218.292969 67.132812 219.515625 67.132812 221.023438 L 67.132812 257.710938 C 67.132812 259.21875 68.359375 260.441406 69.867188 260.441406 Z M 72.601562 223.75 L 135.390625 223.75 L 135.390625 254.980469 L 72.601562 254.980469 Z M 72.601562 223.75 " fill-opacity="1" fill-rule="nonzero"/><path fill="#000000" d="M 304.828125 219.601562 L 236.570312 219.601562 C 235.0625 219.601562 233.835938 220.824219 233.835938 222.332031 L 233.835938 259.023438 C 233.835938 260.527344 235.0625 261.75 236.570312 261.75 L 304.828125 261.75 C 306.339844 261.75 307.5625 260.527344 307.5625 259.023438 L 307.5625 222.332031 C 307.5625 220.824219 306.335938 219.601562 304.828125 219.601562 Z M 302.09375 256.292969 L 239.304688 256.292969 L 239.304688 225.0625 L 302.09375 225.0625 Z M 302.09375 256.292969 " fill-opacity="1" fill-rule="nonzero"/><path fill="#000000" d="M 61.96875 119.90625 C 60.59375 119.90625 59.039062 119.359375 57.660156 118.464844 C 56.828125 117.941406 56.128906 117.984375 55.515625 118.703125 L 54.3125 120.144531 C 53.679688 120.910156 53.699219 121.695312 54.53125 122.308594 C 56.699219 123.835938 59.367188 124.601562 61.859375 124.601562 C 67.375 124.601562 70.566406 121.261719 70.566406 117.480469 C 70.566406 114.269531 68.882812 112.371094 66.0625 111.234375 L 63.21875 110.101562 C 61.203125 109.3125 59.78125 108.8125 59.78125 107.523438 C 59.78125 106.320312 60.789062 105.667969 62.472656 105.667969 C 63.765625 105.667969 64.859375 105.996094 65.929688 106.585938 C 66.785156 107.066406 67.484375 107.019531 68.074219 106.277344 L 68.972656 105.144531 C 69.582031 104.378906 69.5625 103.59375 68.753906 103.003906 C 66.914062 101.648438 64.640625 100.992188 62.472656 100.992188 C 57.640625 100.992188 54.203125 104.050781 54.203125 107.871094 C 54.203125 111.171875 56.4375 113.15625 58.820312 114.117188 L 61.730469 115.339844 C 63.699219 116.171875 64.945312 116.585938 64.945312 117.917969 C 64.945312 119.140625 63.984375 119.90625 61.96875 119.90625 Z M 61.96875 119.90625 " fill-opacity="1" fill-rule="nonzero"/><path fill="#000000" d="M 87.152344 124.625 C 93.210938 124.625 96.273438 121.171875 96.273438 113.484375 L 96.273438 102.9375 C 96.273438 101.953125 95.726562 101.40625 94.742188 101.40625 L 92.53125 101.40625 C 91.546875 101.40625 91 101.953125 91 102.9375 L 91 114.074219 C 91 118.378906 89.625 119.90625 87.152344 119.90625 C 84.636719 119.90625 83.34375 118.378906 83.34375 114.074219 L 83.34375 102.9375 C 83.34375 101.953125 82.796875 101.40625 81.8125 101.40625 L 79.429688 101.40625 C 78.445312 101.40625 77.898438 101.953125 77.898438 102.9375 L 77.898438 113.484375 C 77.898438 121.152344 81.046875 124.625 87.152344 124.625 Z M 87.152344 124.625 " fill-opacity="1" fill-rule="nonzero"/><path fill="#000000" d="M 106.601562 124.1875 L 109.027344 124.1875 C 110.011719 124.1875 110.558594 123.640625 110.558594 122.65625 L 110.558594 116.628906 L 113.230469 116.628906 C 118.0625 116.628906 122.242188 114.25 122.242188 108.832031 C 122.242188 103.199219 118.105469 101.40625 113.121094 101.40625 L 106.621094 101.40625 C 105.636719 101.40625 105.089844 101.953125 105.089844 102.9375 L 105.089844 122.65625 C 105.070312 123.640625 105.617188 124.1875 106.601562 124.1875 Z M 110.539062 105.753906 L 112.769531 105.753906 C 115.394531 105.753906 116.882812 106.539062 116.882812 108.832031 C 116.882812 111.0625 115.589844 112.328125 112.921875 112.328125 L 110.539062 112.328125 Z M 110.539062 105.753906 " fill-opacity="1" fill-rule="nonzero"/><path fill="#000000" d="M 131.320312 124.1875 L 143.046875 124.1875 C 144.03125 124.1875 144.578125 123.640625 144.578125 122.65625 L 144.578125 121.128906 C 144.578125 120.144531 144.03125 119.601562 143.046875 119.601562 L 135.257812 119.601562 L 135.257812 114.773438 L 141.363281 114.773438 C 142.347656 114.773438 142.894531 114.226562 142.894531 113.246094 L 142.894531 111.714844 C 142.894531 110.734375 142.347656 110.1875 141.363281 110.1875 L 135.257812 110.1875 L 135.257812 105.972656 L 142.695312 105.972656 C 143.679688 105.972656 144.230469 105.425781 144.230469 104.445312 L 144.230469 102.9375 C 144.230469 101.953125 143.679688 101.40625 142.695312 101.40625 L 131.300781 101.40625 C 130.316406 101.40625 129.769531 101.953125 129.769531 102.9375 L 129.769531 122.65625 C 129.789062 123.640625 130.335938 124.1875 131.320312 124.1875 Z M 131.320312 124.1875 " fill-opacity="1" fill-rule="nonzero"/><path fill="#000000" d="M 154.292969 124.1875 L 156.71875 124.1875 C 157.703125 124.1875 158.25 123.640625 158.25 122.65625 L 158.25 116.171875 L 160.878906 116.171875 L 164.488281 123.074219 C 164.878906 123.816406 165.425781 124.164062 166.300781 124.164062 L 169.082031 124.164062 C 170.285156 124.164062 170.742188 123.398438 170.152344 122.332031 L 166.105469 115.144531 C 168.46875 114.054688 170.023438 111.914062 170.023438 108.570312 C 170.023438 103.066406 165.972656 101.386719 161.117188 101.386719 L 154.292969 101.386719 C 153.308594 101.386719 152.761719 101.933594 152.761719 102.914062 L 152.761719 122.636719 C 152.761719 123.640625 153.308594 124.1875 154.292969 124.1875 Z M 158.230469 105.753906 L 160.679688 105.753906 C 163.285156 105.753906 164.683594 106.453125 164.683594 108.59375 C 164.683594 110.734375 163.285156 111.867188 160.679688 111.867188 L 158.230469 111.867188 Z M 158.230469 105.753906 " fill-opacity="1" fill-rule="nonzero"/><path fill="#000000" d="M 179.648438 124.1875 L 181.484375 124.1875 C 182.46875 124.1875 183.015625 123.640625 183.015625 122.65625 L 183.015625 116.390625 C 183.015625 114.117188 182.578125 110.734375 182.316406 108.507812 L 182.449219 108.507812 L 184.285156 113.945312 L 186.910156 121.042969 C 187.21875 121.894531 187.765625 122.265625 188.660156 122.265625 L 189.054688 122.265625 C 189.953125 122.265625 190.519531 121.894531 190.828125 121.042969 L 193.429688 113.945312 L 195.332031 108.507812 L 195.488281 108.507812 C 195.179688 110.734375 194.742188 114.140625 194.742188 116.390625 L 194.742188 122.65625 C 194.742188 123.640625 195.289062 124.1875 196.273438 124.1875 L 198.199219 124.1875 C 199.183594 124.1875 199.730469 123.640625 199.730469 122.65625 L 199.730469 102.9375 C 199.730469 101.953125 199.183594 101.40625 198.199219 101.40625 L 195.113281 101.40625 C 194.21875 101.40625 193.671875 101.78125 193.363281 102.632812 L 190.300781 111.257812 C 189.863281 112.566406 189.515625 114.007812 189.054688 115.386719 L 188.902344 115.386719 C 188.464844 114.007812 188.113281 112.566406 187.65625 111.257812 L 184.503906 102.632812 C 184.199219 101.78125 183.605469 101.40625 182.730469 101.40625 L 179.667969 101.40625 C 178.683594 101.40625 178.136719 101.953125 178.136719 102.9375 L 178.136719 122.65625 C 178.117188 123.640625 178.664062 124.1875 179.648438 124.1875 Z M 179.648438 124.1875 " fill-opacity="1" fill-rule="nonzero"/><path fill="#000000" d="M 207.585938 124.1875 L 210.011719 124.1875 C 210.933594 124.1875 211.480469 123.75 211.699219 122.875 L 212.683594 118.96875 L 219.421875 118.96875 L 220.40625 122.875 C 220.625 123.773438 221.171875 124.1875 222.089844 124.1875 L 224.691406 124.1875 C 225.785156 124.1875 226.289062 123.488281 225.941406 122.4375 L 219.8125 102.695312 C 219.53125 101.800781 218.984375 101.40625 218.109375 101.40625 L 214.191406 101.40625 C 213.292969 101.40625 212.746094 101.800781 212.484375 102.695312 L 206.359375 122.4375 C 205.988281 123.488281 206.46875 124.1875 207.585938 124.1875 Z M 214.191406 112.808594 C 214.78125 110.535156 215.394531 107.894531 215.941406 105.492188 L 216.074219 105.492188 C 216.683594 107.808594 217.277344 110.535156 217.890625 112.808594 L 218.371094 114.730469 L 213.710938 114.730469 Z M 214.191406 112.808594 " fill-opacity="1" fill-rule="nonzero"/><path fill="#000000" d="M 234.078125 124.1875 L 236.507812 124.1875 C 237.492188 124.1875 238.039062 123.640625 238.039062 122.65625 L 238.039062 116.171875 L 240.664062 116.171875 L 244.273438 123.074219 C 244.667969 123.816406 245.214844 124.164062 246.089844 124.164062 L 248.867188 124.164062 C 250.070312 124.164062 250.53125 123.398438 249.9375 122.332031 L 245.890625 115.144531 C 248.253906 114.054688 249.808594 111.914062 249.808594 108.570312 C 249.808594 103.066406 245.761719 101.386719 240.902344 101.386719 L 234.078125 101.386719 C 233.09375 101.386719 232.546875 101.933594 232.546875 102.914062 L 232.546875 122.636719 C 232.546875 123.640625 233.09375 124.1875 234.078125 124.1875 Z M 238.015625 105.753906 L 240.464844 105.753906 C 243.070312 105.753906 244.46875 106.453125 244.46875 108.59375 C 244.46875 110.734375 243.070312 111.867188 240.464844 111.867188 L 238.015625 111.867188 Z M 238.015625 105.753906 " fill-opacity="1" fill-rule="nonzero"/><path fill="#000000" d="M 259.433594 124.1875 L 261.863281 124.1875 C 262.847656 124.1875 263.394531 123.640625 263.394531 122.65625 L 263.394531 118.222656 L 265.867188 114.859375 L 270.632812 123.136719 C 271.070312 123.878906 271.640625 124.1875 272.472656 124.1875 L 275.074219 124.1875 C 276.300781 124.1875 276.738281 123.398438 276.125 122.351562 L 269.058594 110.558594 L 274.550781 103.285156 C 275.316406 102.238281 274.921875 101.429688 273.632812 101.429688 L 271.117188 101.429688 C 270.328125 101.429688 269.738281 101.714844 269.277344 102.367188 L 263.480469 110.449219 L 263.394531 110.449219 L 263.394531 102.957031 C 263.394531 101.976562 262.847656 101.429688 261.863281 101.429688 L 259.433594 101.429688 C 258.449219 101.429688 257.902344 101.976562 257.902344 102.957031 L 257.902344 122.679688 C 257.902344 123.640625 258.449219 124.1875 259.433594 124.1875 Z M 259.433594 124.1875 " fill-opacity="1" fill-rule="nonzero"/><path fill="#000000" d="M 284.789062 124.1875 L 296.515625 124.1875 C 297.5 124.1875 298.046875 123.640625 298.046875 122.65625 L 298.046875 121.128906 C 298.046875 120.144531 297.5 119.601562 296.515625 119.601562 L 288.726562 119.601562 L 288.726562 114.773438 L 294.832031 114.773438 C 295.816406 114.773438 296.363281 114.226562 296.363281 113.246094 L 296.363281 111.714844 C 296.363281 110.734375 295.816406 110.1875 294.832031 110.1875 L 288.726562 110.1875 L 288.726562 105.972656 L 296.164062 105.972656 C 297.148438 105.972656 297.695312 105.425781 297.695312 104.445312 L 297.695312 102.9375 C 297.695312 101.953125 297.148438 101.40625 296.164062 101.40625 L 284.765625 101.40625 C 283.78125 101.40625 283.234375 101.953125 283.234375 102.9375 L 283.234375 122.65625 C 283.257812 123.640625 283.804688 124.1875 284.789062 124.1875 Z M 284.789062 124.1875 " fill-opacity="1" fill-rule="nonzero"/><path fill="#000000" d="M 306.007812 105.972656 L 310.625 105.972656 L 310.625 122.65625 C 310.625 123.640625 311.171875 124.1875 312.15625 124.1875 L 314.585938 124.1875 C 315.570312 124.1875 316.117188 123.640625 316.117188 122.65625 L 316.117188 105.972656 L 320.777344 105.972656 C 321.761719 105.972656 322.308594 105.425781 322.308594 104.445312 L 322.308594 102.9375 C 322.308594 101.953125 321.761719 101.40625 320.777344 101.40625 L 306.007812 101.40625 C 305.023438 101.40625 304.476562 101.953125 304.476562 102.9375 L 304.476562 104.445312 C 304.476562 105.40625 305.023438 105.972656 306.007812 105.972656 Z M 306.007812 105.972656 " fill-opacity="1" fill-rule="nonzero"/></svg>