<svg xmlns="http://www.w3.org/2000/svg" xmlns:xlink="http://www.w3.org/1999/xlink" width="500" zoomAndPan="magnify" viewBox="0 0 375 374.999991" height="500" preserveAspectRatio="xMidYMid meet" version="1.0"><defs><clipPath id="e5d149bf3e"><path d="M 50.664062 55.640625 L 324.414062 55.640625 L 324.414062 319.636719 L 50.664062 319.636719 Z M 50.664062 55.640625 " clip-rule="nonzero"/></clipPath></defs><path fill="#fad5a1" d="M 102.753906 181.632812 L 101.476562 174.917969 L 106.699219 174.234375 L 107.675781 180.917969 L 102.746094 181.632812 Z M 323.964844 167.671875 L 238.667969 167.671875 L 238.667969 172.953125 L 323.964844 172.953125 Z M 187.046875 292.691406 C 187.046875 297.082031 183.476562 300.660156 179.085938 300.660156 C 174.691406 300.660156 171.121094 297.085938 171.121094 292.691406 C 171.121094 288.292969 174.691406 284.722656 179.085938 284.722656 C 183.476562 284.722656 187.046875 288.292969 187.046875 292.691406 Z M 183.386719 292.691406 C 183.386719 290.316406 181.457031 288.382812 179.085938 288.382812 C 176.714844 288.382812 174.78125 290.316406 174.78125 292.691406 C 174.78125 295.0625 176.714844 296.996094 179.085938 296.996094 C 181.457031 296.996094 183.386719 295.0625 183.386719 292.691406 Z M 84.644531 292.691406 C 84.644531 297.082031 81.074219 300.660156 76.683594 300.660156 C 72.289062 300.660156 68.722656 297.085938 68.722656 292.691406 C 68.722656 288.292969 72.289062 284.722656 76.683594 284.722656 C 81.074219 284.722656 84.644531 288.292969 84.644531 292.691406 Z M 80.992188 292.691406 C 80.992188 290.316406 79.058594 288.382812 76.6875 288.382812 C 74.316406 288.382812 72.386719 290.316406 72.386719 292.691406 C 72.386719 295.0625 74.316406 296.996094 76.6875 296.996094 C 79.058594 296.996094 80.992188 295.0625 80.992188 292.691406 Z M 161.445312 292.691406 C 161.445312 297.082031 157.875 300.660156 153.484375 300.660156 C 149.089844 300.660156 145.519531 297.085938 145.519531 292.691406 C 145.519531 288.292969 149.089844 284.722656 153.484375 284.722656 C 157.875 284.722656 161.445312 288.292969 161.445312 292.691406 Z M 157.792969 292.691406 C 157.792969 290.316406 155.859375 288.382812 153.488281 288.382812 C 151.117188 288.382812 149.1875 290.316406 149.1875 292.691406 C 149.1875 295.0625 151.117188 296.996094 153.488281 296.996094 C 155.859375 296.996094 157.792969 295.0625 157.792969 292.691406 Z M 135.847656 292.691406 C 135.847656 297.082031 132.28125 300.660156 127.886719 300.660156 C 123.492188 300.660156 119.925781 297.085938 119.925781 292.691406 C 119.925781 288.292969 123.492188 284.722656 127.886719 284.722656 C 132.28125 284.722656 135.847656 288.292969 135.847656 292.691406 Z M 132.1875 292.691406 C 132.1875 290.316406 130.257812 288.382812 127.886719 288.382812 C 125.515625 288.382812 123.582031 290.316406 123.582031 292.691406 C 123.582031 295.0625 125.515625 296.996094 127.886719 296.996094 C 130.257812 296.996094 132.1875 295.0625 132.1875 292.691406 Z M 289.441406 292.691406 C 289.441406 297.082031 285.875 300.660156 281.480469 300.660156 C 277.089844 300.660156 273.519531 297.085938 273.519531 292.691406 C 273.519531 288.292969 277.089844 284.722656 281.480469 284.722656 C 285.875 284.722656 289.441406 288.292969 289.441406 292.691406 Z M 285.789062 292.691406 C 285.789062 290.316406 283.859375 288.382812 281.488281 288.382812 C 279.117188 288.382812 277.183594 290.316406 277.183594 292.691406 C 277.183594 295.0625 279.117188 296.996094 281.488281 296.996094 C 283.859375 296.996094 285.789062 295.0625 285.789062 292.691406 Z M 238.246094 292.691406 C 238.246094 297.082031 234.675781 300.660156 230.28125 300.660156 C 225.890625 300.660156 222.320312 297.085938 222.320312 292.691406 C 222.320312 288.292969 225.890625 284.722656 230.28125 284.722656 C 234.675781 284.722656 238.246094 288.292969 238.246094 292.691406 Z M 234.589844 292.691406 C 234.589844 290.316406 232.660156 288.382812 230.289062 288.382812 C 227.917969 288.382812 225.984375 290.316406 225.984375 292.691406 C 225.984375 295.0625 227.917969 296.996094 230.289062 296.996094 C 232.660156 296.996094 234.589844 295.0625 234.589844 292.691406 Z M 263.847656 292.691406 C 263.847656 297.082031 260.277344 300.660156 255.886719 300.660156 C 251.492188 300.660156 247.921875 297.085938 247.921875 292.691406 C 247.921875 288.292969 251.492188 284.722656 255.886719 284.722656 C 260.277344 284.722656 263.847656 288.292969 263.847656 292.691406 Z M 260.1875 292.691406 C 260.1875 290.316406 258.257812 288.382812 255.886719 288.382812 C 253.511719 288.382812 251.582031 290.316406 251.582031 292.691406 C 251.582031 295.0625 253.511719 296.996094 255.886719 296.996094 C 258.257812 296.996094 260.1875 295.0625 260.1875 292.691406 Z M 59.046875 292.691406 C 59.046875 288.300781 55.480469 284.722656 51.085938 284.722656 L 51.085938 288.378906 C 53.457031 288.378906 55.390625 290.3125 55.390625 292.683594 C 55.390625 295.058594 53.457031 296.992188 51.085938 296.992188 L 51.085938 300.648438 C 55.472656 300.648438 59.046875 297.074219 59.046875 292.679688 Z M 212.644531 292.691406 C 212.644531 297.082031 209.074219 300.660156 204.679688 300.660156 C 200.289062 300.660156 196.71875 297.085938 196.71875 292.691406 C 196.71875 288.292969 200.289062 284.722656 204.679688 284.722656 C 209.074219 284.722656 212.644531 288.292969 212.644531 292.691406 Z M 208.988281 292.691406 C 208.988281 290.316406 207.058594 288.382812 204.6875 288.382812 C 202.316406 288.382812 200.382812 290.316406 200.382812 292.691406 C 200.382812 295.0625 202.316406 296.996094 204.6875 296.996094 C 207.058594 296.996094 208.988281 295.0625 208.988281 292.691406 Z M 110.246094 292.691406 C 110.246094 297.082031 106.675781 300.660156 102.285156 300.660156 C 97.890625 300.660156 94.324219 297.085938 94.324219 292.691406 C 94.324219 288.292969 97.890625 284.722656 102.285156 284.722656 C 106.675781 284.722656 110.246094 288.292969 110.246094 292.691406 Z M 106.59375 292.691406 C 106.59375 290.316406 104.660156 288.382812 102.289062 288.382812 C 99.917969 288.382812 97.988281 290.316406 97.988281 292.691406 C 97.988281 295.0625 99.917969 296.996094 102.289062 296.996094 C 104.660156 296.996094 106.59375 295.0625 106.59375 292.691406 Z M 315.046875 292.691406 C 315.046875 297.082031 311.476562 300.660156 307.082031 300.660156 C 302.691406 300.660156 299.121094 297.085938 299.121094 292.691406 C 299.121094 288.292969 302.691406 284.722656 307.082031 284.722656 C 311.476562 284.722656 315.046875 288.292969 315.046875 292.691406 Z M 311.386719 292.691406 C 311.386719 290.316406 309.453125 288.382812 307.082031 288.382812 C 304.710938 288.382812 302.78125 290.316406 302.78125 292.691406 C 302.78125 295.0625 304.710938 296.996094 307.082031 296.996094 C 309.453125 296.996094 311.386719 295.0625 311.386719 292.691406 Z M 318.269531 292.691406 C 318.269531 298.535156 313.539062 303.269531 307.699219 303.269531 L 51.210938 303.269531 C 51.144531 303.269531 51.085938 303.210938 51.085938 303.144531 L 51.085938 301.507812 C 55.941406 301.507812 59.894531 297.550781 59.894531 292.691406 C 59.894531 287.832031 55.941406 283.875 51.085938 283.875 L 51.085938 282.234375 C 51.085938 282.167969 51.144531 282.113281 51.210938 282.113281 L 307.703125 282.113281 C 313.542969 282.113281 318.273438 286.847656 318.273438 292.691406 Z M 85.492188 292.691406 C 85.492188 287.832031 81.539062 283.875 76.683594 283.875 C 71.828125 283.875 67.875 287.832031 67.875 292.691406 C 67.875 297.550781 71.828125 301.507812 76.683594 301.507812 C 81.539062 301.507812 85.492188 297.550781 85.492188 292.691406 Z M 111.09375 292.691406 C 111.09375 287.832031 107.140625 283.875 102.285156 283.875 C 97.429688 283.875 93.476562 287.832031 93.476562 292.691406 C 93.476562 297.550781 97.429688 301.507812 102.285156 301.507812 C 107.140625 301.507812 111.09375 297.550781 111.09375 292.691406 Z M 136.695312 292.691406 C 136.695312 287.832031 132.742188 283.875 127.886719 283.875 C 123.03125 283.875 119.078125 287.832031 119.078125 292.691406 C 119.078125 297.550781 123.03125 301.507812 127.886719 301.507812 C 132.742188 301.507812 136.695312 297.550781 136.695312 292.691406 Z M 162.292969 292.691406 C 162.292969 287.832031 158.339844 283.875 153.484375 283.875 C 148.625 283.875 144.675781 287.832031 144.675781 292.691406 C 144.675781 297.550781 148.625 301.507812 153.484375 301.507812 C 158.339844 301.507812 162.292969 297.550781 162.292969 292.691406 Z M 187.894531 292.691406 C 187.894531 287.832031 183.941406 283.875 179.085938 283.875 C 174.230469 283.875 170.277344 287.832031 170.277344 292.691406 C 170.277344 297.550781 174.230469 301.507812 179.085938 301.507812 C 183.941406 301.507812 187.894531 297.550781 187.894531 292.691406 Z M 213.488281 292.691406 C 213.488281 287.832031 209.539062 283.875 204.679688 283.875 C 199.824219 283.875 195.871094 287.832031 195.871094 292.691406 C 195.871094 297.550781 199.824219 301.507812 204.679688 301.507812 C 209.539062 301.507812 213.488281 297.550781 213.488281 292.691406 Z M 239.089844 292.691406 C 239.089844 287.832031 235.140625 283.875 230.28125 283.875 C 225.425781 283.875 221.472656 287.832031 221.472656 292.691406 C 221.472656 297.550781 225.425781 301.507812 230.28125 301.507812 C 235.140625 301.507812 239.089844 297.550781 239.089844 292.691406 Z M 264.695312 292.691406 C 264.695312 287.832031 260.742188 283.875 255.886719 283.875 C 251.027344 283.875 247.074219 287.832031 247.074219 292.691406 C 247.074219 297.550781 251.027344 301.507812 255.886719 301.507812 C 260.742188 301.507812 264.695312 297.550781 264.695312 292.691406 Z M 290.289062 292.691406 C 290.289062 287.832031 286.335938 283.875 281.480469 283.875 C 276.625 283.875 272.671875 287.832031 272.671875 292.691406 C 272.671875 297.550781 276.625 301.507812 281.480469 301.507812 C 286.335938 301.507812 290.289062 297.550781 290.289062 292.691406 Z M 315.890625 292.691406 C 315.890625 287.832031 311.9375 283.875 307.082031 283.875 C 302.226562 283.875 298.273438 287.832031 298.273438 292.691406 C 298.273438 297.550781 302.226562 301.507812 307.082031 301.507812 C 311.9375 301.507812 315.890625 297.550781 315.890625 292.691406 Z M 315.890625 292.691406 " fill-opacity="1" fill-rule="nonzero"/><path fill="#ee8222" d="M 136.851562 185.066406 L 136.519531 185.519531 C 135.40625 181.003906 134.273438 176.679688 133.117188 172.5625 L 152.019531 166 C 152.21875 166.746094 152.363281 167.3125 152.460938 167.664062 C 152.4375 167.667969 152.421875 167.679688 152.414062 167.679688 C 152.195312 167.765625 152.089844 168.007812 152.171875 168.226562 C 152.179688 168.25 152.195312 168.261719 152.207031 168.277344 C 150.75 169.285156 148.625 172.703125 147.964844 173.8125 C 147.78125 173.703125 147.542969 173.742188 147.414062 173.917969 C 147.414062 173.917969 147.40625 173.929688 147.402344 173.933594 C 147.015625 173.703125 146.316406 173.347656 145.238281 173.035156 C 143.277344 172.566406 142.855469 173.882812 143.035156 175.558594 C 143.167969 176.777344 144.308594 177.976562 144.910156 178.527344 C 144.886719 178.625 144.871094 178.722656 144.859375 178.804688 C 144.835938 179.039062 145 179.246094 145.234375 179.273438 C 145.25 179.273438 145.265625 179.273438 145.277344 179.273438 C 145.316406 179.273438 145.355469 179.265625 145.398438 179.253906 C 145.398438 179.265625 145.40625 179.269531 145.414062 179.28125 C 145.386719 179.304688 145.355469 179.324219 145.339844 179.359375 C 145.226562 179.535156 145.265625 179.75 145.40625 179.890625 L 143.246094 182.144531 L 142.535156 182.144531 C 140.285156 182.179688 138.1875 183.257812 136.851562 185.074219 Z M 140.945312 137.769531 C 139.296875 136.394531 136.730469 135.390625 134.03125 134.65625 C 135.023438 135.535156 136.058594 136.542969 136.265625 136.910156 C 136.644531 137.578125 146.175781 158.777344 146.175781 158.777344 L 149.765625 158.066406 C 147.390625 150.21875 143.902344 140.226562 140.953125 137.769531 Z M 122.578125 133.164062 C 122.578125 133.164062 122.566406 133.164062 122.5625 133.164062 C 124.570312 137.148438 125.976562 141.9375 127.230469 146.945312 L 124.539062 144.296875 L 123.859375 145.160156 C 124.042969 145.300781 124.082031 145.554688 123.945312 145.742188 L 123.804688 145.933594 C 126.023438 150.792969 128.140625 156.433594 130.167969 162.734375 L 139.132812 160.40625 C 139.132812 160.40625 129.335938 138.171875 127.734375 135.453125 C 127.128906 134.429688 126.394531 133.660156 125.710938 133.09375 C 124.363281 132.9375 123.328125 132.847656 122.789062 132.808594 C 122.777344 132.949219 122.707031 133.078125 122.578125 133.152344 Z M 69.75 216.804688 L 78.988281 216.804688 C 75.636719 208.582031 70.171875 199.289062 68.359375 193.46875 C 64.796875 182.003906 62.644531 156.972656 65.226562 151.089844 C 67.804688 145.207031 77.179688 145.742188 79.914062 147.703125 C 82.113281 149.285156 84.984375 155.128906 89.464844 165.417969 L 94.300781 165.035156 C 94.300781 165.035156 82.308594 141.980469 80.882812 140.703125 C 79.914062 139.824219 76.8125 138.996094 74.953125 138.558594 C 70.746094 142.285156 63.707031 146.347656 62.140625 150.628906 C 58.195312 160.683594 63.0625 190.898438 63.0625 190.898438 Z M 88.953125 133.769531 C 92.132812 137.152344 107.039062 163.875 107.039062 163.875 L 120.347656 163.152344 C 116.9375 158.757812 113.277344 154.46875 109.421875 150.261719 C 109.296875 150.375 109.117188 150.410156 108.953125 150.332031 C 108.953125 150.332031 108.949219 150.324219 108.941406 150.320312 L 107.828125 152.445312 C 98.28125 144.527344 91.625 136.632812 89.082031 128.773438 C 89.046875 128.785156 89.015625 128.800781 88.980469 128.800781 C 88.96875 128.800781 88.957031 128.800781 88.953125 128.800781 C 88.800781 128.800781 88.671875 128.714844 88.589844 128.589844 C 87.964844 128.96875 86.5625 129.828125 84.742188 131.0625 C 86.460938 131.859375 88.015625 132.769531 88.945312 133.761719 Z M 128.308594 174.382812 C 128.203125 174.273438 128.105469 174.128906 128.035156 173.945312 C 127.921875 173.777344 127.820312 173.601562 127.707031 173.433594 L 119.96875 174.109375 L 121.6875 182.726562 C 121.710938 182.839844 121.6875 182.960938 121.617188 183.054688 C 121.550781 183.152344 121.449219 183.214844 121.332031 183.230469 L 101.335938 185.9375 C 101.335938 185.9375 101.296875 185.9375 101.28125 185.9375 C 101.082031 185.9375 100.90625 185.800781 100.867188 185.605469 L 98.828125 175.957031 L 94.140625 176.363281 C 99.449219 189.683594 102.640625 204.109375 103.195312 206.722656 C 103.214844 206.722656 103.246094 206.714844 103.265625 206.714844 C 103.464844 206.710938 103.632812 206.839844 103.683594 207.027344 C 103.703125 207.078125 103.703125 207.132812 103.695312 207.183594 L 120.121094 208.777344 L 135.5 186.914062 C 133.359375 182.625 130.9375 178.460938 128.304688 174.386719 Z M 157.566406 255.890625 L 156.847656 248.398438 C 155.234375 248.703125 152.8125 249.148438 150.027344 249.660156 L 150.027344 255.890625 Z M 96.65625 253.601562 L 96.65625 255.890625 L 117.851562 255.890625 L 117.851562 253.636719 C 111.800781 253.6875 104.007812 253.652344 96.65625 253.601562 Z M 145.363281 239.855469 C 150.539062 238.742188 154.644531 237.691406 155.792969 237.390625 L 154.742188 226.40625 C 154.742188 226.40625 154.714844 226.410156 154.703125 226.410156 C 154.574219 226.410156 154.449219 226.355469 154.363281 226.242188 C 154.359375 226.230469 154.351562 226.21875 154.347656 226.199219 C 151.042969 228.257812 147.757812 230.019531 144.515625 231.519531 C 144.53125 231.558594 144.550781 231.601562 144.554688 231.652344 L 145.363281 239.847656 Z M 80.984375 242.515625 C 91.960938 242.859375 110.4375 243.339844 121.605469 243.070312 L 121.605469 240.632812 L 134.359375 240.632812 L 134.359375 241.933594 C 137.832031 241.390625 141.355469 240.707031 144.527344 240.035156 L 143.726562 231.875 C 120.828125 242.160156 100.433594 239.242188 91.972656 234.875 C 89.613281 233.65625 87.507812 231.644531 85.605469 229.128906 L 71.503906 229.421875 L 73.0625 240.628906 L 80.992188 240.628906 L 80.992188 242.507812 Z M 296.042969 228.105469 L 277.609375 228.105469 C 277.105469 228.105469 276.691406 228.511719 276.691406 229.019531 C 276.691406 229.53125 277.097656 229.9375 277.609375 229.9375 L 296.042969 229.9375 C 296.546875 229.9375 296.957031 229.53125 296.957031 229.019531 C 296.957031 228.511719 296.550781 228.105469 296.042969 228.105469 Z M 296.042969 215.390625 L 277.609375 215.390625 C 277.105469 215.390625 276.691406 215.796875 276.691406 216.304688 C 276.691406 216.816406 277.097656 217.222656 277.609375 217.222656 L 296.042969 217.222656 C 296.546875 217.222656 296.957031 216.816406 296.957031 216.304688 C 296.957031 215.796875 296.550781 215.390625 296.042969 215.390625 Z M 323.964844 185.945312 L 323.964844 235.039062 L 271.964844 235.039062 L 271.964844 185.945312 Z M 275.847656 209.949219 C 275.847656 210.921875 276.636719 211.710938 277.609375 211.710938 L 296.042969 211.710938 C 297.015625 211.710938 297.804688 210.921875 297.804688 209.949219 C 297.804688 208.976562 297.015625 208.1875 296.042969 208.1875 L 277.609375 208.1875 C 276.636719 208.1875 275.847656 208.976562 275.847656 209.949219 Z M 297.800781 229.015625 C 297.800781 228.042969 297.007812 227.253906 296.039062 227.253906 L 277.601562 227.253906 C 276.628906 227.253906 275.839844 228.042969 275.839844 229.015625 C 275.839844 229.988281 276.628906 230.777344 277.601562 230.777344 L 296.039062 230.777344 C 297.007812 230.777344 297.800781 229.988281 297.800781 229.015625 Z M 297.800781 222.664062 C 297.800781 221.691406 297.007812 220.902344 296.039062 220.902344 L 277.601562 220.902344 C 276.628906 220.902344 275.839844 221.691406 275.839844 222.664062 C 275.839844 223.636719 276.628906 224.425781 277.601562 224.425781 L 296.039062 224.425781 C 297.007812 224.425781 297.800781 223.636719 297.800781 222.664062 Z M 297.800781 216.304688 C 297.800781 215.335938 297.007812 214.542969 296.039062 214.542969 L 277.601562 214.542969 C 276.628906 214.542969 275.839844 215.335938 275.839844 216.304688 C 275.839844 217.277344 276.628906 218.070312 277.601562 218.070312 L 296.039062 218.070312 C 297.007812 218.070312 297.800781 217.277344 297.800781 216.304688 Z M 296.042969 221.746094 L 277.609375 221.746094 C 277.105469 221.746094 276.691406 222.15625 276.691406 222.664062 C 276.691406 223.171875 277.097656 223.578125 277.609375 223.578125 L 296.042969 223.578125 C 296.546875 223.578125 296.957031 223.171875 296.957031 222.664062 C 296.957031 222.15625 296.550781 221.746094 296.042969 221.746094 Z M 277.609375 210.863281 L 296.042969 210.863281 C 296.546875 210.863281 296.957031 210.457031 296.957031 209.949219 C 296.957031 209.441406 296.550781 209.035156 296.042969 209.035156 L 277.609375 209.035156 C 277.105469 209.035156 276.691406 209.441406 276.691406 209.949219 C 276.691406 210.457031 277.097656 210.863281 277.609375 210.863281 Z M 277.609375 210.863281 " fill-opacity="1" fill-rule="nonzero"/><path fill="#ffdf58" d="M 88.054688 88.910156 C 87.96875 88.292969 87.988281 87.640625 88.167969 86.953125 C 88.804688 84.773438 90.160156 83.523438 90.792969 83.035156 C 90.871094 83.152344 91.003906 83.21875 91.136719 83.21875 C 91.21875 83.21875 91.289062 83.195312 91.359375 83.15625 L 91.414062 83.125 C 95.667969 80.535156 104.84375 79.480469 116.59375 80.214844 C 127.292969 80.886719 138.613281 82.964844 146.148438 85.636719 C 146.191406 85.65625 146.242188 85.660156 146.289062 85.660156 C 146.464844 85.660156 146.621094 85.554688 146.683594 85.382812 C 151.128906 86.996094 154.921875 88.910156 154.96875 90.679688 C 154.96875 91.0625 154.65625 91.300781 154.15625 91.449219 C 154.3125 87.964844 141.140625 84.660156 138.457031 84.027344 C 138.230469 83.972656 138 84.113281 137.949219 84.34375 C 128.816406 82.128906 118.824219 80.898438 110.382812 81.179688 C 110.375 80.953125 110.191406 80.773438 109.964844 80.773438 C 96.59375 80.773438 89.234375 83.511719 88.0625 88.914062 Z M 93.816406 89.644531 C 93.816406 89.644531 93.820312 89.644531 93.824219 89.644531 L 94.429688 85.453125 C 93.707031 85.914062 91.792969 87.34375 91.613281 89.550781 C 91.59375 89.769531 91.410156 89.9375 91.1875 89.9375 C 91.175781 89.9375 91.167969 89.9375 91.15625 89.9375 C 90.921875 89.921875 90.75 89.710938 90.765625 89.480469 C 91.023438 86.300781 94.175781 84.609375 94.304688 84.535156 C 94.503906 84.433594 94.746094 84.503906 94.859375 84.695312 C 96.941406 83.402344 99.703125 82.492188 102.933594 81.914062 C 93.792969 82.777344 89.027344 85.507812 88.742188 90.070312 C 88.734375 90.226562 88.636719 90.363281 88.496094 90.425781 C 89.355469 92.324219 91.070312 93.65625 91.695312 94.097656 C 92.238281 92.355469 92.945312 90.933594 93.609375 89.824219 C 93.65625 89.746094 93.722656 89.691406 93.808594 89.65625 Z M 143.289062 86.210938 C 144.429688 87.035156 145.554688 88.125 146.027344 89.429688 C 146.355469 90.324219 146.339844 91.222656 145.996094 92.109375 C 147.882812 91.464844 151.28125 91.820312 153.3125 91.59375 C 153.308594 91.554688 153.300781 91.507812 153.3125 91.464844 C 153.574219 89.933594 148.554688 87.8125 143.296875 86.210938 Z M 145.945312 84.667969 C 142.574219 79.671875 141.765625 69.796875 134.644531 62.914062 C 134.960938 63.894531 135.367188 65.578125 135.082031 67.203125 C 135.046875 67.410156 134.867188 67.554688 134.664062 67.554688 C 134.640625 67.554688 134.613281 67.554688 134.589844 67.550781 C 134.359375 67.511719 134.207031 67.289062 134.246094 67.058594 C 134.632812 64.871094 133.566406 62.433594 133.554688 62.414062 C 133.488281 62.265625 133.523438 62.101562 133.613281 61.984375 C 132.179688 60.757812 130.519531 59.644531 128.558594 58.699219 C 126.253906 57.585938 123.808594 56.824219 121.3125 56.417969 C 123.09375 57.542969 126.761719 60.378906 127.074219 64.84375 C 127.089844 65.074219 126.914062 65.277344 126.679688 65.292969 C 126.667969 65.292969 126.660156 65.292969 126.648438 65.292969 C 126.429688 65.292969 126.242188 65.125 126.226562 64.898438 C 125.859375 59.597656 120.042969 56.65625 119.988281 56.625 C 119.824219 56.546875 119.738281 56.378906 119.753906 56.207031 C 116.609375 55.886719 113.410156 56.140625 110.332031 57.011719 C 111.933594 57.480469 115.882812 58.941406 117.960938 62.367188 C 118.078125 62.566406 118.015625 62.832031 117.820312 62.949219 C 117.75 62.988281 117.671875 63.011719 117.597656 63.011719 C 117.457031 63.011719 117.316406 62.9375 117.238281 62.808594 C 114.835938 58.851562 109.511719 57.664062 109.457031 57.65625 C 109.308594 57.621094 109.203125 57.511719 109.152344 57.382812 C 94.304688 62.378906 91.578125 79.117188 91.195312 82.277344 C 101.179688 76.488281 131.046875 79.539062 145.949219 84.671875 Z M 145.042969 92.164062 C 145.46875 91.339844 145.539062 90.542969 145.238281 89.71875 C 144.273438 87.066406 139.917969 85.265625 139.875 85.25 C 139.875 85.25 139.867188 85.25 139.863281 85.242188 C 139.804688 85.226562 139.746094 85.214844 139.6875 85.199219 C 140.734375 85.972656 141.558594 87.027344 141.652344 87.949219 C 141.773438 89.074219 140.550781 93.449219 140.242188 94.554688 C 140.246094 94.640625 140.253906 94.71875 140.253906 94.804688 C 142.503906 94.667969 144.386719 93.257812 145.101562 92.640625 C 144.988281 92.511719 144.957031 92.324219 145.042969 92.160156 Z M 89.066406 253.082031 C 90.484375 253.082031 91.628906 251.929688 91.628906 250.511719 C 91.628906 249.09375 90.476562 247.945312 89.066406 247.945312 C 87.652344 247.945312 86.496094 249.097656 86.496094 250.511719 C 86.496094 251.925781 87.648438 253.082031 89.066406 253.082031 Z M 75.179688 255.890625 L 64.480469 255.890625 L 64.480469 245.390625 L 67.8125 245.390625 C 67.8125 245.625 68.003906 245.816406 68.234375 245.816406 L 80.984375 245.816406 C 81.21875 245.816406 81.410156 245.625 81.410156 245.390625 L 96.648438 245.390625 L 96.648438 255.890625 Z M 85.648438 250.511719 C 85.648438 252.394531 87.179688 253.929688 89.066406 253.929688 C 90.953125 253.929688 92.476562 252.398438 92.476562 250.511719 C 92.476562 248.625 90.945312 247.097656 89.066406 247.097656 C 87.183594 247.097656 85.648438 248.628906 85.648438 250.511719 Z M 80.984375 244.96875 L 80.984375 240.628906 L 68.234375 240.628906 L 68.234375 244.96875 Z M 145 250.511719 C 145 249.09375 143.847656 247.945312 142.4375 247.945312 C 141.027344 247.945312 139.875 249.097656 139.875 250.511719 C 139.875 251.925781 141.027344 253.082031 142.4375 253.082031 C 143.847656 253.082031 145 251.929688 145 250.511719 Z M 145.058594 245.390625 L 150.027344 245.390625 L 150.027344 255.890625 L 117.851562 255.890625 L 117.851562 245.390625 L 121.183594 245.390625 C 121.183594 245.625 121.375 245.816406 121.605469 245.816406 L 134.359375 245.816406 C 134.589844 245.816406 134.78125 245.625 134.78125 245.390625 Z M 145.847656 250.511719 C 145.847656 248.628906 144.316406 247.097656 142.4375 247.097656 C 140.558594 247.097656 139.027344 248.628906 139.027344 250.511719 C 139.027344 252.394531 140.558594 253.929688 142.4375 253.929688 C 144.316406 253.929688 145.847656 252.398438 145.847656 250.511719 Z M 134.359375 244.96875 L 134.359375 240.628906 L 121.605469 240.628906 L 121.605469 244.96875 Z M 203.394531 255.890625 L 171.21875 255.890625 L 171.21875 245.390625 L 174.550781 245.390625 C 174.550781 245.625 174.742188 245.816406 174.972656 245.816406 L 187.722656 245.816406 C 187.957031 245.816406 188.148438 245.625 188.148438 245.390625 L 203.386719 245.390625 L 203.386719 255.890625 Z M 199.222656 250.511719 C 199.222656 248.628906 197.691406 247.097656 195.808594 247.097656 C 193.929688 247.097656 192.398438 248.628906 192.398438 250.511719 C 192.398438 252.394531 193.929688 253.929688 195.808594 253.929688 C 197.691406 253.929688 199.222656 252.398438 199.222656 250.511719 Z M 195.804688 247.941406 C 194.386719 247.941406 193.242188 249.09375 193.242188 250.507812 C 193.242188 251.917969 194.394531 253.078125 195.804688 253.078125 C 197.214844 253.078125 198.367188 251.925781 198.367188 250.507812 C 198.367188 249.085938 197.214844 247.941406 195.804688 247.941406 Z M 187.730469 244.96875 L 187.730469 240.628906 L 174.980469 240.628906 L 174.980469 244.96875 Z M 233.066406 245.816406 L 228.347656 245.816406 C 228.113281 245.816406 227.921875 245.625 227.921875 245.390625 L 224.589844 245.390625 L 224.589844 255.890625 L 233.066406 255.890625 Z M 233.066406 240.628906 L 228.347656 240.628906 L 228.347656 244.96875 L 233.066406 244.96875 Z M 245.015625 185.519531 C 243.441406 185.519531 242.164062 186.796875 242.164062 188.375 C 242.164062 189.949219 243.441406 191.226562 245.015625 191.226562 C 246.589844 191.226562 247.867188 189.949219 247.867188 188.375 C 247.867188 186.796875 246.589844 185.519531 245.015625 185.519531 Z M 245.015625 185.519531 " fill-opacity="1" fill-rule="nonzero"/><g clip-path="url(#e5d149bf3e)"><path fill="#000000" d="M 91.132812 83.214844 C 90.996094 83.214844 90.871094 83.144531 90.789062 83.027344 C 90.789062 83.023438 90.777344 83.015625 90.769531 83.011719 C 90.648438 82.8125 90.707031 82.554688 90.90625 82.429688 L 90.96875 82.390625 C 91.035156 82.347656 91.117188 82.308594 91.183594 82.269531 C 101.167969 76.484375 131.039062 79.535156 145.9375 84.667969 C 146.097656 84.722656 146.265625 84.773438 146.417969 84.832031 C 146.640625 84.910156 146.753906 85.152344 146.679688 85.371094 C 146.617188 85.542969 146.453125 85.648438 146.285156 85.648438 C 146.238281 85.648438 146.1875 85.644531 146.140625 85.628906 C 138.613281 82.953125 127.289062 80.875 116.585938 80.203125 C 104.835938 79.460938 95.660156 80.523438 91.410156 83.113281 L 91.351562 83.144531 C 91.285156 83.191406 91.207031 83.207031 91.132812 83.207031 Z M 109.449219 57.65625 C 109.5 57.664062 114.832031 58.847656 117.230469 62.808594 C 117.308594 62.9375 117.453125 63.011719 117.59375 63.011719 C 117.667969 63.011719 117.746094 62.988281 117.8125 62.949219 C 118.011719 62.832031 118.078125 62.566406 117.953125 62.367188 C 115.875 58.949219 111.933594 57.484375 110.324219 57.011719 C 109.929688 56.890625 109.671875 56.835938 109.625 56.824219 C 109.394531 56.777344 109.171875 56.921875 109.121094 57.152344 C 109.105469 57.230469 109.121094 57.308594 109.144531 57.382812 C 109.195312 57.511719 109.296875 57.625 109.449219 57.65625 Z M 119.980469 56.632812 C 120.039062 56.660156 125.855469 59.605469 126.222656 64.90625 C 126.238281 65.132812 126.425781 65.300781 126.644531 65.300781 C 126.65625 65.300781 126.667969 65.300781 126.671875 65.300781 C 126.902344 65.285156 127.085938 65.082031 127.066406 64.847656 C 126.761719 60.378906 123.09375 57.542969 121.308594 56.421875 C 120.78125 56.089844 120.414062 55.910156 120.359375 55.875 C 120.152344 55.773438 119.894531 55.859375 119.792969 56.066406 C 119.773438 56.113281 119.761719 56.164062 119.753906 56.214844 C 119.738281 56.382812 119.824219 56.554688 119.988281 56.632812 Z M 133.550781 62.414062 C 133.550781 62.414062 134.628906 64.871094 134.238281 67.058594 C 134.199219 67.289062 134.351562 67.511719 134.582031 67.550781 C 134.605469 67.550781 134.632812 67.554688 134.65625 67.554688 C 134.859375 67.554688 135.035156 67.410156 135.074219 67.203125 C 135.363281 65.578125 134.957031 63.894531 134.640625 62.914062 C 134.480469 62.425781 134.339844 62.101562 134.324219 62.066406 C 134.226562 61.851562 133.980469 61.757812 133.765625 61.851562 C 133.695312 61.882812 133.652344 61.925781 133.605469 61.984375 C 133.515625 62.101562 133.480469 62.265625 133.550781 62.414062 Z M 88.742188 90.0625 C 89.03125 85.503906 93.796875 82.773438 102.933594 81.910156 C 105.039062 81.710938 107.378906 81.609375 109.953125 81.609375 C 110.183594 81.609375 110.375 81.417969 110.375 81.183594 C 110.375 81.183594 110.375 81.175781 110.375 81.167969 C 110.371094 80.941406 110.183594 80.761719 109.957031 80.761719 C 96.585938 80.761719 89.230469 83.503906 88.054688 88.90625 C 87.976562 89.261719 87.925781 89.628906 87.902344 90.007812 C 87.886719 90.238281 88.066406 90.441406 88.296875 90.457031 C 88.308594 90.457031 88.316406 90.457031 88.324219 90.457031 C 88.386719 90.457031 88.449219 90.441406 88.5 90.417969 C 88.636719 90.355469 88.738281 90.226562 88.75 90.0625 Z M 138.453125 84.023438 C 138.226562 83.964844 137.992188 84.105469 137.941406 84.339844 C 137.886719 84.566406 138.027344 84.796875 138.257812 84.847656 C 138.722656 84.953125 139.203125 85.074219 139.6875 85.203125 C 139.746094 85.21875 139.804688 85.230469 139.863281 85.25 C 139.863281 85.25 139.867188 85.25 139.875 85.253906 C 139.917969 85.269531 144.273438 87.078125 145.238281 89.722656 C 145.539062 90.550781 145.476562 91.347656 145.042969 92.171875 C 144.957031 92.335938 144.988281 92.519531 145.101562 92.652344 C 145.136719 92.683594 145.171875 92.71875 145.214844 92.746094 C 145.277344 92.78125 145.347656 92.796875 145.414062 92.796875 C 145.566406 92.796875 145.714844 92.714844 145.785156 92.570312 C 145.867188 92.417969 145.933594 92.265625 145.988281 92.113281 C 146.335938 91.226562 146.351562 90.328125 146.023438 89.4375 C 145.550781 88.136719 144.417969 87.046875 143.285156 86.214844 C 148.542969 87.820312 153.5625 89.9375 153.300781 91.46875 C 153.296875 91.515625 153.300781 91.554688 153.300781 91.601562 C 153.324219 91.78125 153.460938 91.929688 153.648438 91.960938 C 153.667969 91.960938 153.699219 91.96875 153.71875 91.96875 C 153.921875 91.96875 154.105469 91.820312 154.136719 91.617188 C 154.148438 91.5625 154.136719 91.503906 154.144531 91.449219 C 154.300781 87.964844 141.128906 84.660156 138.445312 84.027344 Z M 94.882812 84.710938 C 94.882812 84.710938 94.871094 84.699219 94.863281 84.6875 C 94.75 84.503906 94.507812 84.429688 94.3125 84.53125 C 94.175781 84.597656 91.03125 86.292969 90.769531 89.476562 C 90.753906 89.707031 90.921875 89.910156 91.160156 89.933594 C 91.171875 89.933594 91.183594 89.933594 91.195312 89.933594 C 91.414062 89.933594 91.59375 89.761719 91.617188 89.542969 C 91.796875 87.339844 93.714844 85.910156 94.4375 85.445312 C 94.597656 85.339844 94.707031 85.28125 94.710938 85.28125 C 94.921875 85.175781 95 84.914062 94.886719 84.710938 Z M 103.691406 207.027344 C 103.640625 206.839844 103.46875 206.710938 103.273438 206.714844 C 103.25 206.714844 103.222656 206.722656 103.199219 206.722656 C 98.917969 206.902344 94.871094 212.0625 94.699219 212.289062 C 94.558594 212.476562 94.59375 212.742188 94.773438 212.882812 C 94.960938 213.023438 95.226562 212.988281 95.367188 212.808594 C 95.402344 212.761719 98.246094 209.140625 101.476562 207.941406 C 99.597656 209.546875 96.644531 212.863281 95.949219 218.253906 C 95.921875 218.488281 96.085938 218.703125 96.316406 218.730469 C 96.332031 218.730469 96.355469 218.730469 96.371094 218.730469 C 96.582031 218.730469 96.761719 218.570312 96.789062 218.363281 C 97.761719 210.890625 103.441406 207.535156 103.5 207.507812 C 103.617188 207.441406 103.695312 207.316406 103.707031 207.179688 C 103.707031 207.128906 103.707031 207.078125 103.695312 207.023438 Z M 154.695312 226.414062 C 154.695312 226.414062 154.726562 226.414062 154.738281 226.410156 C 154.808594 226.40625 154.882812 226.382812 154.949219 226.332031 L 166.441406 217.757812 C 166.605469 217.632812 166.65625 217.414062 166.570312 217.234375 L 164.828125 213.644531 C 166.148438 212.769531 168.972656 211.582031 171.949219 210.332031 C 174.890625 209.101562 177.925781 207.824219 179.910156 206.683594 C 183.953125 204.355469 190.257812 194.195312 190.300781 192.71875 C 190.304688 192.453125 190.21875 192.109375 190.085938 191.734375 C 190.085938 191.730469 190.085938 191.722656 190.078125 191.714844 C 189.605469 190.425781 188.519531 188.746094 188.25 188.339844 C 188.222656 188.300781 188.1875 188.273438 188.152344 188.242188 C 188.011719 188.136719 187.820312 188.117188 187.660156 188.222656 C 187.464844 188.351562 187.414062 188.609375 187.542969 188.808594 C 187.566406 188.847656 187.59375 188.894531 187.621094 188.925781 C 188.164062 189.757812 188.886719 190.996094 189.238281 191.875 C 189.164062 192.175781 188.785156 193.3125 187.121094 195.214844 C 185.046875 197.578125 181.804688 200.699219 181.773438 200.730469 C 181.601562 200.894531 181.597656 201.160156 181.761719 201.332031 C 181.847656 201.414062 181.953125 201.460938 182.066406 201.460938 C 182.171875 201.460938 182.273438 201.421875 182.359375 201.34375 C 182.394531 201.308594 185.664062 198.167969 187.757812 195.777344 C 187.90625 195.613281 188.039062 195.449219 188.164062 195.296875 C 186.210938 198.675781 182.410156 204.257812 179.480469 205.949219 C 177.550781 207.0625 174.535156 208.328125 171.613281 209.546875 C 168.671875 210.78125 165.882812 211.953125 164.449219 212.871094 L 159.328125 202.3125 C 159.292969 202.246094 159.242188 202.195312 159.1875 202.15625 C 159.105469 202.273438 159.027344 202.382812 158.949219 202.5 L 158.761719 202.121094 C 158.554688 202.222656 158.464844 202.476562 158.566406 202.6875 L 165.652344 217.289062 L 154.441406 225.652344 C 154.269531 225.78125 154.226562 226.027344 154.339844 226.207031 C 154.347656 226.21875 154.351562 226.230469 154.359375 226.246094 C 154.441406 226.359375 154.566406 226.414062 154.695312 226.414062 Z M 159.1875 202.160156 C 163.183594 196.261719 168.6875 194.347656 172.121094 192.136719 C 175.625 189.886719 175.820312 187.835938 178.710938 186.734375 C 181.609375 185.632812 183.179688 188.226562 182.585938 189.289062 C 182.066406 190.214844 176.945312 195.453125 175.652344 196.765625 C 175.652344 196.765625 175.664062 196.765625 175.664062 196.777344 C 175.675781 196.789062 175.679688 196.804688 175.691406 196.820312 C 179.773438 193.882812 185.511719 191.664062 185.511719 191.664062 L 187.617188 188.9375 C 187.59375 188.898438 187.566406 188.855469 187.539062 188.820312 C 187.40625 188.628906 187.464844 188.363281 187.65625 188.230469 C 187.808594 188.128906 188.007812 188.148438 188.148438 188.253906 L 190.191406 185.609375 C 190.570312 185.117188 190.699219 184.480469 190.546875 183.878906 L 190.257812 182.765625 C 190.085938 182.09375 189.472656 181.625 188.78125 181.636719 L 165.199219 181.898438 C 165.164062 181.972656 165.132812 182.039062 165.09375 182.113281 C 165.011719 182.246094 164.871094 182.328125 164.726562 182.328125 C 164.652344 182.328125 164.585938 182.308594 164.515625 182.269531 C 164.378906 182.191406 164.308594 182.050781 164.308594 181.910156 L 152.292969 182.042969 C 152.292969 182.042969 152.292969 182.078125 152.285156 182.09375 C 152.261719 182.316406 152.078125 182.472656 151.863281 182.472656 C 151.84375 182.472656 151.835938 182.472656 151.816406 182.472656 C 151.601562 182.449219 151.449219 182.269531 151.445312 182.054688 L 147.417969 182.101562 C 147.417969 182.101562 147.417969 182.125 147.417969 182.125 C 147.40625 182.347656 147.21875 182.53125 146.996094 182.53125 C 146.988281 182.53125 146.984375 182.53125 146.972656 182.53125 C 146.746094 182.519531 146.578125 182.332031 146.570312 182.113281 L 143.234375 182.152344 L 142.523438 182.152344 C 140.273438 182.183594 138.175781 183.265625 136.84375 185.078125 L 136.507812 185.53125 L 135.492188 186.921875 L 120.117188 208.785156 C 141.714844 209.289062 158.632812 201.890625 158.632812 201.890625 L 158.75 202.132812 L 158.9375 202.511719 C 159.015625 202.394531 159.09375 202.285156 159.175781 202.167969 Z M 152.414062 167.671875 C 152.414062 167.671875 152.445312 167.664062 152.460938 167.65625 C 152.851562 167.515625 155.578125 166.605469 157.730469 168.046875 L 164.171875 162.535156 C 164.898438 161.960938 165.757812 162.265625 166.238281 162.863281 C 166.769531 163.53125 166.753906 164.34375 166.195312 164.804688 L 160.710938 169.617188 C 161.183594 169.996094 161.601562 170.449219 161.863281 170.984375 C 162.691406 171.148438 165.058594 172.015625 165.148438 176.460938 C 165.386719 176.980469 166.414062 179.5 165.207031 181.898438 C 165.171875 181.972656 165.136719 182.039062 165.097656 182.113281 C 165.019531 182.246094 164.878906 182.328125 164.730469 182.328125 C 164.65625 182.328125 164.589844 182.308594 164.523438 182.269531 C 164.386719 182.191406 164.3125 182.050781 164.3125 181.910156 C 164.3125 181.835938 164.324219 181.761719 164.363281 181.695312 C 165.65625 179.40625 164.363281 176.777344 164.351562 176.75 C 164.324219 176.691406 164.308594 176.628906 164.308594 176.5625 C 164.246094 171.945312 161.664062 171.792969 161.558594 171.789062 C 161.386719 171.78125 161.234375 171.675781 161.171875 171.511719 C 160.546875 169.839844 157.671875 168.992188 157.644531 168.984375 C 157.632812 168.984375 157.621094 168.972656 157.609375 168.96875 C 157.589844 168.957031 157.558594 168.945312 157.535156 168.929688 C 157.527344 168.921875 157.507812 168.917969 157.496094 168.90625 C 155.578125 167.386719 152.75 168.449219 152.71875 168.460938 C 152.523438 168.53125 152.308594 168.449219 152.207031 168.265625 C 152.195312 168.25 152.179688 168.234375 152.171875 168.214844 C 152.089844 167.996094 152.195312 167.753906 152.414062 167.667969 Z M 158.59375 168.425781 C 158.984375 168.578125 159.484375 168.808594 159.992188 169.113281 L 165.652344 164.148438 C 165.894531 163.949219 165.742188 163.589844 165.582031 163.390625 C 165.539062 163.332031 165.136719 162.859375 164.714844 163.191406 Z M 145.703125 178.890625 C 145.824219 177.722656 147.46875 175.261719 148.097656 174.414062 C 148.238281 174.230469 148.191406 173.964844 148.003906 173.820312 C 147.996094 173.8125 147.976562 173.8125 147.964844 173.804688 C 147.78125 173.699219 147.542969 173.738281 147.414062 173.914062 C 147.414062 173.914062 147.40625 173.921875 147.402344 173.929688 C 147.25 174.136719 145.273438 176.863281 144.910156 178.523438 C 144.886719 178.621094 144.871094 178.714844 144.859375 178.800781 C 144.835938 179.03125 145 179.242188 145.234375 179.269531 C 145.25 179.269531 145.265625 179.269531 145.277344 179.269531 C 145.316406 179.269531 145.355469 179.257812 145.398438 179.246094 C 145.554688 179.203125 145.683594 179.066406 145.703125 178.890625 Z M 151.828125 174.171875 C 152.625 173.339844 156.070312 172.664062 157.328125 172.472656 C 157.558594 172.4375 157.71875 172.222656 157.683594 171.992188 C 157.648438 171.757812 157.433594 171.601562 157.203125 171.636719 C 156.710938 171.707031 152.351562 172.402344 151.21875 173.589844 C 150.257812 174.589844 147.933594 177.890625 147.1875 179.257812 C 146.507812 179.570312 145.957031 179.253906 145.921875 179.230469 C 145.757812 179.128906 145.550781 179.15625 145.414062 179.28125 C 145.386719 179.304688 145.355469 179.324219 145.339844 179.359375 C 145.226562 179.535156 145.265625 179.75 145.40625 179.890625 C 145.425781 179.90625 145.441406 179.929688 145.464844 179.949219 C 145.492188 179.964844 145.945312 180.246094 146.59375 180.246094 C 146.667969 180.246094 146.742188 180.246094 146.820312 180.234375 C 146.628906 181.070312 146.582031 182.03125 146.578125 182.082031 C 146.578125 182.089844 146.578125 182.101562 146.578125 182.105469 C 146.578125 182.328125 146.753906 182.511719 146.976562 182.523438 C 146.984375 182.523438 146.988281 182.523438 147 182.523438 C 147.226562 182.523438 147.414062 182.347656 147.425781 182.117188 C 147.425781 182.117188 147.425781 182.101562 147.425781 182.09375 C 147.429688 181.964844 147.503906 180.695312 147.773438 179.96875 C 148.050781 179.222656 150.761719 175.285156 151.824219 174.179688 Z M 157.078125 177.257812 C 158.25 177.066406 160.378906 176.929688 160.398438 176.929688 C 160.632812 176.914062 160.8125 176.714844 160.796875 176.484375 C 160.777344 176.25 160.585938 176.078125 160.347656 176.089844 C 160.257812 176.089844 158.152344 176.222656 156.945312 176.425781 C 155.734375 176.628906 153.230469 177.675781 152.488281 178.386719 C 151.789062 179.058594 151.5 181.511719 151.449219 182 C 151.449219 182.015625 151.449219 182.03125 151.449219 182.050781 C 151.449219 182.257812 151.609375 182.445312 151.824219 182.46875 C 151.839844 182.46875 151.851562 182.46875 151.867188 182.46875 C 152.082031 182.46875 152.261719 182.304688 152.292969 182.089844 C 152.292969 182.074219 152.292969 182.054688 152.296875 182.039062 C 152.433594 180.800781 152.765625 179.296875 153.078125 179 C 153.640625 178.457031 155.960938 177.449219 157.078125 177.261719 Z M 95.730469 98.925781 C 95.113281 95.210938 96.785156 94.097656 96.824219 94.074219 C 97.023438 93.957031 97.089844 93.695312 96.976562 93.5 C 96.859375 93.296875 96.597656 93.226562 96.394531 93.347656 C 96.277344 93.414062 94.058594 94.78125 94.945312 99.363281 C 94.945312 99.371094 94.945312 99.375 94.945312 99.382812 C 95.175781 100.558594 95.605469 101.945312 96.332031 103.582031 C 96.402344 103.738281 96.558594 103.828125 96.722656 103.828125 C 96.777344 103.828125 96.839844 103.816406 96.890625 103.796875 C 97.105469 103.699219 97.203125 103.449219 97.105469 103.234375 C 96.535156 101.953125 96.15625 100.839844 95.921875 99.875 C 96.597656 100.109375 97.625 100.625 98.039062 101.648438 C 98.105469 101.8125 98.265625 101.914062 98.433594 101.914062 C 98.484375 101.914062 98.539062 101.902344 98.589844 101.886719 C 98.804688 101.800781 98.914062 101.550781 98.828125 101.332031 C 98.171875 99.699219 96.433594 99.105469 95.730469 98.925781 Z M 88.597656 128.597656 C 88.5625 128.539062 88.539062 128.484375 88.535156 128.410156 C 88.359375 125.992188 93.84375 122.789062 94.984375 122.144531 C 95.71875 120.070312 96.066406 118.203125 96.152344 117.703125 C 89.875 107.214844 90.082031 99.269531 91.703125 94.085938 C 92.246094 92.347656 92.949219 90.921875 93.617188 89.8125 C 93.660156 89.734375 93.730469 89.679688 93.816406 89.644531 C 93.816406 89.644531 93.820312 89.644531 93.824219 89.644531 C 99.601562 87.203125 107.851562 86.203125 110.246094 85.960938 C 125.644531 84.371094 135.957031 88.355469 138.839844 91.246094 C 139.734375 92.136719 140.132812 93.308594 140.234375 94.5625 C 140.242188 94.644531 140.246094 94.726562 140.246094 94.808594 C 140.421875 98.402344 138.265625 102.613281 137.925781 103.246094 C 137.886719 103.601562 137.839844 104.003906 137.796875 104.421875 C 137.734375 105.015625 137.660156 105.6875 137.574219 106.394531 L 139.304688 106.851562 C 139.417969 106.878906 139.507812 106.953125 139.5625 107.054688 C 139.621094 107.15625 139.632812 107.277344 139.601562 107.382812 L 137.789062 113.492188 C 137.738281 113.667969 137.582031 113.785156 137.402344 113.796875 C 136.863281 113.820312 136.316406 113.886719 135.746094 113.976562 C 133.125 118.90625 126.59375 126.433594 125.261719 127.597656 C 125.0625 127.765625 124.835938 127.976562 124.582031 128.207031 C 123.792969 128.925781 122.792969 129.835938 121.679688 130.660156 L 122.738281 132.585938 C 122.777344 132.660156 122.789062 132.738281 122.78125 132.820312 C 122.769531 132.960938 122.703125 133.089844 122.574219 133.164062 C 122.566406 133.164062 122.5625 133.164062 122.554688 133.164062 C 122.5 133.191406 122.433594 133.207031 122.371094 133.207031 C 122.21875 133.207031 122.074219 133.128906 121.996094 132.988281 L 120.984375 131.144531 C 120.089844 131.75 119.128906 132.269531 118.167969 132.570312 C 120.691406 137.34375 121.601562 142.695312 120.875 148.5 L 123.25 145.238281 C 123.386719 145.046875 123.652344 145.007812 123.84375 145.148438 C 123.84375 145.148438 123.84375 145.15625 123.855469 145.160156 C 124.035156 145.300781 124.074219 145.554688 123.941406 145.742188 L 123.796875 145.933594 L 120.664062 150.222656 C 121.234375 152.089844 125.566406 166.261719 127.203125 171.921875 C 127.265625 172.148438 127.140625 172.382812 126.914062 172.449219 C 126.875 172.460938 126.835938 172.464844 126.796875 172.464844 C 126.609375 172.464844 126.445312 172.347656 126.390625 172.160156 C 124.769531 166.542969 120.488281 152.546875 119.875 150.523438 C 116.351562 149.941406 113.175781 149.167969 110.445312 148.210938 L 109.527344 150.121094 C 109.507812 150.171875 109.472656 150.21875 109.433594 150.25 C 109.308594 150.363281 109.128906 150.398438 108.964844 150.320312 C 108.964844 150.320312 108.957031 150.3125 108.953125 150.308594 C 108.75 150.199219 108.664062 149.957031 108.765625 149.75 L 109.851562 147.492188 C 109.945312 147.296875 110.171875 147.207031 110.375 147.28125 C 112.1875 147.933594 114.210938 148.503906 116.40625 148.992188 C 102.320312 142.441406 93.566406 131.523438 92.53125 125.558594 C 92.492188 125.324219 92.644531 125.105469 92.878906 125.066406 C 93.109375 125.027344 93.328125 125.179688 93.367188 125.410156 C 93.375 125.457031 93.390625 125.507812 93.398438 125.558594 C 93.816406 124.878906 94.175781 124.144531 94.492188 123.402344 C 92.144531 124.839844 89.285156 127.03125 89.382812 128.335938 C 89.398438 128.535156 89.269531 128.699219 89.09375 128.761719 C 89.058594 128.773438 89.027344 128.789062 88.992188 128.789062 C 88.980469 128.789062 88.96875 128.789062 88.964844 128.789062 C 88.8125 128.789062 88.683594 128.703125 88.601562 128.582031 Z M 134.707031 114.152344 C 134.605469 114.171875 134.503906 114.1875 134.402344 114.210938 C 133.171875 114.429688 131.863281 114.667969 130.570312 114.667969 C 129.164062 114.667969 127.777344 114.386719 126.519531 113.507812 C 126.277344 116.125 126.148438 117.183594 125.84375 117.578125 C 125.113281 118.519531 121.84375 119.148438 121.195312 119.265625 C 121.171875 119.265625 121.144531 119.273438 121.121094 119.273438 C 120.917969 119.273438 120.742188 119.132812 120.703125 118.921875 C 120.664062 118.691406 120.816406 118.46875 121.046875 118.429688 C 122.527344 118.164062 124.78125 117.5625 125.175781 117.058594 C 125.378906 116.746094 125.566406 114.691406 125.71875 113.039062 C 125.820312 111.902344 125.925781 110.835938 126.039062 109.875 C 126.039062 109.847656 126.023438 109.824219 126.023438 109.800781 C 126.023438 109.050781 125.582031 108.367188 124.816406 107.9375 C 123.695312 107.304688 122.207031 107.367188 121.015625 108.089844 C 120.5 108.402344 120.027344 108.71875 119.570312 109.015625 C 117.992188 110.0625 116.609375 110.984375 114.757812 110.984375 C 114.492188 110.984375 114.222656 110.964844 113.9375 110.925781 C 111.195312 110.546875 104.960938 106.054688 104.695312 105.867188 C 104.695312 105.867188 104.691406 105.859375 104.683594 105.851562 C 104.632812 105.808594 104.589844 105.757812 104.558594 105.699219 L 100.703125 96.769531 C 99.546875 94.316406 97.28125 90.316406 95.078125 91.058594 C 93.480469 91.671875 92.878906 94.839844 93.515625 99.300781 C 94.242188 104.382812 95.546875 105.898438 96.257812 106.347656 C 96.769531 106.671875 97.125 106.5625 97.140625 106.558594 C 97.152344 106.558594 97.164062 106.558594 97.167969 106.558594 C 97.1875 106.558594 97.195312 106.546875 97.214844 106.542969 C 97.257812 106.535156 97.992188 106.378906 98.382812 105.042969 C 98.449219 104.816406 98.6875 104.695312 98.90625 104.753906 C 99.132812 104.824219 99.261719 105.054688 99.195312 105.28125 C 98.824219 106.558594 98.140625 107.0625 97.710938 107.257812 C 97.859375 111.023438 97.0625 117.417969 97.027344 117.695312 C 97.027344 117.695312 97.027344 117.695312 97.027344 117.703125 C 96.992188 117.929688 96.167969 123.1875 93.707031 126.675781 C 95.585938 132.367188 104.191406 143.386719 119.886719 149.578125 C 120.882812 143.417969 120.03125 137.769531 117.34375 132.789062 C 117.074219 132.835938 116.800781 132.863281 116.53125 132.863281 C 116.453125 132.863281 116.371094 132.863281 116.292969 132.859375 C 109.601562 131.8125 101.320312 124.15625 100.058594 121.851562 C 98.742188 119.429688 98.816406 113.582031 98.824219 113.339844 C 98.824219 113.109375 99.007812 112.921875 99.253906 112.921875 C 99.484375 112.921875 99.671875 113.117188 99.671875 113.351562 C 99.671875 113.40625 99.597656 119.222656 100.804688 121.441406 C 101.972656 123.589844 110.097656 131.03125 116.378906 132.015625 C 119.03125 132.15625 122.289062 129.191406 124.042969 127.589844 C 124.300781 127.355469 124.53125 127.144531 124.730469 126.96875 C 125.949219 125.902344 132.007812 118.921875 134.71875 114.164062 Z M 120.082031 102.632812 L 107.609375 99.320312 L 105.441406 105.355469 C 106.636719 106.203125 111.800781 109.769531 114.046875 110.078125 C 116.015625 110.351562 117.371094 109.445312 119.09375 108.304688 C 119.558594 108 120.042969 107.675781 120.570312 107.355469 C 122.015625 106.480469 123.84375 106.410156 125.226562 107.191406 C 125.660156 107.433594 126.011719 107.746094 126.28125 108.101562 C 126.519531 106.671875 126.820312 105.625 127.25 105.128906 C 127.402344 104.953125 127.605469 104.8125 127.851562 104.6875 L 121.890625 103.105469 C 122.054688 103.273438 122.054688 103.539062 121.882812 103.703125 C 121.800781 103.785156 121.691406 103.824219 121.589844 103.824219 C 121.488281 103.824219 121.371094 103.777344 121.285156 103.691406 C 120.90625 103.304688 120.5 102.949219 120.082031 102.621094 Z M 129.394531 105.101562 C 128.6875 105.214844 128.140625 105.398438 127.886719 105.6875 C 127.207031 106.460938 126.863281 109.808594 126.609375 112.515625 C 128.8125 114.351562 131.574219 113.859375 134.25 113.375 C 134.566406 113.316406 134.886719 113.261719 135.210938 113.203125 C 135.570312 112.480469 135.832031 111.824219 135.949219 111.289062 C 136.261719 109.847656 136.480469 108.371094 136.648438 107.023438 L 129.386719 105.09375 Z M 106.859375 98.914062 L 103.785156 95.644531 C 103.175781 96.390625 102.488281 96.929688 101.738281 97.03125 L 104.90625 104.367188 L 106.863281 98.917969 Z M 137.480469 107.242188 C 137.3125 108.582031 137.089844 110.039062 136.78125 111.46875 C 136.679688 111.933594 136.480469 112.46875 136.214844 113.058594 C 136.503906 113.015625 136.792969 112.988281 137.074219 112.964844 L 138.675781 107.558594 Z M 136.757812 106.175781 C 136.835938 105.511719 136.902344 104.890625 136.960938 104.332031 C 137.066406 103.320312 137.152344 102.527344 137.25 102.03125 C 137.75 98.1875 137.542969 95.246094 137.433594 94.195312 C 128.304688 95.464844 118.5 93.949219 106.671875 89.453125 C 106.351562 90.550781 105.507812 93.101562 104.292969 94.945312 L 107.570312 98.433594 L 117.859375 101.160156 C 114.882812 99.535156 111.980469 99.042969 111.941406 99.035156 C 111.707031 98.996094 111.550781 98.78125 111.589844 98.550781 C 111.628906 98.320312 111.84375 98.160156 112.074219 98.199219 C 112.289062 98.234375 116.796875 98.992188 120.476562 101.855469 L 129.457031 104.234375 C 131.964844 103.867188 135.527344 104.359375 136.0625 104.4375 C 136.292969 104.472656 136.453125 104.6875 136.417969 104.917969 C 136.382812 105.152344 136.171875 105.308594 135.9375 105.277344 C 134.871094 105.117188 133.5 104.992188 132.183594 104.960938 L 136.75 106.175781 Z M 122.15625 150.761719 C 121.75 150.867188 121.589844 151.375 121.761719 152.027344 C 121.820312 152.257812 121.917969 152.472656 122.035156 152.628906 C 122.234375 152.894531 122.441406 152.953125 122.589844 152.953125 C 122.644531 152.953125 122.695312 152.941406 122.726562 152.9375 C 123.132812 152.828125 123.289062 152.320312 123.121094 151.671875 C 123.058594 151.4375 122.960938 151.222656 122.84375 151.066406 C 122.566406 150.699219 122.269531 150.730469 122.148438 150.761719 Z M 128.308594 174.382812 C 128.445312 174.515625 128.605469 174.597656 128.761719 174.597656 C 128.808594 174.597656 128.859375 174.589844 128.902344 174.578125 C 129.308594 174.472656 129.46875 173.964844 129.296875 173.3125 C 129.128906 172.664062 128.738281 172.300781 128.332031 172.410156 C 127.925781 172.515625 127.769531 173.023438 127.9375 173.675781 C 127.964844 173.777344 128 173.867188 128.035156 173.953125 C 128.105469 174.132812 128.203125 174.28125 128.308594 174.386719 Z M 108.449219 168.59375 L 105.976562 168.871094 L 106.355469 170.320312 L 108.671875 170.0625 L 108.445312 168.59375 Z M 108.949219 171.859375 L 108.800781 170.902344 L 106.570312 171.144531 L 106.832031 172.132812 L 108.949219 171.855469 Z M 100.867188 185.605469 L 98.828125 175.957031 L 97.929688 171.707031 C 97.910156 171.589844 97.929688 171.472656 98.003906 171.375 C 98.070312 171.277344 98.179688 171.21875 98.304688 171.199219 L 105.515625 170.410156 L 105.046875 168.613281 C 105.011719 168.492188 105.035156 168.367188 105.109375 168.265625 C 105.175781 168.164062 105.289062 168.097656 105.40625 168.085938 L 108.765625 167.707031 C 108.988281 167.679688 109.195312 167.835938 109.234375 168.0625 L 109.523438 169.96875 L 118.5625 168.972656 C 118.785156 168.945312 118.980469 169.097656 119.027344 169.3125 L 119.980469 174.109375 L 121.699219 182.726562 C 121.71875 182.839844 121.699219 182.960938 121.628906 183.054688 C 121.5625 183.152344 121.460938 183.214844 121.34375 183.230469 L 101.347656 185.9375 C 101.347656 185.9375 101.308594 185.9375 101.289062 185.9375 C 101.09375 185.9375 100.917969 185.800781 100.878906 185.605469 Z M 106.355469 170.320312 L 108.671875 170.0625 L 108.445312 168.59375 L 105.972656 168.871094 L 106.351562 170.320312 Z M 106.570312 171.144531 L 106.832031 172.132812 L 108.949219 171.855469 L 108.800781 170.894531 L 106.570312 171.136719 Z M 98.855469 171.996094 L 101.617188 185.042969 L 120.777344 182.449219 L 118.269531 169.859375 L 109.648438 170.808594 L 109.851562 172.167969 C 109.867188 172.277344 109.839844 172.390625 109.773438 172.484375 C 109.703125 172.574219 109.601562 172.636719 109.488281 172.648438 L 106.570312 173.023438 C 106.570312 173.023438 106.535156 173.023438 106.515625 173.023438 C 106.320312 173.023438 106.152344 172.894531 106.101562 172.707031 L 105.71875 171.234375 L 98.851562 171.992188 Z M 109.8125 174.839844 C 109.8125 174.839844 109.84375 174.839844 109.863281 174.839844 L 116.371094 174.066406 C 116.605469 174.035156 116.773438 173.828125 116.746094 173.597656 C 116.71875 173.363281 116.507812 173.195312 116.277344 173.222656 L 109.765625 173.996094 C 109.535156 174.027344 109.367188 174.234375 109.394531 174.464844 C 109.417969 174.679688 109.601562 174.839844 109.8125 174.839844 Z M 109.914062 178.519531 C 109.9375 178.734375 110.121094 178.890625 110.332031 178.890625 C 110.347656 178.890625 110.363281 178.890625 110.382812 178.890625 L 116.890625 178.117188 C 117.125 178.089844 117.292969 177.878906 117.265625 177.648438 C 117.238281 177.417969 117.027344 177.246094 116.796875 177.273438 L 110.285156 178.050781 C 110.054688 178.078125 109.886719 178.285156 109.914062 178.519531 Z M 110.109375 176.800781 L 115.542969 176.15625 C 115.773438 176.128906 115.945312 175.917969 115.914062 175.6875 C 115.886719 175.457031 115.679688 175.285156 115.445312 175.3125 L 110.015625 175.957031 C 109.785156 175.988281 109.613281 176.195312 109.640625 176.425781 C 109.664062 176.640625 109.851562 176.800781 110.058594 176.800781 C 110.078125 176.800781 110.09375 176.800781 110.109375 176.800781 Z M 175.070312 196.757812 C 175.007812 196.820312 173.527344 198.230469 173.058594 199.863281 C 172.996094 200.085938 173.121094 200.320312 173.347656 200.386719 C 173.386719 200.398438 173.425781 200.402344 173.464844 200.402344 C 173.652344 200.402344 173.820312 200.285156 173.871094 200.097656 C 174.28125 198.6875 175.632812 197.390625 175.652344 197.375 C 175.808594 197.226562 175.820312 196.992188 175.695312 196.820312 C 175.683594 196.804688 175.679688 196.789062 175.667969 196.777344 C 175.667969 196.777344 175.65625 196.777344 175.65625 196.765625 C 175.492188 196.605469 175.238281 196.601562 175.070312 196.753906 Z M 179.492188 191.140625 C 179.554688 191.175781 179.625 191.191406 179.695312 191.191406 C 179.839844 191.191406 179.988281 191.113281 180.066406 190.972656 C 180.179688 190.769531 180.105469 190.507812 179.902344 190.394531 C 179.898438 190.394531 179.300781 190.046875 179.289062 189.441406 C 179.277344 189.015625 180.15625 188.253906 180.761719 187.871094 C 180.960938 187.746094 181.015625 187.484375 180.890625 187.289062 C 180.765625 187.089844 180.507812 187.027344 180.308594 187.160156 C 179.992188 187.355469 178.417969 188.40625 178.441406 189.464844 C 178.46875 190.566406 179.453125 191.113281 179.496094 191.136719 Z M 123.898438 122.472656 C 117.152344 122.792969 113.691406 119.632812 113.65625 119.601562 C 113.488281 119.441406 113.214844 119.449219 113.058594 119.617188 C 112.898438 119.789062 112.90625 120.054688 113.074219 120.214844 C 113.214844 120.351562 116.464844 123.339844 122.921875 123.339844 C 123.257812 123.339844 123.59375 123.335938 123.941406 123.320312 C 124.171875 123.308594 124.351562 123.109375 124.339844 122.878906 C 124.328125 122.648438 124.136719 122.460938 123.898438 122.476562 Z M 119.9375 124.527344 C 117.390625 124.640625 116.078125 123.476562 116.058594 123.453125 C 115.886719 123.296875 115.621094 123.300781 115.457031 123.472656 C 115.300781 123.640625 115.304688 123.914062 115.476562 124.070312 C 115.53125 124.128906 116.890625 125.382812 119.558594 125.382812 C 119.691406 125.382812 119.828125 125.382812 119.96875 125.371094 C 120.203125 125.359375 120.382812 125.160156 120.371094 124.929688 C 120.359375 124.699219 120.167969 124.515625 119.929688 124.527344 Z M 117.910156 117.671875 C 117.976562 117.71875 118.054688 117.734375 118.132812 117.734375 C 118.277344 117.734375 118.417969 117.664062 118.496094 117.539062 C 118.621094 117.339844 118.558594 117.082031 118.359375 116.957031 C 117.824219 116.621094 117.554688 116.253906 117.535156 115.835938 C 117.496094 114.976562 118.511719 114.011719 118.910156 113.710938 C 119.09375 113.570312 119.128906 113.304688 118.992188 113.117188 C 118.851562 112.933594 118.585938 112.894531 118.398438 113.035156 C 118.328125 113.089844 116.628906 114.394531 116.695312 115.875 C 116.730469 116.589844 117.140625 117.195312 117.921875 117.679688 Z M 111.742188 104.128906 C 111.828125 104.191406 112.941406 105.039062 114.589844 105.671875 C 114.761719 106.46875 115.46875 107.0625 116.316406 107.0625 C 116.902344 107.0625 117.417969 106.773438 117.738281 106.339844 C 117.847656 106.339844 117.953125 106.347656 118.0625 106.347656 C 118.535156 106.347656 119.019531 106.308594 119.511719 106.214844 C 119.742188 106.167969 119.890625 105.949219 119.851562 105.714844 C 119.804688 105.484375 119.585938 105.332031 119.355469 105.378906 C 115.699219 106.066406 112.289062 103.480469 112.257812 103.449219 C 112.070312 103.308594 111.804688 103.34375 111.664062 103.53125 C 111.523438 103.714844 111.554688 103.980469 111.738281 104.121094 Z M 128.039062 108.492188 C 128.085938 108.523438 128.542969 108.871094 129.246094 109.226562 C 129.46875 109.960938 130.140625 110.496094 130.941406 110.496094 C 131.386719 110.496094 131.792969 110.328125 132.105469 110.050781 C 132.21875 110.054688 132.332031 110.0625 132.441406 110.0625 C 132.992188 110.0625 133.5625 109.976562 134.132812 109.773438 C 134.351562 109.695312 134.464844 109.453125 134.386719 109.230469 C 134.308594 109.011719 134.0625 108.898438 133.84375 108.976562 C 131.308594 109.890625 128.585938 107.839844 128.558594 107.820312 C 128.371094 107.675781 128.105469 107.710938 127.964844 107.898438 C 127.824219 108.085938 127.859375 108.351562 128.042969 108.492188 Z M 145.058594 245.390625 L 145.910156 245.390625 L 145.363281 239.855469 L 144.554688 231.660156 C 144.554688 231.609375 144.53125 231.570312 144.515625 231.523438 C 144.441406 231.367188 144.277344 231.257812 144.09375 231.277344 C 143.859375 231.296875 143.691406 231.507812 143.714844 231.738281 L 143.726562 231.875 L 144.527344 240.035156 L 145.050781 245.398438 Z M 68.234375 245.816406 L 80.984375 245.816406 C 81.21875 245.816406 81.410156 245.625 81.410156 245.390625 C 81.410156 245.160156 81.21875 244.96875 80.984375 244.96875 L 68.234375 244.96875 C 68.003906 244.96875 67.8125 245.160156 67.8125 245.390625 C 67.8125 245.625 68.003906 245.816406 68.234375 245.816406 Z M 85.648438 250.511719 C 85.648438 248.628906 87.179688 247.097656 89.066406 247.097656 C 90.953125 247.097656 92.476562 248.628906 92.476562 250.511719 C 92.476562 252.394531 90.945312 253.929688 89.066406 253.929688 C 87.183594 253.929688 85.648438 252.398438 85.648438 250.511719 Z M 86.496094 250.511719 C 86.496094 251.929688 87.648438 253.082031 89.066406 253.082031 C 90.484375 253.082031 91.628906 251.929688 91.628906 250.511719 C 91.628906 249.09375 90.476562 247.945312 89.066406 247.945312 C 87.652344 247.945312 86.496094 249.097656 86.496094 250.511719 Z M 134.359375 244.96875 L 121.605469 244.96875 C 121.375 244.96875 121.183594 245.160156 121.183594 245.390625 C 121.183594 245.625 121.375 245.816406 121.605469 245.816406 L 134.359375 245.816406 C 134.589844 245.816406 134.78125 245.625 134.78125 245.390625 C 134.78125 245.160156 134.589844 244.96875 134.359375 244.96875 Z M 145.847656 250.511719 C 145.847656 252.394531 144.316406 253.929688 142.4375 253.929688 C 140.558594 253.929688 139.027344 252.398438 139.027344 250.511719 C 139.027344 248.625 140.558594 247.097656 142.4375 247.097656 C 144.316406 247.097656 145.847656 248.628906 145.847656 250.511719 Z M 145 250.511719 C 145 249.09375 143.847656 247.945312 142.4375 247.945312 C 141.027344 247.945312 139.875 249.097656 139.875 250.511719 C 139.875 251.925781 141.027344 253.082031 142.4375 253.082031 C 143.847656 253.082031 145 251.929688 145 250.511719 Z M 174.980469 245.816406 L 187.730469 245.816406 C 187.960938 245.816406 188.152344 245.625 188.152344 245.390625 C 188.152344 245.160156 187.960938 244.96875 187.730469 244.96875 L 174.980469 244.96875 C 174.75 244.96875 174.554688 245.160156 174.554688 245.390625 C 174.554688 245.625 174.75 245.816406 174.980469 245.816406 Z M 199.222656 250.511719 C 199.222656 252.394531 197.691406 253.929688 195.808594 253.929688 C 193.929688 253.929688 192.398438 252.398438 192.398438 250.511719 C 192.398438 248.625 193.929688 247.097656 195.808594 247.097656 C 197.691406 247.097656 199.222656 248.628906 199.222656 250.511719 Z M 198.375 250.511719 C 198.375 249.09375 197.222656 247.945312 195.808594 247.945312 C 194.398438 247.945312 193.246094 249.097656 193.246094 250.511719 C 193.246094 251.925781 194.398438 253.082031 195.808594 253.082031 C 197.222656 253.082031 198.375 251.929688 198.375 250.511719 Z M 59.894531 292.691406 C 59.894531 287.832031 55.941406 283.875 51.085938 283.875 C 50.855469 283.875 50.664062 284.066406 50.664062 284.296875 C 50.664062 284.53125 50.855469 284.722656 51.085938 284.722656 C 55.472656 284.722656 59.046875 288.292969 59.046875 292.691406 C 59.046875 297.085938 55.480469 300.660156 51.085938 300.660156 C 50.855469 300.660156 50.664062 300.851562 50.664062 301.082031 C 50.664062 301.3125 50.855469 301.507812 51.085938 301.507812 C 55.941406 301.507812 59.894531 297.550781 59.894531 292.691406 Z M 54.542969 292.691406 C 54.542969 290.925781 53.214844 289.464844 51.511719 289.253906 L 51.511719 296.125 C 53.214844 295.917969 54.542969 294.453125 54.542969 292.691406 Z M 51.085938 297.003906 C 50.855469 297.003906 50.664062 296.808594 50.664062 296.578125 L 50.664062 288.808594 C 50.664062 288.578125 50.855469 288.382812 51.085938 288.382812 C 53.457031 288.382812 55.390625 290.316406 55.390625 292.691406 C 55.390625 295.0625 53.457031 296.996094 51.085938 296.996094 Z M 51.511719 296.125 C 53.214844 295.917969 54.542969 294.453125 54.542969 292.691406 C 54.542969 290.925781 53.214844 289.464844 51.511719 289.253906 Z M 111.09375 292.691406 C 111.09375 297.550781 107.140625 301.507812 102.285156 301.507812 C 97.429688 301.507812 93.476562 297.550781 93.476562 292.691406 C 93.476562 287.832031 97.429688 283.875 102.285156 283.875 C 107.140625 283.875 111.09375 287.832031 111.09375 292.691406 Z M 110.246094 292.691406 C 110.246094 288.300781 106.675781 284.722656 102.285156 284.722656 C 97.890625 284.722656 94.324219 288.292969 94.324219 292.691406 C 94.324219 297.085938 97.890625 300.660156 102.285156 300.660156 C 106.675781 300.660156 110.246094 297.085938 110.246094 292.691406 Z M 105.746094 292.691406 C 105.746094 290.78125 104.191406 289.230469 102.289062 289.230469 C 100.386719 289.230469 98.835938 290.785156 98.835938 292.691406 C 98.835938 294.59375 100.386719 296.148438 102.289062 296.148438 C 104.191406 296.148438 105.746094 294.59375 105.746094 292.691406 Z M 106.59375 292.691406 C 106.59375 295.0625 104.660156 296.996094 102.289062 296.996094 C 99.917969 296.996094 97.988281 295.0625 97.988281 292.691406 C 97.988281 290.316406 99.917969 288.382812 102.289062 288.382812 C 104.660156 288.382812 106.59375 290.316406 106.59375 292.691406 Z M 102.285156 296.15625 C 104.191406 296.15625 105.742188 294.601562 105.742188 292.695312 C 105.742188 290.792969 104.1875 289.238281 102.285156 289.238281 C 100.382812 289.238281 98.828125 290.792969 98.828125 292.695312 C 98.828125 294.601562 100.382812 296.15625 102.285156 296.15625 Z M 85.492188 292.691406 C 85.492188 297.550781 81.539062 301.507812 76.683594 301.507812 C 71.828125 301.507812 67.875 297.550781 67.875 292.691406 C 67.875 287.832031 71.828125 283.875 76.683594 283.875 C 81.539062 283.875 85.492188 287.832031 85.492188 292.691406 Z M 84.644531 292.691406 C 84.644531 288.300781 81.074219 284.722656 76.683594 284.722656 C 72.289062 284.722656 68.722656 288.292969 68.722656 292.691406 C 68.722656 297.085938 72.289062 300.660156 76.683594 300.660156 C 81.074219 300.660156 84.644531 297.085938 84.644531 292.691406 Z M 80.144531 292.691406 C 80.144531 290.78125 78.589844 289.230469 76.6875 289.230469 C 74.785156 289.230469 73.234375 290.785156 73.234375 292.691406 C 73.234375 294.59375 74.785156 296.148438 76.6875 296.148438 C 78.589844 296.148438 80.144531 294.59375 80.144531 292.691406 Z M 80.992188 292.691406 C 80.992188 295.0625 79.058594 296.996094 76.6875 296.996094 C 74.316406 296.996094 72.386719 295.0625 72.386719 292.691406 C 72.386719 290.316406 74.316406 288.382812 76.6875 288.382812 C 79.058594 288.382812 80.992188 290.316406 80.992188 292.691406 Z M 76.6875 296.15625 C 78.597656 296.15625 80.144531 294.601562 80.144531 292.695312 C 80.144531 290.792969 78.589844 289.238281 76.6875 289.238281 C 74.785156 289.238281 73.234375 290.792969 73.234375 292.695312 C 73.234375 294.601562 74.785156 296.15625 76.6875 296.15625 Z M 136.695312 292.691406 C 136.695312 297.550781 132.742188 301.507812 127.886719 301.507812 C 123.03125 301.507812 119.078125 297.550781 119.078125 292.691406 C 119.078125 287.832031 123.03125 283.875 127.886719 283.875 C 132.742188 283.875 136.695312 287.832031 136.695312 292.691406 Z M 135.847656 292.691406 C 135.847656 288.300781 132.28125 284.722656 127.886719 284.722656 C 123.492188 284.722656 119.925781 288.292969 119.925781 292.691406 C 119.925781 297.085938 123.492188 300.660156 127.886719 300.660156 C 132.28125 300.660156 135.847656 297.085938 135.847656 292.691406 Z M 127.886719 289.230469 C 125.976562 289.230469 124.429688 290.785156 124.429688 292.691406 C 124.429688 294.59375 125.984375 296.148438 127.886719 296.148438 C 129.789062 296.148438 131.34375 294.59375 131.34375 292.691406 C 131.34375 290.785156 129.789062 289.230469 127.886719 289.230469 Z M 132.1875 292.691406 C 132.1875 295.0625 130.257812 296.996094 127.886719 296.996094 C 125.515625 296.996094 123.582031 295.0625 123.582031 292.691406 C 123.582031 290.316406 125.515625 288.382812 127.886719 288.382812 C 130.257812 288.382812 132.1875 290.316406 132.1875 292.691406 Z M 131.34375 292.691406 C 131.34375 290.78125 129.789062 289.230469 127.886719 289.230469 C 125.984375 289.230469 124.429688 290.785156 124.429688 292.691406 C 124.429688 294.59375 125.984375 296.148438 127.886719 296.148438 C 129.789062 296.148438 131.34375 294.59375 131.34375 292.691406 Z M 162.292969 292.691406 C 162.292969 297.550781 158.339844 301.507812 153.484375 301.507812 C 148.625 301.507812 144.675781 297.550781 144.675781 292.691406 C 144.675781 287.832031 148.625 283.875 153.484375 283.875 C 158.339844 283.875 162.292969 287.832031 162.292969 292.691406 Z M 161.445312 292.691406 C 161.445312 288.300781 157.875 284.722656 153.484375 284.722656 C 149.089844 284.722656 145.519531 288.292969 145.519531 292.691406 C 145.519531 297.085938 149.089844 300.660156 153.484375 300.660156 C 157.875 300.660156 161.445312 297.085938 161.445312 292.691406 Z M 153.484375 289.230469 C 151.574219 289.230469 150.027344 290.785156 150.027344 292.691406 C 150.027344 294.59375 151.578125 296.148438 153.484375 296.148438 C 155.386719 296.148438 156.9375 294.59375 156.9375 292.691406 C 156.9375 290.785156 155.386719 289.230469 153.484375 289.230469 Z M 157.792969 292.691406 C 157.792969 295.0625 155.859375 296.996094 153.488281 296.996094 C 151.117188 296.996094 149.1875 295.0625 149.1875 292.691406 C 149.1875 290.316406 151.117188 288.382812 153.488281 288.382812 C 155.859375 288.382812 157.792969 290.316406 157.792969 292.691406 Z M 156.945312 292.691406 C 156.945312 290.78125 155.390625 289.230469 153.488281 289.230469 C 151.585938 289.230469 150.03125 290.785156 150.03125 292.691406 C 150.03125 294.59375 151.585938 296.148438 153.488281 296.148438 C 155.390625 296.148438 156.945312 294.59375 156.945312 292.691406 Z M 187.894531 292.691406 C 187.894531 297.550781 183.941406 301.507812 179.085938 301.507812 C 174.230469 301.507812 170.277344 297.550781 170.277344 292.691406 C 170.277344 287.832031 174.230469 283.875 179.085938 283.875 C 183.941406 283.875 187.894531 287.832031 187.894531 292.691406 Z M 187.046875 292.691406 C 187.046875 288.300781 183.476562 284.722656 179.085938 284.722656 C 174.691406 284.722656 171.121094 288.292969 171.121094 292.691406 C 171.121094 297.085938 174.691406 300.660156 179.085938 300.660156 C 183.476562 300.660156 187.046875 297.085938 187.046875 292.691406 Z M 179.085938 289.230469 C 177.175781 289.230469 175.628906 290.785156 175.628906 292.691406 C 175.628906 294.59375 177.183594 296.148438 179.085938 296.148438 C 180.988281 296.148438 182.539062 294.59375 182.539062 292.691406 C 182.539062 290.785156 180.988281 289.230469 179.085938 289.230469 Z M 183.386719 292.691406 C 183.386719 295.0625 181.457031 296.996094 179.085938 296.996094 C 176.714844 296.996094 174.78125 295.0625 174.78125 292.691406 C 174.78125 290.316406 176.714844 288.382812 179.085938 288.382812 C 181.457031 288.382812 183.386719 290.316406 183.386719 292.691406 Z M 182.539062 292.691406 C 182.539062 290.78125 180.988281 289.230469 179.085938 289.230469 C 177.183594 289.230469 175.628906 290.785156 175.628906 292.691406 C 175.628906 294.59375 177.183594 296.148438 179.085938 296.148438 C 180.988281 296.148438 182.539062 294.59375 182.539062 292.691406 Z M 213.488281 292.691406 C 213.488281 297.550781 209.539062 301.507812 204.679688 301.507812 C 199.824219 301.507812 195.871094 297.550781 195.871094 292.691406 C 195.871094 287.832031 199.824219 283.875 204.679688 283.875 C 209.539062 283.875 213.488281 287.832031 213.488281 292.691406 Z M 212.644531 292.691406 C 212.644531 288.300781 209.074219 284.722656 204.679688 284.722656 C 200.289062 284.722656 196.71875 288.292969 196.71875 292.691406 C 196.71875 297.085938 200.289062 300.660156 204.679688 300.660156 C 209.074219 300.660156 212.644531 297.085938 212.644531 292.691406 Z M 208.140625 292.691406 C 208.140625 290.78125 206.589844 289.230469 204.6875 289.230469 C 202.785156 289.230469 201.230469 290.785156 201.230469 292.691406 C 201.230469 294.59375 202.785156 296.148438 204.6875 296.148438 C 206.589844 296.148438 208.140625 294.59375 208.140625 292.691406 Z M 208.988281 292.691406 C 208.988281 295.0625 207.058594 296.996094 204.6875 296.996094 C 202.316406 296.996094 200.382812 295.0625 200.382812 292.691406 C 200.382812 290.316406 202.316406 288.382812 204.6875 288.382812 C 207.058594 288.382812 208.988281 290.316406 208.988281 292.691406 Z M 204.679688 296.15625 C 206.589844 296.15625 208.136719 294.601562 208.136719 292.695312 C 208.136719 290.792969 206.582031 289.238281 204.679688 289.238281 C 202.777344 289.238281 201.226562 290.792969 201.226562 292.695312 C 201.226562 294.601562 202.777344 296.15625 204.679688 296.15625 Z M 239.089844 292.691406 C 239.089844 297.550781 235.140625 301.507812 230.28125 301.507812 C 225.425781 301.507812 221.472656 297.550781 221.472656 292.691406 C 221.472656 287.832031 225.425781 283.875 230.28125 283.875 C 235.140625 283.875 239.089844 287.832031 239.089844 292.691406 Z M 238.246094 292.691406 C 238.246094 288.300781 234.675781 284.722656 230.28125 284.722656 C 225.890625 284.722656 222.320312 288.292969 222.320312 292.691406 C 222.320312 297.085938 225.890625 300.660156 230.28125 300.660156 C 234.675781 300.660156 238.246094 297.085938 238.246094 292.691406 Z M 233.746094 292.691406 C 233.746094 290.78125 232.191406 289.230469 230.289062 289.230469 C 228.386719 289.230469 226.832031 290.785156 226.832031 292.691406 C 226.832031 294.59375 228.386719 296.148438 230.289062 296.148438 C 232.191406 296.148438 233.746094 294.59375 233.746094 292.691406 Z M 234.589844 292.691406 C 234.589844 295.0625 232.660156 296.996094 230.289062 296.996094 C 227.917969 296.996094 225.984375 295.0625 225.984375 292.691406 C 225.984375 290.316406 227.917969 288.382812 230.289062 288.382812 C 232.660156 288.382812 234.589844 290.316406 234.589844 292.691406 Z M 230.28125 296.15625 C 232.191406 296.15625 233.738281 294.601562 233.738281 292.695312 C 233.738281 290.792969 232.1875 289.238281 230.28125 289.238281 C 228.378906 289.238281 226.828125 290.792969 226.828125 292.695312 C 226.828125 294.601562 228.378906 296.15625 230.28125 296.15625 Z M 264.695312 292.691406 C 264.695312 297.550781 260.742188 301.507812 255.886719 301.507812 C 251.027344 301.507812 247.074219 297.550781 247.074219 292.691406 C 247.074219 287.832031 251.027344 283.875 255.886719 283.875 C 260.742188 283.875 264.695312 287.832031 264.695312 292.691406 Z M 263.847656 292.691406 C 263.847656 288.300781 260.277344 284.722656 255.886719 284.722656 C 251.492188 284.722656 247.921875 288.292969 247.921875 292.691406 C 247.921875 297.085938 251.492188 300.660156 255.886719 300.660156 C 260.277344 300.660156 263.847656 297.085938 263.847656 292.691406 Z M 259.339844 292.691406 C 259.339844 290.78125 257.789062 289.230469 255.886719 289.230469 C 253.980469 289.230469 252.429688 290.785156 252.429688 292.691406 C 252.429688 294.59375 253.980469 296.148438 255.886719 296.148438 C 257.789062 296.148438 259.339844 294.59375 259.339844 292.691406 Z M 260.1875 292.691406 C 260.1875 295.0625 258.257812 296.996094 255.886719 296.996094 C 253.511719 296.996094 251.582031 295.0625 251.582031 292.691406 C 251.582031 290.316406 253.511719 288.382812 255.886719 288.382812 C 258.257812 288.382812 260.1875 290.316406 260.1875 292.691406 Z M 255.886719 296.15625 C 257.792969 296.15625 259.339844 294.601562 259.339844 292.695312 C 259.339844 290.792969 257.789062 289.238281 255.886719 289.238281 C 253.980469 289.238281 252.429688 290.792969 252.429688 292.695312 C 252.429688 294.601562 253.980469 296.15625 255.886719 296.15625 Z M 290.289062 292.691406 C 290.289062 297.550781 286.335938 301.507812 281.480469 301.507812 C 276.625 301.507812 272.671875 297.550781 272.671875 292.691406 C 272.671875 287.832031 276.625 283.875 281.480469 283.875 C 286.335938 283.875 290.289062 287.832031 290.289062 292.691406 Z M 289.441406 292.691406 C 289.441406 288.300781 285.875 284.722656 281.480469 284.722656 C 277.089844 284.722656 273.519531 288.292969 273.519531 292.691406 C 273.519531 297.085938 277.089844 300.660156 281.480469 300.660156 C 285.875 300.660156 289.441406 297.085938 289.441406 292.691406 Z M 281.480469 289.230469 C 279.574219 289.230469 278.027344 290.785156 278.027344 292.691406 C 278.027344 294.59375 279.578125 296.148438 281.480469 296.148438 C 283.382812 296.148438 284.9375 294.59375 284.9375 292.691406 C 284.9375 290.785156 283.382812 289.230469 281.480469 289.230469 Z M 285.789062 292.691406 C 285.789062 295.0625 283.859375 296.996094 281.488281 296.996094 C 279.117188 296.996094 277.183594 295.0625 277.183594 292.691406 C 277.183594 290.316406 279.117188 288.382812 281.488281 288.382812 C 283.859375 288.382812 285.789062 290.316406 285.789062 292.691406 Z M 284.941406 292.691406 C 284.941406 290.78125 283.390625 289.230469 281.488281 289.230469 C 279.582031 289.230469 278.03125 290.785156 278.03125 292.691406 C 278.03125 294.59375 279.582031 296.148438 281.488281 296.148438 C 283.390625 296.148438 284.941406 294.59375 284.941406 292.691406 Z M 315.890625 292.691406 C 315.890625 297.550781 311.9375 301.507812 307.082031 301.507812 C 302.226562 301.507812 298.273438 297.550781 298.273438 292.691406 C 298.273438 287.832031 302.226562 283.875 307.082031 283.875 C 311.9375 283.875 315.890625 287.832031 315.890625 292.691406 Z M 315.046875 292.691406 C 315.046875 288.300781 311.476562 284.722656 307.082031 284.722656 C 302.691406 284.722656 299.121094 288.292969 299.121094 292.691406 C 299.121094 297.085938 302.691406 300.660156 307.082031 300.660156 C 311.476562 300.660156 315.046875 297.085938 315.046875 292.691406 Z M 307.082031 289.230469 C 305.175781 289.230469 303.628906 290.785156 303.628906 292.691406 C 303.628906 294.59375 305.179688 296.148438 307.082031 296.148438 C 308.984375 296.148438 310.539062 294.59375 310.539062 292.691406 C 310.539062 290.785156 308.984375 289.230469 307.082031 289.230469 Z M 311.386719 292.691406 C 311.386719 295.0625 309.453125 296.996094 307.082031 296.996094 C 304.710938 296.996094 302.78125 295.0625 302.78125 292.691406 C 302.78125 290.316406 304.710938 288.382812 307.082031 288.382812 C 309.453125 288.382812 311.386719 290.316406 311.386719 292.691406 Z M 310.539062 292.691406 C 310.539062 290.78125 308.984375 289.230469 307.082031 289.230469 C 305.179688 289.230469 303.628906 290.785156 303.628906 292.691406 C 303.628906 294.59375 305.179688 296.148438 307.082031 296.148438 C 308.984375 296.148438 310.539062 294.59375 310.539062 292.691406 Z M 324.390625 261.078125 L 324.390625 319.070312 C 324.390625 319.300781 324.199219 319.492188 323.964844 319.492188 C 323.734375 319.492188 323.542969 319.300781 323.542969 319.070312 L 323.542969 261.496094 L 51.085938 261.496094 C 50.855469 261.496094 50.664062 261.304688 50.664062 261.074219 C 50.664062 260.839844 50.855469 260.648438 51.085938 260.648438 L 51.085938 261.074219 L 233.492188 261.074219 L 233.492188 255.886719 L 233.066406 255.886719 L 233.066406 245.808594 L 228.347656 245.808594 C 228.113281 245.808594 227.921875 245.617188 227.921875 245.386719 C 227.921875 245.15625 228.113281 244.960938 228.347656 244.960938 L 233.066406 244.960938 L 233.066406 212.933594 C 233.050781 212.863281 233.050781 212.792969 233.066406 212.722656 L 233.066406 173.371094 C 233.066406 173.136719 233.257812 172.945312 233.492188 172.945312 L 323.964844 172.945312 C 324.199219 172.945312 324.390625 173.136719 324.390625 173.371094 C 324.390625 173.601562 324.199219 173.792969 323.964844 173.792969 L 233.914062 173.792969 L 233.914062 212.554688 L 259.222656 222.894531 C 259.378906 222.964844 259.488281 223.117188 259.488281 223.285156 L 259.488281 260.648438 L 323.972656 260.648438 C 324.203125 260.648438 324.394531 260.839844 324.394531 261.074219 Z M 233.914062 260.65625 L 258.636719 260.65625 L 258.636719 223.574219 L 233.914062 213.46875 Z M 323.964844 185.945312 C 324.199219 185.945312 324.390625 185.75 324.390625 185.519531 C 324.390625 185.289062 324.199219 185.097656 323.964844 185.097656 L 271.964844 185.097656 C 271.734375 185.097656 271.542969 185.289062 271.542969 185.519531 C 271.542969 185.75 271.734375 185.945312 271.964844 185.945312 Z M 271.964844 235.039062 C 271.734375 235.039062 271.542969 235.230469 271.542969 235.464844 C 271.542969 235.695312 271.734375 235.886719 271.964844 235.886719 L 323.964844 235.886719 C 324.199219 235.886719 324.390625 235.695312 324.390625 235.464844 C 324.390625 235.230469 324.199219 235.039062 323.964844 235.039062 Z M 297.800781 229.015625 C 297.800781 229.988281 297.007812 230.777344 296.039062 230.777344 L 277.601562 230.777344 C 276.628906 230.777344 275.839844 229.988281 275.839844 229.015625 C 275.839844 228.042969 276.628906 227.253906 277.601562 227.253906 L 296.039062 227.253906 C 297.007812 227.253906 297.800781 228.042969 297.800781 229.015625 Z M 296.953125 229.015625 C 296.953125 228.511719 296.546875 228.101562 296.039062 228.101562 L 277.601562 228.101562 C 277.097656 228.101562 276.6875 228.507812 276.6875 229.015625 C 276.6875 229.523438 277.09375 229.929688 277.601562 229.929688 L 296.039062 229.929688 C 296.539062 229.929688 296.953125 229.523438 296.953125 229.015625 Z M 297.800781 222.664062 C 297.800781 223.636719 297.007812 224.425781 296.039062 224.425781 L 277.601562 224.425781 C 276.628906 224.425781 275.839844 223.636719 275.839844 222.664062 C 275.839844 221.691406 276.628906 220.902344 277.601562 220.902344 L 296.039062 220.902344 C 297.007812 220.902344 297.800781 221.691406 297.800781 222.664062 Z M 296.953125 222.664062 C 296.953125 222.160156 296.546875 221.746094 296.039062 221.746094 L 277.601562 221.746094 C 277.097656 221.746094 276.6875 222.15625 276.6875 222.664062 C 276.6875 223.171875 277.09375 223.578125 277.601562 223.578125 L 296.039062 223.578125 C 296.539062 223.578125 296.953125 223.171875 296.953125 222.664062 Z M 297.800781 216.304688 C 297.800781 217.277344 297.007812 218.070312 296.039062 218.070312 L 277.601562 218.070312 C 276.628906 218.070312 275.839844 217.277344 275.839844 216.304688 C 275.839844 215.335938 276.628906 214.542969 277.601562 214.542969 L 296.039062 214.542969 C 297.007812 214.542969 297.800781 215.335938 297.800781 216.304688 Z M 296.953125 216.304688 C 296.953125 215.804688 296.546875 215.390625 296.039062 215.390625 L 277.601562 215.390625 C 277.097656 215.390625 276.6875 215.796875 276.6875 216.304688 C 276.6875 216.816406 277.09375 217.222656 277.601562 217.222656 L 296.039062 217.222656 C 296.539062 217.222656 296.953125 216.816406 296.953125 216.304688 Z M 275.847656 209.949219 C 275.847656 208.976562 276.636719 208.1875 277.609375 208.1875 L 296.042969 208.1875 C 297.015625 208.1875 297.804688 208.976562 297.804688 209.949219 C 297.804688 210.921875 297.015625 211.710938 296.042969 211.710938 L 277.609375 211.710938 C 276.636719 211.710938 275.847656 210.921875 275.847656 209.949219 Z M 276.691406 209.949219 C 276.691406 210.453125 277.097656 210.863281 277.609375 210.863281 L 296.042969 210.863281 C 296.546875 210.863281 296.957031 210.457031 296.957031 209.949219 C 296.957031 209.441406 296.550781 209.035156 296.042969 209.035156 L 277.609375 209.035156 C 277.105469 209.035156 276.691406 209.441406 276.691406 209.949219 Z M 271.542969 245.390625 L 271.542969 241.324219 C 271.542969 241.089844 271.734375 240.898438 271.964844 240.898438 L 293.882812 240.898438 C 294.113281 240.898438 294.304688 241.089844 294.304688 241.324219 L 294.304688 245.390625 C 294.304688 245.625 294.113281 245.816406 293.882812 245.816406 L 271.964844 245.816406 C 271.734375 245.816406 271.542969 245.625 271.542969 245.390625 Z M 272.390625 244.96875 L 293.457031 244.96875 L 293.457031 241.746094 L 272.390625 241.746094 Z M 66.089844 267.449219 L 51.085938 267.449219 C 50.855469 267.449219 50.664062 267.253906 50.664062 267.023438 C 50.664062 266.792969 50.855469 266.601562 51.085938 266.601562 L 66.511719 266.601562 C 66.746094 266.601562 66.9375 266.792969 66.9375 267.023438 L 66.9375 270.429688 L 100.953125 270.429688 L 100.953125 267.023438 C 100.953125 266.792969 101.144531 266.601562 101.375 266.601562 L 129.15625 266.601562 C 129.386719 266.601562 129.582031 266.792969 129.582031 267.023438 L 129.582031 270.429688 L 163.597656 270.429688 L 163.597656 267.023438 C 163.597656 266.792969 163.789062 266.601562 164.019531 266.601562 L 191.800781 266.601562 C 192.03125 266.601562 192.222656 266.792969 192.222656 267.023438 L 192.222656 270.429688 L 226.238281 270.429688 L 226.238281 267.023438 C 226.238281 266.792969 226.433594 266.601562 226.664062 266.601562 L 254.445312 266.601562 C 254.675781 266.601562 254.867188 266.792969 254.867188 267.023438 L 254.867188 270.429688 L 288.882812 270.429688 L 288.882812 267.023438 C 288.882812 266.792969 289.074219 266.601562 289.308594 266.601562 L 317.089844 266.601562 C 317.320312 266.601562 317.511719 266.792969 317.511719 267.023438 L 317.511719 274.6875 C 317.511719 274.917969 317.320312 275.109375 317.089844 275.109375 L 289.308594 275.109375 C 289.074219 275.109375 288.882812 274.917969 288.882812 274.6875 L 288.882812 271.277344 L 254.867188 271.277344 L 254.867188 274.6875 C 254.867188 274.917969 254.675781 275.109375 254.445312 275.109375 L 226.664062 275.109375 C 226.433594 275.109375 226.238281 274.917969 226.238281 274.6875 L 226.238281 271.277344 L 192.222656 271.277344 L 192.222656 274.6875 C 192.222656 274.917969 192.03125 275.109375 191.800781 275.109375 L 164.019531 275.109375 C 163.789062 275.109375 163.597656 274.917969 163.597656 274.6875 L 163.597656 271.277344 L 129.582031 271.277344 L 129.582031 274.6875 C 129.582031 274.917969 129.386719 275.109375 129.15625 275.109375 L 101.375 275.109375 C 101.144531 275.109375 100.953125 274.917969 100.953125 274.6875 L 100.953125 271.277344 L 66.9375 271.277344 L 66.9375 274.6875 C 66.9375 274.917969 66.746094 275.109375 66.511719 275.109375 L 51.085938 275.109375 C 50.855469 275.109375 50.664062 274.917969 50.664062 274.6875 C 50.664062 274.453125 50.855469 274.261719 51.085938 274.261719 L 66.089844 274.261719 Z M 289.730469 274.261719 L 316.664062 274.261719 L 316.664062 267.449219 L 289.730469 267.449219 Z M 227.085938 274.261719 L 254.023438 274.261719 L 254.023438 267.449219 L 227.085938 267.449219 Z M 164.441406 274.261719 L 191.378906 274.261719 L 191.378906 267.449219 L 164.441406 267.449219 Z M 101.800781 274.261719 L 128.734375 274.261719 L 128.734375 267.449219 L 101.800781 267.449219 Z M 247.867188 198.523438 C 247.867188 200.097656 246.589844 201.375 245.015625 201.375 C 243.441406 201.375 242.164062 200.097656 242.164062 198.523438 C 242.164062 196.945312 243.441406 195.667969 245.015625 195.667969 C 246.589844 195.667969 247.867188 196.945312 247.867188 198.523438 Z M 247.019531 198.523438 C 247.019531 197.414062 246.121094 196.515625 245.015625 196.515625 C 243.910156 196.515625 243.011719 197.414062 243.011719 198.523438 C 243.011719 199.628906 243.910156 200.527344 245.015625 200.527344 C 246.121094 200.527344 247.019531 199.628906 247.019531 198.523438 Z M 247.867188 208.683594 C 247.867188 210.257812 246.589844 211.535156 245.015625 211.535156 C 243.441406 211.535156 242.164062 210.257812 242.164062 208.683594 C 242.164062 207.105469 243.441406 205.828125 245.015625 205.828125 C 246.589844 205.828125 247.867188 207.105469 247.867188 208.683594 Z M 247.019531 208.683594 C 247.019531 207.574219 246.121094 206.675781 245.015625 206.675781 C 243.910156 206.675781 243.011719 207.574219 243.011719 208.683594 C 243.011719 209.789062 243.910156 210.6875 245.015625 210.6875 C 246.121094 210.6875 247.019531 209.789062 247.019531 208.683594 Z M 233.492188 261.078125 L 233.492188 255.890625 L 51.085938 255.890625 L 51.085938 261.078125 Z M 233.492188 261.078125 " fill-opacity="1" fill-rule="nonzero"/></g></svg>