<svg xmlns="http://www.w3.org/2000/svg" xmlns:xlink="http://www.w3.org/1999/xlink" width="500" zoomAndPan="magnify" viewBox="0 0 375 374.999991" height="500" preserveAspectRatio="xMidYMid meet" version="1.0"><defs><clipPath id="a8cfcd8882"><path d="M 28.023438 13 L 346.773438 13 L 346.773438 207 L 28.023438 207 Z M 28.023438 13 " clip-rule="nonzero"/></clipPath></defs><path fill="#faab11" d="M 286.203125 196.210938 C 279.847656 207.847656 267.488281 215.757812 253.308594 215.757812 C 239.148438 215.757812 226.78125 207.847656 220.425781 196.210938 C 214.0625 207.847656 201.707031 215.757812 187.535156 215.757812 C 173.371094 215.757812 161.027344 207.847656 154.660156 196.210938 C 148.296875 207.847656 135.941406 215.757812 121.777344 215.757812 C 107.597656 215.757812 95.242188 207.847656 88.886719 196.210938 C 83.214844 206.574219 72.792969 213.980469 60.578125 215.476562 L 60.578125 361.785156 L 87.890625 361.785156 L 87.890625 242.144531 C 87.890625 239.625 89.925781 237.578125 92.457031 237.578125 L 162.332031 237.578125 C 164.851562 237.578125 166.902344 239.625 166.902344 242.144531 L 166.902344 361.785156 L 314.507812 361.785156 L 314.507812 215.476562 C 302.296875 213.980469 291.871094 206.574219 286.203125 196.210938 Z M 287.191406 324.457031 C 287.191406 326.976562 285.140625 329.023438 282.625 329.023438 L 200.316406 329.023438 C 197.796875 329.023438 195.75 326.976562 195.75 324.457031 L 195.75 242.144531 C 195.75 239.625 197.796875 237.578125 200.316406 237.578125 L 282.625 237.578125 C 285.140625 237.578125 287.191406 239.625 287.191406 242.144531 Z M 287.191406 324.457031 " fill-opacity="1" fill-rule="nonzero"/><path fill="#000000" d="M 157.765625 246.710938 L 157.765625 361.785156 L 97.023438 361.785156 L 97.023438 246.710938 Z M 246.035156 246.710938 L 246.035156 278.738281 L 278.054688 278.738281 L 278.054688 246.710938 Z M 246.035156 287.871094 L 246.035156 319.890625 L 278.054688 319.890625 L 278.054688 287.871094 Z M 204.882812 287.871094 L 204.882812 319.890625 L 236.902344 319.890625 L 236.902344 287.871094 Z M 204.882812 246.710938 L 204.882812 278.738281 L 236.902344 278.738281 L 236.902344 246.710938 Z M 204.882812 246.710938 " fill-opacity="1" fill-rule="nonzero"/><g clip-path="url(#a8cfcd8882)"><path fill="#1800ad" d="M 94.199219 13.210938 L 94.199219 80.152344 L 101.292969 80.152344 C 101.480469 80.140625 101.667969 80.140625 101.863281 80.152344 L 273.25 80.152344 C 273.425781 80.140625 273.597656 80.140625 273.773438 80.152344 L 280.886719 80.152344 L 280.886719 13.210938 Z M 133.117188 41.925781 C 146.683594 47.160156 146.027344 56.125 145.507812 58.75 C 144.246094 65.027344 138.085938 70.019531 131.675781 70.019531 L 131.355469 70.019531 C 122.042969 69.769531 118.171875 64.066406 117.335938 60.734375 C 116.730469 58.289062 118.226562 55.804688 120.664062 55.199219 C 123.238281 54.601562 125.585938 56.089844 126.210938 58.527344 C 126.289062 58.75 127.234375 60.769531 131.597656 60.886719 C 133.5 60.941406 136.136719 59.042969 136.554688 56.96875 C 137.007812 54.683594 134.5 52.242188 129.832031 50.4375 C 116.257812 45.21875 116.925781 36.238281 117.441406 33.613281 C 118.699219 27.335938 124.847656 22.351562 131.257812 22.351562 L 131.597656 22.351562 C 140.90625 22.601562 144.78125 28.308594 145.617188 31.636719 C 146.222656 34.09375 144.71875 36.578125 142.289062 37.183594 C 139.757812 37.707031 137.453125 36.335938 136.792969 34.003906 C 136.625 33.558594 135.648438 31.601562 131.355469 31.484375 C 128.863281 31.691406 126.808594 33.335938 126.398438 35.402344 C 125.945312 37.6875 128.453125 40.128906 133.117188 41.925781 Z M 187.382812 65.453125 C 187.382812 67.972656 185.335938 70.019531 182.816406 70.019531 C 180.296875 70.019531 178.25 67.972656 178.25 65.453125 L 178.25 51.351562 L 160.222656 51.351562 L 160.222656 65.453125 C 160.222656 67.972656 158.175781 70.019531 155.65625 70.019531 C 153.136719 70.019531 151.089844 67.972656 151.089844 65.453125 L 151.089844 26.917969 C 151.089844 24.398438 153.136719 22.351562 155.65625 22.351562 C 158.175781 22.351562 160.222656 24.398438 160.222656 26.917969 L 160.222656 42.21875 L 178.25 42.21875 L 178.25 26.917969 C 178.25 24.398438 180.296875 22.351562 182.816406 22.351562 C 185.335938 22.351562 187.382812 24.398438 187.382812 26.917969 Z M 229.140625 51.871094 C 229.140625 61.875 220.996094 70.019531 211 70.019531 C 200.996094 70.019531 192.847656 61.875 192.847656 51.871094 L 192.847656 40.503906 C 192.847656 30.496094 200.996094 22.351562 211 22.351562 C 220.996094 22.351562 229.140625 30.496094 229.140625 40.503906 Z M 256.40625 51.351562 L 243.742188 51.351562 L 243.742188 65.453125 C 243.742188 67.972656 241.703125 70.019531 239.171875 70.019531 C 236.65625 70.019531 234.605469 67.972656 234.605469 65.453125 L 234.605469 26.917969 C 234.605469 24.398438 236.65625 22.351562 239.171875 22.351562 L 256.40625 22.351562 C 264.390625 22.351562 270.898438 28.859375 270.898438 36.851562 C 270.898438 44.847656 264.390625 51.351562 256.40625 51.351562 Z M 261.765625 36.851562 C 261.765625 39.808594 259.363281 42.21875 256.40625 42.21875 L 243.742188 42.21875 L 243.742188 31.484375 L 256.40625 31.484375 C 259.363281 31.484375 261.765625 33.886719 261.765625 36.851562 Z M 220.007812 40.503906 L 220.007812 51.871094 C 220.007812 56.847656 215.96875 60.886719 211 60.886719 C 206.023438 60.886719 201.980469 56.847656 201.980469 51.871094 L 201.980469 40.503906 C 201.980469 35.527344 206.023438 31.484375 211 31.484375 C 215.96875 31.484375 220.007812 35.527344 220.007812 40.503906 Z M 149.71875 182.867188 C 147.53125 196.316406 135.832031 206.625 121.777344 206.625 C 107.714844 206.625 96.015625 196.316406 93.828125 182.867188 Z M 159.601562 182.867188 C 161.789062 196.316406 173.480469 206.625 187.535156 206.625 C 201.589844 206.625 213.296875 196.316406 215.484375 182.867188 Z M 225.367188 182.867188 C 227.558594 196.316406 239.253906 206.625 253.308594 206.625 C 267.375 206.625 279.070312 196.316406 281.261719 182.867188 Z M 291.132812 182.867188 C 293.324219 196.328125 305.027344 206.625 319.074219 206.625 C 333.140625 206.625 344.847656 196.328125 347.035156 182.867188 Z M 310.53125 89.285156 L 278.636719 89.285156 L 290.179688 173.742188 L 345.167969 173.742188 Z M 269.429688 89.285156 L 224.992188 89.285156 L 224.992188 173.742188 L 280.976562 173.742188 Z M 159.226562 89.285156 L 159.226562 173.742188 L 215.859375 173.742188 L 215.859375 89.285156 Z M 105.65625 89.285156 L 94.109375 173.742188 L 150.09375 173.742188 L 150.09375 89.285156 Z M 64.558594 89.285156 L 29.921875 173.742188 L 84.90625 173.742188 L 96.453125 89.285156 Z M 28.050781 182.867188 C 30.242188 196.328125 41.945312 206.625 56.011719 206.625 C 70.058594 206.625 81.765625 196.328125 83.953125 182.867188 Z M 28.050781 182.867188 " fill-opacity="1" fill-rule="nonzero"/></g></svg>