<svg xmlns="http://www.w3.org/2000/svg" xmlns:xlink="http://www.w3.org/1999/xlink" width="500" zoomAndPan="magnify" viewBox="0 0 375 374.999991" height="500" preserveAspectRatio="xMidYMid meet" version="1.0"><defs><clipPath id="a52b8803da"><path d="M 32.941406 214 L 341.941406 214 L 341.941406 341.941406 L 32.941406 341.941406 Z M 32.941406 214 " clip-rule="nonzero"/></clipPath><clipPath id="f28601c59a"><path d="M 33 32.941406 L 341 32.941406 L 341 147 L 33 147 Z M 33 32.941406 " clip-rule="nonzero"/></clipPath><clipPath id="804e719987"><path d="M 32.941406 163 L 70 163 L 70 212 L 32.941406 212 Z M 32.941406 163 " clip-rule="nonzero"/></clipPath><clipPath id="2062397b0c"><path d="M 305 163 L 341.941406 163 L 341.941406 212 L 305 212 Z M 305 163 " clip-rule="nonzero"/></clipPath></defs><g clip-path="url(#a52b8803da)"><path fill="#000000" d="M 333.8125 325.679688 L 325.679688 325.679688 L 325.679688 228.019531 C 325.03125 228.097656 324.378906 228.097656 323.648438 228.097656 C 312.996094 228.097656 303.480469 223.21875 297.21875 215.65625 C 290.957031 223.21875 281.445312 228.097656 270.789062 228.097656 C 259.894531 228.097656 250.136719 222.976562 243.875 215.007812 C 237.207031 222.976562 227.125 228.097656 215.902344 228.097656 C 204.4375 228.097656 194.109375 222.730469 187.441406 214.4375 C 180.773438 222.730469 170.445312 228.097656 158.980469 228.097656 C 147.757812 228.097656 137.675781 222.976562 131.007812 215.007812 C 124.746094 222.976562 114.988281 228.097656 104.089844 228.097656 C 93.4375 228.097656 83.921875 223.21875 77.660156 215.65625 C 71.398438 223.21875 61.886719 228.097656 51.234375 228.097656 C 50.5 228.097656 49.851562 228.097656 49.199219 228.019531 L 49.199219 325.679688 L 41.070312 325.679688 C 36.597656 325.679688 32.9375 329.339844 32.9375 333.8125 C 32.9375 338.285156 36.597656 341.945312 41.070312 341.945312 L 333.8125 341.945312 C 338.285156 341.945312 341.945312 338.285156 341.945312 333.8125 C 341.945312 329.339844 338.285156 325.679688 333.8125 325.679688 Z M 106.121094 317.546875 L 89.859375 317.546875 C 85.386719 317.546875 81.726562 313.890625 81.726562 309.417969 C 81.726562 304.945312 85.386719 301.285156 89.859375 301.285156 L 106.121094 301.285156 C 110.59375 301.285156 114.253906 304.945312 114.253906 309.417969 C 114.253906 313.890625 110.59375 317.546875 106.121094 317.546875 Z M 106.121094 285.019531 L 89.859375 285.019531 C 85.386719 285.019531 81.726562 281.363281 81.726562 276.890625 C 81.726562 272.417969 85.386719 268.757812 89.859375 268.757812 L 106.121094 268.757812 C 110.59375 268.757812 114.253906 272.417969 114.253906 276.890625 C 114.253906 281.363281 110.59375 285.019531 106.121094 285.019531 Z M 106.121094 252.496094 L 89.859375 252.496094 C 85.386719 252.496094 81.726562 248.835938 81.726562 244.363281 C 81.726562 239.890625 85.386719 236.230469 89.859375 236.230469 L 106.121094 236.230469 C 110.59375 236.230469 114.253906 239.890625 114.253906 244.363281 C 114.253906 248.835938 110.59375 252.496094 106.121094 252.496094 Z M 244.363281 325.679688 L 228.097656 325.679688 L 228.097656 260.625 L 195.570312 260.625 L 195.570312 285.019531 L 199.636719 285.019531 C 204.109375 285.019531 207.769531 288.679688 207.769531 293.152344 C 207.769531 297.625 204.109375 301.285156 199.636719 301.285156 L 195.570312 301.285156 L 195.570312 325.679688 L 179.308594 325.679688 L 179.308594 301.285156 L 175.242188 301.285156 C 170.769531 301.285156 167.109375 297.625 167.109375 293.152344 C 167.109375 288.679688 170.769531 285.019531 175.242188 285.019531 L 179.308594 285.019531 L 179.308594 260.625 L 146.78125 260.625 L 146.78125 325.679688 L 130.519531 325.679688 L 130.519531 252.496094 C 130.519531 248.023438 134.175781 244.363281 138.648438 244.363281 L 236.230469 244.363281 C 240.703125 244.363281 244.363281 248.023438 244.363281 252.496094 Z M 285.019531 317.546875 L 268.757812 317.546875 C 264.285156 317.546875 260.625 313.890625 260.625 309.417969 C 260.625 304.945312 264.285156 301.285156 268.757812 301.285156 L 285.019531 301.285156 C 289.492188 301.285156 293.152344 304.945312 293.152344 309.417969 C 293.152344 313.890625 289.492188 317.546875 285.019531 317.546875 Z M 285.019531 285.019531 L 268.757812 285.019531 C 264.285156 285.019531 260.625 281.363281 260.625 276.890625 C 260.625 272.417969 264.285156 268.757812 268.757812 268.757812 L 285.019531 268.757812 C 289.492188 268.757812 293.152344 272.417969 293.152344 276.890625 C 293.152344 281.363281 289.492188 285.019531 285.019531 285.019531 Z M 285.019531 252.496094 L 268.757812 252.496094 C 264.285156 252.496094 260.625 248.835938 260.625 244.363281 C 260.625 239.890625 264.285156 236.230469 268.757812 236.230469 L 285.019531 236.230469 C 289.492188 236.230469 293.152344 239.890625 293.152344 244.363281 C 293.152344 248.835938 289.492188 252.496094 285.019531 252.496094 Z M 285.019531 252.496094 " fill-opacity="1" fill-rule="nonzero"/></g><g clip-path="url(#f28601c59a)"><path fill="#000000" d="M 327.832031 53.324219 C 325.867188 41.511719 315.746094 32.9375 303.769531 32.9375 L 71.109375 32.9375 C 59.136719 32.9375 49.015625 41.511719 47.015625 53.535156 L 33.996094 146.78125 L 340.886719 146.78125 Z M 122.386719 81.726562 C 133.59375 81.726562 142.714844 90.847656 142.714844 102.058594 C 142.714844 113.265625 133.59375 122.386719 122.386719 122.386719 L 110.1875 122.386719 C 105.699219 122.386719 102.058594 118.746094 102.058594 114.253906 C 102.058594 109.765625 105.699219 106.121094 110.1875 106.121094 L 122.386719 106.121094 C 124.628906 106.121094 126.453125 104.300781 126.453125 102.058594 C 126.453125 99.8125 124.628906 97.992188 122.386719 97.992188 C 111.175781 97.992188 102.058594 88.871094 102.058594 77.660156 C 102.058594 66.453125 111.175781 57.332031 122.386719 57.332031 L 134.585938 57.332031 C 139.074219 57.332031 142.714844 60.972656 142.714844 65.464844 C 142.714844 69.953125 139.074219 73.597656 134.585938 73.597656 L 122.386719 73.597656 C 120.144531 73.597656 118.320312 75.417969 118.320312 77.660156 C 118.320312 79.90625 120.144531 81.726562 122.386719 81.726562 Z M 215.902344 114.253906 C 215.902344 118.746094 212.261719 122.386719 207.769531 122.386719 C 203.277344 122.386719 199.636719 118.746094 199.636719 114.253906 L 199.636719 87.925781 L 193.6875 95.066406 C 190.597656 98.773438 184.285156 98.773438 181.195312 95.066406 L 175.242188 87.925781 L 175.242188 114.253906 C 175.242188 118.746094 171.601562 122.386719 167.109375 122.386719 C 162.621094 122.386719 158.980469 118.746094 158.980469 114.253906 L 158.980469 65.464844 C 158.980469 58.03125 168.589844 54.535156 173.355469 60.257812 C 173.390625 60.300781 187.441406 77.15625 187.441406 77.15625 L 201.523438 60.257812 C 206.28125 54.535156 215.902344 58.042969 215.902344 65.464844 C 215.902344 65.546875 215.902344 114.253906 215.902344 114.253906 Z M 264.691406 81.726562 C 269.183594 81.726562 272.824219 85.367188 272.824219 89.859375 C 272.824219 94.351562 269.183594 97.992188 264.691406 97.992188 L 248.429688 97.992188 L 248.429688 106.121094 L 264.691406 106.121094 C 269.183594 106.121094 272.824219 109.765625 272.824219 114.253906 C 272.824219 118.746094 269.183594 122.386719 264.691406 122.386719 L 240.296875 122.386719 C 235.804688 122.386719 232.164062 118.746094 232.164062 114.253906 L 232.164062 65.464844 C 232.164062 60.972656 235.804688 57.332031 240.296875 57.332031 L 264.691406 57.332031 C 269.183594 57.332031 272.824219 60.972656 272.824219 65.464844 C 272.824219 69.953125 269.183594 73.597656 264.691406 73.597656 L 248.429688 73.597656 L 248.429688 81.726562 Z M 264.691406 81.726562 " fill-opacity="1" fill-rule="nonzero"/></g><path fill="#000000" d="M 104.089844 211.835938 C 114.195312 211.835938 122.386719 203.644531 122.386719 193.539062 L 122.386719 163.046875 L 85.792969 163.046875 L 85.792969 193.539062 C 85.792969 203.644531 93.984375 211.835938 104.089844 211.835938 Z M 104.089844 211.835938 " fill-opacity="1" fill-rule="nonzero"/><g clip-path="url(#804e719987)"><path fill="#000000" d="M 51.234375 211.835938 C 61.339844 211.835938 69.53125 203.644531 69.53125 193.539062 L 69.53125 163.046875 L 32.9375 163.046875 L 32.9375 193.539062 C 32.9375 203.644531 41.128906 211.835938 51.234375 211.835938 Z M 51.234375 211.835938 " fill-opacity="1" fill-rule="nonzero"/></g><path fill="#000000" d="M 158.980469 211.835938 C 170.207031 211.835938 179.308594 202.734375 179.308594 191.507812 L 179.308594 163.046875 L 138.648438 163.046875 L 138.648438 191.507812 C 138.648438 202.734375 147.75 211.835938 158.980469 211.835938 Z M 158.980469 211.835938 " fill-opacity="1" fill-rule="nonzero"/><g clip-path="url(#2062397b0c)"><path fill="#000000" d="M 305.351562 163.046875 L 305.351562 193.539062 C 305.351562 203.644531 313.542969 211.835938 323.648438 211.835938 C 333.75 211.835938 341.945312 203.644531 341.945312 193.539062 L 341.945312 163.046875 Z M 305.351562 163.046875 " fill-opacity="1" fill-rule="nonzero"/></g><path fill="#000000" d="M 270.789062 211.835938 C 280.894531 211.835938 289.085938 203.644531 289.085938 193.539062 L 289.085938 163.046875 L 252.496094 163.046875 L 252.496094 193.539062 C 252.496094 203.644531 260.6875 211.835938 270.789062 211.835938 Z M 270.789062 211.835938 " fill-opacity="1" fill-rule="nonzero"/><path fill="#000000" d="M 215.902344 211.835938 C 227.128906 211.835938 236.230469 202.734375 236.230469 191.507812 L 236.230469 163.046875 L 195.570312 163.046875 L 195.570312 191.507812 C 195.570312 202.734375 204.671875 211.835938 215.902344 211.835938 Z M 215.902344 211.835938 " fill-opacity="1" fill-rule="nonzero"/></svg>