<svg xmlns="http://www.w3.org/2000/svg" xmlns:xlink="http://www.w3.org/1999/xlink" width="500" zoomAndPan="magnify" viewBox="0 0 375 374.999991" height="500" preserveAspectRatio="xMidYMid meet" version="1.0"><defs><clipPath id="2e72580787"><path d="M 35 211 L 46 211 L 46 352.71875 L 35 352.71875 Z M 35 211 " clip-rule="nonzero"/></clipPath><clipPath id="f9c523ff42"><path d="M 329 211 L 340 211 L 340 352.71875 L 329 352.71875 Z M 329 211 " clip-rule="nonzero"/></clipPath><clipPath id="d4c0c064b4"><path d="M 21.691406 342 L 353 342 L 353 352.71875 L 21.691406 352.71875 Z M 21.691406 342 " clip-rule="nonzero"/></clipPath><clipPath id="523888ac6e"><path d="M 21.691406 106 L 140 106 L 140 177 L 21.691406 177 Z M 21.691406 106 " clip-rule="nonzero"/></clipPath><clipPath id="8b1a5767fd"><path d="M 21.691406 165 L 73 165 L 73 222 L 21.691406 222 Z M 21.691406 165 " clip-rule="nonzero"/></clipPath><clipPath id="2b6fb14965"><path d="M 61 250 L 144 250 L 144 352.71875 L 61 352.71875 Z M 61 250 " clip-rule="nonzero"/></clipPath><clipPath id="49fa921d44"><path d="M 100 21.96875 L 275 21.96875 L 275 196 L 100 196 Z M 100 21.96875 " clip-rule="nonzero"/></clipPath></defs><g clip-path="url(#2e72580787)"><path fill="#000000" d="M 40.257812 352.675781 C 37.398438 352.675781 35.082031 350.363281 35.082031 347.507812 L 35.082031 216.765625 C 35.082031 213.90625 37.398438 211.59375 40.257812 211.59375 C 43.113281 211.59375 45.429688 213.90625 45.429688 216.765625 L 45.429688 347.507812 C 45.429688 350.363281 43.113281 352.675781 40.257812 352.675781 Z M 40.257812 352.675781 " fill-opacity="1" fill-rule="nonzero"/></g><g clip-path="url(#f9c523ff42)"><path fill="#000000" d="M 334.691406 352.675781 C 331.835938 352.675781 329.519531 350.363281 329.519531 347.507812 L 329.519531 216.765625 C 329.519531 213.90625 331.835938 211.59375 334.691406 211.59375 C 337.550781 211.59375 339.867188 213.90625 339.867188 216.765625 L 339.867188 347.507812 C 339.867188 350.363281 337.550781 352.675781 334.691406 352.675781 Z M 334.691406 352.675781 " fill-opacity="1" fill-rule="nonzero"/></g><g clip-path="url(#d4c0c064b4)"><path fill="#000000" d="M 347.777344 352.675781 L 27.171875 352.675781 C 24.3125 352.675781 21.996094 350.363281 21.996094 347.507812 C 21.996094 344.652344 24.3125 342.335938 27.171875 342.335938 L 347.777344 342.335938 C 350.636719 342.335938 352.953125 344.652344 352.953125 347.507812 C 352.953125 350.363281 350.636719 352.675781 347.777344 352.675781 Z M 347.777344 352.675781 " fill-opacity="1" fill-rule="nonzero"/></g><g clip-path="url(#523888ac6e)"><path fill="#000000" d="M 134.300781 176.132812 L 27.171875 176.132812 C 25.507812 176.132812 23.945312 175.332031 22.972656 173.984375 C 22 172.636719 21.734375 170.902344 22.261719 169.324219 L 41.890625 110.488281 C 42.59375 108.375 44.574219 106.953125 46.800781 106.953125 L 105.753906 106.953125 C 108.609375 106.953125 110.925781 109.265625 110.925781 112.121094 C 110.925781 114.980469 108.609375 117.292969 105.753906 117.292969 L 50.527344 117.292969 L 34.347656 165.789062 L 134.300781 165.789062 C 137.15625 165.789062 139.472656 168.105469 139.472656 170.960938 C 139.472656 173.816406 137.15625 176.132812 134.300781 176.132812 Z M 134.300781 176.132812 " fill-opacity="1" fill-rule="nonzero"/></g><path fill="#000000" d="M 347.777344 176.132812 L 240.648438 176.132812 C 237.792969 176.132812 235.476562 173.816406 235.476562 170.960938 C 235.476562 168.105469 237.792969 165.789062 240.648438 165.789062 L 340.597656 165.789062 L 324.417969 117.292969 L 269.195312 117.292969 C 266.339844 117.292969 264.023438 114.980469 264.023438 112.125 C 264.023438 109.269531 266.339844 106.953125 269.195312 106.953125 L 328.148438 106.953125 C 330.375 106.953125 332.351562 108.375 333.058594 110.488281 L 352.6875 169.328125 C 353.210938 170.902344 352.949219 172.636719 351.976562 173.984375 C 351.003906 175.332031 349.441406 176.132812 347.777344 176.132812 Z M 347.777344 176.132812 " fill-opacity="1" fill-rule="nonzero"/><g clip-path="url(#8b1a5767fd)"><path fill="#000000" d="M 47.207031 221.933594 C 33.304688 221.933594 21.996094 210.632812 21.996094 196.738281 L 21.996094 170.960938 C 21.996094 168.105469 24.3125 165.792969 27.171875 165.792969 L 67.246094 165.792969 C 70.101562 165.792969 72.417969 168.105469 72.417969 170.960938 L 72.417969 196.738281 C 72.417969 210.632812 61.109375 221.933594 47.207031 221.933594 Z M 32.34375 176.132812 L 32.34375 196.738281 C 32.34375 204.929688 39.011719 211.59375 47.207031 211.59375 C 55.402344 211.59375 62.070312 204.929688 62.070312 196.738281 L 62.070312 176.132812 Z M 32.34375 176.132812 " fill-opacity="1" fill-rule="nonzero"/></g><path fill="#000000" d="M 87.285156 221.933594 C 73.382812 221.933594 62.070312 210.632812 62.070312 196.738281 L 62.070312 170.960938 C 62.070312 168.105469 64.386719 165.792969 67.246094 165.792969 L 107.320312 165.792969 C 110.179688 165.792969 112.496094 168.105469 112.496094 170.960938 L 112.496094 196.738281 C 112.496094 210.632812 101.1875 221.933594 87.285156 221.933594 Z M 72.417969 176.132812 L 72.417969 196.738281 C 72.417969 204.929688 79.085938 211.59375 87.285156 211.59375 C 95.480469 211.59375 102.148438 204.929688 102.148438 196.738281 L 102.148438 176.132812 Z M 72.417969 176.132812 " fill-opacity="1" fill-rule="nonzero"/><path fill="#000000" d="M 127.363281 221.933594 C 113.457031 221.933594 102.148438 210.628906 102.148438 196.738281 L 102.148438 170.960938 C 102.148438 168.105469 104.464844 165.789062 107.324219 165.789062 L 134.300781 165.789062 C 137.15625 165.789062 139.472656 168.105469 139.472656 170.960938 C 139.472656 173.816406 137.15625 176.132812 134.300781 176.132812 L 112.496094 176.132812 L 112.496094 196.738281 C 112.496094 204.925781 119.164062 211.589844 127.355469 211.589844 C 135.558594 211.589844 142.222656 204.925781 142.222656 196.738281 L 142.222656 180.121094 C 142.222656 177.265625 144.542969 174.953125 147.398438 174.953125 C 150.257812 174.953125 152.574219 177.265625 152.574219 180.121094 L 152.574219 196.738281 C 152.570312 210.628906 141.261719 221.933594 127.363281 221.933594 Z M 127.363281 221.933594 " fill-opacity="1" fill-rule="nonzero"/><path fill="#000000" d="M 167.4375 221.933594 C 153.53125 221.933594 142.222656 210.628906 142.222656 196.738281 L 142.222656 180.121094 C 142.222656 177.265625 144.539062 174.953125 147.398438 174.953125 C 150.253906 174.953125 152.570312 177.265625 152.570312 180.121094 L 152.570312 196.738281 C 152.570312 204.925781 159.238281 211.589844 167.433594 211.589844 C 175.632812 211.589844 182.300781 204.925781 182.300781 196.738281 L 182.300781 190.589844 C 182.300781 187.734375 184.617188 185.421875 187.472656 185.421875 C 190.332031 185.421875 192.648438 187.734375 192.648438 190.589844 L 192.648438 196.738281 C 192.648438 210.628906 181.339844 221.933594 167.4375 221.933594 Z M 167.4375 221.933594 " fill-opacity="1" fill-rule="nonzero"/><path fill="#000000" d="M 207.515625 221.933594 C 193.609375 221.933594 182.300781 210.628906 182.300781 196.738281 L 182.300781 190.589844 C 182.300781 187.734375 184.617188 185.417969 187.472656 185.417969 C 190.332031 185.417969 192.648438 187.734375 192.648438 190.589844 L 192.648438 196.738281 C 192.648438 204.925781 199.316406 211.589844 207.507812 211.589844 C 215.710938 211.589844 222.375 204.925781 222.375 196.738281 L 222.375 180.121094 C 222.375 177.265625 224.691406 174.953125 227.550781 174.953125 C 230.40625 174.953125 232.722656 177.265625 232.722656 180.121094 L 232.722656 196.738281 C 232.722656 210.628906 221.414062 221.933594 207.515625 221.933594 Z M 207.515625 221.933594 " fill-opacity="1" fill-rule="nonzero"/><path fill="#000000" d="M 247.589844 221.933594 C 233.683594 221.933594 222.375 210.628906 222.375 196.738281 L 222.375 180.121094 C 222.375 177.265625 224.691406 174.953125 227.550781 174.953125 C 230.40625 174.953125 232.722656 177.265625 232.722656 180.121094 L 232.722656 196.738281 C 232.722656 204.925781 239.390625 211.589844 247.585938 211.589844 C 255.785156 211.589844 262.453125 204.925781 262.453125 196.738281 L 262.453125 176.132812 L 240.648438 176.132812 C 237.792969 176.132812 235.476562 173.816406 235.476562 170.960938 C 235.476562 168.105469 237.792969 165.789062 240.648438 165.789062 L 267.625 165.789062 C 270.484375 165.789062 272.800781 168.105469 272.800781 170.960938 L 272.800781 196.738281 C 272.800781 210.628906 261.492188 221.933594 247.589844 221.933594 Z M 247.589844 221.933594 " fill-opacity="1" fill-rule="nonzero"/><path fill="#000000" d="M 287.664062 221.933594 C 273.761719 221.933594 262.453125 210.632812 262.453125 196.738281 L 262.453125 170.960938 C 262.453125 168.105469 264.769531 165.792969 267.625 165.792969 L 307.703125 165.792969 C 310.558594 165.792969 312.875 168.105469 312.875 170.960938 L 312.875 196.738281 C 312.875 210.632812 301.566406 221.933594 287.664062 221.933594 Z M 272.800781 176.132812 L 272.800781 196.738281 C 272.800781 204.929688 279.46875 211.59375 287.664062 211.59375 C 295.859375 211.59375 302.527344 204.929688 302.527344 196.738281 L 302.527344 176.132812 Z M 272.800781 176.132812 " fill-opacity="1" fill-rule="nonzero"/><path fill="#000000" d="M 327.738281 221.933594 C 313.839844 221.933594 302.527344 210.632812 302.527344 196.738281 L 302.527344 170.960938 C 302.527344 168.105469 304.84375 165.792969 307.703125 165.792969 L 347.777344 165.792969 C 350.636719 165.792969 352.953125 168.105469 352.953125 170.960938 L 352.953125 196.738281 C 352.953125 210.632812 341.640625 221.933594 327.738281 221.933594 Z M 312.875 176.132812 L 312.875 196.738281 C 312.875 204.929688 319.542969 211.59375 327.738281 211.59375 C 335.9375 211.59375 342.605469 204.929688 342.605469 196.738281 L 342.605469 176.132812 Z M 312.875 176.132812 " fill-opacity="1" fill-rule="nonzero"/><g clip-path="url(#2b6fb14965)"><path fill="#000000" d="M 138.402344 352.675781 L 66.429688 352.675781 C 63.570312 352.675781 61.253906 350.363281 61.253906 347.507812 L 61.253906 255.984375 C 61.253906 253.128906 63.570312 250.8125 66.429688 250.8125 L 138.402344 250.8125 C 141.257812 250.8125 143.574219 253.128906 143.574219 255.984375 L 143.574219 347.507812 C 143.574219 350.363281 141.257812 352.675781 138.402344 352.675781 Z M 71.601562 342.335938 L 133.226562 342.335938 L 133.226562 261.152344 L 71.601562 261.152344 Z M 71.601562 342.335938 " fill-opacity="1" fill-rule="nonzero"/></g><path fill="#000000" d="M 308.519531 326.527344 L 164.574219 326.527344 C 161.714844 326.527344 159.398438 324.210938 159.398438 321.355469 L 159.398438 242.914062 C 159.398438 240.058594 161.714844 237.742188 164.574219 237.742188 L 308.519531 237.742188 C 311.378906 237.742188 313.695312 240.058594 313.695312 242.914062 L 313.695312 321.355469 C 313.695312 324.210938 311.378906 326.527344 308.519531 326.527344 Z M 169.746094 316.183594 L 303.34375 316.183594 L 303.34375 248.085938 L 169.746094 248.085938 Z M 169.746094 316.183594 " fill-opacity="1" fill-rule="nonzero"/><path fill="#000000" d="M 190.746094 326.527344 C 187.886719 326.527344 185.570312 324.210938 185.570312 321.355469 L 185.570312 242.914062 C 185.570312 240.058594 187.886719 237.742188 190.746094 237.742188 C 193.601562 237.742188 195.921875 240.058594 195.921875 242.914062 L 195.921875 321.355469 C 195.921875 324.210938 193.601562 326.527344 190.746094 326.527344 Z M 190.746094 326.527344 " fill-opacity="1" fill-rule="nonzero"/><path fill="#000000" d="M 282.347656 326.527344 C 279.488281 326.527344 277.171875 324.210938 277.171875 321.355469 L 277.171875 242.914062 C 277.171875 240.058594 279.488281 237.742188 282.347656 237.742188 C 285.203125 237.742188 287.519531 240.058594 287.519531 242.914062 L 287.519531 321.355469 C 287.519531 324.210938 285.203125 326.527344 282.347656 326.527344 Z M 282.347656 326.527344 " fill-opacity="1" fill-rule="nonzero"/><path fill="#000000" d="M 92.601562 306.925781 C 89.742188 306.925781 87.425781 304.613281 87.425781 301.757812 L 87.425781 295.226562 C 87.425781 292.371094 89.742188 290.054688 92.601562 290.054688 C 95.457031 290.054688 97.773438 292.371094 97.773438 295.226562 L 97.773438 301.757812 C 97.773438 304.613281 95.457031 306.925781 92.601562 306.925781 Z M 92.601562 306.925781 " fill-opacity="1" fill-rule="nonzero"/><g clip-path="url(#49fa921d44)"><path fill="#000000" d="M 187.472656 195.761719 C 139.523438 195.761719 100.511719 156.773438 100.511719 108.851562 C 100.511719 60.929688 139.523438 21.945312 187.472656 21.945312 C 235.425781 21.945312 274.4375 60.929688 274.4375 108.855469 C 274.4375 156.777344 235.425781 195.761719 187.472656 195.761719 Z M 187.472656 32.285156 C 145.230469 32.285156 110.859375 66.632812 110.859375 108.855469 C 110.859375 151.074219 145.230469 185.421875 187.472656 185.421875 C 229.71875 185.421875 264.085938 151.074219 264.085938 108.851562 C 264.085938 66.632812 229.71875 32.285156 187.472656 32.285156 Z M 187.472656 32.285156 " fill-opacity="1" fill-rule="nonzero"/></g><path fill="#000000" d="M 207.101562 146.71875 L 180.929688 146.71875 C 178.074219 146.71875 175.757812 144.40625 175.757812 141.550781 C 175.757812 138.695312 178.074219 136.378906 180.929688 136.378906 L 207.101562 136.378906 C 209.960938 136.378906 212.277344 138.695312 212.277344 141.550781 C 212.277344 144.40625 209.960938 146.71875 207.101562 146.71875 Z M 207.101562 146.71875 " fill-opacity="1" fill-rule="nonzero"/><path fill="#000000" d="M 222.09375 133.78125 C 221.5 133.78125 220.898438 133.679688 220.308594 133.460938 C 217.628906 132.480469 216.25 129.507812 217.234375 126.828125 L 229.136719 94.40625 L 155.851562 94.40625 C 152.996094 94.40625 150.675781 92.089844 150.675781 89.234375 C 150.675781 86.378906 152.996094 84.066406 155.851562 84.066406 L 236.546875 84.066406 C 238.238281 84.066406 239.820312 84.890625 240.789062 86.277344 C 241.757812 87.660156 241.988281 89.429688 241.40625 91.015625 L 226.949219 130.390625 C 226.183594 132.480469 224.199219 133.78125 222.09375 133.78125 Z M 222.09375 133.78125 " fill-opacity="1" fill-rule="nonzero"/><path fill="#000000" d="M 166.769531 133.6875 C 164.503906 133.6875 162.421875 132.1875 161.785156 129.902344 L 150.902344 90.746094 L 147.757812 81.328125 L 138.402344 81.328125 C 135.542969 81.328125 133.226562 79.011719 133.226562 76.15625 C 133.226562 73.300781 135.542969 70.988281 138.402344 70.988281 L 151.488281 70.988281 C 153.714844 70.988281 155.691406 72.410156 156.394531 74.523438 L 160.757812 87.601562 C 160.789062 87.683594 160.8125 87.765625 160.835938 87.851562 L 171.757812 127.132812 C 172.519531 129.882812 170.910156 132.734375 168.15625 133.5 C 167.695312 133.628906 167.226562 133.6875 166.769531 133.6875 Z M 166.769531 133.6875 " fill-opacity="1" fill-rule="nonzero"/><path fill="#000000" d="M 220.1875 159.796875 C 210.121094 159.796875 201.929688 151.613281 201.929688 141.550781 C 201.929688 131.488281 210.121094 123.300781 220.1875 123.300781 C 230.257812 123.300781 238.449219 131.488281 238.449219 141.550781 C 238.449219 151.609375 230.257812 159.796875 220.1875 159.796875 Z M 220.1875 133.640625 C 215.828125 133.640625 212.277344 137.1875 212.277344 141.546875 C 212.277344 145.910156 215.828125 149.457031 220.1875 149.457031 C 224.550781 149.457031 228.101562 145.910156 228.101562 141.546875 C 228.101562 137.1875 224.550781 133.640625 220.1875 133.640625 Z M 220.1875 133.640625 " fill-opacity="1" fill-rule="nonzero"/><path fill="#000000" d="M 167.84375 159.796875 C 157.777344 159.796875 149.585938 151.613281 149.585938 141.550781 C 149.585938 131.488281 157.777344 123.300781 167.84375 123.300781 C 177.914062 123.300781 186.105469 131.488281 186.105469 141.550781 C 186.105469 151.609375 177.914062 159.796875 167.84375 159.796875 Z M 167.84375 133.640625 C 163.480469 133.640625 159.933594 137.1875 159.933594 141.546875 C 159.933594 145.910156 163.480469 149.457031 167.84375 149.457031 C 172.207031 149.457031 175.757812 145.910156 175.757812 141.546875 C 175.757812 137.1875 172.207031 133.640625 167.84375 133.640625 Z M 167.84375 133.640625 " fill-opacity="1" fill-rule="nonzero"/></svg>