<svg xmlns="http://www.w3.org/2000/svg" xmlns:xlink="http://www.w3.org/1999/xlink" width="500" zoomAndPan="magnify" viewBox="0 0 375 374.999991" height="500" preserveAspectRatio="xMidYMid meet" version="1.0"><defs><clipPath id="9a8e9ff351"><path d="M 119 18 L 284 18 L 284 357.855469 L 119 357.855469 Z M 119 18 " clip-rule="nonzero"/></clipPath><clipPath id="3efa5a802f"><path d="M 17.355469 36 L 131 36 L 131 345 L 17.355469 345 Z M 17.355469 36 " clip-rule="nonzero"/></clipPath><clipPath id="613d85fe87"><path d="M 235 32 L 357.855469 32 L 357.855469 345 L 235 345 Z M 235 32 " clip-rule="nonzero"/></clipPath></defs><path fill="#4f8cd1" d="M 306.582031 143.128906 L 306.582031 233.777344 L 232.929688 233.777344 L 232.929688 143.128906 L 306.582031 143.128906 " fill-opacity="1" fill-rule="nonzero"/><path fill="#f9ac1f" d="M 187.605469 279.101562 C 137.542969 279.101562 96.957031 238.515625 96.957031 188.453125 C 96.957031 138.394531 137.542969 97.804688 187.605469 97.804688 C 221.132812 97.804688 250.347656 116.0625 266.035156 143.128906 C 273.761719 156.476562 278.253906 171.921875 278.253906 188.453125 C 278.253906 204.984375 273.761719 220.433594 266.035156 233.777344 C 250.347656 260.84375 221.132812 279.101562 187.605469 279.101562 Z M 322.472656 205.449219 L 351.90625 205.449219 L 351.90625 171.457031 L 322.472656 171.457031 C 321.253906 161.652344 318.972656 152.179688 315.789062 143.128906 C 314.902344 140.628906 313.996094 138.128906 312.953125 135.714844 L 338.382812 121.019531 L 321.386719 91.585938 L 295.9375 106.28125 C 288.433594 96.433594 279.625 87.625 269.777344 80.144531 L 284.472656 54.671875 L 255.039062 37.675781 L 240.34375 63.105469 C 229.121094 58.367188 217.128906 55.136719 204.601562 53.585938 L 204.601562 24.152344 L 170.609375 24.152344 L 170.609375 53.585938 C 158.082031 55.136719 146.085938 58.367188 134.867188 63.105469 L 120.171875 37.675781 L 90.738281 54.671875 L 105.429688 80.144531 C 95.582031 87.625 86.773438 96.433594 79.273438 106.28125 L 53.820312 91.585938 L 36.824219 121.019531 L 62.253906 135.714844 C 57.519531 146.9375 54.285156 158.929688 52.738281 171.457031 L 23.304688 171.457031 L 23.304688 205.449219 L 52.738281 205.449219 C 54.285156 217.976562 57.519531 229.972656 62.253906 241.191406 L 36.824219 255.886719 L 53.820312 285.320312 L 79.273438 270.625 C 86.773438 280.476562 95.582031 289.285156 105.429688 296.761719 L 90.738281 322.238281 L 120.171875 339.234375 L 134.867188 313.804688 C 146.085938 318.539062 158.082031 321.773438 170.609375 323.320312 L 170.609375 352.753906 L 204.601562 352.753906 L 204.601562 323.320312 C 217.128906 321.773438 229.121094 318.539062 240.34375 313.804688 L 255.039062 339.234375 L 284.472656 322.238281 L 269.777344 296.761719 C 279.625 289.285156 288.433594 280.476562 295.9375 270.625 L 321.386719 285.320312 L 338.382812 255.886719 L 312.953125 241.191406 C 313.996094 238.78125 314.902344 236.28125 315.789062 233.777344 C 318.972656 224.726562 321.253906 215.253906 322.472656 205.449219 " fill-opacity="1" fill-rule="nonzero"/><path fill="#e2e2de" d="M 157.441406 27.738281 L 191.144531 61.445312 L 167.109375 85.476562 L 133.40625 51.773438 C 126.410156 68.28125 129.621094 88.066406 143.078125 101.5 C 146.261719 104.710938 149.847656 107.300781 153.632812 109.359375 L 153.632812 271.578125 C 152.347656 272.597656 151.089844 273.703125 149.914062 274.898438 C 132.210938 292.601562 132.210938 321.285156 149.914062 338.988281 C 163.347656 352.445312 183.132812 355.65625 199.644531 348.660156 L 165.9375 314.957031 L 189.972656 290.921875 L 223.679688 324.625 C 230.648438 308.117188 227.460938 288.355469 214.007812 274.898438 C 209.558594 270.449219 204.421875 267.128906 198.957031 264.917969 L 198.957031 107.964844 C 201.878906 106.148438 204.644531 104.023438 207.167969 101.5 C 224.871094 83.816406 224.871094 55.113281 207.167969 37.410156 C 193.710938 23.953125 173.925781 20.765625 157.441406 27.738281 " fill-opacity="1" fill-rule="nonzero"/><path fill="#fbc197" d="M 232.929688 143.128906 L 232.929688 233.777344 L 136.613281 233.777344 C 130.351562 233.777344 125.28125 228.710938 125.28125 222.449219 C 125.28125 216.183594 130.351562 211.117188 136.613281 211.117188 C 130.351562 211.117188 125.28125 206.046875 125.28125 199.785156 C 125.28125 193.523438 130.351562 188.453125 136.613281 188.453125 C 130.351562 188.453125 125.28125 183.386719 125.28125 177.121094 C 125.28125 170.859375 130.351562 165.792969 136.613281 165.792969 C 130.351562 165.792969 125.28125 160.722656 125.28125 154.460938 C 125.28125 148.199219 130.351562 143.128906 136.613281 143.128906 L 232.929688 143.128906 " fill-opacity="1" fill-rule="nonzero"/><path fill="#f9ab71" d="M 147.945312 171.457031 L 130.949219 171.457031 C 127.828125 171.457031 125.28125 168.914062 125.28125 165.792969 C 125.28125 162.671875 127.828125 160.125 130.949219 160.125 L 147.945312 160.125 C 151.066406 160.125 153.609375 162.671875 153.609375 165.792969 C 153.609375 168.914062 151.066406 171.457031 147.945312 171.457031 " fill-opacity="1" fill-rule="nonzero"/><path fill="#f9ab71" d="M 147.945312 194.121094 L 130.949219 194.121094 C 127.828125 194.121094 125.28125 191.574219 125.28125 188.453125 C 125.28125 185.332031 127.828125 182.789062 130.949219 182.789062 L 147.945312 182.789062 C 151.066406 182.789062 153.609375 185.332031 153.609375 188.453125 C 153.609375 191.574219 151.066406 194.121094 147.945312 194.121094 " fill-opacity="1" fill-rule="nonzero"/><path fill="#f9ab71" d="M 147.945312 216.78125 L 130.949219 216.78125 C 127.828125 216.78125 125.28125 214.238281 125.28125 211.117188 C 125.28125 207.996094 127.828125 205.449219 130.949219 205.449219 L 147.945312 205.449219 C 151.066406 205.449219 153.609375 207.996094 153.609375 211.117188 C 153.609375 214.238281 151.066406 216.78125 147.945312 216.78125 " fill-opacity="1" fill-rule="nonzero"/><path fill="#f9ab71" d="M 227.261719 143.128906 L 198.933594 120.46875 L 198.933594 143.128906 Z M 227.261719 143.128906 " fill-opacity="1" fill-rule="nonzero"/><path fill="#fbc559" d="M 112.246094 107.519531 L 104.324219 99.421875 C 107.203125 96.589844 110.277344 93.867188 113.488281 91.320312 L 120.546875 100.171875 C 117.648438 102.496094 114.859375 104.953125 112.246094 107.519531 " fill-opacity="1" fill-rule="nonzero"/><path fill="#fbc559" d="M 80.089844 183.054688 L 68.78125 182.523438 C 70.089844 155.988281 79.890625 131.3125 97.175781 111.105469 L 105.785156 118.496094 C 90.160156 136.753906 81.265625 159.085938 80.089844 183.054688 " fill-opacity="1" fill-rule="nonzero"/><path fill="#cccbc7" d="M 198.933594 245.109375 L 153.609375 245.109375 L 153.609375 233.777344 L 198.933594 233.777344 L 198.933594 245.109375 " fill-opacity="1" fill-rule="nonzero"/><path fill="#231f20" d="M 68.78125 182.523438 L 80.089844 183.054688 C 81.265625 159.085938 90.160156 136.753906 105.785156 118.496094 L 97.175781 111.105469 C 79.890625 131.3125 70.089844 155.988281 68.78125 182.523438 " fill-opacity="1" fill-rule="nonzero"/><g clip-path="url(#9a8e9ff351)"><path fill="#231f20" d="M 238.59375 228.113281 L 238.59375 148.796875 L 262.738281 148.796875 C 269.15625 160.945312 272.585938 174.578125 272.585938 188.453125 C 272.585938 202.332031 269.15625 215.941406 262.738281 228.113281 Z M 227.261719 228.113281 L 136.613281 228.113281 C 133.492188 228.113281 130.949219 225.566406 130.949219 222.449219 C 130.949219 219.328125 133.492188 216.78125 136.613281 216.78125 L 153.609375 216.78125 L 153.609375 205.449219 L 136.613281 205.449219 C 133.492188 205.449219 130.949219 202.90625 130.949219 199.785156 C 130.949219 196.664062 133.492188 194.121094 136.613281 194.121094 L 153.609375 194.121094 L 153.609375 182.789062 L 136.613281 182.789062 C 133.492188 182.789062 130.949219 180.242188 130.949219 177.121094 C 130.949219 174.003906 133.492188 171.457031 136.613281 171.457031 L 153.609375 171.457031 L 153.609375 160.125 L 136.613281 160.125 C 133.492188 160.125 130.949219 157.582031 130.949219 154.460938 C 130.949219 151.339844 133.492188 148.796875 136.613281 148.796875 L 227.261719 148.796875 Z M 209.714844 278.617188 C 209.847656 278.816406 210 278.96875 210.15625 279.125 C 219.230469 288.265625 223.234375 301.257812 220.976562 313.871094 L 193.976562 286.9375 C 191.765625 284.722656 188.179688 284.722656 185.988281 286.9375 L 161.953125 310.949219 C 159.742188 313.164062 159.742188 316.746094 161.953125 318.960938 L 188.886719 345.960938 C 183.3125 346.933594 177.535156 346.691406 171.957031 345.207031 C 165.183594 343.546875 158.964844 340.007812 153.921875 334.960938 C 148.121094 329.207031 144.316406 321.925781 142.921875 313.871094 C 140.664062 301.125 144.78125 288.066406 153.941406 278.925781 C 154.761719 278.085938 155.601562 277.289062 156.730469 276.335938 C 156.910156 276.203125 157.460938 275.738281 157.617188 275.585938 C 158.679688 274.523438 159.277344 273.0625 159.277344 271.554688 L 159.277344 239.445312 L 193.269531 239.445312 L 193.269531 264.9375 C 193.269531 267.242188 194.6875 269.34375 196.832031 270.183594 C 201.722656 272.152344 206.039062 274.988281 209.714844 278.617188 Z M 147.082031 97.496094 C 137.941406 88.355469 133.914062 75.320312 136.128906 62.574219 L 163.082031 89.460938 C 165.316406 91.675781 168.882812 91.675781 171.09375 89.460938 L 195.128906 65.425781 C 197.34375 63.238281 197.34375 59.652344 195.128906 57.414062 L 168.195312 30.4375 C 169.191406 30.261719 170.210938 30.105469 171.226562 30.019531 C 182.335938 28.757812 192.714844 32.386719 200.640625 39.203125 C 200.859375 39.402344 201.082031 39.578125 201.324219 39.734375 C 201.921875 40.265625 202.542969 40.816406 203.164062 41.4375 C 207.789062 46.019531 211.105469 51.484375 213.011719 57.726562 C 217.195312 71.179688 213.808594 85.988281 204.203125 96.324219 C 204.046875 96.476562 203.9375 96.632812 203.804688 96.785156 C 203.628906 97.03125 203.40625 97.230469 203.097656 97.515625 C 201.105469 99.554688 198.78125 101.390625 195.96875 103.117188 C 194.289062 104.15625 193.269531 105.992188 193.269531 107.941406 L 193.269531 137.464844 L 159.277344 137.464844 L 159.277344 109.359375 C 159.277344 107.277344 158.125 105.375 156.289062 104.378906 C 154.738281 103.535156 153.476562 102.742188 152.128906 101.722656 C 150.3125 100.484375 148.632812 99.066406 147.082031 97.496094 Z M 211.105469 137.464844 L 204.601562 137.464844 L 204.601562 132.261719 Z M 228.789062 262.816406 L 234.277344 272.730469 C 249.59375 264.253906 262.296875 251.75 271.039062 236.609375 C 279.46875 222.050781 283.917969 205.40625 283.917969 188.453125 C 283.917969 171.5 279.46875 154.859375 271.039062 140.296875 C 261.367188 123.566406 247.09375 110.285156 229.742188 101.832031 L 224.785156 112.011719 C 237 117.964844 247.46875 126.6875 255.546875 137.464844 L 229.253906 137.464844 L 204.601562 117.746094 L 204.601562 111.015625 C 207.058594 109.292969 209.226562 107.453125 211.195312 105.460938 C 211.75 104.910156 212.234375 104.398438 212.65625 103.867188 C 224.917969 90.546875 229.1875 71.625 223.832031 54.382812 C 221.398438 46.371094 217.105469 39.289062 211.152344 33.402344 C 210.199219 32.453125 209.25 31.632812 208.320312 30.792969 C 208.164062 30.660156 207.988281 30.546875 207.808594 30.414062 C 197.410156 21.628906 183.730469 17.203125 170.03125 18.730469 C 164.964844 19.261719 160.007812 20.523438 155.269531 22.492188 C 153.542969 23.222656 152.28125 24.773438 151.90625 26.632812 C 151.550781 28.492188 152.128906 30.394531 153.457031 31.722656 L 183.113281 61.445312 L 167.089844 77.445312 L 137.390625 47.789062 C 136.0625 46.4375 134.113281 45.90625 132.253906 46.238281 C 130.394531 46.617188 128.847656 47.898438 128.136719 49.671875 C 127.40625 51.484375 126.566406 53.632812 126.058594 55.777344 C 121.121094 73.484375 126.101562 92.539062 139.003906 105.441406 C 141.039062 107.519531 143.320312 109.425781 145.511719 110.90625 C 146.261719 111.480469 147.082031 112.058594 147.945312 112.609375 L 147.945312 137.464844 L 136.613281 137.464844 C 127.230469 137.464844 119.617188 145.078125 119.617188 154.460938 C 119.617188 158.820312 121.253906 162.78125 123.957031 165.792969 C 121.253906 168.800781 119.617188 172.761719 119.617188 177.121094 C 119.617188 181.484375 121.253906 185.445312 123.957031 188.453125 C 121.253906 191.464844 119.617188 195.425781 119.617188 199.785156 C 119.617188 204.144531 121.253906 208.105469 123.957031 211.117188 C 121.253906 214.125 119.617188 218.085938 119.617188 222.449219 C 119.617188 231.832031 127.230469 239.445312 136.613281 239.445312 L 147.945312 239.445312 L 147.945312 268.96875 C 147.257812 269.585938 146.59375 270.226562 145.929688 270.890625 C 134.15625 282.667969 128.867188 299.464844 131.765625 315.820312 C 133.558594 326.199219 138.472656 335.605469 145.929688 342.996094 C 152.414062 349.480469 160.472656 354.0625 169.148438 356.183594 C 173.375 357.3125 177.757812 357.890625 182.117188 357.890625 C 188.84375 357.867188 195.570312 356.539062 201.835938 353.882812 C 203.5625 353.152344 204.820312 351.625 205.175781 349.765625 C 205.53125 347.910156 204.953125 346.003906 203.628906 344.675781 L 173.972656 314.976562 L 189.996094 298.953125 L 219.695312 328.609375 C 221.023438 329.9375 222.925781 330.511719 224.738281 330.160156 C 226.597656 329.804688 228.148438 328.589844 228.878906 326.863281 C 229.765625 324.871094 230.496094 322.765625 231.070312 320.511719 C 235.917969 303.09375 231.089844 284.324219 218.476562 271.421875 C 218.34375 271.246094 218.1875 271.089844 218.035156 270.914062 C 214.140625 266.976562 209.625 263.722656 204.601562 261.265625 L 204.601562 239.445312 L 255.570312 239.445312 C 248.421875 249.003906 239.324219 256.992188 228.789062 262.816406 " fill-opacity="1" fill-rule="nonzero"/></g><path fill="#231f20" d="M 133.425781 268.105469 L 139.800781 258.71875 C 116.519531 242.898438 102.621094 216.625 102.621094 188.453125 C 102.621094 161.144531 115.855469 135.339844 138.03125 119.40625 L 131.414062 110.199219 C 106.292969 128.257812 91.289062 157.515625 91.289062 188.453125 C 91.289062 220.390625 107.046875 250.15625 133.425781 268.105469 " fill-opacity="1" fill-rule="nonzero"/><g clip-path="url(#3efa5a802f)"><path fill="#231f20" d="M 23.304688 211.117188 L 47.800781 211.117188 C 49.328125 220.609375 51.808594 229.859375 55.148438 238.757812 L 34.015625 250.972656 C 31.292969 252.523438 30.386719 256 31.933594 258.71875 L 48.929688 288.15625 C 49.683594 289.460938 50.921875 290.410156 52.382812 290.808594 C 53.820312 291.207031 55.371094 290.988281 56.675781 290.234375 L 77.855469 277.972656 C 83.921875 285.367188 90.691406 292.136719 98.082031 298.179688 L 85.824219 319.382812 C 85.070312 320.6875 84.847656 322.238281 85.246094 323.675781 C 85.644531 325.136719 86.597656 326.375 87.902344 327.128906 L 117.359375 344.125 C 118.246094 344.632812 119.21875 344.875 120.171875 344.875 C 122.140625 344.875 124.042969 343.859375 125.082031 342.042969 L 130.375 332.925781 L 120.546875 327.261719 L 118.113281 331.488281 L 98.460938 320.15625 L 110.34375 299.617188 C 111.78125 297.140625 111.164062 293.996094 108.882812 292.269531 C 99.410156 285.078125 90.980469 276.644531 83.789062 267.175781 C 82.0625 264.894531 78.917969 264.273438 76.441406 265.714844 L 55.925781 277.574219 L 44.570312 257.945312 L 65.0625 246.105469 C 67.519531 244.667969 68.5625 241.636719 67.453125 239 C 62.894531 228.179688 59.839844 216.625 58.335938 204.742188 C 57.960938 201.910156 55.570312 199.785156 52.714844 199.785156 L 28.96875 199.785156 L 28.96875 177.121094 L 52.714844 177.121094 C 55.570312 177.121094 57.960938 175 58.335938 172.164062 C 59.507812 162.871094 61.65625 153.730469 64.710938 145.011719 C 65.550781 142.597656 66.457031 140.230469 67.453125 137.90625 C 68.5625 135.273438 67.519531 132.242188 65.0625 130.800781 L 44.570312 118.960938 L 55.925781 99.332031 L 76.441406 111.195312 C 78.894531 112.632812 82.0625 111.992188 83.789062 109.734375 C 90.980469 100.261719 99.410156 91.828125 108.882812 84.636719 C 111.164062 82.910156 111.78125 79.769531 110.34375 77.289062 L 98.460938 56.753906 L 117.027344 46.0625 L 111.363281 36.238281 L 87.902344 49.78125 C 86.597656 50.53125 85.644531 51.773438 85.246094 53.234375 C 84.847656 54.671875 85.070312 56.222656 85.824219 57.527344 L 98.082031 78.726562 C 90.691406 84.769531 83.921875 91.542969 77.855469 98.933594 L 56.675781 86.671875 C 55.371094 85.921875 53.820312 85.699219 52.382812 86.097656 C 50.921875 86.496094 49.683594 87.449219 48.929688 88.753906 L 31.933594 118.1875 C 30.386719 120.910156 31.292969 124.382812 34.015625 125.933594 L 55.148438 138.148438 C 54.75 139.191406 54.398438 140.207031 54.019531 141.25 C 51.253906 149.171875 49.152344 157.402344 47.800781 165.792969 L 23.304688 165.792969 C 20.183594 165.792969 17.636719 168.335938 17.636719 171.457031 L 17.636719 205.449219 C 17.636719 208.570312 20.183594 211.117188 23.304688 211.117188 " fill-opacity="1" fill-rule="nonzero"/></g><path fill="#231f20" d="M 120.546875 100.171875 L 113.488281 91.320312 C 110.277344 93.867188 107.203125 96.589844 104.324219 99.421875 L 112.246094 107.519531 C 114.859375 104.953125 117.648438 102.496094 120.546875 100.171875 " fill-opacity="1" fill-rule="nonzero"/><g clip-path="url(#613d85fe87)"><path fill="#231f20" d="M 351.90625 165.792969 L 327.40625 165.792969 C 325.878906 156.296875 323.402344 147.046875 320.058594 138.148438 L 341.195312 125.933594 C 343.917969 124.382812 344.84375 120.910156 343.273438 118.1875 L 326.277344 88.753906 C 325.523438 87.449219 324.285156 86.496094 322.824219 86.097656 C 321.363281 85.699219 319.835938 85.921875 318.53125 86.671875 L 297.351562 98.933594 C 291.289062 91.542969 284.515625 84.769531 277.125 78.726562 L 289.386719 57.527344 C 290.136719 56.222656 290.359375 54.671875 289.960938 53.234375 C 289.5625 51.773438 288.609375 50.53125 287.304688 49.78125 L 257.847656 32.785156 C 255.148438 31.210938 251.671875 32.140625 250.125 34.863281 L 235.453125 60.25 L 245.253906 65.914062 L 257.097656 45.421875 L 276.75 56.753906 L 264.863281 77.289062 C 263.425781 79.769531 264.046875 82.910156 266.324219 84.636719 C 275.796875 91.828125 284.226562 100.261719 291.421875 109.734375 C 293.148438 112.011719 296.3125 112.632812 298.769531 111.195312 L 319.285156 99.332031 L 330.636719 118.960938 L 310.144531 130.800781 C 307.6875 132.242188 306.648438 135.273438 307.753906 137.90625 C 312.3125 148.730469 315.367188 160.28125 316.871094 172.164062 C 317.25 175 319.636719 177.121094 322.492188 177.121094 L 346.238281 177.121094 L 346.238281 199.785156 L 322.492188 199.785156 C 319.636719 199.785156 317.25 201.910156 316.871094 204.742188 C 315.367188 216.625 312.3125 228.179688 307.753906 239 C 306.648438 241.636719 307.6875 244.667969 310.144531 246.105469 L 330.636719 257.945312 L 319.285156 277.574219 L 298.769531 265.714844 C 296.3125 264.273438 293.148438 264.894531 291.421875 267.175781 C 284.226562 276.644531 275.796875 285.078125 266.324219 292.269531 C 264.046875 293.996094 263.425781 297.140625 264.863281 299.617188 L 276.75 320.15625 L 257.097656 331.488281 L 251.386719 321.59375 L 241.582031 327.261719 L 250.125 342.042969 C 251.164062 343.859375 253.066406 344.875 255.039062 344.875 C 255.988281 344.875 256.964844 344.632812 257.847656 344.125 L 287.304688 327.128906 C 288.609375 326.375 289.5625 325.136719 289.960938 323.675781 C 290.359375 322.238281 290.136719 320.6875 289.386719 319.382812 L 277.125 298.179688 C 284.515625 292.136719 291.289062 285.367188 297.351562 277.972656 L 318.53125 290.234375 C 319.835938 290.988281 321.363281 291.207031 322.824219 290.808594 C 324.285156 290.410156 325.523438 289.460938 326.277344 288.15625 L 343.273438 258.71875 C 344.84375 256 343.917969 252.523438 341.195312 250.972656 L 320.058594 238.757812 C 323.402344 229.859375 325.878906 220.609375 327.40625 211.117188 L 351.90625 211.117188 C 355.027344 211.117188 357.570312 208.570312 357.570312 205.449219 L 357.570312 171.457031 C 357.570312 168.335938 355.027344 165.792969 351.90625 165.792969 " fill-opacity="1" fill-rule="nonzero"/></g></svg>