<svg xmlns="http://www.w3.org/2000/svg" xmlns:xlink="http://www.w3.org/1999/xlink" width="500" zoomAndPan="magnify" viewBox="0 0 375 374.999991" height="500" preserveAspectRatio="xMidYMid meet" version="1.0"><defs><g/><clipPath id="fce7c39209"><path d="M 139.636719 93.953125 L 235.636719 93.953125 L 235.636719 189.953125 L 139.636719 189.953125 Z M 139.636719 93.953125 " clip-rule="nonzero"/></clipPath><clipPath id="10f51e0892"><rect x="0" width="339" y="0" height="100"/></clipPath></defs><g clip-path="url(#fce7c39209)"><path fill="#faab11" d="M 199.398438 174.558594 C 197.015625 175.925781 195.558594 178.296875 195.347656 181.035156 L 194.8125 188.066406 C 194.742188 188.976562 193.988281 189.671875 193.078125 189.671875 L 181.929688 189.671875 C 181.015625 189.671875 180.265625 188.980469 180.195312 188.066406 L 179.65625 181.035156 C 179.414062 177.847656 177.496094 175.230469 174.53125 174.035156 C 174.320312 173.949219 174.109375 173.863281 173.898438 173.773438 C 170.976562 172.53125 167.726562 173.03125 165.320312 175.097656 L 159.964844 179.6875 C 159.273438 180.28125 158.25 180.242188 157.605469 179.597656 L 149.722656 171.714844 C 149.078125 171.070312 149.039062 170.046875 149.632812 169.355469 L 154.226562 164 C 156.292969 161.589844 156.792969 158.339844 155.546875 155.421875 C 155.457031 155.210938 155.371094 155 155.285156 154.789062 C 154.089844 151.824219 151.472656 149.90625 148.285156 149.660156 L 141.25 149.121094 C 140.339844 149.050781 139.644531 148.300781 139.644531 147.390625 L 139.644531 136.242188 C 139.644531 135.332031 140.339844 134.578125 141.25 134.511719 L 148.285156 133.96875 C 151.46875 133.726562 154.089844 131.804688 155.285156 128.84375 C 155.367188 128.628906 155.457031 128.417969 155.546875 128.207031 C 156.792969 125.289062 156.289062 122.039062 154.222656 119.628906 L 149.632812 114.277344 C 149.039062 113.585938 149.078125 112.5625 149.722656 111.917969 L 157.605469 104.035156 C 158.25 103.386719 159.273438 103.351562 159.964844 103.945312 L 165.320312 108.535156 C 167.726562 110.601562 170.980469 111.101562 173.898438 109.859375 C 174.109375 109.769531 174.320312 109.683594 174.53125 109.597656 C 177.496094 108.402344 179.414062 105.785156 179.65625 102.597656 L 180.195312 95.5625 C 180.265625 94.652344 181.015625 93.960938 181.929688 93.960938 L 193.078125 93.960938 C 193.992188 93.960938 194.742188 94.652344 194.8125 95.5625 L 195.351562 102.597656 C 195.59375 105.785156 197.511719 108.402344 200.476562 109.597656 C 200.6875 109.683594 200.902344 109.769531 201.109375 109.859375 C 204.03125 111.101562 207.28125 110.601562 209.6875 108.535156 L 215.042969 103.945312 C 215.734375 103.351562 216.757812 103.386719 217.402344 104.035156 L 225.285156 111.917969 C 225.929688 112.5625 225.96875 113.585938 225.375 114.277344 L 220.78125 119.628906 C 218.714844 122.039062 218.214844 125.289062 219.460938 128.210938 C 219.550781 128.417969 219.636719 128.628906 219.722656 128.84375 C 220.917969 131.804688 223.539062 133.726562 226.722656 133.96875 L 233.757812 134.511719 C 234.667969 134.578125 235.363281 135.332031 235.363281 136.242188 L 235.363281 147.390625 C 235.363281 148.300781 234.667969 149.050781 233.757812 149.121094 L 226.722656 149.660156 C 224.246094 149.851562 222.042969 151.0625 220.628906 153.105469 L 219.992188 154.023438 L 211.035156 146.253906 L 211.054688 146.167969 C 211.320312 144.730469 211.449219 143.273438 211.449219 141.816406 C 211.449219 128.589844 200.730469 117.871094 187.503906 117.871094 C 174.277344 117.871094 163.558594 128.589844 163.558594 141.816406 C 163.558594 155.039062 174.277344 165.761719 187.503906 165.761719 C 189.285156 165.761719 191.058594 165.566406 192.792969 165.171875 L 193.382812 165.042969 L 200.835938 173.730469 Z M 199.398438 174.558594 " fill-opacity="1" fill-rule="evenodd"/></g><path fill="#faab11" d="M 181.632812 124.703125 C 187.859375 122.378906 195.144531 123.730469 200.136719 128.75 C 204.042969 132.683594 205.695312 138.011719 205.09375 143.121094 C 204.714844 146.308594 205.84375 149.222656 208.269531 151.324219 L 228.835938 169.167969 C 232.703125 172.523438 232.429688 178.730469 228.796875 182.339844 C 225.164062 185.949219 218.960938 186.191406 215.625 182.300781 L 197.898438 161.640625 C 195.808594 159.203125 192.902344 158.058594 189.710938 158.414062 C 184.597656 158.988281 179.277344 157.308594 175.371094 153.378906 C 170.378906 148.359375 169.066406 141.066406 171.425781 134.855469 L 182.988281 146.484375 C 183.382812 146.878906 183.90625 147.039062 184.457031 146.929688 L 191.023438 145.628906 C 191.679688 145.5 192.167969 145.015625 192.300781 144.359375 L 193.636719 137.800781 C 193.75 137.253906 193.59375 136.726562 193.195312 136.328125 Z M 219.765625 173.257812 C 221.132812 171.898438 223.34375 171.90625 224.707031 173.273438 C 226.066406 174.640625 226.0625 176.851562 224.691406 178.210938 C 223.324219 179.574219 221.113281 179.566406 219.753906 178.199219 C 218.390625 176.832031 218.398438 174.621094 219.765625 173.257812 Z M 219.765625 173.257812 " fill-opacity="1" fill-rule="evenodd"/><g transform="matrix(1, 0, 0, 1, 17, 173)"><g clip-path="url(#10f51e0892)"><g fill="#ffffff" fill-opacity="1"><g transform="translate(0.157791, 70.245028)"><g><path d="M 27.640625 -37.25 C 30.128906 -38.4375 32.398438 -39.03125 34.453125 -39.03125 C 36.648438 -39.03125 38.164062 -38.078125 39 -36.171875 C 39.789062 -34.253906 40.1875 -30.984375 40.1875 -26.359375 C 40.1875 -20.109375 39.492188 -14.976562 38.109375 -10.96875 C 36.722656 -6.957031 34.554688 -3.988281 31.609375 -2.0625 C 28.660156 -0.144531 24.84375 0.8125 20.15625 0.8125 C 14.613281 0.8125 10.472656 -0.5 7.734375 -3.125 C 5.003906 -5.75 3.640625 -9.726562 3.640625 -15.0625 C 3.640625 -15.90625 3.65625 -16.875 3.6875 -17.96875 C 3.71875 -19.0625 3.769531 -20.28125 3.84375 -21.625 C 3.914062 -22.957031 3.96875 -24.082031 4 -25 C 4.03125 -25.925781 4.046875 -26.632812 4.046875 -27.125 C 4.046875 -31.757812 3.5 -35.160156 2.40625 -37.328125 C 4.925781 -38.460938 7.25 -39.03125 9.375 -39.03125 C 10.625 -39.03125 11.601562 -38.875 12.3125 -38.5625 C 13.03125 -38.25 13.539062 -37.734375 13.84375 -37.015625 C 14.144531 -36.304688 14.296875 -35.335938 14.296875 -34.109375 C 14.296875 -33.765625 14.273438 -33.082031 14.234375 -32.0625 C 14.203125 -31.050781 14.148438 -29.695312 14.078125 -28 C 13.898438 -24.59375 13.8125 -21.523438 13.8125 -18.796875 C 13.8125 -16.054688 14.039062 -13.847656 14.5 -12.171875 C 14.96875 -10.503906 15.75 -9.285156 16.84375 -8.515625 C 17.9375 -7.753906 19.414062 -7.375 21.28125 -7.375 C 23.445312 -7.375 25.195312 -7.929688 26.53125 -9.046875 C 27.875 -10.171875 28.851562 -11.898438 29.46875 -14.234375 C 30.09375 -16.578125 30.40625 -19.566406 30.40625 -23.203125 C 30.40625 -29.929688 29.484375 -34.613281 27.640625 -37.25 Z M 27.640625 -37.25 "/></g></g><g transform="translate(43.279611, 70.245028)"><g><path d="M 11.421875 -24.140625 C 13.773438 -26.316406 16.503906 -27.40625 19.609375 -27.40625 C 21.347656 -27.40625 22.929688 -27.117188 24.359375 -26.546875 C 25.785156 -25.972656 27.015625 -25.148438 28.046875 -24.078125 C 29.085938 -23.003906 29.894531 -21.738281 30.46875 -20.28125 C 31.050781 -18.820312 31.34375 -17.195312 31.34375 -15.40625 C 31.34375 -13.082031 30.941406 -10.957031 30.140625 -9.03125 C 29.335938 -7.113281 28.195312 -5.453125 26.71875 -4.046875 C 25.238281 -2.648438 23.476562 -1.566406 21.4375 -0.796875 C 19.394531 -0.0351562 17.128906 0.34375 14.640625 0.34375 C 10.234375 0.34375 6.265625 -0.710938 2.734375 -2.828125 C 3.035156 -5.410156 3.257812 -8.421875 3.40625 -11.859375 C 3.550781 -15.296875 3.625 -19.148438 3.625 -23.421875 C 3.625 -27.191406 3.503906 -30.265625 3.265625 -32.640625 C 3.023438 -35.015625 2.597656 -36.890625 1.984375 -38.265625 C 4.203125 -39.316406 6.21875 -39.84375 8.03125 -39.84375 C 9.4375 -39.84375 10.457031 -39.484375 11.09375 -38.765625 C 11.738281 -38.054688 12.0625 -36.910156 12.0625 -35.328125 C 12.0625 -35.023438 12.035156 -34.398438 11.984375 -33.453125 C 11.941406 -32.773438 11.890625 -31.90625 11.828125 -30.84375 C 11.765625 -29.78125 11.691406 -28.660156 11.609375 -27.484375 C 11.535156 -26.304688 11.472656 -25.191406 11.421875 -24.140625 Z M 11.359375 -7.90625 C 12.679688 -7.039062 14.101562 -6.609375 15.625 -6.609375 C 16.976562 -6.609375 18.191406 -6.9375 19.265625 -7.59375 C 20.347656 -8.257812 21.191406 -9.164062 21.796875 -10.3125 C 22.410156 -11.457031 22.71875 -12.769531 22.71875 -14.25 C 22.71875 -15.53125 22.46875 -16.648438 21.96875 -17.609375 C 21.46875 -18.566406 20.773438 -19.304688 19.890625 -19.828125 C 19.003906 -20.359375 17.976562 -20.625 16.8125 -20.625 C 15.019531 -20.625 13.238281 -20.078125 11.46875 -18.984375 C 11.394531 -17.835938 11.335938 -16.675781 11.296875 -15.5 C 11.265625 -14.320312 11.25 -13.140625 11.25 -11.953125 C 11.25 -11.046875 11.253906 -10.253906 11.265625 -9.578125 C 11.285156 -8.898438 11.316406 -8.34375 11.359375 -7.90625 Z M 11.359375 -7.90625 "/></g></g><g transform="translate(76.369814, 70.245028)"><g><path d="M 24.78125 -7.625 C 25.945312 -6.34375 26.53125 -5.1875 26.53125 -4.15625 C 26.53125 -2.78125 25.710938 -1.6875 24.078125 -0.875 C 22.453125 -0.0625 20.144531 0.34375 17.15625 0.34375 C 12.195312 0.34375 8.390625 -0.84375 5.734375 -3.21875 C 3.078125 -5.59375 1.75 -8.972656 1.75 -13.359375 C 1.75 -15.492188 2.097656 -17.429688 2.796875 -19.171875 C 3.492188 -20.910156 4.492188 -22.410156 5.796875 -23.671875 C 7.097656 -24.941406 8.640625 -25.921875 10.421875 -26.609375 C 12.210938 -27.296875 14.203125 -27.640625 16.390625 -27.640625 C 18.796875 -27.640625 20.894531 -27.21875 22.6875 -26.375 C 24.476562 -25.539062 25.867188 -24.394531 26.859375 -22.9375 C 27.847656 -21.476562 28.34375 -19.804688 28.34375 -17.921875 C 28.34375 -16.316406 27.972656 -15.046875 27.234375 -14.109375 C 26.503906 -13.179688 25.335938 -12.519531 23.734375 -12.125 C 22.128906 -11.726562 20.019531 -11.53125 17.40625 -11.53125 C 16.082031 -11.53125 14.800781 -11.570312 13.5625 -11.65625 C 12.320312 -11.738281 11.117188 -11.859375 9.953125 -12.015625 L 9.953125 -11.890625 C 9.953125 -9.878906 10.628906 -8.332031 11.984375 -7.25 C 13.335938 -6.164062 15.296875 -5.625 17.859375 -5.625 C 20.796875 -5.625 23.101562 -6.289062 24.78125 -7.625 Z M 10.3125 -16.328125 C 11.6875 -16.179688 12.875 -16.066406 13.875 -15.984375 C 14.875 -15.910156 15.675781 -15.875 16.28125 -15.875 C 17.675781 -15.875 18.671875 -16.015625 19.265625 -16.296875 C 19.859375 -16.585938 20.15625 -17.164062 20.15625 -18.03125 C 20.15625 -19.269531 19.757812 -20.265625 18.96875 -21.015625 C 18.1875 -21.773438 17.15625 -22.15625 15.875 -22.15625 C 14.375 -22.15625 13.132812 -21.648438 12.15625 -20.640625 C 11.1875 -19.628906 10.570312 -18.191406 10.3125 -16.328125 Z M 10.3125 -16.328125 "/></g></g><g transform="translate(106.012532, 70.245028)"><g><path d="M 11.953125 -20.515625 L 12.0625 -20.515625 C 13.269531 -22.890625 14.492188 -24.640625 15.734375 -25.765625 C 16.984375 -26.898438 18.378906 -27.46875 19.921875 -27.46875 C 21.160156 -27.46875 22.179688 -27.050781 22.984375 -26.21875 C 23.785156 -25.394531 24.1875 -24.3125 24.1875 -22.96875 C 24.1875 -21.707031 23.835938 -20.625 23.140625 -19.71875 C 22.441406 -18.820312 21.332031 -18.003906 19.8125 -17.265625 C 19.550781 -18.890625 18.703125 -19.703125 17.265625 -19.703125 C 15.585938 -19.703125 13.992188 -18.269531 12.484375 -15.40625 C 12.410156 -14.707031 12.359375 -13.972656 12.328125 -13.203125 C 12.304688 -12.441406 12.296875 -11.648438 12.296875 -10.828125 C 12.296875 -6.660156 12.878906 -3.597656 14.046875 -1.640625 C 11.617188 -0.503906 9.375 0.0625 7.3125 0.0625 C 5.882812 0.0625 4.863281 -0.25 4.25 -0.875 C 3.632812 -1.5 3.328125 -2.515625 3.328125 -3.921875 C 3.328125 -4.242188 3.351562 -4.875 3.40625 -5.8125 C 3.46875 -6.757812 3.546875 -8.035156 3.640625 -9.640625 C 3.734375 -11.234375 3.800781 -12.742188 3.84375 -14.171875 C 3.894531 -15.609375 3.921875 -16.960938 3.921875 -18.234375 C 3.921875 -21.578125 3.488281 -24.34375 2.625 -26.53125 C 4.550781 -27.113281 6.238281 -27.40625 7.6875 -27.40625 C 9.25 -27.40625 10.378906 -27.050781 11.078125 -26.34375 C 11.773438 -25.644531 12.125 -24.503906 12.125 -22.921875 C 12.125 -22.316406 12.066406 -21.515625 11.953125 -20.515625 Z M 11.953125 -20.515625 "/></g></g><g transform="translate(130.144927, 70.245028)"><g><path d="M 3.703125 -38.546875 C 6.679688 -38.429688 9.210938 -38.375 11.296875 -38.375 C 12.316406 -38.375 13.441406 -38.398438 14.671875 -38.453125 C 15.910156 -38.515625 17.253906 -38.59375 18.703125 -38.6875 C 20.160156 -38.78125 21.359375 -38.847656 22.296875 -38.890625 C 23.234375 -38.941406 23.921875 -38.96875 24.359375 -38.96875 C 25.992188 -38.96875 27.175781 -38.710938 27.90625 -38.203125 C 28.632812 -37.691406 29 -36.804688 29 -35.546875 C 29 -34.234375 28.523438 -32.578125 27.578125 -30.578125 C 25.710938 -31.398438 22.925781 -31.8125 19.21875 -31.8125 C 18.820312 -31.8125 18.195312 -31.796875 17.34375 -31.765625 C 16.5 -31.742188 15.425781 -31.710938 14.125 -31.671875 C 14.125 -31.367188 14.097656 -30.128906 14.046875 -27.953125 C 14.003906 -26.859375 13.972656 -25.890625 13.953125 -25.046875 C 13.941406 -24.210938 13.9375 -23.492188 13.9375 -22.890625 C 14.945312 -22.847656 15.789062 -22.816406 16.46875 -22.796875 C 17.15625 -22.785156 17.675781 -22.78125 18.03125 -22.78125 C 21.875 -22.78125 24.613281 -23.070312 26.25 -23.65625 C 26.757812 -22.46875 27.015625 -21.351562 27.015625 -20.3125 C 27.015625 -18.863281 26.617188 -17.828125 25.828125 -17.203125 C 25.035156 -16.585938 23.765625 -16.28125 22.015625 -16.28125 C 21.941406 -16.28125 21.800781 -16.28125 21.59375 -16.28125 C 21.382812 -16.28125 21.101562 -16.289062 20.75 -16.3125 C 20.007812 -16.320312 19.015625 -16.335938 17.765625 -16.359375 C 16.523438 -16.378906 15.207031 -16.390625 13.8125 -16.390625 C 13.8125 -9.117188 14.378906 -4.222656 15.515625 -1.703125 C 12.953125 -0.523438 10.671875 0.0625 8.671875 0.0625 C 6.972656 0.0625 5.773438 -0.300781 5.078125 -1.03125 C 4.390625 -1.769531 4.046875 -3.007812 4.046875 -4.75 C 4.046875 -5.375 4.15625 -7.953125 4.375 -12.484375 C 4.46875 -14.765625 4.539062 -16.96875 4.59375 -19.09375 C 4.65625 -21.226562 4.6875 -23.296875 4.6875 -25.296875 C 4.6875 -28.140625 4.601562 -30.660156 4.4375 -32.859375 C 4.269531 -35.066406 4.023438 -36.960938 3.703125 -38.546875 Z M 3.703125 -38.546875 "/></g></g><g transform="translate(160.494097, 70.245028)"><g><path d="M 8.84375 -40.359375 C 9.707031 -40.359375 10.472656 -40.164062 11.140625 -39.78125 C 11.816406 -39.40625 12.347656 -38.894531 12.734375 -38.25 C 13.117188 -37.601562 13.3125 -36.863281 13.3125 -36.03125 C 13.3125 -35.144531 13.078125 -34.332031 12.609375 -33.59375 C 12.148438 -32.863281 11.53125 -32.285156 10.75 -31.859375 C 9.96875 -31.429688 9.078125 -31.21875 8.078125 -31.21875 C 6.773438 -31.21875 5.726562 -31.597656 4.9375 -32.359375 C 4.15625 -33.128906 3.765625 -34.132812 3.765625 -35.375 C 3.765625 -36.300781 3.988281 -37.132812 4.4375 -37.875 C 4.882812 -38.625 5.492188 -39.222656 6.265625 -39.671875 C 7.046875 -40.128906 7.90625 -40.359375 8.84375 -40.359375 Z M 13.703125 -1.53125 C 11.597656 -0.507812 9.453125 0 7.265625 0 C 5.828125 0 4.820312 -0.304688 4.25 -0.921875 C 3.675781 -1.546875 3.390625 -2.601562 3.390625 -4.09375 C 3.390625 -4.695312 3.472656 -6.382812 3.640625 -9.15625 C 3.722656 -10.53125 3.78125 -11.828125 3.8125 -13.046875 C 3.851562 -14.273438 3.875 -15.4375 3.875 -16.53125 C 3.875 -20.882812 3.441406 -23.960938 2.578125 -25.765625 C 4.703125 -26.785156 6.828125 -27.296875 8.953125 -27.296875 C 10.328125 -27.296875 11.328125 -26.972656 11.953125 -26.328125 C 12.578125 -25.691406 12.890625 -24.648438 12.890625 -23.203125 C 12.890625 -22.296875 12.800781 -20.410156 12.625 -17.546875 C 12.53125 -16.117188 12.457031 -14.8125 12.40625 -13.625 C 12.363281 -12.4375 12.34375 -11.367188 12.34375 -10.421875 C 12.34375 -6.691406 12.796875 -3.726562 13.703125 -1.53125 Z M 13.703125 -1.53125 "/></g></g><g transform="translate(176.714231, 70.245028)"><g><path d="M 1.53125 -22.96875 C 2.9375 -26.007812 4.847656 -27.53125 7.265625 -27.53125 C 8.085938 -27.53125 8.804688 -27.285156 9.421875 -26.796875 C 10.035156 -26.316406 10.625 -25.703125 11.1875 -24.953125 C 11.414062 -24.648438 11.640625 -24.34375 11.859375 -24.03125 C 12.078125 -23.71875 12.28125 -23.410156 12.46875 -23.109375 C 12.726562 -22.703125 13.039062 -22.207031 13.40625 -21.625 C 13.769531 -21.039062 14.171875 -20.4375 14.609375 -19.8125 C 15.046875 -19.1875 15.46875 -18.59375 15.875 -18.03125 C 18.570312 -21.289062 19.921875 -23.738281 19.921875 -25.375 C 19.921875 -25.46875 19.910156 -25.582031 19.890625 -25.71875 C 19.867188 -25.863281 19.84375 -26.023438 19.8125 -26.203125 C 21.789062 -26.972656 23.617188 -27.359375 25.296875 -27.359375 C 26.347656 -27.359375 27.148438 -27.132812 27.703125 -26.6875 C 28.265625 -26.25 28.546875 -25.632812 28.546875 -24.84375 C 28.546875 -23.726562 27.847656 -22.332031 26.453125 -20.65625 C 25.753906 -19.832031 24.832031 -18.835938 23.6875 -17.671875 C 22.550781 -16.515625 21.191406 -15.191406 19.609375 -13.703125 C 19.742188 -13.554688 19.894531 -13.363281 20.0625 -13.125 C 20.226562 -12.882812 20.4375 -12.617188 20.6875 -12.328125 C 21.644531 -11.078125 22.582031 -9.875 23.5 -8.71875 C 24.414062 -7.5625 25.296875 -6.582031 26.140625 -5.78125 C 26.984375 -4.976562 27.773438 -4.472656 28.515625 -4.265625 C 27.117188 -1.347656 25.128906 0.109375 22.546875 0.109375 C 21.929688 0.109375 21.378906 -0.00390625 20.890625 -0.234375 C 20.410156 -0.472656 19.925781 -0.882812 19.4375 -1.46875 C 19.195312 -1.769531 18.972656 -2.0625 18.765625 -2.34375 C 18.554688 -2.625 18.359375 -2.914062 18.171875 -3.21875 C 17.890625 -3.675781 17.539062 -4.234375 17.125 -4.890625 C 16.707031 -5.546875 16.269531 -6.226562 15.8125 -6.9375 C 15.363281 -7.644531 14.9375 -8.300781 14.53125 -8.90625 C 11.644531 -5.882812 10.203125 -3.519531 10.203125 -1.8125 C 10.203125 -1.488281 10.257812 -1.15625 10.375 -0.8125 C 8.207031 -0.195312 6.445312 0.109375 5.09375 0.109375 C 2.632812 0.109375 1.40625 -0.820312 1.40625 -2.6875 C 1.40625 -3.101562 1.484375 -3.535156 1.640625 -3.984375 C 1.753906 -4.285156 1.929688 -4.617188 2.171875 -4.984375 C 2.421875 -5.347656 2.695312 -5.71875 3 -6.09375 C 3.300781 -6.476562 3.5625 -6.8125 3.78125 -7.09375 C 3.96875 -7.300781 4.21875 -7.566406 4.53125 -7.890625 C 4.84375 -8.222656 5.234375 -8.609375 5.703125 -9.046875 C 6.160156 -9.472656 6.554688 -9.84375 6.890625 -10.15625 C 7.234375 -10.46875 7.5625 -10.773438 7.875 -11.078125 C 8.195312 -11.378906 8.578125 -11.726562 9.015625 -12.125 C 9.453125 -12.519531 10 -13.007812 10.65625 -13.59375 C 9.519531 -15.082031 8.5 -16.378906 7.59375 -17.484375 C 6.695312 -18.597656 5.910156 -19.523438 5.234375 -20.265625 C 3.835938 -21.710938 2.601562 -22.613281 1.53125 -22.96875 Z M 1.53125 -22.96875 "/></g></g><g transform="translate(206.696046, 70.245028)"><g><path d="M 7.609375 -3.140625 C 7.609375 -4.097656 7.300781 -4.890625 6.6875 -5.515625 C 6.070312 -6.148438 5.332031 -6.46875 4.46875 -6.46875 C 3.507812 -6.46875 2.710938 -6.148438 2.078125 -5.515625 C 1.441406 -4.890625 1.125 -4.097656 1.125 -3.140625 C 1.125 -2.273438 1.441406 -1.535156 2.078125 -0.921875 C 2.710938 -0.304688 3.507812 0 4.46875 0 C 5.050781 0 5.578125 -0.140625 6.046875 -0.421875 C 6.515625 -0.703125 6.890625 -1.082031 7.171875 -1.5625 C 7.460938 -2.039062 7.609375 -2.566406 7.609375 -3.140625 Z M 7.609375 -3.140625 "/></g></g><g transform="translate(215.427791, 70.245028)"><g><path d="M 3.5 -6.5625 C 4.957031 -5.78125 6.410156 -5.390625 7.859375 -5.390625 C 8.910156 -5.390625 9.742188 -5.59375 10.359375 -6 C 10.984375 -6.40625 11.296875 -6.921875 11.296875 -7.546875 C 11.296875 -7.867188 11.222656 -8.15625 11.078125 -8.40625 C 10.929688 -8.65625 10.734375 -8.90625 10.484375 -9.15625 C 10.390625 -9.25 10.191406 -9.398438 9.890625 -9.609375 C 9.585938 -9.816406 9.253906 -10.046875 8.890625 -10.296875 C 8.523438 -10.554688 8.171875 -10.796875 7.828125 -11.015625 C 7.484375 -11.242188 7.21875 -11.414062 7.03125 -11.53125 C 5.9375 -12.257812 5.046875 -12.941406 4.359375 -13.578125 C 3.671875 -14.222656 3.171875 -14.90625 2.859375 -15.625 C 2.554688 -16.34375 2.40625 -17.171875 2.40625 -18.109375 C 2.40625 -19.410156 2.71875 -20.648438 3.34375 -21.828125 C 3.976562 -23.003906 4.859375 -24.039062 5.984375 -24.9375 C 7.117188 -25.832031 8.441406 -26.535156 9.953125 -27.046875 C 11.472656 -27.566406 13.117188 -27.828125 14.890625 -27.828125 C 16.210938 -27.828125 17.21875 -27.566406 17.90625 -27.046875 C 18.59375 -26.535156 18.9375 -25.78125 18.9375 -24.78125 C 18.9375 -23.539062 18.390625 -22.289062 17.296875 -21.03125 C 16.109375 -21.570312 14.988281 -21.84375 13.9375 -21.84375 C 12.726562 -21.84375 11.769531 -21.601562 11.0625 -21.125 C 10.351562 -20.644531 10 -20.066406 10 -19.390625 C 10 -18.535156 10.8125 -17.5 12.4375 -16.28125 C 12.832031 -15.976562 13.273438 -15.644531 13.765625 -15.28125 C 14.253906 -14.925781 14.675781 -14.609375 15.03125 -14.328125 C 15.164062 -14.234375 15.367188 -14.070312 15.640625 -13.84375 C 15.910156 -13.625 16.1875 -13.394531 16.46875 -13.15625 C 16.757812 -12.914062 16.953125 -12.734375 17.046875 -12.609375 C 17.378906 -12.171875 17.671875 -11.769531 17.921875 -11.40625 C 18.179688 -11.050781 18.378906 -10.648438 18.515625 -10.203125 C 18.660156 -9.765625 18.734375 -9.195312 18.734375 -8.5 C 18.734375 -7.238281 18.441406 -6.050781 17.859375 -4.9375 C 17.273438 -3.832031 16.453125 -2.859375 15.390625 -2.015625 C 14.328125 -1.179688 13.054688 -0.523438 11.578125 -0.046875 C 10.109375 0.421875 8.488281 0.65625 6.71875 0.65625 C 3.570312 0.65625 2 -0.472656 2 -2.734375 C 2 -3.828125 2.5 -5.101562 3.5 -6.5625 Z M 3.5 -6.5625 "/></g></g><g transform="translate(236.225733, 70.245028)"><g><path d="M 31.515625 -1.53125 C 29.535156 -0.507812 27.40625 0 25.125 0 C 23.65625 0 22.628906 -0.3125 22.046875 -0.9375 C 21.472656 -1.570312 21.1875 -2.660156 21.1875 -4.203125 C 21.1875 -4.546875 21.203125 -5.054688 21.234375 -5.734375 C 21.265625 -6.410156 21.316406 -7.269531 21.390625 -8.3125 C 21.503906 -10.382812 21.5625 -12.109375 21.5625 -13.484375 C 21.5625 -15.273438 21.425781 -16.710938 21.15625 -17.796875 C 20.894531 -18.890625 20.445312 -19.691406 19.8125 -20.203125 C 19.1875 -20.710938 18.316406 -20.96875 17.203125 -20.96875 C 15.816406 -20.96875 14.046875 -20.398438 11.890625 -19.265625 C 11.816406 -18.398438 11.757812 -17.445312 11.71875 -16.40625 C 11.6875 -15.363281 11.671875 -14.207031 11.671875 -12.9375 C 11.671875 -7.3125 12.148438 -3.507812 13.109375 -1.53125 C 10.960938 -0.507812 8.863281 0 6.8125 0 C 5.832031 0 5.0625 -0.140625 4.5 -0.421875 C 3.945312 -0.703125 3.554688 -1.171875 3.328125 -1.828125 C 3.109375 -2.492188 3 -3.390625 3 -4.515625 C 3 -4.816406 3.023438 -5.601562 3.078125 -6.875 C 3.140625 -8.144531 3.21875 -9.90625 3.3125 -12.15625 C 3.40625 -14.394531 3.476562 -16.554688 3.53125 -18.640625 C 3.59375 -20.722656 3.625 -22.734375 3.625 -24.671875 C 3.625 -26.515625 3.597656 -28.164062 3.546875 -29.625 C 3.492188 -31.082031 3.421875 -32.34375 3.328125 -33.40625 C 3.234375 -34.457031 3.082031 -35.390625 2.875 -36.203125 C 2.675781 -37.015625 2.425781 -37.703125 2.125 -38.265625 C 4.4375 -39.316406 6.5625 -39.84375 8.5 -39.84375 C 9.957031 -39.84375 10.972656 -39.503906 11.546875 -38.828125 C 12.117188 -38.148438 12.40625 -36.984375 12.40625 -35.328125 C 12.40625 -35.140625 12.398438 -34.875 12.390625 -34.53125 C 12.378906 -34.195312 12.363281 -33.785156 12.34375 -33.296875 C 12.3125 -32.609375 12.265625 -31.722656 12.203125 -30.640625 C 12.148438 -29.554688 12.09375 -28.414062 12.03125 -27.21875 C 11.976562 -26.03125 11.929688 -24.90625 11.890625 -23.84375 C 14.722656 -26.332031 17.710938 -27.578125 20.859375 -27.578125 C 23.910156 -27.578125 26.242188 -26.695312 27.859375 -24.9375 C 29.484375 -23.175781 30.296875 -20.628906 30.296875 -17.296875 C 30.296875 -16.523438 30.265625 -15.300781 30.203125 -13.625 C 30.171875 -12.789062 30.144531 -12.046875 30.125 -11.390625 C 30.101562 -10.742188 30.09375 -10.1875 30.09375 -9.71875 C 30.09375 -5.820312 30.566406 -3.09375 31.515625 -1.53125 Z M 31.515625 -1.53125 "/></g></g><g transform="translate(269.428968, 70.245028)"><g><path d="M 32.53125 -14.25 C 32.53125 -10.625 31.390625 -7.472656 29.109375 -4.796875 C 25.992188 -1.160156 21.894531 0.65625 16.8125 0.65625 C 14.59375 0.65625 12.554688 0.316406 10.703125 -0.359375 C 8.859375 -1.046875 7.265625 -2.003906 5.921875 -3.234375 C 4.585938 -4.472656 3.554688 -5.9375 2.828125 -7.625 C 2.109375 -9.320312 1.75 -11.1875 1.75 -13.21875 C 1.75 -15.332031 2.140625 -17.28125 2.921875 -19.0625 C 3.703125 -20.84375 4.804688 -22.382812 6.234375 -23.6875 C 7.671875 -25 9.363281 -26.015625 11.3125 -26.734375 C 13.269531 -27.460938 15.414062 -27.828125 17.75 -27.828125 C 19.914062 -27.828125 21.898438 -27.492188 23.703125 -26.828125 C 25.515625 -26.160156 27.078125 -25.210938 28.390625 -23.984375 C 29.710938 -22.765625 30.734375 -21.328125 31.453125 -19.671875 C 32.171875 -18.023438 32.53125 -16.21875 32.53125 -14.25 Z M 10.375 -13.421875 C 10.375 -12.066406 10.660156 -10.867188 11.234375 -9.828125 C 11.804688 -8.796875 12.601562 -7.992188 13.625 -7.421875 C 14.65625 -6.847656 15.847656 -6.5625 17.203125 -6.5625 C 18.484375 -6.5625 19.640625 -6.863281 20.671875 -7.46875 C 21.703125 -8.082031 22.515625 -8.929688 23.109375 -10.015625 C 23.710938 -11.097656 24.015625 -12.328125 24.015625 -13.703125 C 24.015625 -15.140625 23.734375 -16.378906 23.171875 -17.421875 C 22.609375 -18.460938 21.8125 -19.273438 20.78125 -19.859375 C 19.757812 -20.453125 18.566406 -20.75 17.203125 -20.75 C 15.867188 -20.75 14.679688 -20.441406 13.640625 -19.828125 C 12.609375 -19.210938 11.804688 -18.359375 11.234375 -17.265625 C 10.660156 -16.171875 10.375 -14.890625 10.375 -13.421875 Z M 10.375 -13.421875 "/></g></g><g transform="translate(303.706011, 70.245028)"><g><path d="M 11.953125 -23.90625 C 14.460938 -26.238281 17.351562 -27.40625 20.625 -27.40625 C 22.363281 -27.40625 23.945312 -27.097656 25.375 -26.484375 C 26.8125 -25.878906 28.050781 -25.007812 29.09375 -23.875 C 30.132812 -22.75 30.941406 -21.410156 31.515625 -19.859375 C 32.097656 -18.316406 32.390625 -16.613281 32.390625 -14.75 C 32.390625 -13.144531 32.171875 -11.601562 31.734375 -10.125 C 31.296875 -8.644531 30.710938 -7.398438 29.984375 -6.390625 C 26.910156 -2.128906 23.066406 0 18.453125 0 C 15.960938 0 13.722656 -0.6875 11.734375 -2.0625 L 11.734375 -0.984375 C 11.734375 4.660156 12.210938 8.410156 13.171875 10.265625 C 11.023438 11.273438 8.976562 11.78125 7.03125 11.78125 C 5.5625 11.78125 4.550781 11.441406 4 10.765625 C 3.445312 10.085938 3.171875 8.9375 3.171875 7.3125 C 3.171875 7.070312 3.179688 6.640625 3.203125 6.015625 C 3.234375 5.398438 3.285156 4.59375 3.359375 3.59375 C 3.453125 2.226562 3.539062 0.585938 3.625 -1.328125 C 3.71875 -3.242188 3.789062 -5.335938 3.84375 -7.609375 C 3.894531 -9.878906 3.921875 -12.203125 3.921875 -14.578125 C 3.921875 -16.554688 3.882812 -18.273438 3.8125 -19.734375 C 3.738281 -21.191406 3.597656 -22.476562 3.390625 -23.59375 C 3.179688 -24.707031 2.867188 -25.707031 2.453125 -26.59375 C 4.015625 -27.101562 5.523438 -27.359375 6.984375 -27.359375 C 8.523438 -27.359375 9.703125 -27.078125 10.515625 -26.515625 C 11.328125 -25.960938 11.804688 -25.09375 11.953125 -23.90625 Z M 11.953125 -8.5625 C 13.535156 -7.425781 15.175781 -6.859375 16.875 -6.859375 C 18.1875 -6.859375 19.351562 -7.164062 20.375 -7.78125 C 21.40625 -8.394531 22.210938 -9.238281 22.796875 -10.3125 C 23.390625 -11.382812 23.6875 -12.609375 23.6875 -13.984375 C 23.6875 -15.304688 23.421875 -16.46875 22.890625 -17.46875 C 22.359375 -18.46875 21.628906 -19.242188 20.703125 -19.796875 C 19.785156 -20.347656 18.722656 -20.625 17.515625 -20.625 C 15.765625 -20.625 13.945312 -19.992188 12.0625 -18.734375 C 12.03125 -16.660156 12.003906 -14.773438 11.984375 -13.078125 C 11.960938 -11.390625 11.953125 -9.882812 11.953125 -8.5625 Z M 11.953125 -8.5625 "/></g></g></g></g></g><g fill="#faab11" fill-opacity="1"><g transform="translate(54.90523, 273.324827)"><g><path d="M 10.96875 -7.15625 C 10.96875 -6.113281 10.835938 -5.128906 10.578125 -4.203125 C 10.316406 -3.273438 9.941406 -2.46875 9.453125 -1.78125 C 8.972656 -1.09375 8.375 -0.582031 7.65625 -0.25 C 7.90625 0.1875 8.195312 0.484375 8.53125 0.640625 C 8.863281 0.796875 9.289062 0.875 9.8125 0.875 L 9.8125 1.828125 C 9.039062 1.828125 8.40625 1.679688 7.90625 1.390625 C 7.414062 1.097656 7.023438 0.617188 6.734375 -0.046875 C 6.390625 0.078125 6.050781 0.132812 5.71875 0.125 C 4.769531 0.0703125 3.953125 -0.257812 3.265625 -0.875 C 2.578125 -1.488281 2.046875 -2.335938 1.671875 -3.421875 C 1.296875 -4.503906 1.109375 -5.753906 1.109375 -7.171875 C 1.109375 -8.679688 1.3125 -10.003906 1.71875 -11.140625 C 2.132812 -12.273438 2.710938 -13.164062 3.453125 -13.8125 C 4.203125 -14.457031 5.054688 -14.78125 6.015625 -14.78125 C 7.046875 -14.78125 7.925781 -14.457031 8.65625 -13.8125 C 9.394531 -13.164062 9.960938 -12.269531 10.359375 -11.125 C 10.765625 -9.988281 10.96875 -8.664062 10.96875 -7.15625 Z M 3.125 -7.09375 C 3.125 -6 3.234375 -5.019531 3.453125 -4.15625 C 3.679688 -3.289062 4.007812 -2.609375 4.4375 -2.109375 C 4.875 -1.609375 5.398438 -1.359375 6.015625 -1.359375 C 6.503906 -1.359375 6.929688 -1.523438 7.296875 -1.859375 C 7.660156 -2.203125 7.957031 -2.65625 8.1875 -3.21875 C 8.425781 -3.789062 8.601562 -4.410156 8.71875 -5.078125 C 8.832031 -5.753906 8.890625 -6.441406 8.890625 -7.140625 C 8.890625 -9.066406 8.644531 -10.554688 8.15625 -11.609375 C 7.664062 -12.660156 6.960938 -13.1875 6.046875 -13.1875 C 5.421875 -13.1875 4.890625 -12.929688 4.453125 -12.421875 C 4.023438 -11.921875 3.695312 -11.210938 3.46875 -10.296875 C 3.238281 -9.390625 3.125 -8.320312 3.125 -7.09375 Z M 3.125 -7.09375 "/></g></g></g><g fill="#faab11" fill-opacity="1"><g transform="translate(67.93371, 273.324827)"><g><path d="M 7.28125 -2.5 L 7.28125 -10.25 L 9.15625 -10.25 L 9.15625 -1.765625 C 9.15625 -1.671875 9.1875 -1.59375 9.25 -1.53125 C 9.320312 -1.46875 9.398438 -1.4375 9.484375 -1.4375 L 9.875 -1.4375 L 9.875 0 L 9.09375 0 C 8.59375 0 8.226562 -0.144531 8 -0.4375 C 7.769531 -0.738281 7.675781 -1.09375 7.71875 -1.5 L 7.734375 -2.03125 L 7.625 -2.03125 C 7.46875 -1.707031 7.253906 -1.375 6.984375 -1.03125 C 6.722656 -0.695312 6.378906 -0.414062 5.953125 -0.1875 C 5.523438 0.03125 4.988281 0.140625 4.34375 0.140625 C 3.4375 0.140625 2.6875 -0.140625 2.09375 -0.703125 C 1.5 -1.273438 1.203125 -2.015625 1.203125 -2.921875 L 1.203125 -10.25 L 3.078125 -10.25 L 3.078125 -3.4375 C 3.078125 -2.820312 3.257812 -2.320312 3.625 -1.9375 C 4 -1.5625 4.472656 -1.375 5.046875 -1.375 C 5.585938 -1.375 6.019531 -1.46875 6.34375 -1.65625 C 6.664062 -1.851562 6.898438 -2.039062 7.046875 -2.21875 C 7.203125 -2.40625 7.28125 -2.5 7.28125 -2.5 Z M 7.28125 -2.5 "/></g></g></g><g fill="#faab11" fill-opacity="1"><g transform="translate(80.070672, 273.324827)"><g><path d="M 2.203125 -11.671875 C 1.910156 -11.671875 1.65625 -11.78125 1.4375 -12 C 1.21875 -12.21875 1.109375 -12.472656 1.109375 -12.765625 C 1.109375 -13.078125 1.21875 -13.335938 1.4375 -13.546875 C 1.65625 -13.753906 1.910156 -13.859375 2.203125 -13.859375 C 2.515625 -13.859375 2.78125 -13.753906 3 -13.546875 C 3.21875 -13.335938 3.328125 -13.078125 3.328125 -12.765625 C 3.328125 -12.472656 3.21875 -12.21875 3 -12 C 2.78125 -11.78125 2.515625 -11.671875 2.203125 -11.671875 Z M 3.203125 0 L 1.3125 0 L 1.3125 -10.28125 L 3.203125 -10.28125 Z M 3.203125 0 "/></g></g></g><g fill="#faab11" fill-opacity="1"><g transform="translate(85.602299, 273.324827)"><g><path d="M 5.1875 0.140625 C 4.351562 0.140625 3.617188 -0.078125 2.984375 -0.515625 C 2.359375 -0.953125 1.875 -1.566406 1.53125 -2.359375 C 1.1875 -3.148438 1.015625 -4.070312 1.015625 -5.125 C 1.015625 -6.164062 1.1875 -7.078125 1.53125 -7.859375 C 1.875 -8.640625 2.359375 -9.242188 2.984375 -9.671875 C 3.617188 -10.109375 4.351562 -10.328125 5.1875 -10.328125 C 6 -10.328125 6.703125 -10.160156 7.296875 -9.828125 C 7.898438 -9.503906 8.367188 -9.039062 8.703125 -8.4375 C 9.046875 -7.832031 9.21875 -7.132812 9.21875 -6.34375 L 7.34375 -6.34375 C 7.34375 -7.132812 7.140625 -7.765625 6.734375 -8.234375 C 6.335938 -8.710938 5.816406 -8.953125 5.171875 -8.953125 C 4.484375 -8.953125 3.929688 -8.609375 3.515625 -7.921875 C 3.097656 -7.242188 2.890625 -6.351562 2.890625 -5.25 C 2.890625 -4.039062 3.097656 -3.070312 3.515625 -2.34375 C 3.941406 -1.613281 4.5 -1.25 5.1875 -1.25 C 5.820312 -1.25 6.335938 -1.5 6.734375 -2 C 7.140625 -2.5 7.34375 -3.164062 7.34375 -4 L 9.21875 -4 C 9.21875 -3.164062 9.046875 -2.4375 8.703125 -1.8125 C 8.367188 -1.195312 7.898438 -0.71875 7.296875 -0.375 C 6.703125 -0.03125 6 0.140625 5.1875 0.140625 Z M 5.1875 0.140625 "/></g></g></g><g fill="#faab11" fill-opacity="1"><g transform="translate(96.746429, 273.324827)"><g><path d="M 1.3125 -14.59375 L 3.203125 -14.59375 L 3.203125 -6.015625 L 7.34375 -10.28125 L 9.53125 -10.28125 L 4.765625 -5.34375 L 9.28125 0 L 7.15625 0 L 3.203125 -4.703125 L 3.203125 0 L 1.3125 0 Z M 1.3125 -14.59375 "/></g></g></g><g fill="#faab11" fill-opacity="1"><g transform="translate(107.586638, 273.324827)"><g/></g></g><g fill="#faab11" fill-opacity="1"><g transform="translate(113.543757, 273.324827)"><g><path d="M 1.625 0 L 1.625 -14.46875 L 4.046875 -14.46875 L 7.4375 -2.328125 L 7.59375 -2.328125 L 10.96875 -14.484375 L 13.390625 -14.46875 L 13.390625 0 L 11.515625 0 L 11.515625 -11.859375 L 11.34375 -11.859375 L 8.25 0 L 6.765625 0 L 3.671875 -11.859375 L 3.5 -11.859375 L 3.5 0 Z M 1.625 0 "/></g></g></g><g fill="#faab11" fill-opacity="1"><g transform="translate(129.570978, 273.324827)"><g><path d="M 9.703125 -1.390625 L 9.703125 0 L 9 0 C 8.507812 0 8.132812 -0.144531 7.875 -0.4375 C 7.613281 -0.726562 7.5 -1.101562 7.53125 -1.5625 L 7.5625 -2.03125 L 7.4375 -2.03125 C 7.195312 -1.375 6.769531 -0.847656 6.15625 -0.453125 C 5.539062 -0.0664062 4.851562 0.125 4.09375 0.125 C 3.164062 0.125 2.410156 -0.144531 1.828125 -0.6875 C 1.253906 -1.226562 0.96875 -1.9375 0.96875 -2.8125 C 0.96875 -3.53125 1.1875 -4.128906 1.625 -4.609375 C 2.070312 -5.085938 2.707031 -5.394531 3.53125 -5.53125 C 4.46875 -5.664062 5.148438 -5.765625 5.578125 -5.828125 C 6.003906 -5.890625 6.265625 -5.929688 6.359375 -5.953125 C 6.941406 -6.085938 7.234375 -6.300781 7.234375 -6.59375 C 7.234375 -7.300781 7.03125 -7.867188 6.625 -8.296875 C 6.21875 -8.722656 5.6875 -8.9375 5.03125 -8.9375 C 4.351562 -8.9375 3.8125 -8.742188 3.40625 -8.359375 C 3.007812 -7.972656 2.8125 -7.535156 2.8125 -7.046875 L 1.046875 -7.046875 C 1.046875 -7.671875 1.210938 -8.226562 1.546875 -8.71875 C 1.890625 -9.21875 2.359375 -9.613281 2.953125 -9.90625 C 3.546875 -10.207031 4.238281 -10.359375 5.03125 -10.359375 C 5.820312 -10.359375 6.515625 -10.1875 7.109375 -9.84375 C 7.703125 -9.5 8.164062 -9.007812 8.5 -8.375 C 8.832031 -7.75 9 -7.007812 9 -6.15625 L 9 -1.859375 C 9 -1.722656 9.035156 -1.609375 9.109375 -1.515625 C 9.179688 -1.429688 9.28125 -1.390625 9.40625 -1.390625 Z M 4.71875 -1.25 C 5.425781 -1.25 6.007812 -1.441406 6.46875 -1.828125 C 6.925781 -2.210938 7.179688 -2.722656 7.234375 -3.359375 L 7.234375 -5.296875 L 7.171875 -5.328125 C 6.941406 -5.148438 6.644531 -5.023438 6.28125 -4.953125 C 5.914062 -4.878906 5.535156 -4.8125 5.140625 -4.75 C 4.742188 -4.6875 4.363281 -4.597656 4 -4.484375 C 3.644531 -4.367188 3.351562 -4.191406 3.125 -3.953125 C 2.894531 -3.722656 2.78125 -3.390625 2.78125 -2.953125 C 2.78125 -2.453125 2.957031 -2.039062 3.3125 -1.71875 C 3.664062 -1.40625 4.132812 -1.25 4.71875 -1.25 Z M 4.71875 -1.25 "/></g></g></g><g fill="#faab11" fill-opacity="1"><g transform="translate(140.735375, 273.324827)"><g><path d="M 2.203125 -11.671875 C 1.910156 -11.671875 1.65625 -11.78125 1.4375 -12 C 1.21875 -12.21875 1.109375 -12.472656 1.109375 -12.765625 C 1.109375 -13.078125 1.21875 -13.335938 1.4375 -13.546875 C 1.65625 -13.753906 1.910156 -13.859375 2.203125 -13.859375 C 2.515625 -13.859375 2.78125 -13.753906 3 -13.546875 C 3.21875 -13.335938 3.328125 -13.078125 3.328125 -12.765625 C 3.328125 -12.472656 3.21875 -12.21875 3 -12 C 2.78125 -11.78125 2.515625 -11.671875 2.203125 -11.671875 Z M 3.203125 0 L 1.3125 0 L 1.3125 -10.28125 L 3.203125 -10.28125 Z M 3.203125 0 "/></g></g></g><g fill="#faab11" fill-opacity="1"><g transform="translate(146.267002, 273.324827)"><g><path d="M 9.296875 0 L 7.421875 0 L 7.421875 -6.9375 C 7.421875 -7.550781 7.234375 -8.046875 6.859375 -8.421875 C 6.484375 -8.796875 5.992188 -8.984375 5.390625 -8.984375 C 4.953125 -8.984375 4.566406 -8.890625 4.234375 -8.703125 C 3.910156 -8.523438 3.65625 -8.34375 3.46875 -8.15625 C 3.289062 -7.976562 3.203125 -7.890625 3.203125 -7.890625 L 3.203125 0 L 1.3125 0 L 1.3125 -10.25 L 3.203125 -10.25 L 3.203125 -8.734375 L 3.34375 -8.734375 C 3.570312 -9.222656 3.921875 -9.613281 4.390625 -9.90625 C 4.859375 -10.207031 5.484375 -10.359375 6.265625 -10.359375 C 7.140625 -10.359375 7.863281 -10.070312 8.4375 -9.5 C 9.007812 -8.9375 9.296875 -8.195312 9.296875 -7.28125 Z M 9.296875 0 "/></g></g></g><g fill="#faab11" fill-opacity="1"><g transform="translate(157.735321, 273.324827)"><g><path d="M 3.875 -8.78125 L 3.875 -2.671875 C 3.875 -2.296875 3.972656 -1.988281 4.171875 -1.75 C 4.378906 -1.507812 4.644531 -1.390625 4.96875 -1.390625 L 6.546875 -1.390625 L 6.546875 0 L 4.625 0 C 3.832031 0 3.191406 -0.238281 2.703125 -0.71875 C 2.222656 -1.195312 1.984375 -1.828125 1.984375 -2.609375 L 1.984375 -8.78125 L 0.265625 -8.78125 L 0.265625 -10.171875 L 1.984375 -10.171875 L 1.984375 -12.875 L 3.875 -12.875 L 3.875 -10.171875 L 6.546875 -10.171875 L 6.546875 -8.78125 Z M 3.875 -8.78125 "/></g></g></g><g fill="#faab11" fill-opacity="1"><g transform="translate(165.799663, 273.324827)"><g><path d="M 8.828125 -2.0625 L 8.9375 -0.75 C 8.570312 -0.488281 8.082031 -0.273438 7.46875 -0.109375 C 6.863281 0.0546875 6.242188 0.132812 5.609375 0.125 C 4.828125 0.101562 4.082031 -0.0820312 3.375 -0.4375 C 2.675781 -0.789062 2.109375 -1.359375 1.671875 -2.140625 C 1.234375 -2.929688 1.015625 -3.953125 1.015625 -5.203125 C 1.015625 -6.816406 1.390625 -8.070312 2.140625 -8.96875 C 2.890625 -9.875 3.878906 -10.328125 5.109375 -10.328125 C 6.515625 -10.328125 7.535156 -9.910156 8.171875 -9.078125 C 8.816406 -8.253906 9.164062 -7.007812 9.21875 -5.34375 L 9.21875 -4.890625 L 2.78125 -4.90625 L 2.78125 -4.703125 C 2.832031 -3.691406 3.128906 -2.910156 3.671875 -2.359375 C 4.210938 -1.816406 4.882812 -1.507812 5.6875 -1.4375 C 6.164062 -1.394531 6.679688 -1.425781 7.234375 -1.53125 C 7.785156 -1.632812 8.316406 -1.8125 8.828125 -2.0625 Z M 2.796875 -5.734375 L 7.453125 -5.734375 C 7.453125 -6.773438 7.242188 -7.5625 6.828125 -8.09375 C 6.421875 -8.625 5.859375 -8.890625 5.140625 -8.890625 C 4.453125 -8.890625 3.894531 -8.601562 3.46875 -8.03125 C 3.050781 -7.457031 2.828125 -6.691406 2.796875 -5.734375 Z M 2.796875 -5.734375 "/></g></g></g><g fill="#faab11" fill-opacity="1"><g transform="translate(177.045107, 273.324827)"><g><path d="M 9.296875 0 L 7.421875 0 L 7.421875 -6.9375 C 7.421875 -7.550781 7.234375 -8.046875 6.859375 -8.421875 C 6.484375 -8.796875 5.992188 -8.984375 5.390625 -8.984375 C 4.953125 -8.984375 4.566406 -8.890625 4.234375 -8.703125 C 3.910156 -8.523438 3.65625 -8.34375 3.46875 -8.15625 C 3.289062 -7.976562 3.203125 -7.890625 3.203125 -7.890625 L 3.203125 0 L 1.3125 0 L 1.3125 -10.25 L 3.203125 -10.25 L 3.203125 -8.734375 L 3.34375 -8.734375 C 3.570312 -9.222656 3.921875 -9.613281 4.390625 -9.90625 C 4.859375 -10.207031 5.484375 -10.359375 6.265625 -10.359375 C 7.140625 -10.359375 7.863281 -10.070312 8.4375 -9.5 C 9.007812 -8.9375 9.296875 -8.195312 9.296875 -7.28125 Z M 9.296875 0 "/></g></g></g><g fill="#faab11" fill-opacity="1"><g transform="translate(188.513425, 273.324827)"><g><path d="M 9.703125 -1.390625 L 9.703125 0 L 9 0 C 8.507812 0 8.132812 -0.144531 7.875 -0.4375 C 7.613281 -0.726562 7.5 -1.101562 7.53125 -1.5625 L 7.5625 -2.03125 L 7.4375 -2.03125 C 7.195312 -1.375 6.769531 -0.847656 6.15625 -0.453125 C 5.539062 -0.0664062 4.851562 0.125 4.09375 0.125 C 3.164062 0.125 2.410156 -0.144531 1.828125 -0.6875 C 1.253906 -1.226562 0.96875 -1.9375 0.96875 -2.8125 C 0.96875 -3.53125 1.1875 -4.128906 1.625 -4.609375 C 2.070312 -5.085938 2.707031 -5.394531 3.53125 -5.53125 C 4.46875 -5.664062 5.148438 -5.765625 5.578125 -5.828125 C 6.003906 -5.890625 6.265625 -5.929688 6.359375 -5.953125 C 6.941406 -6.085938 7.234375 -6.300781 7.234375 -6.59375 C 7.234375 -7.300781 7.03125 -7.867188 6.625 -8.296875 C 6.21875 -8.722656 5.6875 -8.9375 5.03125 -8.9375 C 4.351562 -8.9375 3.8125 -8.742188 3.40625 -8.359375 C 3.007812 -7.972656 2.8125 -7.535156 2.8125 -7.046875 L 1.046875 -7.046875 C 1.046875 -7.671875 1.210938 -8.226562 1.546875 -8.71875 C 1.890625 -9.21875 2.359375 -9.613281 2.953125 -9.90625 C 3.546875 -10.207031 4.238281 -10.359375 5.03125 -10.359375 C 5.820312 -10.359375 6.515625 -10.1875 7.109375 -9.84375 C 7.703125 -9.5 8.164062 -9.007812 8.5 -8.375 C 8.832031 -7.75 9 -7.007812 9 -6.15625 L 9 -1.859375 C 9 -1.722656 9.035156 -1.609375 9.109375 -1.515625 C 9.179688 -1.429688 9.28125 -1.390625 9.40625 -1.390625 Z M 4.71875 -1.25 C 5.425781 -1.25 6.007812 -1.441406 6.46875 -1.828125 C 6.925781 -2.210938 7.179688 -2.722656 7.234375 -3.359375 L 7.234375 -5.296875 L 7.171875 -5.328125 C 6.941406 -5.148438 6.644531 -5.023438 6.28125 -4.953125 C 5.914062 -4.878906 5.535156 -4.8125 5.140625 -4.75 C 4.742188 -4.6875 4.363281 -4.597656 4 -4.484375 C 3.644531 -4.367188 3.351562 -4.191406 3.125 -3.953125 C 2.894531 -3.722656 2.78125 -3.390625 2.78125 -2.953125 C 2.78125 -2.453125 2.957031 -2.039062 3.3125 -1.71875 C 3.664062 -1.40625 4.132812 -1.25 4.71875 -1.25 Z M 4.71875 -1.25 "/></g></g></g><g fill="#faab11" fill-opacity="1"><g transform="translate(199.677823, 273.324827)"><g><path d="M 9.296875 0 L 7.421875 0 L 7.421875 -6.9375 C 7.421875 -7.550781 7.234375 -8.046875 6.859375 -8.421875 C 6.484375 -8.796875 5.992188 -8.984375 5.390625 -8.984375 C 4.953125 -8.984375 4.566406 -8.890625 4.234375 -8.703125 C 3.910156 -8.523438 3.65625 -8.34375 3.46875 -8.15625 C 3.289062 -7.976562 3.203125 -7.890625 3.203125 -7.890625 L 3.203125 0 L 1.3125 0 L 1.3125 -10.25 L 3.203125 -10.25 L 3.203125 -8.734375 L 3.34375 -8.734375 C 3.570312 -9.222656 3.921875 -9.613281 4.390625 -9.90625 C 4.859375 -10.207031 5.484375 -10.359375 6.265625 -10.359375 C 7.140625 -10.359375 7.863281 -10.070312 8.4375 -9.5 C 9.007812 -8.9375 9.296875 -8.195312 9.296875 -7.28125 Z M 9.296875 0 "/></g></g></g><g fill="#faab11" fill-opacity="1"><g transform="translate(211.146141, 273.324827)"><g><path d="M 5.1875 0.140625 C 4.351562 0.140625 3.617188 -0.078125 2.984375 -0.515625 C 2.359375 -0.953125 1.875 -1.566406 1.53125 -2.359375 C 1.1875 -3.148438 1.015625 -4.070312 1.015625 -5.125 C 1.015625 -6.164062 1.1875 -7.078125 1.53125 -7.859375 C 1.875 -8.640625 2.359375 -9.242188 2.984375 -9.671875 C 3.617188 -10.109375 4.351562 -10.328125 5.1875 -10.328125 C 6 -10.328125 6.703125 -10.160156 7.296875 -9.828125 C 7.898438 -9.503906 8.367188 -9.039062 8.703125 -8.4375 C 9.046875 -7.832031 9.21875 -7.132812 9.21875 -6.34375 L 7.34375 -6.34375 C 7.34375 -7.132812 7.140625 -7.765625 6.734375 -8.234375 C 6.335938 -8.710938 5.816406 -8.953125 5.171875 -8.953125 C 4.484375 -8.953125 3.929688 -8.609375 3.515625 -7.921875 C 3.097656 -7.242188 2.890625 -6.351562 2.890625 -5.25 C 2.890625 -4.039062 3.097656 -3.070312 3.515625 -2.34375 C 3.941406 -1.613281 4.5 -1.25 5.1875 -1.25 C 5.820312 -1.25 6.335938 -1.5 6.734375 -2 C 7.140625 -2.5 7.34375 -3.164062 7.34375 -4 L 9.21875 -4 C 9.21875 -3.164062 9.046875 -2.4375 8.703125 -1.8125 C 8.367188 -1.195312 7.898438 -0.71875 7.296875 -0.375 C 6.703125 -0.03125 6 0.140625 5.1875 0.140625 Z M 5.1875 0.140625 "/></g></g></g><g fill="#faab11" fill-opacity="1"><g transform="translate(222.290271, 273.324827)"><g><path d="M 8.828125 -2.0625 L 8.9375 -0.75 C 8.570312 -0.488281 8.082031 -0.273438 7.46875 -0.109375 C 6.863281 0.0546875 6.242188 0.132812 5.609375 0.125 C 4.828125 0.101562 4.082031 -0.0820312 3.375 -0.4375 C 2.675781 -0.789062 2.109375 -1.359375 1.671875 -2.140625 C 1.234375 -2.929688 1.015625 -3.953125 1.015625 -5.203125 C 1.015625 -6.816406 1.390625 -8.070312 2.140625 -8.96875 C 2.890625 -9.875 3.878906 -10.328125 5.109375 -10.328125 C 6.515625 -10.328125 7.535156 -9.910156 8.171875 -9.078125 C 8.816406 -8.253906 9.164062 -7.007812 9.21875 -5.34375 L 9.21875 -4.890625 L 2.78125 -4.90625 L 2.78125 -4.703125 C 2.832031 -3.691406 3.128906 -2.910156 3.671875 -2.359375 C 4.210938 -1.816406 4.882812 -1.507812 5.6875 -1.4375 C 6.164062 -1.394531 6.679688 -1.425781 7.234375 -1.53125 C 7.785156 -1.632812 8.316406 -1.8125 8.828125 -2.0625 Z M 2.796875 -5.734375 L 7.453125 -5.734375 C 7.453125 -6.773438 7.242188 -7.5625 6.828125 -8.09375 C 6.421875 -8.625 5.859375 -8.890625 5.140625 -8.890625 C 4.453125 -8.890625 3.894531 -8.601562 3.46875 -8.03125 C 3.050781 -7.457031 2.828125 -6.691406 2.796875 -5.734375 Z M 2.796875 -5.734375 "/></g></g></g><g fill="#faab11" fill-opacity="1"><g transform="translate(233.535715, 273.324827)"><g/></g></g><g fill="#faab11" fill-opacity="1"><g transform="translate(239.492834, 273.324827)"><g><path d="M 1.625 0 L 1.625 -14.46875 L 4.046875 -14.46875 L 7.4375 -2.328125 L 7.59375 -2.328125 L 10.96875 -14.484375 L 13.390625 -14.46875 L 13.390625 0 L 11.515625 0 L 11.515625 -11.859375 L 11.34375 -11.859375 L 8.25 0 L 6.765625 0 L 3.671875 -11.859375 L 3.5 -11.859375 L 3.5 0 Z M 1.625 0 "/></g></g></g><g fill="#faab11" fill-opacity="1"><g transform="translate(255.520055, 273.324827)"><g><path d="M 8.828125 -2.0625 L 8.9375 -0.75 C 8.570312 -0.488281 8.082031 -0.273438 7.46875 -0.109375 C 6.863281 0.0546875 6.242188 0.132812 5.609375 0.125 C 4.828125 0.101562 4.082031 -0.0820312 3.375 -0.4375 C 2.675781 -0.789062 2.109375 -1.359375 1.671875 -2.140625 C 1.234375 -2.929688 1.015625 -3.953125 1.015625 -5.203125 C 1.015625 -6.816406 1.390625 -8.070312 2.140625 -8.96875 C 2.890625 -9.875 3.878906 -10.328125 5.109375 -10.328125 C 6.515625 -10.328125 7.535156 -9.910156 8.171875 -9.078125 C 8.816406 -8.253906 9.164062 -7.007812 9.21875 -5.34375 L 9.21875 -4.890625 L 2.78125 -4.90625 L 2.78125 -4.703125 C 2.832031 -3.691406 3.128906 -2.910156 3.671875 -2.359375 C 4.210938 -1.816406 4.882812 -1.507812 5.6875 -1.4375 C 6.164062 -1.394531 6.679688 -1.425781 7.234375 -1.53125 C 7.785156 -1.632812 8.316406 -1.8125 8.828125 -2.0625 Z M 2.796875 -5.734375 L 7.453125 -5.734375 C 7.453125 -6.773438 7.242188 -7.5625 6.828125 -8.09375 C 6.421875 -8.625 5.859375 -8.890625 5.140625 -8.890625 C 4.453125 -8.890625 3.894531 -8.601562 3.46875 -8.03125 C 3.050781 -7.457031 2.828125 -6.691406 2.796875 -5.734375 Z M 2.796875 -5.734375 "/></g></g></g><g fill="#faab11" fill-opacity="1"><g transform="translate(266.765499, 273.324827)"><g><path d="M 3.875 -8.78125 L 3.875 -2.671875 C 3.875 -2.296875 3.972656 -1.988281 4.171875 -1.75 C 4.378906 -1.507812 4.644531 -1.390625 4.96875 -1.390625 L 6.546875 -1.390625 L 6.546875 0 L 4.625 0 C 3.832031 0 3.191406 -0.238281 2.703125 -0.71875 C 2.222656 -1.195312 1.984375 -1.828125 1.984375 -2.609375 L 1.984375 -8.78125 L 0.265625 -8.78125 L 0.265625 -10.171875 L 1.984375 -10.171875 L 1.984375 -12.875 L 3.875 -12.875 L 3.875 -10.171875 L 6.546875 -10.171875 L 6.546875 -8.78125 Z M 3.875 -8.78125 "/></g></g></g><g fill="#faab11" fill-opacity="1"><g transform="translate(274.829853, 273.324827)"><g><path d="M 9.296875 0 L 7.421875 0 L 7.421875 -6.90625 C 7.421875 -7.53125 7.234375 -8.023438 6.859375 -8.390625 C 6.484375 -8.765625 5.992188 -8.953125 5.390625 -8.953125 C 4.953125 -8.953125 4.566406 -8.863281 4.234375 -8.6875 C 3.910156 -8.519531 3.65625 -8.34375 3.46875 -8.15625 C 3.289062 -7.976562 3.203125 -7.890625 3.203125 -7.890625 L 3.203125 0 L 1.3125 0 L 1.3125 -14.59375 L 3.203125 -14.59375 L 3.203125 -8.671875 L 3.34375 -8.671875 C 3.46875 -8.984375 3.679688 -9.265625 3.984375 -9.515625 C 4.296875 -9.765625 4.660156 -9.960938 5.078125 -10.109375 C 5.503906 -10.253906 5.941406 -10.328125 6.390625 -10.328125 C 7.265625 -10.328125 7.96875 -10.046875 8.5 -9.484375 C 9.03125 -8.929688 9.296875 -8.195312 9.296875 -7.28125 Z M 9.296875 0 "/></g></g></g><g fill="#faab11" fill-opacity="1"><g transform="translate(286.298159, 273.324827)"><g><path d="M 5.125 0.140625 C 4.300781 0.140625 3.578125 -0.078125 2.953125 -0.515625 C 2.335938 -0.953125 1.859375 -1.570312 1.515625 -2.375 C 1.179688 -3.1875 1.015625 -4.128906 1.015625 -5.203125 C 1.015625 -6.160156 1.1875 -7.03125 1.53125 -7.8125 C 1.875 -8.59375 2.351562 -9.210938 2.96875 -9.671875 C 3.582031 -10.128906 4.300781 -10.359375 5.125 -10.359375 C 5.945312 -10.359375 6.671875 -10.125 7.296875 -9.65625 C 7.921875 -9.1875 8.40625 -8.554688 8.75 -7.765625 C 9.09375 -6.984375 9.265625 -6.097656 9.265625 -5.109375 C 9.265625 -4.117188 9.09375 -3.226562 8.75 -2.4375 C 8.40625 -1.644531 7.921875 -1.015625 7.296875 -0.546875 C 6.671875 -0.0859375 5.945312 0.140625 5.125 0.140625 Z M 5.125 -1.25 C 5.582031 -1.25 5.976562 -1.425781 6.3125 -1.78125 C 6.644531 -2.132812 6.90625 -2.601562 7.09375 -3.1875 C 7.28125 -3.78125 7.375 -4.429688 7.375 -5.140625 C 7.375 -5.847656 7.28125 -6.488281 7.09375 -7.0625 C 6.90625 -7.632812 6.644531 -8.09375 6.3125 -8.4375 C 5.976562 -8.78125 5.582031 -8.953125 5.125 -8.953125 C 4.675781 -8.953125 4.285156 -8.78125 3.953125 -8.4375 C 3.628906 -8.101562 3.367188 -7.648438 3.171875 -7.078125 C 2.984375 -6.515625 2.890625 -5.898438 2.890625 -5.234375 C 2.890625 -3.984375 3.097656 -3.003906 3.515625 -2.296875 C 3.941406 -1.597656 4.476562 -1.25 5.125 -1.25 Z M 5.125 -1.25 "/></g></g></g><g fill="#faab11" fill-opacity="1"><g transform="translate(297.56386, 273.324827)"><g><path d="M 4.390625 -10.375 C 5.054688 -10.375 5.628906 -10.210938 6.109375 -9.890625 C 6.585938 -9.578125 6.960938 -9.164062 7.234375 -8.65625 L 7.375 -8.65625 L 7.375 -14.59375 L 9.265625 -14.59375 L 9.265625 -0.015625 L 7.5 -0.015625 L 7.5 -1.71875 L 7.359375 -1.71875 C 7.234375 -1.175781 6.921875 -0.738281 6.421875 -0.40625 C 5.929688 -0.0703125 5.34375 0.09375 4.65625 0.09375 C 3.925781 0.09375 3.285156 -0.125 2.734375 -0.5625 C 2.191406 -1 1.769531 -1.613281 1.46875 -2.40625 C 1.164062 -3.195312 1.015625 -4.109375 1.015625 -5.140625 C 1.015625 -6.203125 1.15625 -7.125 1.4375 -7.90625 C 1.71875 -8.6875 2.113281 -9.289062 2.625 -9.71875 C 3.132812 -10.15625 3.722656 -10.375 4.390625 -10.375 Z M 2.890625 -5.03125 C 2.890625 -3.90625 3.097656 -3 3.515625 -2.3125 C 3.941406 -1.632812 4.492188 -1.296875 5.171875 -1.296875 C 5.828125 -1.296875 6.359375 -1.503906 6.765625 -1.921875 C 7.171875 -2.335938 7.375 -2.898438 7.375 -3.609375 L 7.375 -7.71875 C 7.375 -7.71875 7.28125 -7.820312 7.09375 -8.03125 C 6.90625 -8.238281 6.640625 -8.453125 6.296875 -8.671875 C 5.960938 -8.890625 5.566406 -9 5.109375 -9 C 4.441406 -9 3.90625 -8.632812 3.5 -7.90625 C 3.09375 -7.1875 2.890625 -6.226562 2.890625 -5.03125 Z M 2.890625 -5.03125 "/></g></g></g><g fill="#faab11" fill-opacity="1"><g transform="translate(309.133493, 273.324827)"><g><path d="M 5.1875 -5.453125 C 5.625 -5.359375 6.0625 -5.25 6.5 -5.125 C 6.9375 -5 7.335938 -4.84375 7.703125 -4.65625 C 8.078125 -4.476562 8.375 -4.242188 8.59375 -3.953125 C 8.820312 -3.671875 8.9375 -3.304688 8.9375 -2.859375 C 8.9375 -2.316406 8.78125 -1.804688 8.46875 -1.328125 C 8.15625 -0.847656 7.6875 -0.460938 7.0625 -0.171875 C 6.4375 0.117188 5.644531 0.242188 4.6875 0.203125 C 4.1875 0.171875 3.65625 0.101562 3.09375 0 C 2.539062 -0.09375 1.921875 -0.257812 1.234375 -0.5 L 1.390625 -2 C 2.566406 -1.5625 3.632812 -1.320312 4.59375 -1.28125 C 5.394531 -1.226562 6.015625 -1.363281 6.453125 -1.6875 C 6.890625 -2.007812 7.109375 -2.425781 7.109375 -2.9375 C 7.109375 -3.375 6.84375 -3.6875 6.3125 -3.875 C 5.789062 -4.070312 5.132812 -4.265625 4.34375 -4.453125 C 3.945312 -4.566406 3.546875 -4.691406 3.140625 -4.828125 C 2.734375 -4.972656 2.359375 -5.160156 2.015625 -5.390625 C 1.679688 -5.617188 1.414062 -5.914062 1.21875 -6.28125 C 1.03125 -6.644531 0.957031 -7.09375 1 -7.625 C 1.03125 -8.269531 1.234375 -8.800781 1.609375 -9.21875 C 1.992188 -9.632812 2.476562 -9.945312 3.0625 -10.15625 C 3.65625 -10.375 4.265625 -10.472656 4.890625 -10.453125 C 5.765625 -10.453125 6.519531 -10.332031 7.15625 -10.09375 C 7.789062 -9.851562 8.253906 -9.632812 8.546875 -9.4375 L 8.234375 -8.09375 C 7.703125 -8.394531 7.148438 -8.625 6.578125 -8.78125 C 6.015625 -8.9375 5.5 -9.019531 5.03125 -9.03125 C 4.3125 -9.050781 3.738281 -8.894531 3.3125 -8.5625 C 2.882812 -8.226562 2.671875 -7.769531 2.671875 -7.1875 C 2.671875 -6.84375 2.789062 -6.5625 3.03125 -6.34375 C 3.269531 -6.125 3.582031 -5.945312 3.96875 -5.8125 C 4.351562 -5.675781 4.757812 -5.554688 5.1875 -5.453125 Z M 5.1875 -5.453125 "/></g></g></g></svg>