<svg xmlns="http://www.w3.org/2000/svg" xmlns:xlink="http://www.w3.org/1999/xlink" width="500" zoomAndPan="magnify" viewBox="0 0 375 374.999991" height="500" preserveAspectRatio="xMidYMid meet" version="1.0"><defs><g/><clipPath id="f3a6c09527"><path d="M 10.96875 131 L 104.6875 131 L 104.6875 244 L 10.96875 244 Z M 10.96875 131 " clip-rule="nonzero"/></clipPath><clipPath id="7bd9758755"><rect x="0" width="297" y="0" height="87"/></clipPath><clipPath id="9abd04b3fb"><rect x="0" width="207" y="0" height="18"/></clipPath></defs><g clip-path="url(#f3a6c09527)"><path fill="#faab11" d="M 14.453125 229.816406 C 20.042969 230.886719 24.3125 230.078125 38.589844 235.578125 C 41.132812 236.558594 43.707031 237.453125 46.296875 238.285156 C 57.800781 241.972656 67.464844 244.328125 79.652344 242.253906 C 91.050781 240.3125 98.988281 234.042969 103.195312 223.125 C 103.472656 222.40625 103.714844 221.664062 103.949219 220.929688 L 105.050781 217.492188 L 69.398438 217.160156 L 69.269531 217.132812 C 65.277344 216.320312 61.179688 211.367188 59.042969 208.253906 C 56.28125 204.222656 53.722656 199.84375 52.121094 195.207031 C 50.761719 191.273438 50.171875 187.285156 50.539062 183.136719 C 50.933594 178.679688 52.859375 173.6875 54.917969 169.742188 C 56.359375 166.984375 59.171875 162.238281 61.972656 160.710938 C 66.464844 158.257812 90.777344 159.710938 97 160.011719 C 97.363281 160.03125 97.722656 160.050781 98.082031 160.070312 C 98.164062 160.074219 98.246094 160.082031 98.328125 160.09375 C 98.71875 160.117188 99.113281 160.128906 99.503906 160.148438 L 103.332031 160.324219 L 102.132812 156.644531 C 101.21875 153.710938 98.90625 150.054688 97.054688 147.671875 C 91.875 141.019531 84.839844 136.441406 76.839844 133.875 C 66.824219 130.664062 57.035156 131.503906 47.863281 136.664062 C 37.578125 142.453125 29.890625 152.695312 24.359375 162.894531 C 18.257812 174.144531 15.230469 177.390625 10.9375 184.738281 C 17.625 179.484375 25.097656 172.675781 29.019531 165.433594 C 34.054688 156.152344 41.082031 146.582031 50.453125 141.308594 C 58.277344 136.90625 66.695312 136.183594 75.234375 138.921875 C 82.773438 141.34375 89.449219 145.800781 93.972656 152.363281 L 95.535156 154.625 L 92.785156 154.503906 C 86.09375 154.203125 64.5625 153.246094 59.445312 156.042969 C 55.714844 158.082031 52.144531 163.621094 50.222656 167.296875 C 47.84375 171.84375 45.691406 177.570312 45.238281 182.675781 C 44.804688 187.585938 45.492188 192.273438 47.101562 196.929688 C 48.859375 202.027344 51.628906 206.808594 54.664062 211.242188 C 57.261719 215.03125 60.644531 218.699219 64.730469 220.902344 C 65.914062 221.539062 67.722656 222.324219 69.089844 222.464844 C 73.597656 222.917969 78.3125 222.890625 82.839844 222.847656 C 87.023438 222.808594 91.214844 222.695312 95.394531 222.734375 L 97.675781 222.757812 L 96.582031 224.757812 C 92.738281 231.785156 86.550781 235.695312 78.765625 237.023438 C 68.816406 238.714844 57.386719 236.277344 47.902344 233.238281 C 45.410156 232.4375 42.941406 231.542969 40.5 230.601562 C 32.242188 227.421875 22.976562 227.902344 14.453125 229.816406 " fill-opacity="1" fill-rule="evenodd"/></g><g transform="matrix(1, 0, 0, 1, 64, 144)"><g clip-path="url(#7bd9758755)"><g fill="#ffffff" fill-opacity="1"><g transform="translate(0.861802, 61.310367)"><g><path d="M 24.1875 -32.59375 C 26.363281 -33.632812 28.351562 -34.15625 30.15625 -34.15625 C 32.082031 -34.15625 33.410156 -33.320312 34.140625 -31.65625 C 34.828125 -29.976562 35.171875 -27.117188 35.171875 -23.078125 C 35.171875 -17.597656 34.5625 -13.101562 33.34375 -9.59375 C 32.132812 -6.082031 30.238281 -3.484375 27.65625 -1.796875 C 25.082031 -0.117188 21.742188 0.71875 17.640625 0.71875 C 12.785156 0.71875 9.160156 -0.429688 6.765625 -2.734375 C 4.378906 -5.035156 3.1875 -8.519531 3.1875 -13.1875 C 3.1875 -13.925781 3.195312 -14.773438 3.21875 -15.734375 C 3.25 -16.691406 3.296875 -17.753906 3.359375 -18.921875 C 3.429688 -20.085938 3.476562 -21.078125 3.5 -21.890625 C 3.519531 -22.703125 3.53125 -23.320312 3.53125 -23.75 C 3.53125 -27.800781 3.054688 -30.773438 2.109375 -32.671875 C 4.316406 -33.660156 6.351562 -34.15625 8.21875 -34.15625 C 9.300781 -34.15625 10.15625 -34.019531 10.78125 -33.75 C 11.40625 -33.476562 11.847656 -33.03125 12.109375 -32.40625 C 12.378906 -31.78125 12.515625 -30.929688 12.515625 -29.859375 C 12.515625 -29.554688 12.5 -28.957031 12.46875 -28.0625 C 12.4375 -27.175781 12.382812 -25.992188 12.3125 -24.515625 C 12.164062 -21.523438 12.09375 -18.835938 12.09375 -16.453125 C 12.09375 -14.054688 12.296875 -12.125 12.703125 -10.65625 C 13.109375 -9.1875 13.785156 -8.117188 14.734375 -7.453125 C 15.691406 -6.785156 16.988281 -6.453125 18.625 -6.453125 C 20.519531 -6.453125 22.050781 -6.941406 23.21875 -7.921875 C 24.394531 -8.910156 25.253906 -10.425781 25.796875 -12.46875 C 26.335938 -14.507812 26.609375 -17.125 26.609375 -20.3125 C 26.609375 -26.195312 25.800781 -30.289062 24.1875 -32.59375 Z M 24.1875 -32.59375 "/></g></g><g transform="translate(38.609863, 61.310367)"><g><path d="M 10 -21.125 C 12.050781 -23.039062 14.441406 -24 17.171875 -24 C 18.679688 -24 20.0625 -23.742188 21.3125 -23.234375 C 22.570312 -22.734375 23.65625 -22.007812 24.5625 -21.0625 C 25.46875 -20.125 26.171875 -19.015625 26.671875 -17.734375 C 27.179688 -16.460938 27.4375 -15.046875 27.4375 -13.484375 C 27.4375 -11.453125 27.082031 -9.59375 26.375 -7.90625 C 25.675781 -6.226562 24.675781 -4.773438 23.375 -3.546875 C 22.082031 -2.316406 20.539062 -1.367188 18.75 -0.703125 C 16.96875 -0.0351562 14.988281 0.296875 12.8125 0.296875 C 8.957031 0.296875 5.488281 -0.625 2.40625 -2.46875 C 2.664062 -4.726562 2.859375 -7.363281 2.984375 -10.375 C 3.109375 -13.382812 3.171875 -16.757812 3.171875 -20.5 C 3.171875 -23.800781 3.066406 -26.488281 2.859375 -28.5625 C 2.648438 -30.644531 2.273438 -32.285156 1.734375 -33.484375 C 3.679688 -34.410156 5.445312 -34.875 7.03125 -34.875 C 8.257812 -34.875 9.15625 -34.5625 9.71875 -33.9375 C 10.28125 -33.3125 10.5625 -32.304688 10.5625 -30.921875 C 10.5625 -30.648438 10.535156 -30.101562 10.484375 -29.28125 C 10.453125 -28.6875 10.40625 -27.921875 10.34375 -26.984375 C 10.289062 -26.054688 10.226562 -25.078125 10.15625 -24.046875 C 10.09375 -23.023438 10.039062 -22.050781 10 -21.125 Z M 9.9375 -6.921875 C 11.09375 -6.160156 12.335938 -5.78125 13.671875 -5.78125 C 14.859375 -5.78125 15.921875 -6.066406 16.859375 -6.640625 C 17.804688 -7.222656 18.546875 -8.015625 19.078125 -9.015625 C 19.617188 -10.023438 19.890625 -11.175781 19.890625 -12.46875 C 19.890625 -13.582031 19.671875 -14.5625 19.234375 -15.40625 C 18.796875 -16.25 18.1875 -16.898438 17.40625 -17.359375 C 16.632812 -17.828125 15.738281 -18.0625 14.71875 -18.0625 C 13.15625 -18.0625 11.597656 -17.582031 10.046875 -16.625 C 9.972656 -15.613281 9.921875 -14.59375 9.890625 -13.5625 C 9.859375 -12.53125 9.84375 -11.5 9.84375 -10.46875 C 9.84375 -9.675781 9.847656 -8.984375 9.859375 -8.390625 C 9.878906 -7.796875 9.90625 -7.304688 9.9375 -6.921875 Z M 9.9375 -6.921875 "/></g></g><g transform="translate(67.576429, 61.310367)"><g><path d="M 21.6875 -6.671875 C 22.707031 -5.554688 23.21875 -4.546875 23.21875 -3.640625 C 23.21875 -2.429688 22.503906 -1.472656 21.078125 -0.765625 C 19.660156 -0.0546875 17.640625 0.296875 15.015625 0.296875 C 10.679688 0.296875 7.347656 -0.738281 5.015625 -2.8125 C 2.691406 -4.894531 1.53125 -7.859375 1.53125 -11.703125 C 1.53125 -13.566406 1.832031 -15.257812 2.4375 -16.78125 C 3.050781 -18.300781 3.925781 -19.613281 5.0625 -20.71875 C 6.207031 -21.832031 7.5625 -22.6875 9.125 -23.28125 C 10.695312 -23.882812 12.4375 -24.1875 14.34375 -24.1875 C 16.457031 -24.1875 18.296875 -23.816406 19.859375 -23.078125 C 21.429688 -22.347656 22.648438 -21.34375 23.515625 -20.0625 C 24.378906 -18.789062 24.8125 -17.332031 24.8125 -15.6875 C 24.8125 -14.28125 24.488281 -13.164062 23.84375 -12.34375 C 23.195312 -11.53125 22.171875 -10.953125 20.765625 -10.609375 C 19.367188 -10.265625 17.523438 -10.09375 15.234375 -10.09375 C 14.078125 -10.09375 12.953125 -10.128906 11.859375 -10.203125 C 10.773438 -10.273438 9.722656 -10.378906 8.703125 -10.515625 L 8.703125 -10.40625 C 8.703125 -8.644531 9.296875 -7.289062 10.484375 -6.34375 C 11.671875 -5.394531 13.382812 -4.921875 15.625 -4.921875 C 18.195312 -4.921875 20.21875 -5.503906 21.6875 -6.671875 Z M 9.03125 -14.296875 C 10.226562 -14.160156 11.265625 -14.0625 12.140625 -14 C 13.015625 -13.9375 13.71875 -13.90625 14.25 -13.90625 C 15.46875 -13.90625 16.335938 -14.023438 16.859375 -14.265625 C 17.378906 -14.515625 17.640625 -15.019531 17.640625 -15.78125 C 17.640625 -16.863281 17.296875 -17.734375 16.609375 -18.390625 C 15.921875 -19.054688 15.019531 -19.390625 13.90625 -19.390625 C 12.582031 -19.390625 11.492188 -18.945312 10.640625 -18.0625 C 9.796875 -17.1875 9.257812 -15.929688 9.03125 -14.296875 Z M 9.03125 -14.296875 "/></g></g><g transform="translate(93.525129, 61.310367)"><g><path d="M 10.46875 -17.953125 L 10.5625 -17.953125 C 11.613281 -20.035156 12.679688 -21.570312 13.765625 -22.5625 C 14.859375 -23.550781 16.082031 -24.046875 17.4375 -24.046875 C 18.519531 -24.046875 19.410156 -23.679688 20.109375 -22.953125 C 20.816406 -22.222656 21.171875 -21.273438 21.171875 -20.109375 C 21.171875 -19.003906 20.863281 -18.054688 20.25 -17.265625 C 19.644531 -16.472656 18.675781 -15.753906 17.34375 -15.109375 C 17.113281 -16.523438 16.367188 -17.234375 15.109375 -17.234375 C 13.640625 -17.234375 12.25 -15.984375 10.9375 -13.484375 C 10.863281 -12.867188 10.816406 -12.226562 10.796875 -11.5625 C 10.773438 -10.894531 10.765625 -10.195312 10.765625 -9.46875 C 10.765625 -5.820312 11.273438 -3.144531 12.296875 -1.4375 C 10.171875 -0.445312 8.207031 0.046875 6.40625 0.046875 C 5.15625 0.046875 4.257812 -0.222656 3.71875 -0.765625 C 3.1875 -1.304688 2.921875 -2.195312 2.921875 -3.4375 C 2.921875 -3.71875 2.941406 -4.269531 2.984375 -5.09375 C 3.035156 -5.914062 3.101562 -7.03125 3.1875 -8.4375 C 3.269531 -9.832031 3.332031 -11.15625 3.375 -12.40625 C 3.414062 -13.664062 3.4375 -14.847656 3.4375 -15.953125 C 3.4375 -18.890625 3.054688 -21.3125 2.296875 -23.21875 C 3.984375 -23.738281 5.460938 -24 6.734375 -24 C 8.097656 -24 9.082031 -23.6875 9.6875 -23.0625 C 10.300781 -22.445312 10.609375 -21.445312 10.609375 -20.0625 C 10.609375 -19.53125 10.5625 -18.828125 10.46875 -17.953125 Z M 10.46875 -17.953125 "/></g></g><g transform="translate(114.650191, 61.310367)"><g><path d="M 3.234375 -33.734375 C 5.835938 -33.640625 8.054688 -33.59375 9.890625 -33.59375 C 10.785156 -33.59375 11.769531 -33.613281 12.84375 -33.65625 C 13.925781 -33.707031 15.101562 -33.773438 16.375 -33.859375 C 17.644531 -33.941406 18.691406 -34.003906 19.515625 -34.046875 C 20.335938 -34.085938 20.941406 -34.109375 21.328125 -34.109375 C 22.753906 -34.109375 23.785156 -33.882812 24.421875 -33.4375 C 25.054688 -32.988281 25.375 -32.210938 25.375 -31.109375 C 25.375 -29.960938 24.960938 -28.515625 24.140625 -26.765625 C 22.503906 -27.484375 20.0625 -27.84375 16.8125 -27.84375 C 16.46875 -27.84375 15.925781 -27.832031 15.1875 -27.8125 C 14.445312 -27.789062 13.507812 -27.765625 12.375 -27.734375 C 12.375 -27.460938 12.347656 -26.375 12.296875 -24.46875 C 12.265625 -23.507812 12.238281 -22.660156 12.21875 -21.921875 C 12.195312 -21.191406 12.1875 -20.5625 12.1875 -20.03125 C 13.082031 -20 13.828125 -19.972656 14.421875 -19.953125 C 15.015625 -19.941406 15.46875 -19.9375 15.78125 -19.9375 C 19.144531 -19.9375 21.546875 -20.191406 22.984375 -20.703125 C 23.421875 -19.660156 23.640625 -18.6875 23.640625 -17.78125 C 23.640625 -16.507812 23.289062 -15.601562 22.59375 -15.0625 C 21.90625 -14.519531 20.796875 -14.25 19.265625 -14.25 C 19.203125 -14.25 19.078125 -14.25 18.890625 -14.25 C 18.710938 -14.25 18.46875 -14.253906 18.15625 -14.265625 C 17.507812 -14.285156 16.640625 -14.300781 15.546875 -14.3125 C 14.460938 -14.332031 13.3125 -14.34375 12.09375 -14.34375 C 12.09375 -7.976562 12.585938 -3.691406 13.578125 -1.484375 C 11.335938 -0.460938 9.34375 0.046875 7.59375 0.046875 C 6.113281 0.046875 5.066406 -0.269531 4.453125 -0.90625 C 3.835938 -1.550781 3.53125 -2.632812 3.53125 -4.15625 C 3.53125 -4.695312 3.628906 -6.957031 3.828125 -10.9375 C 3.910156 -12.925781 3.976562 -14.851562 4.03125 -16.71875 C 4.082031 -18.582031 4.109375 -20.390625 4.109375 -22.140625 C 4.109375 -24.628906 4.03125 -26.835938 3.875 -28.765625 C 3.726562 -30.691406 3.515625 -32.347656 3.234375 -33.734375 Z M 3.234375 -33.734375 "/></g></g><g transform="translate(141.217306, 61.310367)"><g><path d="M 7.734375 -35.328125 C 8.492188 -35.328125 9.164062 -35.160156 9.75 -34.828125 C 10.34375 -34.492188 10.804688 -34.039062 11.140625 -33.46875 C 11.484375 -32.90625 11.65625 -32.257812 11.65625 -31.53125 C 11.65625 -30.757812 11.453125 -30.050781 11.046875 -29.40625 C 10.640625 -28.757812 10.09375 -28.25 9.40625 -27.875 C 8.726562 -27.507812 7.953125 -27.328125 7.078125 -27.328125 C 5.941406 -27.328125 5.023438 -27.660156 4.328125 -28.328125 C 3.640625 -28.992188 3.296875 -29.875 3.296875 -30.96875 C 3.296875 -31.769531 3.492188 -32.5 3.890625 -33.15625 C 4.285156 -33.8125 4.816406 -34.335938 5.484375 -34.734375 C 6.160156 -35.128906 6.910156 -35.328125 7.734375 -35.328125 Z M 12 -1.328125 C 10.144531 -0.441406 8.265625 0 6.359375 0 C 5.109375 0 4.226562 -0.269531 3.71875 -0.8125 C 3.21875 -1.351562 2.96875 -2.28125 2.96875 -3.59375 C 2.96875 -4.113281 3.039062 -5.585938 3.1875 -8.015625 C 3.257812 -9.210938 3.3125 -10.347656 3.34375 -11.421875 C 3.375 -12.492188 3.390625 -13.507812 3.390625 -14.46875 C 3.390625 -18.28125 3.007812 -20.976562 2.25 -22.5625 C 4.113281 -23.445312 5.976562 -23.890625 7.84375 -23.890625 C 9.039062 -23.890625 9.910156 -23.609375 10.453125 -23.046875 C 11.003906 -22.492188 11.28125 -21.582031 11.28125 -20.3125 C 11.28125 -19.519531 11.207031 -17.867188 11.0625 -15.359375 C 10.976562 -14.109375 10.914062 -12.960938 10.875 -11.921875 C 10.832031 -10.878906 10.8125 -9.945312 10.8125 -9.125 C 10.8125 -5.863281 11.207031 -3.265625 12 -1.328125 Z M 12 -1.328125 "/></g></g><g transform="translate(155.416119, 61.310367)"><g><path d="M 1.328125 -20.109375 C 2.566406 -22.765625 4.242188 -24.09375 6.359375 -24.09375 C 7.078125 -24.09375 7.703125 -23.878906 8.234375 -23.453125 C 8.773438 -23.035156 9.296875 -22.5 9.796875 -21.84375 C 9.992188 -21.570312 10.1875 -21.300781 10.375 -21.03125 C 10.5625 -20.757812 10.738281 -20.492188 10.90625 -20.234375 C 11.132812 -19.867188 11.410156 -19.429688 11.734375 -18.921875 C 12.054688 -18.410156 12.40625 -17.878906 12.78125 -17.328125 C 13.164062 -16.785156 13.539062 -16.269531 13.90625 -15.78125 C 16.257812 -18.632812 17.4375 -20.78125 17.4375 -22.21875 C 17.4375 -22.289062 17.425781 -22.390625 17.40625 -22.515625 C 17.394531 -22.640625 17.375 -22.773438 17.34375 -22.921875 C 19.070312 -23.597656 20.671875 -23.9375 22.140625 -23.9375 C 23.054688 -23.9375 23.757812 -23.742188 24.25 -23.359375 C 24.738281 -22.972656 24.984375 -22.429688 24.984375 -21.734375 C 24.984375 -20.765625 24.375 -19.546875 23.15625 -18.078125 C 22.539062 -17.359375 21.734375 -16.488281 20.734375 -15.46875 C 19.742188 -14.457031 18.554688 -13.300781 17.171875 -12 C 17.285156 -11.863281 17.414062 -11.691406 17.5625 -11.484375 C 17.707031 -11.285156 17.890625 -11.050781 18.109375 -10.78125 C 18.941406 -9.695312 19.757812 -8.644531 20.5625 -7.625 C 21.363281 -6.613281 22.132812 -5.753906 22.875 -5.046875 C 23.625 -4.347656 24.316406 -3.910156 24.953125 -3.734375 C 23.734375 -1.179688 21.992188 0.09375 19.734375 0.09375 C 19.191406 0.09375 18.707031 -0.00390625 18.28125 -0.203125 C 17.863281 -0.410156 17.441406 -0.769531 17.015625 -1.28125 C 16.804688 -1.550781 16.609375 -1.804688 16.421875 -2.046875 C 16.242188 -2.296875 16.070312 -2.550781 15.90625 -2.8125 C 15.65625 -3.207031 15.347656 -3.691406 14.984375 -4.265625 C 14.617188 -4.847656 14.238281 -5.445312 13.84375 -6.0625 C 13.445312 -6.6875 13.070312 -7.265625 12.71875 -7.796875 C 10.1875 -5.148438 8.921875 -3.078125 8.921875 -1.578125 C 8.921875 -1.296875 8.972656 -1.007812 9.078125 -0.71875 C 7.179688 -0.175781 5.640625 0.09375 4.453125 0.09375 C 2.304688 0.09375 1.234375 -0.71875 1.234375 -2.34375 C 1.234375 -2.707031 1.300781 -3.085938 1.4375 -3.484375 C 1.53125 -3.753906 1.679688 -4.046875 1.890625 -4.359375 C 2.109375 -4.679688 2.347656 -5.007812 2.609375 -5.34375 C 2.878906 -5.675781 3.113281 -5.960938 3.3125 -6.203125 C 3.476562 -6.390625 3.695312 -6.625 3.96875 -6.90625 C 4.238281 -7.195312 4.582031 -7.535156 5 -7.921875 C 5.394531 -8.296875 5.738281 -8.617188 6.03125 -8.890625 C 6.332031 -9.160156 6.625 -9.425781 6.90625 -9.6875 C 7.1875 -9.957031 7.515625 -10.265625 7.890625 -10.609375 C 8.265625 -10.953125 8.742188 -11.378906 9.328125 -11.890625 C 8.335938 -13.191406 7.445312 -14.328125 6.65625 -15.296875 C 5.863281 -16.273438 5.171875 -17.085938 4.578125 -17.734375 C 3.359375 -19.003906 2.273438 -19.796875 1.328125 -20.109375 Z M 1.328125 -20.109375 "/></g></g><g transform="translate(181.661658, 61.310367)"><g><path d="M 6.65625 -2.75 C 6.65625 -3.582031 6.382812 -4.273438 5.84375 -4.828125 C 5.3125 -5.390625 4.664062 -5.671875 3.90625 -5.671875 C 3.0625 -5.671875 2.363281 -5.390625 1.8125 -4.828125 C 1.257812 -4.273438 0.984375 -3.582031 0.984375 -2.75 C 0.984375 -1.988281 1.257812 -1.335938 1.8125 -0.796875 C 2.363281 -0.265625 3.0625 0 3.90625 0 C 4.414062 0 4.875 -0.117188 5.28125 -0.359375 C 5.695312 -0.609375 6.03125 -0.941406 6.28125 -1.359375 C 6.53125 -1.785156 6.65625 -2.25 6.65625 -2.75 Z M 6.65625 -2.75 "/></g></g><g transform="translate(189.30527, 61.310367)"><g><path d="M 3.0625 -5.734375 C 4.332031 -5.054688 5.601562 -4.71875 6.875 -4.71875 C 7.800781 -4.71875 8.535156 -4.894531 9.078125 -5.25 C 9.617188 -5.601562 9.890625 -6.054688 9.890625 -6.609375 C 9.890625 -6.890625 9.820312 -7.140625 9.6875 -7.359375 C 9.5625 -7.578125 9.390625 -7.796875 9.171875 -8.015625 C 9.085938 -8.097656 8.914062 -8.226562 8.65625 -8.40625 C 8.394531 -8.59375 8.101562 -8.796875 7.78125 -9.015625 C 7.457031 -9.234375 7.144531 -9.441406 6.84375 -9.640625 C 6.550781 -9.835938 6.320312 -9.988281 6.15625 -10.09375 C 5.195312 -10.738281 4.414062 -11.335938 3.8125 -11.890625 C 3.21875 -12.453125 2.785156 -13.046875 2.515625 -13.671875 C 2.242188 -14.304688 2.109375 -15.035156 2.109375 -15.859375 C 2.109375 -16.992188 2.382812 -18.078125 2.9375 -19.109375 C 3.488281 -20.140625 4.257812 -21.046875 5.25 -21.828125 C 6.238281 -22.609375 7.394531 -23.222656 8.71875 -23.671875 C 10.039062 -24.128906 11.476562 -24.359375 13.03125 -24.359375 C 14.1875 -24.359375 15.066406 -24.128906 15.671875 -23.671875 C 16.273438 -23.222656 16.578125 -22.5625 16.578125 -21.6875 C 16.578125 -20.601562 16.097656 -19.507812 15.140625 -18.40625 C 14.097656 -18.882812 13.113281 -19.125 12.1875 -19.125 C 11.132812 -19.125 10.296875 -18.910156 9.671875 -18.484375 C 9.054688 -18.066406 8.75 -17.5625 8.75 -16.96875 C 8.75 -16.226562 9.460938 -15.320312 10.890625 -14.25 C 11.234375 -13.976562 11.617188 -13.6875 12.046875 -13.375 C 12.472656 -13.0625 12.84375 -12.785156 13.15625 -12.546875 C 13.269531 -12.460938 13.445312 -12.320312 13.6875 -12.125 C 13.925781 -11.925781 14.171875 -11.722656 14.421875 -11.515625 C 14.671875 -11.304688 14.835938 -11.144531 14.921875 -11.03125 C 15.210938 -10.65625 15.46875 -10.304688 15.6875 -9.984375 C 15.914062 -9.671875 16.09375 -9.320312 16.21875 -8.9375 C 16.34375 -8.550781 16.40625 -8.050781 16.40625 -7.4375 C 16.40625 -6.332031 16.144531 -5.296875 15.625 -4.328125 C 15.113281 -3.359375 14.394531 -2.503906 13.46875 -1.765625 C 12.539062 -1.035156 11.429688 -0.460938 10.140625 -0.046875 C 8.859375 0.359375 7.441406 0.5625 5.890625 0.5625 C 3.128906 0.5625 1.75 -0.425781 1.75 -2.40625 C 1.75 -3.351562 2.1875 -4.460938 3.0625 -5.734375 Z M 3.0625 -5.734375 "/></g></g><g transform="translate(207.511412, 61.310367)"><g><path d="M 27.578125 -1.328125 C 25.847656 -0.441406 23.984375 0 21.984375 0 C 20.703125 0 19.804688 -0.273438 19.296875 -0.828125 C 18.796875 -1.378906 18.546875 -2.332031 18.546875 -3.6875 C 18.546875 -3.976562 18.554688 -4.421875 18.578125 -5.015625 C 18.609375 -5.609375 18.65625 -6.359375 18.71875 -7.265625 C 18.820312 -9.085938 18.875 -10.597656 18.875 -11.796875 C 18.875 -13.359375 18.757812 -14.617188 18.53125 -15.578125 C 18.300781 -16.535156 17.90625 -17.238281 17.34375 -17.6875 C 16.789062 -18.132812 16.03125 -18.359375 15.0625 -18.359375 C 13.84375 -18.359375 12.289062 -17.863281 10.40625 -16.875 C 10.34375 -16.113281 10.296875 -15.273438 10.265625 -14.359375 C 10.234375 -13.441406 10.21875 -12.429688 10.21875 -11.328125 C 10.21875 -6.398438 10.640625 -3.066406 11.484375 -1.328125 C 9.597656 -0.441406 7.757812 0 5.96875 0 C 5.101562 0 4.425781 -0.117188 3.9375 -0.359375 C 3.457031 -0.609375 3.117188 -1.019531 2.921875 -1.59375 C 2.722656 -2.175781 2.625 -2.960938 2.625 -3.953125 C 2.625 -4.222656 2.644531 -4.910156 2.6875 -6.015625 C 2.738281 -7.128906 2.804688 -8.671875 2.890625 -10.640625 C 2.972656 -12.597656 3.039062 -14.488281 3.09375 -16.3125 C 3.144531 -18.132812 3.171875 -19.894531 3.171875 -21.59375 C 3.171875 -23.207031 3.148438 -24.648438 3.109375 -25.921875 C 3.066406 -27.203125 3.003906 -28.304688 2.921875 -29.234375 C 2.835938 -30.160156 2.703125 -30.976562 2.515625 -31.6875 C 2.335938 -32.394531 2.117188 -32.992188 1.859375 -33.484375 C 3.878906 -34.410156 5.738281 -34.875 7.4375 -34.875 C 8.707031 -34.875 9.59375 -34.578125 10.09375 -33.984375 C 10.601562 -33.390625 10.859375 -32.367188 10.859375 -30.921875 C 10.859375 -30.753906 10.851562 -30.519531 10.84375 -30.21875 C 10.832031 -29.925781 10.820312 -29.566406 10.8125 -29.140625 C 10.78125 -28.546875 10.738281 -27.773438 10.6875 -26.828125 C 10.632812 -25.878906 10.582031 -24.878906 10.53125 -23.828125 C 10.488281 -22.785156 10.445312 -21.800781 10.40625 -20.875 C 12.882812 -23.050781 15.5 -24.140625 18.25 -24.140625 C 20.925781 -24.140625 22.972656 -23.367188 24.390625 -21.828125 C 25.804688 -20.285156 26.515625 -18.054688 26.515625 -15.140625 C 26.515625 -14.460938 26.488281 -13.390625 26.4375 -11.921875 C 26.40625 -11.191406 26.378906 -10.539062 26.359375 -9.96875 C 26.347656 -9.40625 26.34375 -8.921875 26.34375 -8.515625 C 26.34375 -5.097656 26.753906 -2.703125 27.578125 -1.328125 Z M 27.578125 -1.328125 "/></g></g><g transform="translate(236.576924, 61.310367)"><g><path d="M 28.46875 -12.46875 C 28.46875 -9.300781 27.46875 -6.546875 25.46875 -4.203125 C 22.75 -1.023438 19.164062 0.5625 14.71875 0.5625 C 12.769531 0.5625 10.988281 0.265625 9.375 -0.328125 C 7.757812 -0.921875 6.363281 -1.753906 5.1875 -2.828125 C 4.019531 -3.910156 3.117188 -5.191406 2.484375 -6.671875 C 1.847656 -8.160156 1.53125 -9.796875 1.53125 -11.578125 C 1.53125 -13.421875 1.875 -15.117188 2.5625 -16.671875 C 3.25 -18.234375 4.21875 -19.585938 5.46875 -20.734375 C 6.71875 -21.878906 8.195312 -22.769531 9.90625 -23.40625 C 11.613281 -24.039062 13.488281 -24.359375 15.53125 -24.359375 C 17.425781 -24.359375 19.164062 -24.066406 20.75 -23.484375 C 22.332031 -22.898438 23.703125 -22.070312 24.859375 -21 C 26.015625 -19.925781 26.90625 -18.664062 27.53125 -17.21875 C 28.15625 -15.78125 28.46875 -14.195312 28.46875 -12.46875 Z M 9.078125 -11.75 C 9.078125 -10.5625 9.328125 -9.515625 9.828125 -8.609375 C 10.335938 -7.703125 11.039062 -6.992188 11.9375 -6.484375 C 12.832031 -5.984375 13.875 -5.734375 15.0625 -5.734375 C 16.1875 -5.734375 17.195312 -6 18.09375 -6.53125 C 18.988281 -7.070312 19.703125 -7.816406 20.234375 -8.765625 C 20.765625 -9.710938 21.03125 -10.789062 21.03125 -12 C 21.03125 -13.25 20.78125 -14.332031 20.28125 -15.25 C 19.789062 -16.164062 19.09375 -16.878906 18.1875 -17.390625 C 17.289062 -17.898438 16.25 -18.15625 15.0625 -18.15625 C 13.894531 -18.15625 12.859375 -17.882812 11.953125 -17.34375 C 11.046875 -16.8125 10.335938 -16.066406 9.828125 -15.109375 C 9.328125 -14.148438 9.078125 -13.03125 9.078125 -11.75 Z M 9.078125 -11.75 "/></g></g><g transform="translate(266.582428, 61.310367)"><g><path d="M 10.46875 -20.921875 C 12.65625 -22.972656 15.1875 -24 18.0625 -24 C 19.570312 -24 20.953125 -23.726562 22.203125 -23.1875 C 23.460938 -22.65625 24.550781 -21.894531 25.46875 -20.90625 C 26.382812 -19.914062 27.09375 -18.742188 27.59375 -17.390625 C 28.09375 -16.035156 28.34375 -14.539062 28.34375 -12.90625 C 28.34375 -11.507812 28.148438 -10.160156 27.765625 -8.859375 C 27.390625 -7.566406 26.882812 -6.476562 26.25 -5.59375 C 23.5625 -1.863281 20.195312 0 16.15625 0 C 13.976562 0 12.015625 -0.601562 10.265625 -1.8125 L 10.265625 -0.859375 C 10.265625 4.078125 10.6875 7.359375 11.53125 8.984375 C 9.644531 9.867188 7.851562 10.3125 6.15625 10.3125 C 4.875 10.3125 3.988281 10.015625 3.5 9.421875 C 3.007812 8.828125 2.765625 7.820312 2.765625 6.40625 C 2.765625 6.1875 2.773438 5.804688 2.796875 5.265625 C 2.828125 4.722656 2.875 4.015625 2.9375 3.140625 C 3.019531 1.953125 3.097656 0.519531 3.171875 -1.15625 C 3.253906 -2.84375 3.316406 -4.675781 3.359375 -6.65625 C 3.410156 -8.644531 3.4375 -10.679688 3.4375 -12.765625 C 3.4375 -14.492188 3.398438 -15.992188 3.328125 -17.265625 C 3.265625 -18.546875 3.144531 -19.671875 2.96875 -20.640625 C 2.789062 -21.617188 2.519531 -22.5 2.15625 -23.28125 C 3.519531 -23.71875 4.835938 -23.9375 6.109375 -23.9375 C 7.460938 -23.9375 8.492188 -23.691406 9.203125 -23.203125 C 9.910156 -22.722656 10.332031 -21.960938 10.46875 -20.921875 Z M 10.46875 -7.5 C 11.851562 -6.507812 13.285156 -6.015625 14.765625 -6.015625 C 15.921875 -6.015625 16.945312 -6.28125 17.84375 -6.8125 C 18.738281 -7.351562 19.441406 -8.09375 19.953125 -9.03125 C 20.472656 -9.96875 20.734375 -11.039062 20.734375 -12.25 C 20.734375 -13.394531 20.5 -14.40625 20.03125 -15.28125 C 19.570312 -16.15625 18.9375 -16.835938 18.125 -17.328125 C 17.320312 -17.816406 16.390625 -18.0625 15.328125 -18.0625 C 13.796875 -18.0625 12.207031 -17.507812 10.5625 -16.40625 C 10.53125 -14.582031 10.503906 -12.925781 10.484375 -11.4375 C 10.472656 -9.957031 10.46875 -8.644531 10.46875 -7.5 Z M 10.46875 -7.5 "/></g></g></g></g></g><g transform="matrix(1, 0, 0, 1, 118, 216)"><g clip-path="url(#9abd04b3fb)"><g fill="#faab11" fill-opacity="1"><g transform="translate(0.804406, 13.404129)"><g><path d="M 4.90625 0.171875 C 3.5625 0.171875 2.550781 -0.28125 1.875 -1.1875 C 1.195312 -2.09375 0.859375 -3.566406 0.859375 -5.609375 L 0.859375 -6.203125 C 0.859375 -8.253906 1.195312 -9.726562 1.875 -10.625 C 2.550781 -11.519531 3.5625 -11.96875 4.90625 -11.96875 C 6.257812 -11.96875 7.273438 -11.519531 7.953125 -10.625 C 8.628906 -9.726562 8.96875 -8.253906 8.96875 -6.203125 L 8.96875 -5.609375 C 8.96875 -4.046875 8.769531 -2.820312 8.375 -1.9375 C 7.976562 -1.0625 7.390625 -0.460938 6.609375 -0.140625 L 7.25 1.515625 L 6.25 1.515625 L 5.71875 0.109375 C 5.59375 0.117188 5.460938 0.128906 5.328125 0.140625 C 5.191406 0.160156 5.050781 0.171875 4.90625 0.171875 Z M 5.34375 -3.421875 L 6.234375 -1.09375 C 6.785156 -1.363281 7.191406 -1.863281 7.453125 -2.59375 C 7.710938 -3.332031 7.84375 -4.335938 7.84375 -5.609375 L 7.84375 -6.203125 C 7.84375 -7.890625 7.609375 -9.109375 7.140625 -9.859375 C 6.679688 -10.609375 5.957031 -10.984375 4.96875 -10.984375 L 4.859375 -10.984375 C 3.867188 -10.984375 3.140625 -10.609375 2.671875 -9.859375 C 2.210938 -9.109375 1.984375 -7.890625 1.984375 -6.203125 L 1.984375 -5.609375 C 1.984375 -3.929688 2.210938 -2.710938 2.671875 -1.953125 C 3.140625 -1.191406 3.867188 -0.8125 4.859375 -0.8125 L 4.96875 -0.8125 C 5.039062 -0.8125 5.109375 -0.8125 5.171875 -0.8125 C 5.234375 -0.8125 5.300781 -0.816406 5.375 -0.828125 L 4.40625 -3.421875 Z M 5.34375 -3.421875 "/></g></g></g><g fill="#faab11" fill-opacity="1"><g transform="translate(11.377227, 13.404129)"><g><path d="M 0.921875 -8.03125 L 1.96875 -8.03125 L 1.96875 -2.5625 C 1.96875 -1.957031 2.125 -1.507812 2.4375 -1.21875 C 2.757812 -0.925781 3.179688 -0.78125 3.703125 -0.78125 C 4.128906 -0.78125 4.484375 -0.847656 4.765625 -0.984375 C 5.054688 -1.117188 5.296875 -1.28125 5.484375 -1.46875 C 5.671875 -1.664062 5.820312 -1.851562 5.9375 -2.03125 L 5.9375 -8.03125 L 7 -8.03125 L 7 -2.265625 L 7.078125 0 L 6.203125 0 L 6.046875 -1.125 C 5.816406 -0.769531 5.484375 -0.460938 5.046875 -0.203125 C 4.609375 0.046875 4.046875 0.171875 3.359375 0.171875 C 2.566406 0.171875 1.960938 -0.0664062 1.546875 -0.546875 C 1.128906 -1.035156 0.921875 -1.65625 0.921875 -2.40625 Z M 0.921875 -8.03125 "/></g></g></g><g fill="#faab11" fill-opacity="1"><g transform="translate(20.120016, 13.404129)"><g><path d="M 1.109375 0 L 1.109375 -8.03125 L 2.171875 -8.03125 L 2.171875 0 Z M 2.3125 -11.28125 L 2.3125 -9.921875 L 0.953125 -9.921875 L 0.953125 -11.28125 Z M 2.3125 -11.28125 "/></g></g></g><g fill="#faab11" fill-opacity="1"><g transform="translate(24.144018, 13.404129)"><g><path d="M 1.8125 -3.828125 C 1.8125 -2.910156 1.992188 -2.171875 2.359375 -1.609375 C 2.722656 -1.054688 3.304688 -0.78125 4.109375 -0.78125 C 4.609375 -0.78125 5.003906 -0.875 5.296875 -1.0625 C 5.597656 -1.25 5.8125 -1.492188 5.9375 -1.796875 C 6.070312 -2.109375 6.140625 -2.4375 6.140625 -2.78125 L 7.15625 -2.78125 L 7.15625 -2.546875 C 7.15625 -2.117188 7.050781 -1.695312 6.84375 -1.28125 C 6.644531 -0.875 6.316406 -0.53125 5.859375 -0.25 C 5.410156 0.03125 4.820312 0.171875 4.09375 0.171875 C 3.3125 0.171875 2.671875 -0.00390625 2.171875 -0.359375 C 1.679688 -0.722656 1.316406 -1.207031 1.078125 -1.8125 C 0.847656 -2.414062 0.734375 -3.085938 0.734375 -3.828125 L 0.734375 -4.1875 C 0.734375 -4.9375 0.847656 -5.609375 1.078125 -6.203125 C 1.316406 -6.804688 1.679688 -7.285156 2.171875 -7.640625 C 2.671875 -8.003906 3.3125 -8.1875 4.09375 -8.1875 C 4.820312 -8.1875 5.410156 -8.039062 5.859375 -7.75 C 6.316406 -7.46875 6.644531 -7.113281 6.84375 -6.6875 C 7.050781 -6.257812 7.15625 -5.828125 7.15625 -5.390625 L 7.15625 -5.09375 L 6.140625 -5.09375 C 6.140625 -5.707031 5.976562 -6.21875 5.65625 -6.625 C 5.34375 -7.03125 4.828125 -7.234375 4.109375 -7.234375 C 3.304688 -7.234375 2.722656 -6.957031 2.359375 -6.40625 C 1.992188 -5.851562 1.8125 -5.113281 1.8125 -4.1875 Z M 1.8125 -3.828125 "/></g></g></g><g fill="#faab11" fill-opacity="1"><g transform="translate(32.796056, 13.404129)"><g><path d="M 0.984375 0 L 0.984375 -12.109375 L 2.046875 -12.109375 L 2.046875 -3.78125 L 5.859375 -8.03125 L 7.171875 -8.03125 L 4.421875 -4.984375 L 7.171875 0 L 5.96875 0 L 3.6875 -4.171875 L 2.046875 -2.359375 L 2.046875 0 Z M 0.984375 0 "/></g></g></g><g fill="#faab11" fill-opacity="1"><g transform="translate(41.130475, 13.404129)"><g/></g></g><g fill="#faab11" fill-opacity="1"><g transform="translate(44.91248, 13.404129)"><g><path d="M 10.015625 -9.921875 L 6.578125 0 L 5.59375 0 L 2.15625 -9.921875 L 2.203125 -7.28125 L 2.203125 0 L 1.125 0 L 1.125 -11.8125 L 2.65625 -11.8125 L 6.09375 -1.875 L 9.515625 -11.8125 L 11.046875 -11.8125 L 11.046875 0 L 9.96875 0 L 9.96875 -7.28125 Z M 10.015625 -9.921875 "/></g></g></g><g fill="#faab11" fill-opacity="1"><g transform="translate(57.814439, 13.404129)"><g><path d="M 6 0 L 5.828125 -1.125 C 5.566406 -0.78125 5.203125 -0.476562 4.734375 -0.21875 C 4.273438 0.0390625 3.695312 0.171875 3 0.171875 C 2.257812 0.171875 1.6875 -0.03125 1.28125 -0.4375 C 0.882812 -0.851562 0.6875 -1.382812 0.6875 -2.03125 L 0.6875 -2.1875 C 0.6875 -2.769531 0.8125 -3.222656 1.0625 -3.546875 C 1.320312 -3.878906 1.648438 -4.125 2.046875 -4.28125 C 2.453125 -4.445312 2.867188 -4.5625 3.296875 -4.625 L 5.71875 -5 L 5.71875 -5.203125 C 5.71875 -5.890625 5.585938 -6.410156 5.328125 -6.765625 C 5.066406 -7.117188 4.578125 -7.296875 3.859375 -7.296875 C 3.359375 -7.296875 2.972656 -7.207031 2.703125 -7.03125 C 2.429688 -6.851562 2.242188 -6.617188 2.140625 -6.328125 C 2.046875 -6.046875 2 -5.726562 2 -5.375 L 0.984375 -5.375 L 0.984375 -5.515625 C 0.984375 -5.816406 1.019531 -6.125 1.09375 -6.4375 C 1.175781 -6.75 1.320312 -7.035156 1.53125 -7.296875 C 1.75 -7.566406 2.046875 -7.78125 2.421875 -7.9375 C 2.804688 -8.101562 3.289062 -8.1875 3.875 -8.1875 C 4.625 -8.1875 5.207031 -8.0625 5.625 -7.8125 C 6.039062 -7.5625 6.335938 -7.210938 6.515625 -6.765625 C 6.691406 -6.328125 6.78125 -5.804688 6.78125 -5.203125 L 6.78125 -2.265625 L 6.875 0 Z M 3.265625 -0.75 C 3.765625 -0.75 4.175781 -0.820312 4.5 -0.96875 C 4.832031 -1.125 5.097656 -1.300781 5.296875 -1.5 C 5.492188 -1.695312 5.632812 -1.875 5.71875 -2.03125 L 5.71875 -4.21875 L 3.390625 -3.84375 C 2.878906 -3.75 2.472656 -3.570312 2.171875 -3.3125 C 1.878906 -3.0625 1.734375 -2.707031 1.734375 -2.25 L 1.734375 -2.125 C 1.734375 -1.769531 1.851562 -1.453125 2.09375 -1.171875 C 2.34375 -0.890625 2.734375 -0.75 3.265625 -0.75 Z M 3.265625 -0.75 "/></g></g></g><g fill="#faab11" fill-opacity="1"><g transform="translate(66.315232, 13.404129)"><g><path d="M 1.109375 0 L 1.109375 -8.03125 L 2.171875 -8.03125 L 2.171875 0 Z M 2.3125 -11.28125 L 2.3125 -9.921875 L 0.953125 -9.921875 L 0.953125 -11.28125 Z M 2.3125 -11.28125 "/></g></g></g><g fill="#faab11" fill-opacity="1"><g transform="translate(70.339233, 13.404129)"><g><path d="M 7.078125 0 L 6.015625 0 L 6.015625 -5.46875 C 6.015625 -6.070312 5.859375 -6.515625 5.546875 -6.796875 C 5.234375 -7.085938 4.804688 -7.234375 4.265625 -7.234375 C 3.859375 -7.234375 3.507812 -7.164062 3.21875 -7.03125 C 2.925781 -6.90625 2.6875 -6.742188 2.5 -6.546875 C 2.3125 -6.359375 2.164062 -6.175781 2.0625 -6 L 2.0625 0 L 1 0 L 1 -5.75 L 0.90625 -8.03125 L 1.78125 -8.03125 L 1.9375 -6.890625 C 2.164062 -7.242188 2.5 -7.546875 2.9375 -7.796875 C 3.382812 -8.054688 3.953125 -8.1875 4.640625 -8.1875 C 5.429688 -8.1875 6.035156 -7.941406 6.453125 -7.453125 C 6.867188 -6.972656 7.078125 -6.359375 7.078125 -5.609375 Z M 7.078125 0 "/></g></g></g><g fill="#faab11" fill-opacity="1"><g transform="translate(79.082022, 13.404129)"><g><path d="M 2.796875 -8.03125 L 5.359375 -8.03125 L 5.359375 -7.078125 L 2.796875 -7.078125 L 2.796875 -2.359375 C 2.796875 -1.722656 2.925781 -1.300781 3.1875 -1.09375 C 3.457031 -0.882812 3.84375 -0.78125 4.34375 -0.78125 C 4.519531 -0.78125 4.691406 -0.796875 4.859375 -0.828125 C 5.035156 -0.859375 5.148438 -0.890625 5.203125 -0.921875 L 5.203125 0 C 5.148438 0.0195312 5.03125 0.0507812 4.84375 0.09375 C 4.664062 0.144531 4.414062 0.171875 4.09375 0.171875 C 3.414062 0.171875 2.851562 -0.0078125 2.40625 -0.375 C 1.957031 -0.738281 1.734375 -1.351562 1.734375 -2.21875 L 1.734375 -7.078125 L 0.46875 -7.078125 L 0.46875 -8.03125 L 1.734375 -8.03125 L 1.734375 -10.296875 L 2.796875 -10.296875 Z M 2.796875 -8.03125 "/></g></g></g><g fill="#faab11" fill-opacity="1"><g transform="translate(85.8889, 13.404129)"><g><path d="M 7.5 -3.578125 L 1.8125 -3.578125 C 1.832031 -2.691406 2.035156 -1.992188 2.421875 -1.484375 C 2.816406 -0.984375 3.410156 -0.734375 4.203125 -0.734375 C 4.742188 -0.734375 5.179688 -0.820312 5.515625 -1 C 5.847656 -1.1875 6.09375 -1.425781 6.25 -1.71875 C 6.40625 -2.007812 6.484375 -2.296875 6.484375 -2.578125 L 7.5 -2.578125 L 7.5 -2.515625 C 7.5 -2.097656 7.378906 -1.679688 7.140625 -1.265625 C 6.910156 -0.859375 6.550781 -0.515625 6.0625 -0.234375 C 5.582031 0.0351562 4.960938 0.171875 4.203125 0.171875 C 3.398438 0.171875 2.742188 -0.00390625 2.234375 -0.359375 C 1.722656 -0.722656 1.34375 -1.207031 1.09375 -1.8125 C 0.851562 -2.425781 0.734375 -3.101562 0.734375 -3.84375 L 0.734375 -4.171875 C 0.734375 -4.921875 0.851562 -5.597656 1.09375 -6.203125 C 1.332031 -6.804688 1.703125 -7.285156 2.203125 -7.640625 C 2.710938 -8.003906 3.359375 -8.1875 4.140625 -8.1875 C 4.921875 -8.1875 5.554688 -8.003906 6.046875 -7.640625 C 6.546875 -7.285156 6.910156 -6.804688 7.140625 -6.203125 C 7.378906 -5.597656 7.5 -4.921875 7.5 -4.171875 Z M 4.125 -7.296875 C 3.363281 -7.296875 2.789062 -7.035156 2.40625 -6.515625 C 2.03125 -6.003906 1.832031 -5.316406 1.8125 -4.453125 L 6.421875 -4.453125 C 6.390625 -5.316406 6.1875 -6.003906 5.8125 -6.515625 C 5.445312 -7.035156 4.882812 -7.296875 4.125 -7.296875 Z M 4.125 -7.296875 "/></g></g></g><g fill="#faab11" fill-opacity="1"><g transform="translate(94.87367, 13.404129)"><g><path d="M 7.078125 0 L 6.015625 0 L 6.015625 -5.46875 C 6.015625 -6.070312 5.859375 -6.515625 5.546875 -6.796875 C 5.234375 -7.085938 4.804688 -7.234375 4.265625 -7.234375 C 3.859375 -7.234375 3.507812 -7.164062 3.21875 -7.03125 C 2.925781 -6.90625 2.6875 -6.742188 2.5 -6.546875 C 2.3125 -6.359375 2.164062 -6.175781 2.0625 -6 L 2.0625 0 L 1 0 L 1 -5.75 L 0.90625 -8.03125 L 1.78125 -8.03125 L 1.9375 -6.890625 C 2.164062 -7.242188 2.5 -7.546875 2.9375 -7.796875 C 3.382812 -8.054688 3.953125 -8.1875 4.640625 -8.1875 C 5.429688 -8.1875 6.035156 -7.941406 6.453125 -7.453125 C 6.867188 -6.972656 7.078125 -6.359375 7.078125 -5.609375 Z M 7.078125 0 "/></g></g></g><g fill="#faab11" fill-opacity="1"><g transform="translate(103.616459, 13.404129)"><g><path d="M 6 0 L 5.828125 -1.125 C 5.566406 -0.78125 5.203125 -0.476562 4.734375 -0.21875 C 4.273438 0.0390625 3.695312 0.171875 3 0.171875 C 2.257812 0.171875 1.6875 -0.03125 1.28125 -0.4375 C 0.882812 -0.851562 0.6875 -1.382812 0.6875 -2.03125 L 0.6875 -2.1875 C 0.6875 -2.769531 0.8125 -3.222656 1.0625 -3.546875 C 1.320312 -3.878906 1.648438 -4.125 2.046875 -4.28125 C 2.453125 -4.445312 2.867188 -4.5625 3.296875 -4.625 L 5.71875 -5 L 5.71875 -5.203125 C 5.71875 -5.890625 5.585938 -6.410156 5.328125 -6.765625 C 5.066406 -7.117188 4.578125 -7.296875 3.859375 -7.296875 C 3.359375 -7.296875 2.972656 -7.207031 2.703125 -7.03125 C 2.429688 -6.851562 2.242188 -6.617188 2.140625 -6.328125 C 2.046875 -6.046875 2 -5.726562 2 -5.375 L 0.984375 -5.375 L 0.984375 -5.515625 C 0.984375 -5.816406 1.019531 -6.125 1.09375 -6.4375 C 1.175781 -6.75 1.320312 -7.035156 1.53125 -7.296875 C 1.75 -7.566406 2.046875 -7.78125 2.421875 -7.9375 C 2.804688 -8.101562 3.289062 -8.1875 3.875 -8.1875 C 4.625 -8.1875 5.207031 -8.0625 5.625 -7.8125 C 6.039062 -7.5625 6.335938 -7.210938 6.515625 -6.765625 C 6.691406 -6.328125 6.78125 -5.804688 6.78125 -5.203125 L 6.78125 -2.265625 L 6.875 0 Z M 3.265625 -0.75 C 3.765625 -0.75 4.175781 -0.820312 4.5 -0.96875 C 4.832031 -1.125 5.097656 -1.300781 5.296875 -1.5 C 5.492188 -1.695312 5.632812 -1.875 5.71875 -2.03125 L 5.71875 -4.21875 L 3.390625 -3.84375 C 2.878906 -3.75 2.472656 -3.570312 2.171875 -3.3125 C 1.878906 -3.0625 1.734375 -2.707031 1.734375 -2.25 L 1.734375 -2.125 C 1.734375 -1.769531 1.851562 -1.453125 2.09375 -1.171875 C 2.34375 -0.890625 2.734375 -0.75 3.265625 -0.75 Z M 3.265625 -0.75 "/></g></g></g><g fill="#faab11" fill-opacity="1"><g transform="translate(112.117251, 13.404129)"><g><path d="M 7.078125 0 L 6.015625 0 L 6.015625 -5.46875 C 6.015625 -6.070312 5.859375 -6.515625 5.546875 -6.796875 C 5.234375 -7.085938 4.804688 -7.234375 4.265625 -7.234375 C 3.859375 -7.234375 3.507812 -7.164062 3.21875 -7.03125 C 2.925781 -6.90625 2.6875 -6.742188 2.5 -6.546875 C 2.3125 -6.359375 2.164062 -6.175781 2.0625 -6 L 2.0625 0 L 1 0 L 1 -5.75 L 0.90625 -8.03125 L 1.78125 -8.03125 L 1.9375 -6.890625 C 2.164062 -7.242188 2.5 -7.546875 2.9375 -7.796875 C 3.382812 -8.054688 3.953125 -8.1875 4.640625 -8.1875 C 5.429688 -8.1875 6.035156 -7.941406 6.453125 -7.453125 C 6.867188 -6.972656 7.078125 -6.359375 7.078125 -5.609375 Z M 7.078125 0 "/></g></g></g><g fill="#faab11" fill-opacity="1"><g transform="translate(120.86004, 13.404129)"><g><path d="M 1.8125 -3.828125 C 1.8125 -2.910156 1.992188 -2.171875 2.359375 -1.609375 C 2.722656 -1.054688 3.304688 -0.78125 4.109375 -0.78125 C 4.609375 -0.78125 5.003906 -0.875 5.296875 -1.0625 C 5.597656 -1.25 5.8125 -1.492188 5.9375 -1.796875 C 6.070312 -2.109375 6.140625 -2.4375 6.140625 -2.78125 L 7.15625 -2.78125 L 7.15625 -2.546875 C 7.15625 -2.117188 7.050781 -1.695312 6.84375 -1.28125 C 6.644531 -0.875 6.316406 -0.53125 5.859375 -0.25 C 5.410156 0.03125 4.820312 0.171875 4.09375 0.171875 C 3.3125 0.171875 2.671875 -0.00390625 2.171875 -0.359375 C 1.679688 -0.722656 1.316406 -1.207031 1.078125 -1.8125 C 0.847656 -2.414062 0.734375 -3.085938 0.734375 -3.828125 L 0.734375 -4.1875 C 0.734375 -4.9375 0.847656 -5.609375 1.078125 -6.203125 C 1.316406 -6.804688 1.679688 -7.285156 2.171875 -7.640625 C 2.671875 -8.003906 3.3125 -8.1875 4.09375 -8.1875 C 4.820312 -8.1875 5.410156 -8.039062 5.859375 -7.75 C 6.316406 -7.46875 6.644531 -7.113281 6.84375 -6.6875 C 7.050781 -6.257812 7.15625 -5.828125 7.15625 -5.390625 L 7.15625 -5.09375 L 6.140625 -5.09375 C 6.140625 -5.707031 5.976562 -6.21875 5.65625 -6.625 C 5.34375 -7.03125 4.828125 -7.234375 4.109375 -7.234375 C 3.304688 -7.234375 2.722656 -6.957031 2.359375 -6.40625 C 1.992188 -5.851562 1.8125 -5.113281 1.8125 -4.1875 Z M 1.8125 -3.828125 "/></g></g></g><g fill="#faab11" fill-opacity="1"><g transform="translate(129.512078, 13.404129)"><g><path d="M 7.5 -3.578125 L 1.8125 -3.578125 C 1.832031 -2.691406 2.035156 -1.992188 2.421875 -1.484375 C 2.816406 -0.984375 3.410156 -0.734375 4.203125 -0.734375 C 4.742188 -0.734375 5.179688 -0.820312 5.515625 -1 C 5.847656 -1.1875 6.09375 -1.425781 6.25 -1.71875 C 6.40625 -2.007812 6.484375 -2.296875 6.484375 -2.578125 L 7.5 -2.578125 L 7.5 -2.515625 C 7.5 -2.097656 7.378906 -1.679688 7.140625 -1.265625 C 6.910156 -0.859375 6.550781 -0.515625 6.0625 -0.234375 C 5.582031 0.0351562 4.960938 0.171875 4.203125 0.171875 C 3.398438 0.171875 2.742188 -0.00390625 2.234375 -0.359375 C 1.722656 -0.722656 1.34375 -1.207031 1.09375 -1.8125 C 0.851562 -2.425781 0.734375 -3.101562 0.734375 -3.84375 L 0.734375 -4.171875 C 0.734375 -4.921875 0.851562 -5.597656 1.09375 -6.203125 C 1.332031 -6.804688 1.703125 -7.285156 2.203125 -7.640625 C 2.710938 -8.003906 3.359375 -8.1875 4.140625 -8.1875 C 4.921875 -8.1875 5.554688 -8.003906 6.046875 -7.640625 C 6.546875 -7.285156 6.910156 -6.804688 7.140625 -6.203125 C 7.378906 -5.597656 7.5 -4.921875 7.5 -4.171875 Z M 4.125 -7.296875 C 3.363281 -7.296875 2.789062 -7.035156 2.40625 -6.515625 C 2.03125 -6.003906 1.832031 -5.316406 1.8125 -4.453125 L 6.421875 -4.453125 C 6.390625 -5.316406 6.1875 -6.003906 5.8125 -6.515625 C 5.445312 -7.035156 4.882812 -7.296875 4.125 -7.296875 Z M 4.125 -7.296875 "/></g></g></g><g fill="#faab11" fill-opacity="1"><g transform="translate(138.496848, 13.404129)"><g/></g></g><g fill="#faab11" fill-opacity="1"><g transform="translate(142.278853, 13.404129)"><g><path d="M 10.015625 -9.921875 L 6.578125 0 L 5.59375 0 L 2.15625 -9.921875 L 2.203125 -7.28125 L 2.203125 0 L 1.125 0 L 1.125 -11.8125 L 2.65625 -11.8125 L 6.09375 -1.875 L 9.515625 -11.8125 L 11.046875 -11.8125 L 11.046875 0 L 9.96875 0 L 9.96875 -7.28125 Z M 10.015625 -9.921875 "/></g></g></g><g fill="#faab11" fill-opacity="1"><g transform="translate(155.180813, 13.404129)"><g><path d="M 7.5 -3.578125 L 1.8125 -3.578125 C 1.832031 -2.691406 2.035156 -1.992188 2.421875 -1.484375 C 2.816406 -0.984375 3.410156 -0.734375 4.203125 -0.734375 C 4.742188 -0.734375 5.179688 -0.820312 5.515625 -1 C 5.847656 -1.1875 6.09375 -1.425781 6.25 -1.71875 C 6.40625 -2.007812 6.484375 -2.296875 6.484375 -2.578125 L 7.5 -2.578125 L 7.5 -2.515625 C 7.5 -2.097656 7.378906 -1.679688 7.140625 -1.265625 C 6.910156 -0.859375 6.550781 -0.515625 6.0625 -0.234375 C 5.582031 0.0351562 4.960938 0.171875 4.203125 0.171875 C 3.398438 0.171875 2.742188 -0.00390625 2.234375 -0.359375 C 1.722656 -0.722656 1.34375 -1.207031 1.09375 -1.8125 C 0.851562 -2.425781 0.734375 -3.101562 0.734375 -3.84375 L 0.734375 -4.171875 C 0.734375 -4.921875 0.851562 -5.597656 1.09375 -6.203125 C 1.332031 -6.804688 1.703125 -7.285156 2.203125 -7.640625 C 2.710938 -8.003906 3.359375 -8.1875 4.140625 -8.1875 C 4.921875 -8.1875 5.554688 -8.003906 6.046875 -7.640625 C 6.546875 -7.285156 6.910156 -6.804688 7.140625 -6.203125 C 7.378906 -5.597656 7.5 -4.921875 7.5 -4.171875 Z M 4.125 -7.296875 C 3.363281 -7.296875 2.789062 -7.035156 2.40625 -6.515625 C 2.03125 -6.003906 1.832031 -5.316406 1.8125 -4.453125 L 6.421875 -4.453125 C 6.390625 -5.316406 6.1875 -6.003906 5.8125 -6.515625 C 5.445312 -7.035156 4.882812 -7.296875 4.125 -7.296875 Z M 4.125 -7.296875 "/></g></g></g><g fill="#faab11" fill-opacity="1"><g transform="translate(164.165582, 13.404129)"><g><path d="M 2.796875 -8.03125 L 5.359375 -8.03125 L 5.359375 -7.078125 L 2.796875 -7.078125 L 2.796875 -2.359375 C 2.796875 -1.722656 2.925781 -1.300781 3.1875 -1.09375 C 3.457031 -0.882812 3.84375 -0.78125 4.34375 -0.78125 C 4.519531 -0.78125 4.691406 -0.796875 4.859375 -0.828125 C 5.035156 -0.859375 5.148438 -0.890625 5.203125 -0.921875 L 5.203125 0 C 5.148438 0.0195312 5.03125 0.0507812 4.84375 0.09375 C 4.664062 0.144531 4.414062 0.171875 4.09375 0.171875 C 3.414062 0.171875 2.851562 -0.0078125 2.40625 -0.375 C 1.957031 -0.738281 1.734375 -1.351562 1.734375 -2.21875 L 1.734375 -7.078125 L 0.46875 -7.078125 L 0.46875 -8.03125 L 1.734375 -8.03125 L 1.734375 -10.296875 L 2.796875 -10.296875 Z M 2.796875 -8.03125 "/></g></g></g><g fill="#faab11" fill-opacity="1"><g transform="translate(170.97246, 13.404129)"><g><path d="M 2.0625 -12.109375 L 2.0625 -7.0625 C 2.300781 -7.382812 2.628906 -7.648438 3.046875 -7.859375 C 3.460938 -8.078125 3.992188 -8.1875 4.640625 -8.1875 C 5.429688 -8.1875 6.035156 -7.941406 6.453125 -7.453125 C 6.867188 -6.972656 7.078125 -6.359375 7.078125 -5.609375 L 7.078125 0 L 6.015625 0 L 6.015625 -5.46875 C 6.015625 -6.070312 5.859375 -6.515625 5.546875 -6.796875 C 5.234375 -7.085938 4.804688 -7.234375 4.265625 -7.234375 C 3.859375 -7.234375 3.507812 -7.164062 3.21875 -7.03125 C 2.925781 -6.90625 2.6875 -6.742188 2.5 -6.546875 C 2.3125 -6.359375 2.164062 -6.175781 2.0625 -6 L 2.0625 0 L 1 0 L 1 -12.109375 Z M 2.0625 -12.109375 "/></g></g></g><g fill="#faab11" fill-opacity="1"><g transform="translate(179.715249, 13.404129)"><g><path d="M 4.125 0.171875 C 3.332031 0.171875 2.6875 -0.00390625 2.1875 -0.359375 C 1.695312 -0.722656 1.332031 -1.207031 1.09375 -1.8125 C 0.851562 -2.414062 0.734375 -3.085938 0.734375 -3.828125 L 0.734375 -4.1875 C 0.734375 -4.9375 0.851562 -5.609375 1.09375 -6.203125 C 1.332031 -6.804688 1.695312 -7.285156 2.1875 -7.640625 C 2.6875 -8.003906 3.332031 -8.1875 4.125 -8.1875 C 4.90625 -8.1875 5.546875 -8.003906 6.046875 -7.640625 C 6.546875 -7.285156 6.910156 -6.804688 7.140625 -6.203125 C 7.378906 -5.609375 7.5 -4.9375 7.5 -4.1875 L 7.5 -3.828125 C 7.5 -3.085938 7.378906 -2.414062 7.140625 -1.8125 C 6.910156 -1.207031 6.546875 -0.722656 6.046875 -0.359375 C 5.546875 -0.00390625 4.90625 0.171875 4.125 0.171875 Z M 4.125 -0.78125 C 4.914062 -0.78125 5.492188 -1.054688 5.859375 -1.609375 C 6.234375 -2.171875 6.421875 -2.910156 6.421875 -3.828125 L 6.421875 -4.1875 C 6.421875 -5.113281 6.234375 -5.851562 5.859375 -6.40625 C 5.492188 -6.957031 4.914062 -7.234375 4.125 -7.234375 C 3.320312 -7.234375 2.734375 -6.957031 2.359375 -6.40625 C 1.992188 -5.851562 1.8125 -5.113281 1.8125 -4.1875 L 1.8125 -3.828125 C 1.8125 -2.910156 1.992188 -2.171875 2.359375 -1.609375 C 2.734375 -1.054688 3.320312 -0.78125 4.125 -0.78125 Z M 4.125 -0.78125 "/></g></g></g><g fill="#faab11" fill-opacity="1"><g transform="translate(188.700019, 13.404129)"><g><path d="M 3.84375 -8.1875 C 4.40625 -8.1875 4.867188 -8.082031 5.234375 -7.875 C 5.597656 -7.664062 5.890625 -7.40625 6.109375 -7.09375 L 6.109375 -12.109375 L 7.171875 -12.109375 L 7.171875 -2.265625 L 7.265625 0 L 6.375 0 L 6.21875 -1.078125 C 6.019531 -0.734375 5.722656 -0.4375 5.328125 -0.1875 C 4.941406 0.0507812 4.445312 0.171875 3.84375 0.171875 C 3.113281 0.171875 2.519531 -0.00390625 2.0625 -0.359375 C 1.613281 -0.722656 1.285156 -1.207031 1.078125 -1.8125 C 0.867188 -2.414062 0.765625 -3.085938 0.765625 -3.828125 L 0.765625 -4.1875 C 0.765625 -4.9375 0.867188 -5.609375 1.078125 -6.203125 C 1.285156 -6.804688 1.613281 -7.285156 2.0625 -7.640625 C 2.519531 -8.003906 3.113281 -8.1875 3.84375 -8.1875 Z M 4.078125 -0.78125 C 4.441406 -0.78125 4.753906 -0.847656 5.015625 -0.984375 C 5.273438 -1.117188 5.492188 -1.28125 5.671875 -1.46875 C 5.859375 -1.664062 6.003906 -1.851562 6.109375 -2.03125 L 6.109375 -6 C 6.003906 -6.175781 5.859375 -6.359375 5.671875 -6.546875 C 5.492188 -6.742188 5.273438 -6.90625 5.015625 -7.03125 C 4.753906 -7.164062 4.441406 -7.234375 4.078125 -7.234375 C 3.316406 -7.234375 2.753906 -6.957031 2.390625 -6.40625 C 2.023438 -5.863281 1.84375 -5.125 1.84375 -4.1875 L 1.84375 -3.828125 C 1.84375 -2.898438 2.023438 -2.160156 2.390625 -1.609375 C 2.753906 -1.054688 3.316406 -0.78125 4.078125 -0.78125 Z M 4.078125 -0.78125 "/></g></g></g><g fill="#faab11" fill-opacity="1"><g transform="translate(197.624294, 13.404129)"><g><path d="M 3.953125 -0.734375 C 4.609375 -0.734375 5.101562 -0.863281 5.4375 -1.125 C 5.78125 -1.394531 5.953125 -1.753906 5.953125 -2.203125 C 5.953125 -2.742188 5.78125 -3.109375 5.4375 -3.296875 C 5.09375 -3.484375 4.53125 -3.609375 3.75 -3.671875 C 3.039062 -3.734375 2.476562 -3.859375 2.0625 -4.046875 C 1.65625 -4.234375 1.367188 -4.472656 1.203125 -4.765625 C 1.046875 -5.066406 0.96875 -5.414062 0.96875 -5.8125 L 0.96875 -5.90625 C 0.96875 -6.601562 1.226562 -7.15625 1.75 -7.5625 C 2.28125 -7.976562 3.015625 -8.1875 3.953125 -8.1875 C 4.691406 -8.1875 5.273438 -8.070312 5.703125 -7.84375 C 6.140625 -7.613281 6.457031 -7.296875 6.65625 -6.890625 C 6.851562 -6.484375 6.953125 -6.019531 6.953125 -5.5 L 6.953125 -5.4375 L 5.90625 -5.4375 C 5.90625 -6.007812 5.765625 -6.460938 5.484375 -6.796875 C 5.210938 -7.128906 4.703125 -7.296875 3.953125 -7.296875 C 3.347656 -7.296875 2.875 -7.175781 2.53125 -6.9375 C 2.195312 -6.695312 2.03125 -6.351562 2.03125 -5.90625 C 2.03125 -5.632812 2.085938 -5.398438 2.203125 -5.203125 C 2.316406 -5.003906 2.523438 -4.847656 2.828125 -4.734375 C 3.140625 -4.617188 3.582031 -4.535156 4.15625 -4.484375 C 5.164062 -4.398438 5.898438 -4.191406 6.359375 -3.859375 C 6.816406 -3.535156 7.046875 -3.003906 7.046875 -2.265625 L 7.046875 -2.203125 C 7.046875 -1.503906 6.773438 -0.929688 6.234375 -0.484375 C 5.703125 -0.046875 4.941406 0.171875 3.953125 0.171875 C 3.191406 0.171875 2.582031 0.0390625 2.125 -0.21875 C 1.675781 -0.476562 1.351562 -0.800781 1.15625 -1.1875 C 0.957031 -1.582031 0.859375 -1.984375 0.859375 -2.390625 L 0.859375 -2.453125 L 1.921875 -2.453125 C 1.921875 -2.160156 1.976562 -1.878906 2.09375 -1.609375 C 2.207031 -1.347656 2.414062 -1.132812 2.71875 -0.96875 C 3.019531 -0.8125 3.429688 -0.734375 3.953125 -0.734375 Z M 3.953125 -0.734375 "/></g></g></g></g></g></svg>