<svg xmlns="http://www.w3.org/2000/svg" xmlns:xlink="http://www.w3.org/1999/xlink" width="500" zoomAndPan="magnify" viewBox="0 0 375 374.999991" height="500" preserveAspectRatio="xMidYMid meet" version="1.0"><defs><g/><clipPath id="7b7d274763"><path d="M 14 15 L 366 15 L 366 366.125 L 14 366.125 Z M 14 15 " clip-rule="nonzero"/></clipPath><clipPath id="a2c925b6be"><path d="M 18.84375 19.339844 L 360.878906 19.339844 L 360.878906 361.375 L 18.84375 361.375 Z M 18.84375 19.339844 " clip-rule="nonzero"/></clipPath><clipPath id="ff3ed2cf7f"><path d="M 189.859375 19.339844 C 95.410156 19.339844 18.84375 95.90625 18.84375 190.359375 C 18.84375 284.808594 95.410156 361.375 189.859375 361.375 C 284.308594 361.375 360.878906 284.808594 360.878906 190.359375 C 360.878906 95.90625 284.308594 19.339844 189.859375 19.339844 Z M 189.859375 19.339844 " clip-rule="nonzero"/></clipPath><clipPath id="327dc68952"><path d="M 52.765625 114.898438 L 290.402344 114.898438 L 290.402344 270.089844 L 52.765625 270.089844 Z M 52.765625 114.898438 " clip-rule="nonzero"/></clipPath><clipPath id="0977914358"><path d="M 115.28125 117.28125 L 327 117.28125 L 327 274.585938 L 115.28125 274.585938 Z M 115.28125 117.28125 " clip-rule="nonzero"/></clipPath><clipPath id="3e50423a36"><path d="M 115 117 L 116.429688 117 L 116.429688 271.148438 L 115 271.148438 Z M 115 117 " clip-rule="nonzero"/></clipPath><clipPath id="80a08d90fe"><path d="M 264 213 L 329.367188 213 L 329.367188 276.710938 L 264 276.710938 Z M 264 213 " clip-rule="nonzero"/></clipPath><clipPath id="5c0bdcc55e"><path d="M 309.257812 220.539062 L 332.570312 220.539062 L 332.570312 276.789062 L 309.257812 276.789062 Z M 309.257812 220.539062 " clip-rule="nonzero"/></clipPath></defs><g clip-path="url(#7b7d274763)"><path fill="#000000" d="M 189.722656 366.015625 C 185.421875 366.015625 181.125 365.859375 176.835938 365.542969 C 172.546875 365.226562 168.273438 364.75 164.019531 364.121094 C 159.765625 363.488281 155.539062 362.699219 151.34375 361.757812 C 147.144531 360.816406 142.988281 359.71875 138.875 358.46875 C 134.757812 357.21875 130.695312 355.820312 126.679688 354.273438 C 122.667969 352.722656 118.714844 351.027344 114.828125 349.1875 C 110.941406 347.347656 107.125 345.367188 103.382812 343.246094 C 99.640625 341.125 95.980469 338.867188 92.40625 336.476562 C 88.828125 334.085938 85.34375 331.566406 81.953125 328.917969 C 78.5625 326.269531 75.273438 323.5 72.085938 320.609375 C 68.898438 317.71875 65.824219 314.714844 62.859375 311.597656 C 59.890625 308.480469 57.042969 305.257812 54.316406 301.933594 C 51.585938 298.605469 48.984375 295.183594 46.507812 291.664062 C 44.03125 288.144531 41.6875 284.539062 39.476562 280.847656 C 37.265625 277.15625 35.191406 273.386719 33.257812 269.542969 C 31.324219 265.695312 29.535156 261.785156 27.886719 257.808594 C 26.242188 253.832031 24.746094 249.800781 23.394531 245.714844 C 22.046875 241.628906 20.847656 237.496094 19.804688 233.320312 C 18.757812 229.144531 17.867188 224.9375 17.132812 220.695312 C 16.398438 216.457031 15.820312 212.195312 15.398438 207.910156 C 14.976562 203.628906 14.714844 199.332031 14.609375 195.03125 C 14.5 190.726562 14.554688 186.425781 14.765625 182.128906 C 14.976562 177.828125 15.34375 173.542969 15.871094 169.273438 C 16.398438 165 17.082031 160.753906 17.921875 156.53125 C 18.761719 152.308594 19.753906 148.125 20.898438 143.976562 C 22.046875 139.828125 23.34375 135.726562 24.792969 131.675781 C 26.242188 127.625 27.839844 123.628906 29.582031 119.695312 C 31.324219 115.757812 33.210938 111.894531 35.238281 108.097656 C 37.265625 104.300781 39.429688 100.585938 41.730469 96.949219 C 44.035156 93.3125 46.464844 89.765625 49.027344 86.308594 C 51.589844 82.851562 54.277344 79.492188 57.085938 76.234375 C 59.894531 72.976562 62.820312 69.824219 65.859375 66.78125 C 67.886719 64.742188 69.960938 62.753906 72.082031 60.820312 C 74.203125 58.882812 76.375 57 78.589844 55.167969 C 80.804688 53.339844 83.0625 51.566406 85.363281 49.847656 C 87.667969 48.128906 90.007812 46.46875 92.394531 44.863281 C 94.777344 43.261719 97.199219 41.71875 99.660156 40.234375 C 102.117188 38.75 104.613281 37.328125 107.144531 35.964844 C 109.671875 34.605469 112.234375 33.308594 114.828125 32.070312 C 117.421875 30.835938 120.042969 29.667969 122.695312 28.558594 C 125.347656 27.453125 128.023438 26.414062 130.722656 25.441406 C 133.425781 24.464844 136.152344 23.558594 138.898438 22.71875 C 141.644531 21.878906 144.410156 21.105469 147.195312 20.402344 C 149.980469 19.699219 152.78125 19.0625 155.597656 18.496094 C 158.410156 17.933594 161.238281 17.433594 164.082031 17.007812 C 166.921875 16.582031 169.769531 16.226562 172.628906 15.9375 C 175.484375 15.652344 178.347656 15.4375 181.21875 15.289062 C 184.085938 15.144531 186.957031 15.070312 189.828125 15.066406 C 192.699219 15.0625 195.570312 15.125 198.441406 15.265625 C 201.308594 15.402344 204.171875 15.609375 207.03125 15.886719 C 209.890625 16.164062 212.738281 16.511719 215.582031 16.929688 C 218.421875 17.347656 221.253906 17.835938 224.070312 18.394531 C 226.886719 18.953125 229.691406 19.578125 232.476562 20.273438 C 235.265625 20.96875 238.03125 21.734375 240.78125 22.5625 C 243.53125 23.394531 246.257812 24.296875 248.964844 25.261719 C 251.667969 26.226562 254.347656 27.257812 257.003906 28.355469 C 259.65625 29.453125 262.28125 30.617188 264.878906 31.84375 C 267.476562 33.070312 270.042969 34.363281 272.574219 35.714844 C 275.109375 37.070312 277.609375 38.484375 280.074219 39.960938 C 282.539062 41.4375 284.964844 42.972656 287.351562 44.570312 C 289.742188 46.164062 292.089844 47.820312 294.398438 49.53125 C 296.703125 51.242188 298.96875 53.007812 301.1875 54.832031 C 303.410156 56.65625 305.582031 58.53125 307.710938 60.460938 C 309.839844 62.390625 311.921875 64.371094 313.949219 66.40625 C 315.980469 68.4375 317.960938 70.519531 319.890625 72.648438 C 321.820312 74.777344 323.695312 76.953125 325.515625 79.175781 C 327.335938 81.398438 329.105469 83.664062 330.8125 85.972656 C 332.523438 88.28125 334.175781 90.632812 335.773438 93.023438 C 337.367188 95.414062 338.902344 97.839844 340.375 100.308594 C 341.851562 102.773438 343.265625 105.273438 344.617188 107.808594 C 345.972656 110.34375 347.261719 112.914062 348.488281 115.511719 C 349.714844 118.109375 350.875 120.738281 351.972656 123.394531 C 353.070312 126.050781 354.101562 128.730469 355.066406 131.4375 C 356.03125 134.144531 356.929688 136.875 357.761719 139.625 C 358.589844 142.378906 359.355469 145.148438 360.050781 147.9375 C 360.746094 150.726562 361.371094 153.53125 361.925781 156.347656 C 362.484375 159.167969 362.972656 162 363.390625 164.84375 C 363.808594 167.6875 364.15625 170.539062 364.433594 173.402344 C 364.710938 176.261719 364.917969 179.128906 365.054688 182 C 365.191406 184.871094 365.257812 187.742188 365.253906 190.617188 C 365.25 193.492188 365.175781 196.363281 365.03125 199.234375 C 364.882812 202.105469 364.667969 204.96875 364.382812 207.828125 C 364.09375 210.6875 363.738281 213.539062 363.3125 216.382812 C 362.886719 219.226562 362.390625 222.054688 361.824219 224.871094 C 361.257812 227.691406 360.625 230.492188 359.921875 233.28125 C 359.21875 236.066406 358.445312 238.835938 357.605469 241.582031 C 356.765625 244.332031 355.859375 247.058594 354.886719 249.761719 C 353.914062 252.464844 352.875 255.144531 351.769531 257.796875 C 350.664062 260.449219 349.492188 263.074219 348.257812 265.671875 C 347.027344 268.265625 345.726562 270.828125 344.367188 273.359375 C 343.007812 275.890625 341.585938 278.386719 340.105469 280.851562 C 338.621094 283.3125 337.078125 285.734375 335.476562 288.121094 C 333.875 290.507812 332.214844 292.851562 330.496094 295.15625 C 328.78125 297.457031 327.007812 299.71875 325.179688 301.9375 C 323.351562 304.152344 321.46875 306.324219 319.535156 308.445312 C 317.597656 310.570312 315.613281 312.644531 313.574219 314.671875 C 309.527344 318.742188 305.289062 322.605469 300.863281 326.257812 C 296.433594 329.910156 291.835938 333.335938 287.070312 336.53125 C 282.300781 339.730469 277.386719 342.683594 272.328125 345.394531 C 267.269531 348.105469 262.089844 350.558594 256.789062 352.757812 C 251.484375 354.957031 246.089844 356.886719 240.597656 358.550781 C 235.101562 360.214844 229.542969 361.601562 223.910156 362.714844 C 218.28125 363.828125 212.609375 364.660156 206.898438 365.210938 C 201.1875 365.761719 195.460938 366.03125 189.722656 366.015625 Z M 189.722656 21.96875 C 96.730469 21.96875 21.078125 97.671875 21.078125 190.730469 C 21.078125 283.789062 96.730469 359.484375 189.722656 359.484375 C 282.714844 359.484375 358.355469 283.78125 358.355469 190.730469 C 358.355469 97.675781 282.707031 21.96875 189.722656 21.96875 Z M 189.722656 21.96875 " fill-opacity="1" fill-rule="nonzero"/></g><path stroke-linecap="butt" transform="matrix(0.194664, -0.724297, 0.724297, 0.194664, 164.307356, 306.744061)" fill="none" stroke-linejoin="miter" d="M 0.00141371 1.500628 L 71.213074 1.501887 " stroke="#ffffff" stroke-width="3" stroke-opacity="1" stroke-miterlimit="4"/><g clip-path="url(#a2c925b6be)"><g clip-path="url(#ff3ed2cf7f)"><path fill="#ffffff" d="M 18.84375 19.339844 L 360.878906 19.339844 L 360.878906 361.375 L 18.84375 361.375 Z M 18.84375 19.339844 " fill-opacity="1" fill-rule="nonzero"/></g></g><g clip-path="url(#327dc68952)"><path fill="#000000" d="M 52.765625 270.089844 L 87.332031 270.089844 L 101.4375 235.527344 L 127.628906 235.527344 C 134.859375 224.945312 142.707031 214.980469 151.082031 205.546875 L 113.605469 205.546875 L 133.976562 155.636719 L 153.375 202.898438 C 160.957031 194.523438 168.980469 186.585938 177.359375 179.09375 L 150.023438 114.8125 L 118.808594 114.8125 Z M 290.402344 116.046875 L 183.621094 116.046875 L 183.621094 145.761719 L 223.210938 145.761719 C 244.109375 133.328125 266.59375 123.363281 290.402344 116.046875 Z M 290.402344 116.046875 " fill-opacity="1" fill-rule="evenodd"/></g><g clip-path="url(#0977914358)"><path fill="#000000" d="M 180.972656 270.089844 L 309.269531 270.089844 L 309.269531 240.375 L 224.535156 240.375 L 309.269531 141.792969 L 309.269531 125.394531 C 315.089844 122.570312 321 120.015625 326.996094 117.546875 C 235.113281 134.5625 158.84375 191.613281 115.988281 274.585938 L 174.359375 274.585938 C 176.125 266.828125 178.328125 259.246094 180.972656 252.101562 Z M 257.6875 155.109375 L 187.324219 237.023438 C 202.929688 203.253906 227.707031 176.445312 257.6875 155.109375 Z M 257.6875 155.109375 " fill-opacity="1" fill-rule="evenodd"/></g><path fill="#faab11" d="M 186.792969 237.289062 C 197.550781 217.359375 218.449219 185.089844 255.308594 156.695312 C 282.90625 135.535156 309.800781 123.804688 328.933594 117.28125 C 302.835938 121.953125 253.367188 134.386719 203.28125 171.070312 C 152.757812 208.101562 126.394531 251.660156 114.3125 275.027344 C 134.0625 275.027344 153.902344 275.027344 173.65625 275.027344 C 175.242188 268.152344 177.445312 260.65625 180.355469 252.632812 C 182.472656 247.078125 184.589844 241.960938 186.792969 237.289062 Z M 186.792969 237.289062 " fill-opacity="1" fill-rule="nonzero"/><g clip-path="url(#3e50423a36)"><path fill="#000000" d="M 180.535156 269.824219 L 308.832031 269.824219 C 308.832031 253.425781 295.515625 240.109375 279.113281 240.109375 L 224.09375 240.109375 L 308.832031 141.617188 L 308.832031 125.214844 C 314.648438 122.394531 320.558594 119.835938 326.554688 117.367188 C 234.671875 134.386719 158.402344 191.4375 115.546875 274.410156 L 173.921875 274.410156 C 175.683594 266.652344 177.886719 259.070312 180.535156 251.925781 Z M 257.246094 154.933594 L 186.792969 236.847656 C 202.488281 202.988281 227.265625 176.269531 257.246094 154.933594 Z M 257.246094 154.933594 " fill-opacity="1" fill-rule="evenodd"/></g><g clip-path="url(#80a08d90fe)"><path fill="#000000" d="M 265.09375 357.828125 L 264.566406 340.367188 L 270.914062 325.023438 L 339.425781 244.429688 C 346.746094 238.699219 355.5625 232.617188 365.792969 226.707031 C 375.667969 220.976562 385.015625 216.65625 393.304688 213.21875 C 393.304688 218.683594 393.304688 224.152344 393.304688 229.617188 L 308.566406 328.199219 L 393.390625 328.199219 L 393.390625 357.914062 L 265.09375 357.914062 Z M 265.09375 357.828125 " fill-opacity="1" fill-rule="nonzero"/></g><g clip-path="url(#5c0bdcc55e)"><path fill="#ffffff" d="M 309.257812 220.539062 L 332.570312 220.539062 L 332.570312 276.816406 L 309.257812 276.816406 Z M 309.257812 220.539062 " fill-opacity="1" fill-rule="nonzero"/></g><g fill="#000000" fill-opacity="1"><g transform="translate(83.449123, 302.597147)"><g><path d="M 13.703125 0 L 12.34375 -4.421875 L 5.59375 -4.421875 L 4.234375 0 L 0 0 L 6.546875 -18.640625 L 11.359375 -18.640625 L 17.9375 0 Z M 11.40625 -7.71875 L 10.0625 -12.03125 C 9.976562 -12.332031 9.863281 -12.707031 9.71875 -13.15625 C 9.582031 -13.601562 9.441406 -14.0625 9.296875 -14.53125 C 9.160156 -15 9.050781 -15.40625 8.96875 -15.75 C 8.882812 -15.40625 8.765625 -14.976562 8.609375 -14.46875 C 8.460938 -13.957031 8.328125 -13.472656 8.203125 -13.015625 C 8.078125 -12.554688 7.976562 -12.226562 7.90625 -12.03125 L 6.578125 -7.71875 Z M 11.40625 -7.71875 "/></g></g></g><g fill="#000000" fill-opacity="1"><g transform="translate(104.399748, 302.597147)"><g><path d="M 5.90625 0 L 2.03125 0 L 2.03125 -19.765625 L 5.90625 -19.765625 Z M 5.90625 0 "/></g></g></g><g fill="#000000" fill-opacity="1"><g transform="translate(115.343362, 302.597147)"><g><path d="M 7.859375 -14.484375 C 9.765625 -14.484375 11.222656 -14.070312 12.234375 -13.25 C 13.242188 -12.425781 13.75 -11.164062 13.75 -9.46875 L 13.75 0 L 11.046875 0 L 10.296875 -1.921875 L 10.1875 -1.921875 C 9.582031 -1.160156 8.941406 -0.601562 8.265625 -0.25 C 7.585938 0.09375 6.660156 0.265625 5.484375 0.265625 C 4.222656 0.265625 3.175781 -0.0976562 2.34375 -0.828125 C 1.507812 -1.554688 1.09375 -2.691406 1.09375 -4.234375 C 1.09375 -5.742188 1.617188 -6.851562 2.671875 -7.5625 C 3.734375 -8.269531 5.320312 -8.671875 7.4375 -8.765625 L 9.90625 -8.84375 L 9.90625 -9.46875 C 9.90625 -10.207031 9.707031 -10.75 9.3125 -11.09375 C 8.925781 -11.445312 8.390625 -11.625 7.703125 -11.625 C 7.003906 -11.625 6.328125 -11.523438 5.671875 -11.328125 C 5.015625 -11.128906 4.351562 -10.878906 3.6875 -10.578125 L 2.421875 -13.203125 C 3.160156 -13.585938 4 -13.894531 4.9375 -14.125 C 5.875 -14.363281 6.847656 -14.484375 7.859375 -14.484375 Z M 9.90625 -6.578125 L 8.390625 -6.53125 C 7.148438 -6.488281 6.285156 -6.257812 5.796875 -5.84375 C 5.304688 -5.425781 5.0625 -4.882812 5.0625 -4.21875 C 5.0625 -3.625 5.234375 -3.203125 5.578125 -2.953125 C 5.929688 -2.703125 6.382812 -2.578125 6.9375 -2.578125 C 7.769531 -2.578125 8.472656 -2.820312 9.046875 -3.3125 C 9.617188 -3.8125 9.90625 -4.507812 9.90625 -5.40625 Z M 9.90625 -6.578125 "/></g></g></g><g fill="#000000" fill-opacity="1"><g transform="translate(134.058659, 302.597147)"><g><path d="M 11.90625 0 L 0.703125 0 L 0.703125 -2.28125 L 7.28125 -11.234375 L 1.09375 -11.234375 L 1.09375 -14.203125 L 11.671875 -14.203125 L 11.671875 -11.671875 L 5.28125 -2.96875 L 11.90625 -2.96875 Z M 11.90625 0 "/></g></g></g><g fill="#000000" fill-opacity="1"><g transform="translate(149.758848, 302.597147)"><g><path d="M 7.859375 -14.484375 C 9.765625 -14.484375 11.222656 -14.070312 12.234375 -13.25 C 13.242188 -12.425781 13.75 -11.164062 13.75 -9.46875 L 13.75 0 L 11.046875 0 L 10.296875 -1.921875 L 10.1875 -1.921875 C 9.582031 -1.160156 8.941406 -0.601562 8.265625 -0.25 C 7.585938 0.09375 6.660156 0.265625 5.484375 0.265625 C 4.222656 0.265625 3.175781 -0.0976562 2.34375 -0.828125 C 1.507812 -1.554688 1.09375 -2.691406 1.09375 -4.234375 C 1.09375 -5.742188 1.617188 -6.851562 2.671875 -7.5625 C 3.734375 -8.269531 5.320312 -8.671875 7.4375 -8.765625 L 9.90625 -8.84375 L 9.90625 -9.46875 C 9.90625 -10.207031 9.707031 -10.75 9.3125 -11.09375 C 8.925781 -11.445312 8.390625 -11.625 7.703125 -11.625 C 7.003906 -11.625 6.328125 -11.523438 5.671875 -11.328125 C 5.015625 -11.128906 4.351562 -10.878906 3.6875 -10.578125 L 2.421875 -13.203125 C 3.160156 -13.585938 4 -13.894531 4.9375 -14.125 C 5.875 -14.363281 6.847656 -14.484375 7.859375 -14.484375 Z M 9.90625 -6.578125 L 8.390625 -6.53125 C 7.148438 -6.488281 6.285156 -6.257812 5.796875 -5.84375 C 5.304688 -5.425781 5.0625 -4.882812 5.0625 -4.21875 C 5.0625 -3.625 5.234375 -3.203125 5.578125 -2.953125 C 5.929688 -2.703125 6.382812 -2.578125 6.9375 -2.578125 C 7.769531 -2.578125 8.472656 -2.820312 9.046875 -3.3125 C 9.617188 -3.8125 9.90625 -4.507812 9.90625 -5.40625 Z M 9.90625 -6.578125 "/></g></g></g><g fill="#000000" fill-opacity="1"><g transform="translate(168.474143, 302.597147)"><g><path d="M 5.90625 -19.765625 L 5.90625 -15.15625 C 5.90625 -14.625 5.882812 -14.097656 5.84375 -13.578125 C 5.8125 -13.054688 5.78125 -12.644531 5.75 -12.34375 L 5.90625 -12.34375 C 6.28125 -12.9375 6.785156 -13.4375 7.421875 -13.84375 C 8.066406 -14.25 8.90625 -14.453125 9.9375 -14.453125 C 11.53125 -14.453125 12.816406 -13.832031 13.796875 -12.59375 C 14.785156 -11.351562 15.28125 -9.53125 15.28125 -7.125 C 15.28125 -4.695312 14.773438 -2.859375 13.765625 -1.609375 C 12.765625 -0.359375 11.453125 0.265625 9.828125 0.265625 C 8.785156 0.265625 7.960938 0.078125 7.359375 -0.296875 C 6.765625 -0.671875 6.28125 -1.09375 5.90625 -1.5625 L 5.640625 -1.5625 L 4.984375 0 L 2.03125 0 L 2.03125 -19.765625 Z M 8.6875 -11.359375 C 7.675781 -11.359375 6.960938 -11.039062 6.546875 -10.40625 C 6.128906 -9.78125 5.914062 -8.832031 5.90625 -7.5625 L 5.90625 -7.15625 C 5.90625 -5.78125 6.109375 -4.722656 6.515625 -3.984375 C 6.921875 -3.253906 7.660156 -2.890625 8.734375 -2.890625 C 9.535156 -2.890625 10.171875 -3.253906 10.640625 -3.984375 C 11.109375 -4.722656 11.34375 -5.785156 11.34375 -7.171875 C 11.34375 -8.554688 11.101562 -9.597656 10.625 -10.296875 C 10.144531 -11.003906 9.5 -11.359375 8.6875 -11.359375 Z M 8.6875 -11.359375 "/></g></g></g><g fill="#000000" fill-opacity="1"><g transform="translate(187.943208, 302.597147)"><g/></g></g><g fill="#000000" fill-opacity="1"><g transform="translate(194.930248, 302.597147)"><g><path d="M 9.390625 -10.421875 L 16.75 -10.421875 L 16.75 -0.8125 C 15.769531 -0.476562 14.75 -0.210938 13.6875 -0.015625 C 12.632812 0.171875 11.453125 0.265625 10.140625 0.265625 C 7.367188 0.265625 5.238281 -0.546875 3.75 -2.171875 C 2.257812 -3.804688 1.515625 -6.1875 1.515625 -9.3125 C 1.515625 -11.25 1.882812 -12.925781 2.625 -14.34375 C 3.375 -15.769531 4.472656 -16.875 5.921875 -17.65625 C 7.367188 -18.4375 9.128906 -18.828125 11.203125 -18.828125 C 12.191406 -18.828125 13.160156 -18.722656 14.109375 -18.515625 C 15.066406 -18.304688 15.9375 -18.03125 16.71875 -17.6875 L 15.421875 -14.53125 C 14.847656 -14.820312 14.195312 -15.0625 13.46875 -15.25 C 12.738281 -15.445312 11.976562 -15.546875 11.1875 -15.546875 C 10.039062 -15.546875 9.046875 -15.285156 8.203125 -14.765625 C 7.359375 -14.242188 6.707031 -13.503906 6.25 -12.546875 C 5.789062 -11.597656 5.5625 -10.492188 5.5625 -9.234375 C 5.5625 -8.015625 5.722656 -6.9375 6.046875 -6 C 6.378906 -5.070312 6.898438 -4.34375 7.609375 -3.8125 C 8.328125 -3.28125 9.257812 -3.015625 10.40625 -3.015625 C 10.957031 -3.015625 11.421875 -3.039062 11.796875 -3.09375 C 12.179688 -3.144531 12.546875 -3.207031 12.890625 -3.28125 L 12.890625 -7.15625 L 9.390625 -7.15625 Z M 9.390625 -10.421875 "/></g></g></g><g fill="#000000" fill-opacity="1"><g transform="translate(216.764613, 302.597147)"><g><path d="M 9.953125 -14.453125 C 10.148438 -14.453125 10.378906 -14.441406 10.640625 -14.421875 C 10.898438 -14.410156 11.109375 -14.390625 11.265625 -14.359375 L 10.96875 -10.71875 C 10.832031 -10.75 10.648438 -10.773438 10.421875 -10.796875 C 10.203125 -10.828125 10.003906 -10.84375 9.828125 -10.84375 C 9.171875 -10.84375 8.535156 -10.722656 7.921875 -10.484375 C 7.316406 -10.253906 6.828125 -9.878906 6.453125 -9.359375 C 6.085938 -8.835938 5.90625 -8.128906 5.90625 -7.234375 L 5.90625 0 L 2.03125 0 L 2.03125 -14.203125 L 4.96875 -14.203125 L 5.53125 -11.796875 L 5.71875 -11.796875 C 6.132812 -12.523438 6.707031 -13.148438 7.4375 -13.671875 C 8.164062 -14.191406 9.003906 -14.453125 9.953125 -14.453125 Z M 9.953125 -14.453125 "/></g></g></g><g fill="#000000" fill-opacity="1"><g transform="translate(231.581072, 302.597147)"><g><path d="M 14.921875 -7.125 C 14.921875 -4.769531 14.300781 -2.945312 13.0625 -1.65625 C 11.820312 -0.375 10.140625 0.265625 8.015625 0.265625 C 6.691406 0.265625 5.515625 -0.0195312 4.484375 -0.59375 C 3.453125 -1.164062 2.640625 -2.003906 2.046875 -3.109375 C 1.460938 -4.210938 1.171875 -5.550781 1.171875 -7.125 C 1.171875 -9.476562 1.785156 -11.285156 3.015625 -12.546875 C 4.242188 -13.816406 5.9375 -14.453125 8.09375 -14.453125 C 9.425781 -14.453125 10.601562 -14.164062 11.625 -13.59375 C 12.644531 -13.019531 13.445312 -12.1875 14.03125 -11.09375 C 14.625 -10.007812 14.921875 -8.6875 14.921875 -7.125 Z M 5.125 -7.125 C 5.125 -5.71875 5.351562 -4.65625 5.8125 -3.9375 C 6.269531 -3.21875 7.019531 -2.859375 8.0625 -2.859375 C 9.082031 -2.859375 9.820312 -3.21875 10.28125 -3.9375 C 10.738281 -4.65625 10.96875 -5.71875 10.96875 -7.125 C 10.96875 -8.53125 10.738281 -9.582031 10.28125 -10.28125 C 9.820312 -10.988281 9.070312 -11.34375 8.03125 -11.34375 C 7.007812 -11.34375 6.269531 -10.988281 5.8125 -10.28125 C 5.351562 -9.582031 5.125 -8.53125 5.125 -7.125 Z M 5.125 -7.125 "/></g></g></g><g fill="#000000" fill-opacity="1"><g transform="translate(250.68625, 302.597147)"><g><path d="M 15.046875 -14.203125 L 15.046875 0 L 12.09375 0 L 11.5625 -1.8125 L 11.359375 -1.8125 C 10.910156 -1.09375 10.289062 -0.566406 9.5 -0.234375 C 8.707031 0.0976562 7.875 0.265625 7 0.265625 C 5.46875 0.265625 4.242188 -0.144531 3.328125 -0.96875 C 2.410156 -1.789062 1.953125 -3.113281 1.953125 -4.9375 L 1.953125 -14.203125 L 5.828125 -14.203125 L 5.828125 -5.90625 C 5.828125 -4.882812 6.007812 -4.113281 6.375 -3.59375 C 6.738281 -3.082031 7.316406 -2.828125 8.109375 -2.828125 C 9.285156 -2.828125 10.09375 -3.226562 10.53125 -4.03125 C 10.96875 -4.84375 11.1875 -6.003906 11.1875 -7.515625 L 11.1875 -14.203125 Z M 15.046875 -14.203125 "/></g></g></g><g fill="#000000" fill-opacity="1"><g transform="translate(270.779132, 302.597147)"><g><path d="M 9.9375 -14.453125 C 11.53125 -14.453125 12.816406 -13.832031 13.796875 -12.59375 C 14.785156 -11.351562 15.28125 -9.53125 15.28125 -7.125 C 15.28125 -4.695312 14.769531 -2.859375 13.75 -1.609375 C 12.726562 -0.359375 11.421875 0.265625 9.828125 0.265625 C 8.804688 0.265625 7.988281 0.078125 7.375 -0.296875 C 6.769531 -0.671875 6.28125 -1.09375 5.90625 -1.5625 L 5.6875 -1.5625 C 5.832031 -0.832031 5.90625 -0.140625 5.90625 0.515625 L 5.90625 6.234375 L 2.03125 6.234375 L 2.03125 -14.203125 L 5.171875 -14.203125 L 5.71875 -12.34375 L 5.90625 -12.34375 C 6.28125 -12.914062 6.785156 -13.410156 7.421875 -13.828125 C 8.066406 -14.242188 8.90625 -14.453125 9.9375 -14.453125 Z M 8.6875 -11.359375 C 7.675781 -11.359375 6.960938 -11.039062 6.546875 -10.40625 C 6.128906 -9.78125 5.914062 -8.832031 5.90625 -7.5625 L 5.90625 -7.15625 C 5.90625 -5.78125 6.109375 -4.722656 6.515625 -3.984375 C 6.921875 -3.253906 7.660156 -2.890625 8.734375 -2.890625 C 9.617188 -2.890625 10.273438 -3.253906 10.703125 -3.984375 C 11.128906 -4.722656 11.34375 -5.785156 11.34375 -7.171875 C 11.34375 -9.960938 10.457031 -11.359375 8.6875 -11.359375 Z M 8.6875 -11.359375 "/></g></g></g></svg>