<svg xmlns="http://www.w3.org/2000/svg" xmlns:xlink="http://www.w3.org/1999/xlink" width="300" zoomAndPan="magnify" viewBox="0 0 224.87999 225" height="300" preserveAspectRatio="xMidYMid meet" version="1.0"><defs><g/><clipPath id="a15ca4dfa6"><path d="M 0 0.0585938 L 224.761719 0.0585938 L 224.761719 224.9375 L 0 224.9375 Z M 0 0.0585938 " clip-rule="nonzero"/></clipPath><clipPath id="599946e3a2"><path d="M 100.988281 62.058594 L 210.921875 62.058594 L 210.921875 141.707031 L 100.988281 141.707031 Z M 100.988281 62.058594 " clip-rule="nonzero"/></clipPath><clipPath id="06eb07b6ce"><path d="M 197 69 L 199.488281 69 L 199.488281 135 L 197 135 Z M 197 69 " clip-rule="nonzero"/></clipPath><clipPath id="24ca034d6b"><path d="M 120.027344 69 L 123 69 L 123 135 L 120.027344 135 Z M 120.027344 69 " clip-rule="nonzero"/></clipPath><clipPath id="cdaaf881f7"><path d="M 127 62.058594 L 193 62.058594 L 193 65 L 127 65 Z M 127 62.058594 " clip-rule="nonzero"/></clipPath><clipPath id="4fef31de6e"><path d="M 127 139 L 193 139 L 193 141.515625 L 127 141.515625 Z M 127 139 " clip-rule="nonzero"/></clipPath><clipPath id="6af35ff57a"><path d="M 192 62.058594 L 199.488281 62.058594 L 199.488281 70 L 192 70 Z M 192 62.058594 " clip-rule="nonzero"/></clipPath><clipPath id="ba59d19807"><path d="M 120.027344 62.058594 L 128 62.058594 L 128 70 L 120.027344 70 Z M 120.027344 62.058594 " clip-rule="nonzero"/></clipPath><clipPath id="617230492d"><path d="M 192 134 L 199.488281 134 L 199.488281 141.515625 L 192 141.515625 Z M 192 134 " clip-rule="nonzero"/></clipPath><clipPath id="6cc2b7dd83"><path d="M 120.027344 134 L 128 134 L 128 141.515625 L 120.027344 141.515625 Z M 120.027344 134 " clip-rule="nonzero"/></clipPath></defs><g clip-path="url(#a15ca4dfa6)"><path fill="#ffffff" d="M 0 0.0585938 L 224.878906 0.0585938 L 224.878906 224.941406 L 0 224.941406 Z M 0 0.0585938 " fill-opacity="1" fill-rule="nonzero"/><path fill="#ffffff" d="M 0 0.0585938 L 224.878906 0.0585938 L 224.878906 224.941406 L 0 224.941406 Z M 0 0.0585938 " fill-opacity="1" fill-rule="nonzero"/><path fill="#303131" d="M 19.675781 0.0585938 L 205.203125 0.0585938 C 216.082031 0.0585938 224.878906 8.859375 224.878906 19.738281 L 224.878906 205.261719 C 224.878906 216.140625 216.082031 224.941406 205.203125 224.941406 L 19.675781 224.941406 C 8.796875 224.941406 0 216.140625 0 205.261719 L 0 19.738281 C 0 8.859375 8.796875 0.0585938 19.675781 0.0585938 Z M 19.675781 0.0585938 " fill-opacity="1" fill-rule="evenodd"/></g><path fill="#ffffff" d="M 160.058594 178.980469 L 160.03125 178.980469 C 126.578125 177.855469 88.070312 179.316406 53.183594 179.148438 C 52.988281 179.992188 52.988281 181.003906 53.183594 181.875 C 88.660156 181.652344 123.796875 181.453125 159.128906 181.230469 C 160.285156 181.230469 160.84375 179.796875 160.085938 178.980469 Z M 159.101562 186.90625 C 124.640625 186.90625 89.503906 187.246094 54.816406 187.46875 L 54.730469 187.46875 C 47.644531 187.835938 44.808594 178.109375 50.851562 174.511719 L 50.878906 174.511719 C 51.46875 174.144531 52.117188 173.921875 52.847656 173.695312 C 53.886719 173.554688 55.714844 173.441406 56.726562 173.527344 C 56.808594 173.527344 156.855469 173.527344 157.050781 173.527344 C 157.949219 173.554688 158.738281 173.160156 159.382812 172.570312 C 160.003906 171.980469 160.339844 171.082031 160.339844 170.238281 L 160.339844 132.09375 C 159.46875 132.65625 158.539062 133.1875 157.640625 133.695312 L 157.640625 170.773438 L 56.640625 170.773438 L 56.640625 37.980469 C 57.007812 37.867188 57.316406 37.753906 57.710938 37.726562 L 157.695312 37.726562 L 157.695312 70.195312 C 158.597656 70.671875 159.523438 71.179688 160.394531 71.769531 L 160.394531 38.261719 C 160.394531 37.417969 160.085938 36.546875 159.441406 35.984375 C 158.792969 35.367188 158.007812 35 157.105469 35 C 155.28125 35.535156 56.78125 33.960938 55.320312 35.5625 C 51.835938 37.054688 48.320312 39.695312 45.988281 42.675781 C 45.089844 43.96875 44.300781 45.007812 44.1875 46.300781 C 45.566406 92.597656 43.402344 139.824219 45.3125 185.191406 C 46.972656 188.058594 51.019531 190.167969 54.28125 190.222656 C 89.699219 189.605469 125.117188 190.476562 160.03125 189.128906 C 160.253906 188.902344 160.367188 188.566406 160.367188 188.257812 C 160.367188 187.582031 159.863281 186.878906 159.074219 186.90625 Z M 46.886719 46.554688 C 47.925781 43.519531 51.214844 41.128906 53.859375 39.300781 L 53.859375 170.828125 C 53.492188 170.828125 53.015625 170.914062 52.648438 170.96875 C 51.328125 171.164062 50.0625 171.757812 48.996094 172.488281 C 48.828125 172.597656 48.546875 172.824219 48.265625 173.050781 C 47.984375 173.273438 47.703125 173.5 47.535156 173.609375 C 47.28125 131.136719 47.085938 89.054688 46.886719 46.582031 Z M 46.886719 46.554688 " fill-opacity="1" fill-rule="nonzero"/><path fill="#ffffff" d="M 160.367188 67.355469 C 159.496094 66.90625 158.597656 66.484375 157.667969 66.089844 C 153.058594 64.179688 147.773438 63 141.785156 62.828125 C 89.953125 64.433594 90.035156 139.625 141.785156 141.257812 C 147.773438 141.058594 153.058594 139.90625 157.667969 137.996094 C 158.597656 137.601562 159.496094 137.179688 160.367188 136.730469 C 187.4375 122.84375 187.464844 81.214844 160.367188 67.355469 Z M 160.367188 132.09375 C 159.496094 132.65625 158.570312 133.1875 157.667969 133.695312 C 145.636719 140.074219 130.09375 139.824219 116.65625 127.203125 C 87.226562 95.972656 124.835938 53.019531 157.667969 70.195312 C 158.570312 70.671875 159.496094 71.179688 160.367188 71.769531 C 162.617188 73.175781 164.808594 74.890625 166.972656 76.914062 C 185.582031 96.730469 177.289062 121.214844 160.367188 132.09375 Z M 160.367188 132.09375 " fill-opacity="1" fill-rule="nonzero"/><path fill="#ffffff" d="M 149.515625 119.921875 C 147.632812 125.375 143.640625 126.863281 140.550781 126.863281 C 139.707031 126.863281 138.949219 126.75 138.273438 126.582031 C 136.417969 126.105469 134.789062 124.8125 133.804688 123.070312 C 132.933594 121.550781 132.144531 118.9375 133.242188 115.199219 C 134.957031 109.351562 136.082031 105.472656 136.921875 102.660156 C 137.683594 100.074219 138.132812 98.445312 138.554688 97.097656 C 137.484375 97.628906 135.828125 98.667969 134.648438 99.402344 C 133.664062 100.019531 132.59375 99.738281 132.0625 98.949219 C 131.527344 98.136719 131.722656 97.039062 132.566406 96.394531 C 135.152344 94.367188 138.976562 92.09375 142.125 91.78125 C 144.625 91.558594 146.453125 92.484375 147.464844 94.566406 C 148.589844 96.925781 147.691406 100.554688 146.761719 103.476562 C 145.355469 107.917969 143.839844 112.613281 142.714844 116.097656 C 142.207031 117.699219 142.460938 119.5 143.671875 120.144531 C 144.964844 120.820312 146.453125 120.539062 148.28125 119.105469 C 148.503906 118.9375 148.785156 118.851562 149.066406 118.964844 C 149.460938 119.105469 149.65625 119.554688 149.515625 119.921875 Z M 149.515625 119.921875 " fill-opacity="1" fill-rule="nonzero"/><path fill="#ffffff" d="M 140.128906 81.972656 C 139.929688 78.964844 142.207031 76.351562 145.246094 76.125 C 148.28125 75.929688 150.894531 78.207031 151.089844 81.242188 C 151.289062 84.277344 149.011719 86.890625 145.976562 87.089844 C 142.96875 87.285156 140.351562 85.007812 140.15625 81.972656 Z M 140.128906 81.972656 " fill-opacity="1" fill-rule="nonzero"/><path fill="#ffffff" d="M 149.515625 119.921875 C 147.632812 125.375 143.640625 126.863281 140.550781 126.863281 C 139.707031 126.863281 138.949219 126.75 138.273438 126.582031 C 136.417969 126.105469 134.789062 124.8125 133.804688 123.070312 C 132.933594 121.550781 132.144531 118.9375 133.242188 115.199219 C 134.957031 109.351562 136.082031 105.472656 136.921875 102.660156 C 137.683594 100.074219 138.132812 98.445312 138.554688 97.097656 C 137.484375 97.628906 135.828125 98.667969 134.648438 99.402344 C 133.664062 100.019531 132.59375 99.738281 132.0625 98.949219 C 131.527344 98.136719 131.722656 97.039062 132.566406 96.394531 C 135.152344 94.367188 138.976562 92.09375 142.125 91.78125 C 144.625 91.558594 146.453125 92.484375 147.464844 94.566406 C 148.589844 96.925781 147.691406 100.554688 146.761719 103.476562 C 145.355469 107.917969 143.839844 112.613281 142.714844 116.097656 C 142.207031 117.699219 142.460938 119.5 143.671875 120.144531 C 144.964844 120.820312 146.453125 120.539062 148.28125 119.105469 C 148.503906 118.9375 148.785156 118.851562 149.066406 118.964844 C 149.460938 119.105469 149.65625 119.554688 149.515625 119.921875 Z M 149.515625 119.921875 " fill-opacity="1" fill-rule="nonzero"/><path fill="#ffffff" d="M 145.945312 87.089844 C 142.9375 87.285156 140.324219 85.007812 140.128906 81.972656 C 139.929688 78.964844 142.207031 76.351562 145.246094 76.125 C 148.28125 75.929688 150.894531 78.207031 151.089844 81.242188 C 151.289062 84.277344 149.011719 86.890625 145.976562 87.089844 Z M 145.945312 87.089844 " fill-opacity="1" fill-rule="nonzero"/><g clip-path="url(#599946e3a2)"><path fill="#303131" d="M 100.988281 62.058594 L 210.8125 62.058594 L 210.8125 141.707031 L 100.988281 141.707031 Z M 100.988281 62.058594 " fill-opacity="1" fill-rule="nonzero"/></g><g clip-path="url(#06eb07b6ce)"><path fill="#ffffff" d="M 197.113281 69.339844 L 199.488281 69.339844 L 199.488281 134.234375 L 197.113281 134.234375 Z M 197.113281 69.339844 " fill-opacity="1" fill-rule="nonzero"/></g><g clip-path="url(#24ca034d6b)"><path fill="#ffffff" d="M 120.027344 69.339844 L 122.402344 69.339844 L 122.402344 134.234375 L 120.027344 134.234375 Z M 120.027344 69.339844 " fill-opacity="1" fill-rule="nonzero"/></g><g clip-path="url(#cdaaf881f7)"><path fill="#ffffff" d="M 127.308594 62.058594 L 192.207031 62.058594 L 192.207031 64.433594 L 127.308594 64.433594 Z M 127.308594 62.058594 " fill-opacity="1" fill-rule="nonzero"/></g><g clip-path="url(#4fef31de6e)"><path fill="#ffffff" d="M 127.308594 139.140625 L 192.207031 139.140625 L 192.207031 141.515625 L 127.308594 141.515625 Z M 127.308594 139.140625 " fill-opacity="1" fill-rule="nonzero"/></g><g clip-path="url(#6af35ff57a)"><path fill="#ffffff" d="M 197.113281 64.433594 L 197.113281 69.339844 L 199.488281 69.339844 L 199.488281 62.058594 L 192.207031 62.058594 L 192.207031 64.433594 Z M 197.113281 64.433594 " fill-opacity="1" fill-rule="nonzero"/></g><g clip-path="url(#ba59d19807)"><path fill="#ffffff" d="M 122.402344 64.433594 L 127.308594 64.433594 L 127.308594 62.058594 L 120.027344 62.058594 L 120.027344 69.339844 L 122.402344 69.339844 Z M 122.402344 64.433594 " fill-opacity="1" fill-rule="nonzero"/></g><g clip-path="url(#617230492d)"><path fill="#ffffff" d="M 197.113281 139.140625 L 192.207031 139.140625 L 192.207031 141.515625 L 199.488281 141.515625 L 199.488281 134.234375 L 197.113281 134.234375 Z M 197.113281 139.140625 " fill-opacity="1" fill-rule="nonzero"/></g><g clip-path="url(#6cc2b7dd83)"><path fill="#ffffff" d="M 122.402344 139.140625 L 122.402344 134.234375 L 120.027344 134.234375 L 120.027344 141.515625 L 127.308594 141.515625 L 127.308594 139.140625 Z M 122.402344 139.140625 " fill-opacity="1" fill-rule="nonzero"/></g><g fill="#ffffff" fill-opacity="1"><g transform="translate(131.628101, 94.481359)"><g><path d="M 8.109375 0 L 4.75 0 L 4.75 -13.046875 L 0.4375 -13.046875 L 0.4375 -15.84375 L 12.40625 -15.84375 L 12.40625 -13.046875 L 8.109375 -13.046875 Z M 8.109375 0 "/></g></g><g transform="translate(144.48632, 94.481359)"><g><path d="M 11.125 0 L 2 0 L 2 -15.84375 L 11.125 -15.84375 L 11.125 -13.09375 L 5.359375 -13.09375 L 5.359375 -9.609375 L 10.71875 -9.609375 L 10.71875 -6.859375 L 5.359375 -6.859375 L 5.359375 -2.78125 L 11.125 -2.78125 Z M 11.125 0 "/></g></g><g transform="translate(156.921714, 94.481359)"><g><path d="M 8.734375 -13.28125 C 7.460938 -13.28125 6.476562 -12.800781 5.78125 -11.84375 C 5.09375 -10.894531 4.75 -9.570312 4.75 -7.875 C 4.75 -4.34375 6.078125 -2.578125 8.734375 -2.578125 C 9.835938 -2.578125 11.179688 -2.859375 12.765625 -3.421875 L 12.765625 -0.59375 C 11.460938 -0.0507812 10.007812 0.21875 8.40625 0.21875 C 6.101562 0.21875 4.34375 -0.476562 3.125 -1.875 C 1.90625 -3.28125 1.296875 -5.289062 1.296875 -7.90625 C 1.296875 -9.550781 1.59375 -10.992188 2.1875 -12.234375 C 2.789062 -13.472656 3.65625 -14.421875 4.78125 -15.078125 C 5.90625 -15.742188 7.222656 -16.078125 8.734375 -16.078125 C 10.265625 -16.078125 11.8125 -15.707031 13.375 -14.96875 L 12.28125 -12.234375 C 11.6875 -12.515625 11.085938 -12.757812 10.484375 -12.96875 C 9.890625 -13.175781 9.304688 -13.28125 8.734375 -13.28125 Z M 8.734375 -13.28125 "/></g></g><g transform="translate(171.070091, 94.481359)"><g><path d="M 14.984375 0 L 11.625 0 L 11.625 -6.84375 L 5.359375 -6.84375 L 5.359375 0 L 2 0 L 2 -15.84375 L 5.359375 -15.84375 L 5.359375 -9.640625 L 11.625 -9.640625 L 11.625 -15.84375 L 14.984375 -15.84375 Z M 14.984375 0 "/></g></g></g><g fill="#ffffff" fill-opacity="1"><g transform="translate(129.546501, 124.086342)"><g><path d="M 8.734375 -13.28125 C 7.460938 -13.28125 6.476562 -12.800781 5.78125 -11.84375 C 5.09375 -10.894531 4.75 -9.570312 4.75 -7.875 C 4.75 -4.34375 6.078125 -2.578125 8.734375 -2.578125 C 9.835938 -2.578125 11.179688 -2.859375 12.765625 -3.421875 L 12.765625 -0.59375 C 11.460938 -0.0507812 10.007812 0.21875 8.40625 0.21875 C 6.101562 0.21875 4.34375 -0.476562 3.125 -1.875 C 1.90625 -3.28125 1.296875 -5.289062 1.296875 -7.90625 C 1.296875 -9.550781 1.59375 -10.992188 2.1875 -12.234375 C 2.789062 -13.472656 3.65625 -14.421875 4.78125 -15.078125 C 5.90625 -15.742188 7.222656 -16.078125 8.734375 -16.078125 C 10.265625 -16.078125 11.8125 -15.707031 13.375 -14.96875 L 12.28125 -12.234375 C 11.6875 -12.515625 11.085938 -12.757812 10.484375 -12.96875 C 9.890625 -13.175781 9.304688 -13.28125 8.734375 -13.28125 Z M 8.734375 -13.28125 "/></g></g><g transform="translate(143.694878, 124.086342)"><g><path d="M 11.703125 0 L 10.546875 -3.765625 L 4.765625 -3.765625 L 3.625 0 L 0 0 L 5.59375 -15.921875 L 9.703125 -15.921875 L 15.3125 0 Z M 9.75 -6.59375 C 8.6875 -10.007812 8.085938 -11.941406 7.953125 -12.390625 C 7.816406 -12.835938 7.722656 -13.191406 7.671875 -13.453125 C 7.429688 -12.523438 6.742188 -10.238281 5.609375 -6.59375 Z M 9.75 -6.59375 "/></g></g><g transform="translate(159.014156, 124.086342)"><g><path d="M 5.359375 -8.8125 L 6.4375 -8.8125 C 7.5 -8.8125 8.28125 -8.988281 8.78125 -9.34375 C 9.289062 -9.695312 9.546875 -10.253906 9.546875 -11.015625 C 9.546875 -11.765625 9.285156 -12.296875 8.765625 -12.609375 C 8.253906 -12.929688 7.457031 -13.09375 6.375 -13.09375 L 5.359375 -13.09375 Z M 5.359375 -6.078125 L 5.359375 0 L 2 0 L 2 -15.84375 L 6.609375 -15.84375 C 8.765625 -15.84375 10.359375 -15.453125 11.390625 -14.671875 C 12.421875 -13.890625 12.9375 -12.703125 12.9375 -11.109375 C 12.9375 -10.171875 12.679688 -9.335938 12.171875 -8.609375 C 11.660156 -7.890625 10.9375 -7.320312 10 -6.90625 C 12.382812 -3.34375 13.9375 -1.039062 14.65625 0 L 10.921875 0 L 7.140625 -6.078125 Z M 5.359375 -6.078125 "/></g></g><g transform="translate(173.672092, 124.086342)"><g><path d="M 15.140625 -8.078125 C 15.140625 -5.460938 14.394531 -3.460938 12.90625 -2.078125 C 11.425781 -0.691406 9.285156 0 6.484375 0 L 2 0 L 2 -15.84375 L 6.96875 -15.84375 C 9.5625 -15.84375 11.570312 -15.160156 13 -13.796875 C 14.425781 -12.429688 15.140625 -10.523438 15.140625 -8.078125 Z M 11.65625 -7.984375 C 11.65625 -11.390625 10.148438 -13.09375 7.140625 -13.09375 L 5.359375 -13.09375 L 5.359375 -2.78125 L 6.796875 -2.78125 C 10.035156 -2.78125 11.65625 -4.515625 11.65625 -7.984375 Z M 11.65625 -7.984375 "/></g></g></g></svg>