<svg width="46" height="40" viewBox="0 0 46 40" fill="none" xmlns="http://www.w3.org/2000/svg">
<path d="M3 0C1.35547 0 0 1.35547 0 3V37C0 38.6445 1.35547 40 3 40H43C44.6445 40 46 38.6445 46 37V3C46 1.35547 44.6445 0 43 0H3ZM3 2H43C43.5625 2 44 2.4375 44 3V37C44 37.5625 43.5625 38 43 38H3C2.4375 38 2 37.5625 2 37V3C2 2.4375 2.4375 2 3 2ZM23 11C22.625 11 22.2695 11.0195 21.9062 11.0625C13.7734 11.7188 7.25 19.3438 7.25 19.3438C6.92188 19.7188 6.92188 20.2812 7.25 20.6562C7.25 20.6562 13.7734 28.2812 21.9062 28.9375C22.2695 28.9805 22.625 29 23 29C23.375 29 23.7305 28.9805 24.0938 28.9375C32.2266 28.2812 38.75 20.6562 38.75 20.6562C39.0781 20.2812 39.0781 19.7188 38.75 19.3438C38.75 19.3438 32.2266 11.7188 24.0938 11.0625C23.7305 11.0195 23.375 11 23 11ZM23 13C23.2383 13 23.4805 13.0156 23.7188 13.0312C23.7305 13.0312 23.7383 13.0312 23.75 13.0312C27.2734 13.4023 30 16.375 30 20C30 23.625 27.2734 26.5977 23.75 26.9688C23.5039 26.9961 23.2539 27 23 27C22.7578 27 22.5156 26.9922 22.2812 26.9688C22.2695 26.9688 22.2617 26.9688 22.25 26.9688C18.7266 26.5977 16 23.625 16 20C16 16.375 18.7266 13.4023 22.25 13.0312C22.2617 13.0312 22.2695 13.0312 22.2812 13.0312C22.5156 13.0078 22.7578 13 23 13ZM15.3125 15.375C14.4922 16.7305 14 18.3047 14 20C14 21.6953 14.4922 23.2695 15.3125 24.625C12.2891 22.8477 10.1055 20.6367 9.5 20C10.1055 19.3633 12.2891 17.1523 15.3125 15.375ZM30.6875 15.375C33.7109 17.1523 35.8945 19.3633 36.5 20C35.8945 20.6367 33.7109 22.8477 30.6875 24.625C31.5078 23.2695 32 21.6953 32 20C32 18.3047 31.5078 16.7305 30.6875 15.375ZM23 16C20.8008 16 19 17.8008 19 20C19 22.1992 20.8008 24 23 24C25.1992 24 27 22.1992 27 20C27 17.8008 25.1992 16 23 16ZM23 18C24.1172 18 25 18.8828 25 20C25 21.1172 24.1172 22 23 22C21.8828 22 21 21.1172 21 20C21 18.8828 21.8828 18 23 18Z" fill="#FE5A0E"/>
</svg>
