<svg width="46" height="46" viewBox="0 0 46 46" fill="none" xmlns="http://www.w3.org/2000/svg">
<path d="M23 0C10.318 0 0 10.318 0 23C0 35.682 10.318 46 23 46C35.682 46 46 35.682 46 23C46 18.403 44.6396 14.1195 42.3066 10.5215L41.4141 11.4141L40.8438 11.9844C42.8317 15.1914 44 18.957 44 23C44 34.58 34.58 44 23 44C11.42 44 2 34.58 2 23C2 11.42 11.42 2 23 2C27.9133 2 32.4203 3.71744 36 6.55664V8.5859L33.5645 11.0215C30.7441 8.5274 27.0519 7 23 7C14.178 7 7 14.178 7 23C7 31.822 14.178 39 23 39C31.822 39 39 31.822 39 23C39 19.671 37.9755 16.5767 36.2285 14.0137L34.7793 15.4629C36.1773 17.6419 37 20.224 37 23C37 30.72 30.72 37 23 37C15.28 37 9 30.72 9 23C9 15.28 15.28 9 23 9C26.5013 9 29.6951 10.3017 32.1504 12.4355L28.6035 15.9824C27.0649 14.7483 25.1215 14 23 14C18.038 14 14 18.038 14 23C14 27.962 18.038 32 23 32C27.962 32 32 27.962 32 23C32 21.613 31.6753 20.3049 31.1133 19.1309L29.5879 20.6543C29.8499 21.3883 30 22.177 30 23C30 26.86 26.86 30 23 30C19.14 30 16 26.86 16 23C16 19.14 19.14 16 23 16C24.57 16 26.0151 16.526 27.1836 17.4023L23.5156 21.0703C23.3475 21.0245 23.1742 21.0009 23 21C22.4696 21 21.9609 21.2107 21.5858 21.5858C21.2107 21.9609 21 22.4696 21 23C21 23.5304 21.2107 24.0391 21.5858 24.4142C21.9609 24.7893 22.4696 25 23 25C23.5304 25 24.0391 24.7893 24.4142 24.4142C24.7893 24.0391 25 23.5304 25 23C24.9999 22.8252 24.9769 22.6512 24.9316 22.4824L37.4141 10H40L45 5H41V1L37.127 4.87305C33.2249 1.82434 28.3243 0 23 0Z" fill="#FE5A0E"/>
</svg>
