<svg xmlns="http://www.w3.org/2000/svg" xmlns:xlink="http://www.w3.org/1999/xlink" width="372" zoomAndPan="magnify" viewBox="0 0 279 221.999995" height="296" preserveAspectRatio="xMidYMid meet" version="1.0"><defs><g/><clipPath id="98cf5324a0"><path d="M 33.28125 10.8125 L 226.265625 10.8125 L 226.265625 99.441406 L 33.28125 99.441406 Z M 33.28125 10.8125 " clip-rule="nonzero"/></clipPath><clipPath id="1aaa2f1f3e"><path d="M 84.453125 12.800781 L 256 12.800781 L 256 99.441406 L 84.453125 99.441406 Z M 84.453125 12.800781 " clip-rule="nonzero"/></clipPath><clipPath id="c13a10b9f6"><path d="M 83 12.058594 L 258 12.058594 L 258 99.441406 L 83 99.441406 Z M 83 12.058594 " clip-rule="nonzero"/></clipPath><clipPath id="562b279d5a"><path d="M 84 12.800781 L 84.984375 12.800781 L 84.984375 99.441406 L 84 99.441406 Z M 84 12.800781 " clip-rule="nonzero"/></clipPath><clipPath id="06778d828c"><path d="M 205 90 L 258.773438 90 L 258.773438 99.441406 L 205 99.441406 Z M 205 90 " clip-rule="nonzero"/></clipPath><clipPath id="c8d0c0eb3a"><path d="M 33.28125 10.8125 L 226.265625 10.8125 L 226.265625 136.796875 L 33.28125 136.796875 Z M 33.28125 10.8125 " clip-rule="nonzero"/></clipPath><clipPath id="4de9333053"><path d="M 84.453125 12.800781 L 240.441406 12.800781 L 240.441406 140.449219 L 84.453125 140.449219 Z M 84.453125 12.800781 " clip-rule="nonzero"/></clipPath><clipPath id="91a09fcc16"><path d="M 83 12.058594 L 240.441406 12.058594 L 240.441406 141 L 83 141 Z M 83 12.058594 " clip-rule="nonzero"/></clipPath><clipPath id="59db619083"><path d="M 84 12.800781 L 84.984375 12.800781 L 84.984375 137.65625 L 84 137.65625 Z M 84 12.800781 " clip-rule="nonzero"/></clipPath><clipPath id="6da4b9bd30"><path d="M 205 90 L 240.441406 90 L 240.441406 142.757812 L 205 142.757812 Z M 205 90 " clip-rule="nonzero"/></clipPath><clipPath id="7f27e6c626"><rect x="0" width="223" y="0" height="87"/></clipPath></defs><g clip-path="url(#98cf5324a0)"><path fill="#000000" d="M 33.28125 136.796875 L 61.355469 136.796875 L 72.808594 108.738281 L 94.078125 108.738281 C 99.949219 100.148438 106.324219 92.058594 113.125 84.398438 L 82.691406 84.398438 L 99.234375 43.882812 L 114.988281 82.25 C 121.144531 75.449219 127.664062 69.007812 134.464844 62.925781 L 112.265625 10.742188 L 86.917969 10.742188 Z M 226.265625 11.742188 L 139.550781 11.742188 L 139.550781 35.867188 L 171.699219 35.867188 C 188.671875 25.773438 206.933594 17.683594 226.265625 11.742188 Z M 226.265625 11.742188 " fill-opacity="1" fill-rule="evenodd"/></g><g clip-path="url(#1aaa2f1f3e)"><path fill="#000000" d="M 137.398438 136.796875 L 241.589844 136.796875 L 241.589844 112.675781 L 172.777344 112.675781 L 241.589844 32.644531 L 241.589844 19.332031 C 246.316406 17.039062 251.113281 14.964844 255.984375 12.960938 C 181.367188 26.773438 119.429688 73.089844 84.625 140.449219 L 132.03125 140.449219 C 133.460938 134.148438 135.253906 127.992188 137.398438 122.195312 Z M 199.699219 43.457031 L 142.558594 109.953125 C 155.230469 82.539062 175.351562 60.777344 199.699219 43.457031 Z M 199.699219 43.457031 " fill-opacity="1" fill-rule="evenodd"/></g><g clip-path="url(#c13a10b9f6)"><path fill="#faab11" d="M 142.125 110.167969 C 150.863281 93.992188 167.832031 67.792969 197.765625 44.742188 C 220.179688 27.5625 242.019531 18.042969 257.558594 12.746094 C 236.363281 16.539062 196.1875 26.632812 155.515625 56.410156 C 114.484375 86.472656 93.074219 121.835938 83.265625 140.804688 C 99.304688 140.804688 115.417969 140.804688 131.457031 140.804688 C 132.746094 135.222656 134.539062 129.140625 136.898438 122.625 C 138.617188 118.117188 140.335938 113.960938 142.125 110.167969 Z M 142.125 110.167969 " fill-opacity="1" fill-rule="nonzero"/></g><g clip-path="url(#562b279d5a)"><path fill="#000000" d="M 137.042969 136.582031 L 241.230469 136.582031 C 241.230469 123.269531 230.417969 112.460938 217.097656 112.460938 L 172.417969 112.460938 L 241.230469 32.5 L 241.230469 19.1875 C 245.957031 16.894531 250.753906 14.824219 255.625 12.816406 C 181.011719 26.632812 119.070312 72.945312 84.265625 140.304688 L 131.671875 140.304688 C 133.101562 134.003906 134.894531 127.851562 137.042969 122.050781 Z M 199.339844 43.308594 L 142.125 109.8125 C 154.875 82.324219 174.996094 60.632812 199.339844 43.308594 Z M 199.339844 43.308594 " fill-opacity="1" fill-rule="evenodd"/></g><g clip-path="url(#06778d828c)"><path fill="#000000" d="M 205.714844 208.023438 L 205.285156 193.847656 L 210.441406 181.394531 L 266.078125 115.96875 C 272.023438 111.316406 279.183594 106.375 287.488281 101.578125 C 295.507812 96.925781 303.097656 93.417969 309.828125 90.628906 C 309.828125 95.0625 309.828125 99.503906 309.828125 103.941406 L 241.015625 183.972656 L 309.902344 183.972656 L 309.902344 208.09375 L 205.714844 208.09375 Z M 205.714844 208.023438 " fill-opacity="1" fill-rule="nonzero"/></g><g clip-path="url(#c8d0c0eb3a)"><path fill="#000000" d="M 33.28125 136.796875 L 61.355469 136.796875 L 72.808594 108.738281 L 94.078125 108.738281 C 99.949219 100.148438 106.324219 92.058594 113.125 84.398438 L 82.691406 84.398438 L 99.234375 43.882812 L 114.988281 82.25 C 121.144531 75.449219 127.664062 69.007812 134.464844 62.925781 L 112.265625 10.742188 L 86.917969 10.742188 Z M 226.265625 11.742188 L 139.550781 11.742188 L 139.550781 35.867188 L 171.699219 35.867188 C 188.671875 25.773438 206.933594 17.683594 226.265625 11.742188 Z M 226.265625 11.742188 " fill-opacity="1" fill-rule="evenodd"/></g><g clip-path="url(#4de9333053)"><path fill="#000000" d="M 137.398438 136.796875 L 241.589844 136.796875 L 241.589844 112.675781 L 172.777344 112.675781 L 241.589844 32.644531 L 241.589844 19.332031 C 246.316406 17.039062 251.113281 14.964844 255.984375 12.960938 C 181.367188 26.773438 119.429688 73.089844 84.625 140.449219 L 132.03125 140.449219 C 133.460938 134.148438 135.253906 127.992188 137.398438 122.195312 Z M 199.699219 43.457031 L 142.558594 109.953125 C 155.230469 82.539062 175.351562 60.777344 199.699219 43.457031 Z M 199.699219 43.457031 " fill-opacity="1" fill-rule="evenodd"/></g><g clip-path="url(#91a09fcc16)"><path fill="#faab11" d="M 142.125 110.167969 C 150.863281 93.992188 167.832031 67.792969 197.765625 44.742188 C 220.179688 27.5625 242.019531 18.042969 257.558594 12.746094 C 236.363281 16.539062 196.1875 26.632812 155.515625 56.410156 C 114.484375 86.472656 93.074219 121.835938 83.265625 140.804688 C 99.304688 140.804688 115.417969 140.804688 131.457031 140.804688 C 132.746094 135.222656 134.539062 129.140625 136.898438 122.625 C 138.617188 118.117188 140.335938 113.960938 142.125 110.167969 Z M 142.125 110.167969 " fill-opacity="1" fill-rule="nonzero"/></g><g clip-path="url(#59db619083)"><path fill="#000000" d="M 137.042969 136.582031 L 241.230469 136.582031 C 241.230469 123.269531 230.417969 112.460938 217.097656 112.460938 L 172.417969 112.460938 L 241.230469 32.5 L 241.230469 19.1875 C 245.957031 16.894531 250.753906 14.824219 255.625 12.816406 C 181.011719 26.632812 119.070312 72.945312 84.265625 140.304688 L 131.671875 140.304688 C 133.101562 134.003906 134.894531 127.851562 137.042969 122.050781 Z M 199.339844 43.308594 L 142.125 109.8125 C 154.875 82.324219 174.996094 60.632812 199.339844 43.308594 Z M 199.339844 43.308594 " fill-opacity="1" fill-rule="evenodd"/></g><g clip-path="url(#6da4b9bd30)"><path fill="#000000" d="M 205.714844 208.023438 L 205.285156 193.847656 L 210.441406 181.394531 L 266.078125 115.96875 C 272.023438 111.316406 279.183594 106.375 287.488281 101.578125 C 295.507812 96.925781 303.097656 93.417969 309.828125 90.628906 C 309.828125 95.0625 309.828125 99.503906 309.828125 103.941406 L 241.015625 183.972656 L 309.902344 183.972656 L 309.902344 208.09375 L 205.714844 208.09375 Z M 205.714844 208.023438 " fill-opacity="1" fill-rule="nonzero"/></g><g transform="matrix(1, 0, 0, 1, 28, 119)"><g clip-path="url(#7f27e6c626)"><g fill="#000000" fill-opacity="1"><g transform="translate(0.606115, 61.019423)"><g><path d="M 24.3125 -1.625 C 22.476562 -0.539062 20.816406 0 19.328125 0 C 17.503906 0 16.476562 -0.882812 16.25 -2.65625 C 15.132812 -1.632812 14.023438 -0.882812 12.921875 -0.40625 C 11.816406 0.0625 10.597656 0.296875 9.265625 0.296875 C 7.722656 0.296875 6.375 0.00390625 5.21875 -0.578125 C 4.0625 -1.171875 3.164062 -1.992188 2.53125 -3.046875 C 1.894531 -4.097656 1.578125 -5.3125 1.578125 -6.6875 C 1.578125 -8.375 2.015625 -9.832031 2.890625 -11.0625 C 3.765625 -12.289062 5.019531 -13.238281 6.65625 -13.90625 C 8.300781 -14.582031 10.265625 -14.921875 12.546875 -14.921875 C 13.492188 -14.921875 14.679688 -14.820312 16.109375 -14.625 L 16.109375 -15.484375 C 16.109375 -16.679688 15.671875 -17.617188 14.796875 -18.296875 C 13.929688 -18.984375 12.703125 -19.328125 11.109375 -19.328125 C 8.441406 -19.328125 6.484375 -18.457031 5.234375 -16.71875 C 3.953125 -17.34375 3.3125 -18.226562 3.3125 -19.375 C 3.3125 -20.289062 3.679688 -21.101562 4.421875 -21.8125 C 5.160156 -22.53125 6.222656 -23.085938 7.609375 -23.484375 C 8.992188 -23.890625 10.65625 -24.09375 12.59375 -24.09375 C 16.144531 -24.09375 18.738281 -23.335938 20.375 -21.828125 C 22.019531 -20.328125 22.84375 -17.945312 22.84375 -14.6875 C 22.84375 -14.644531 22.835938 -14.472656 22.828125 -14.171875 C 22.816406 -13.867188 22.804688 -13.429688 22.796875 -12.859375 C 22.773438 -12.285156 22.757812 -11.710938 22.75 -11.140625 C 22.75 -10.578125 22.75 -10.023438 22.75 -9.484375 C 22.75 -5.679688 23.269531 -3.0625 24.3125 -1.625 Z M 16 -9.265625 L 16 -10.796875 C 15.070312 -10.941406 14.222656 -11.015625 13.453125 -11.015625 C 11.804688 -11.015625 10.546875 -10.707031 9.671875 -10.09375 C 8.796875 -9.476562 8.359375 -8.613281 8.359375 -7.5 C 8.359375 -6.5625 8.660156 -5.820312 9.265625 -5.28125 C 9.878906 -4.738281 10.71875 -4.46875 11.78125 -4.46875 C 13.332031 -4.46875 14.757812 -5.117188 16.0625 -6.421875 C 16.039062 -6.679688 16.023438 -7.046875 16.015625 -7.515625 C 16.003906 -7.984375 16 -8.566406 16 -9.265625 Z M 16 -9.265625 "/></g></g><g transform="translate(26.549075, 61.019423)"><g><path d="M 11.96875 -1.328125 C 9.84375 -0.441406 7.992188 0 6.421875 0 C 5.515625 0 4.8125 -0.140625 4.3125 -0.421875 C 3.8125 -0.703125 3.46875 -1.164062 3.28125 -1.8125 C 3.09375 -2.46875 3 -3.375 3 -4.53125 C 3 -5 3.097656 -7.257812 3.296875 -11.3125 C 3.378906 -13.320312 3.441406 -15.273438 3.484375 -17.171875 C 3.535156 -19.066406 3.5625 -20.910156 3.5625 -22.703125 C 3.5625 -25.398438 3.460938 -27.585938 3.265625 -29.265625 C 3.066406 -30.953125 2.707031 -32.296875 2.1875 -33.296875 C 4.125 -34.210938 5.976562 -34.671875 7.75 -34.671875 C 8.976562 -34.671875 9.851562 -34.378906 10.375 -33.796875 C 10.894531 -33.210938 11.15625 -32.242188 11.15625 -30.890625 C 11.15625 -30.578125 11.132812 -29.882812 11.09375 -28.8125 C 11.0625 -27.75 11.003906 -26.289062 10.921875 -24.4375 C 10.835938 -22.582031 10.769531 -20.804688 10.71875 -19.109375 C 10.664062 -17.421875 10.640625 -15.804688 10.640625 -14.265625 C 10.640625 -11.960938 10.675781 -9.976562 10.75 -8.3125 C 10.832031 -6.65625 10.96875 -5.257812 11.15625 -4.125 C 11.351562 -3 11.625 -2.066406 11.96875 -1.328125 Z M 11.96875 -1.328125 "/></g></g><g transform="translate(40.762375, 61.019423)"><g><path d="M 15.640625 -15.59375 C 15.785156 -14.34375 15.859375 -13.460938 15.859375 -12.953125 C 15.859375 -9.828125 14.34375 -8.265625 11.3125 -8.265625 C 10.59375 -8.265625 9.539062 -8.363281 8.15625 -8.5625 C 7.46875 -8.644531 6.875 -8.707031 6.375 -8.75 C 5.875 -8.800781 5.460938 -8.828125 5.140625 -8.828125 C 3.773438 -8.828125 2.550781 -8.585938 1.46875 -8.109375 C 1.394531 -8.703125 1.335938 -9.21875 1.296875 -9.65625 C 1.253906 -10.101562 1.234375 -10.46875 1.234375 -10.75 C 1.234375 -12.351562 1.613281 -13.535156 2.375 -14.296875 C 3.132812 -15.054688 4.300781 -15.4375 5.875 -15.4375 C 6.25 -15.4375 6.695312 -15.410156 7.21875 -15.359375 C 7.75 -15.316406 8.34375 -15.253906 9 -15.171875 C 10.3125 -14.972656 11.222656 -14.875 11.734375 -14.875 C 13.347656 -14.875 14.648438 -15.113281 15.640625 -15.59375 Z M 15.640625 -15.59375 "/></g></g><g transform="translate(57.852761, 61.019423)"><g><path d="M 24.3125 -1.625 C 22.476562 -0.539062 20.816406 0 19.328125 0 C 17.503906 0 16.476562 -0.882812 16.25 -2.65625 C 15.132812 -1.632812 14.023438 -0.882812 12.921875 -0.40625 C 11.816406 0.0625 10.597656 0.296875 9.265625 0.296875 C 7.722656 0.296875 6.375 0.00390625 5.21875 -0.578125 C 4.0625 -1.171875 3.164062 -1.992188 2.53125 -3.046875 C 1.894531 -4.097656 1.578125 -5.3125 1.578125 -6.6875 C 1.578125 -8.375 2.015625 -9.832031 2.890625 -11.0625 C 3.765625 -12.289062 5.019531 -13.238281 6.65625 -13.90625 C 8.300781 -14.582031 10.265625 -14.921875 12.546875 -14.921875 C 13.492188 -14.921875 14.679688 -14.820312 16.109375 -14.625 L 16.109375 -15.484375 C 16.109375 -16.679688 15.671875 -17.617188 14.796875 -18.296875 C 13.929688 -18.984375 12.703125 -19.328125 11.109375 -19.328125 C 8.441406 -19.328125 6.484375 -18.457031 5.234375 -16.71875 C 3.953125 -17.34375 3.3125 -18.226562 3.3125 -19.375 C 3.3125 -20.289062 3.679688 -21.101562 4.421875 -21.8125 C 5.160156 -22.53125 6.222656 -23.085938 7.609375 -23.484375 C 8.992188 -23.890625 10.65625 -24.09375 12.59375 -24.09375 C 16.144531 -24.09375 18.738281 -23.335938 20.375 -21.828125 C 22.019531 -20.328125 22.84375 -17.945312 22.84375 -14.6875 C 22.84375 -14.644531 22.835938 -14.472656 22.828125 -14.171875 C 22.816406 -13.867188 22.804688 -13.429688 22.796875 -12.859375 C 22.773438 -12.285156 22.757812 -11.710938 22.75 -11.140625 C 22.75 -10.578125 22.75 -10.023438 22.75 -9.484375 C 22.75 -5.679688 23.269531 -3.0625 24.3125 -1.625 Z M 16 -9.265625 L 16 -10.796875 C 15.070312 -10.941406 14.222656 -11.015625 13.453125 -11.015625 C 11.804688 -11.015625 10.546875 -10.707031 9.671875 -10.09375 C 8.796875 -9.476562 8.359375 -8.613281 8.359375 -7.5 C 8.359375 -6.5625 8.660156 -5.820312 9.265625 -5.28125 C 9.878906 -4.738281 10.71875 -4.46875 11.78125 -4.46875 C 13.332031 -4.46875 14.757812 -5.117188 16.0625 -6.421875 C 16.039062 -6.679688 16.023438 -7.046875 16.015625 -7.515625 C 16.003906 -7.984375 16 -8.566406 16 -9.265625 Z M 16 -9.265625 "/></g></g><g transform="translate(83.795722, 61.019423)"><g><path d="M 21.90625 -6.828125 C 22.53125 -5.210938 22.84375 -4.0625 22.84375 -3.375 C 22.84375 -2.1875 22.5 -1.328125 21.8125 -0.796875 C 21.125 -0.265625 20.023438 0 18.515625 0 C 18.335938 0 17.882812 -0.015625 17.15625 -0.046875 C 16.4375 -0.078125 15.457031 -0.128906 14.21875 -0.203125 C 12.96875 -0.265625 11.765625 -0.304688 10.609375 -0.328125 C 9.453125 -0.359375 8.34375 -0.375 7.28125 -0.375 C 6.375 -0.375 5.539062 -0.332031 4.78125 -0.25 C 4.019531 -0.175781 3.328125 -0.078125 2.703125 0.046875 C 2.015625 -1.015625 1.671875 -2.03125 1.671875 -3 C 1.671875 -4.019531 2.015625 -4.972656 2.703125 -5.859375 C 2.785156 -5.984375 3.328125 -6.597656 4.328125 -7.703125 C 5.328125 -8.816406 6.535156 -10.222656 7.953125 -11.921875 C 9.367188 -13.628906 10.832031 -15.5 12.34375 -17.53125 C 10.863281 -17.632812 9.648438 -17.6875 8.703125 -17.6875 C 6.304688 -17.6875 4.375 -17.378906 2.90625 -16.765625 C 2.257812 -18.566406 1.9375 -19.773438 1.9375 -20.390625 C 1.9375 -21.515625 2.3125 -22.3125 3.0625 -22.78125 C 3.820312 -23.257812 5.046875 -23.5 6.734375 -23.5 C 7.160156 -23.5 7.765625 -23.488281 8.546875 -23.46875 C 9.335938 -23.445312 10.300781 -23.398438 11.4375 -23.328125 C 12.5625 -23.265625 13.578125 -23.21875 14.484375 -23.1875 C 15.398438 -23.15625 16.210938 -23.140625 16.921875 -23.140625 C 18.703125 -23.140625 20.09375 -23.296875 21.09375 -23.609375 C 21.851562 -22.410156 22.234375 -21.351562 22.234375 -20.4375 C 22.234375 -19.71875 22.0625 -19.050781 21.71875 -18.4375 C 21.375 -17.832031 20.832031 -17.101562 20.09375 -16.25 C 20.070312 -16.238281 19.941406 -16.097656 19.703125 -15.828125 C 19.472656 -15.554688 19.125 -15.15625 18.65625 -14.625 C 17.738281 -13.59375 16.671875 -12.351562 15.453125 -10.90625 C 14.242188 -9.46875 12.96875 -7.890625 11.625 -6.171875 C 12.8125 -6.109375 13.785156 -6.054688 14.546875 -6.015625 C 15.304688 -5.984375 15.859375 -5.96875 16.203125 -5.96875 C 18.628906 -5.96875 20.53125 -6.253906 21.90625 -6.828125 Z M 21.90625 -6.828125 "/></g></g><g transform="translate(107.968168, 61.019423)"><g><path d="M 24.3125 -1.625 C 22.476562 -0.539062 20.816406 0 19.328125 0 C 17.503906 0 16.476562 -0.882812 16.25 -2.65625 C 15.132812 -1.632812 14.023438 -0.882812 12.921875 -0.40625 C 11.816406 0.0625 10.597656 0.296875 9.265625 0.296875 C 7.722656 0.296875 6.375 0.00390625 5.21875 -0.578125 C 4.0625 -1.171875 3.164062 -1.992188 2.53125 -3.046875 C 1.894531 -4.097656 1.578125 -5.3125 1.578125 -6.6875 C 1.578125 -8.375 2.015625 -9.832031 2.890625 -11.0625 C 3.765625 -12.289062 5.019531 -13.238281 6.65625 -13.90625 C 8.300781 -14.582031 10.265625 -14.921875 12.546875 -14.921875 C 13.492188 -14.921875 14.679688 -14.820312 16.109375 -14.625 L 16.109375 -15.484375 C 16.109375 -16.679688 15.671875 -17.617188 14.796875 -18.296875 C 13.929688 -18.984375 12.703125 -19.328125 11.109375 -19.328125 C 8.441406 -19.328125 6.484375 -18.457031 5.234375 -16.71875 C 3.953125 -17.34375 3.3125 -18.226562 3.3125 -19.375 C 3.3125 -20.289062 3.679688 -21.101562 4.421875 -21.8125 C 5.160156 -22.53125 6.222656 -23.085938 7.609375 -23.484375 C 8.992188 -23.890625 10.65625 -24.09375 12.59375 -24.09375 C 16.144531 -24.09375 18.738281 -23.335938 20.375 -21.828125 C 22.019531 -20.328125 22.84375 -17.945312 22.84375 -14.6875 C 22.84375 -14.644531 22.835938 -14.472656 22.828125 -14.171875 C 22.816406 -13.867188 22.804688 -13.429688 22.796875 -12.859375 C 22.773438 -12.285156 22.757812 -11.710938 22.75 -11.140625 C 22.75 -10.578125 22.75 -10.023438 22.75 -9.484375 C 22.75 -5.679688 23.269531 -3.0625 24.3125 -1.625 Z M 16 -9.265625 L 16 -10.796875 C 15.070312 -10.941406 14.222656 -11.015625 13.453125 -11.015625 C 11.804688 -11.015625 10.546875 -10.707031 9.671875 -10.09375 C 8.796875 -9.476562 8.359375 -8.613281 8.359375 -7.5 C 8.359375 -6.5625 8.660156 -5.820312 9.265625 -5.28125 C 9.878906 -4.738281 10.71875 -4.46875 11.78125 -4.46875 C 13.332031 -4.46875 14.757812 -5.117188 16.0625 -6.421875 C 16.039062 -6.679688 16.023438 -7.046875 16.015625 -7.515625 C 16.003906 -7.984375 16 -8.566406 16 -9.265625 Z M 16 -9.265625 "/></g></g><g transform="translate(133.911128, 61.019423)"><g><path d="M 9.9375 -21 C 11.988281 -22.90625 14.363281 -23.859375 17.0625 -23.859375 C 18.570312 -23.859375 19.945312 -23.609375 21.1875 -23.109375 C 22.4375 -22.609375 23.507812 -21.890625 24.40625 -20.953125 C 25.3125 -20.015625 26.015625 -18.910156 26.515625 -17.640625 C 27.015625 -16.367188 27.265625 -14.957031 27.265625 -13.40625 C 27.265625 -11.382812 26.914062 -9.535156 26.21875 -7.859375 C 25.53125 -6.191406 24.539062 -4.75 23.25 -3.53125 C 21.957031 -2.3125 20.421875 -1.367188 18.640625 -0.703125 C 16.867188 -0.0351562 14.898438 0.296875 12.734375 0.296875 C 8.898438 0.296875 5.453125 -0.617188 2.390625 -2.453125 C 2.648438 -4.703125 2.835938 -7.320312 2.953125 -10.3125 C 3.078125 -13.300781 3.140625 -16.660156 3.140625 -20.390625 C 3.140625 -23.660156 3.035156 -26.328125 2.828125 -28.390625 C 2.628906 -30.460938 2.257812 -32.097656 1.71875 -33.296875 C 3.65625 -34.210938 5.410156 -34.671875 6.984375 -34.671875 C 8.210938 -34.671875 9.101562 -34.359375 9.65625 -33.734375 C 10.21875 -33.109375 10.5 -32.109375 10.5 -30.734375 C 10.5 -30.472656 10.472656 -29.929688 10.421875 -29.109375 C 10.390625 -28.523438 10.34375 -27.769531 10.28125 -26.84375 C 10.226562 -25.914062 10.171875 -24.9375 10.109375 -23.90625 C 10.046875 -22.882812 9.988281 -21.914062 9.9375 -21 Z M 9.890625 -6.890625 C 11.035156 -6.128906 12.269531 -5.75 13.59375 -5.75 C 14.78125 -5.75 15.835938 -6.035156 16.765625 -6.609375 C 17.703125 -7.179688 18.4375 -7.96875 18.96875 -8.96875 C 19.5 -9.96875 19.765625 -11.109375 19.765625 -12.390625 C 19.765625 -13.503906 19.546875 -14.476562 19.109375 -15.3125 C 18.679688 -16.15625 18.082031 -16.804688 17.3125 -17.265625 C 16.539062 -17.722656 15.644531 -17.953125 14.625 -17.953125 C 13.070312 -17.953125 11.523438 -17.476562 9.984375 -16.53125 C 9.921875 -15.53125 9.867188 -14.515625 9.828125 -13.484375 C 9.796875 -12.460938 9.78125 -11.4375 9.78125 -10.40625 C 9.78125 -9.613281 9.785156 -8.921875 9.796875 -8.328125 C 9.816406 -7.742188 9.847656 -7.265625 9.890625 -6.890625 Z M 9.890625 -6.890625 "/></g></g><g transform="translate(162.706585, 61.019423)"><g><path d="M 6.609375 -2.734375 C 6.609375 -3.566406 6.34375 -4.253906 5.8125 -4.796875 C 5.28125 -5.347656 4.640625 -5.625 3.890625 -5.625 C 3.046875 -5.625 2.347656 -5.347656 1.796875 -4.796875 C 1.253906 -4.253906 0.984375 -3.566406 0.984375 -2.734375 C 0.984375 -1.972656 1.253906 -1.328125 1.796875 -0.796875 C 2.347656 -0.265625 3.046875 0 3.890625 0 C 4.390625 0 4.84375 -0.117188 5.25 -0.359375 C 5.664062 -0.609375 5.992188 -0.941406 6.234375 -1.359375 C 6.484375 -1.773438 6.609375 -2.234375 6.609375 -2.734375 Z M 6.609375 -2.734375 "/></g></g><g transform="translate(170.305044, 61.019423)"><g><path d="M 19.46875 -7.328125 C 20.488281 -6.066406 21 -4.878906 21 -3.765625 C 21 -2.460938 20.359375 -1.421875 19.078125 -0.640625 C 17.796875 0.128906 16.007812 0.515625 13.71875 0.515625 C 11.882812 0.515625 10.210938 0.253906 8.703125 -0.265625 C 7.191406 -0.796875 5.898438 -1.539062 4.828125 -2.5 C 3.753906 -3.46875 2.925781 -4.625 2.34375 -5.96875 C 1.757812 -7.3125 1.46875 -8.804688 1.46875 -10.453125 C 1.46875 -14.691406 3.132812 -18.207031 6.46875 -21 C 7.59375 -21.9375 8.945312 -22.675781 10.53125 -23.21875 C 12.113281 -23.769531 13.75 -24.046875 15.4375 -24.046875 C 17.0625 -24.046875 18.300781 -23.765625 19.15625 -23.203125 C 20.007812 -22.640625 20.4375 -21.835938 20.4375 -20.796875 C 20.4375 -19.535156 19.8125 -18.257812 18.5625 -16.96875 C 17.53125 -17.5625 16.410156 -17.859375 15.203125 -17.859375 C 14.046875 -17.859375 12.992188 -17.566406 12.046875 -16.984375 C 11.097656 -16.410156 10.335938 -15.640625 9.765625 -14.671875 C 9.203125 -13.710938 8.921875 -12.625 8.921875 -11.40625 C 8.921875 -10.257812 9.148438 -9.257812 9.609375 -8.40625 C 10.066406 -7.550781 10.707031 -6.882812 11.53125 -6.40625 C 12.351562 -5.9375 13.304688 -5.703125 14.390625 -5.703125 C 16.140625 -5.703125 17.832031 -6.242188 19.46875 -7.328125 Z M 19.46875 -7.328125 "/></g></g><g transform="translate(192.165984, 61.019423)"><g><path d="M 28.296875 -12.390625 C 28.296875 -9.242188 27.304688 -6.507812 25.328125 -4.1875 C 22.617188 -1.019531 19.050781 0.5625 14.625 0.5625 C 12.695312 0.5625 10.925781 0.269531 9.3125 -0.3125 C 7.707031 -0.90625 6.320312 -1.738281 5.15625 -2.8125 C 4 -3.882812 3.101562 -5.160156 2.46875 -6.640625 C 1.84375 -8.117188 1.53125 -9.742188 1.53125 -11.515625 C 1.53125 -13.347656 1.867188 -15.035156 2.546875 -16.578125 C 3.222656 -18.128906 4.179688 -19.472656 5.421875 -20.609375 C 6.671875 -21.753906 8.144531 -22.640625 9.84375 -23.265625 C 11.539062 -23.898438 13.40625 -24.21875 15.4375 -24.21875 C 17.320312 -24.21875 19.050781 -23.925781 20.625 -23.34375 C 22.195312 -22.757812 23.554688 -21.9375 24.703125 -20.875 C 25.859375 -19.8125 26.742188 -18.5625 27.359375 -17.125 C 27.984375 -15.6875 28.296875 -14.109375 28.296875 -12.390625 Z M 9.03125 -11.6875 C 9.03125 -10.5 9.28125 -9.453125 9.78125 -8.546875 C 10.28125 -7.648438 10.972656 -6.953125 11.859375 -6.453125 C 12.753906 -5.953125 13.789062 -5.703125 14.96875 -5.703125 C 16.082031 -5.703125 17.085938 -5.96875 17.984375 -6.5 C 18.878906 -7.03125 19.585938 -7.765625 20.109375 -8.703125 C 20.640625 -9.648438 20.90625 -10.722656 20.90625 -11.921875 C 20.90625 -13.171875 20.65625 -14.25 20.15625 -15.15625 C 19.664062 -16.070312 18.972656 -16.78125 18.078125 -17.28125 C 17.191406 -17.789062 16.15625 -18.046875 14.96875 -18.046875 C 13.8125 -18.046875 12.78125 -17.78125 11.875 -17.25 C 10.976562 -16.71875 10.28125 -15.972656 9.78125 -15.015625 C 9.28125 -14.066406 9.03125 -12.957031 9.03125 -11.6875 Z M 9.03125 -11.6875 "/></g></g></g></g></g></svg>