<svg xmlns="http://www.w3.org/2000/svg" xmlns:xlink="http://www.w3.org/1999/xlink" width="417" zoomAndPan="magnify" viewBox="0 0 312.75 196.499994" height="262" preserveAspectRatio="xMidYMid meet" version="1.0"><defs><clipPath id="8e855cb310"><path d="M 7.816406 18.253906 L 267.699219 18.253906 L 267.699219 137.648438 L 7.816406 137.648438 Z M 7.816406 18.253906 " clip-rule="nonzero"/></clipPath><clipPath id="bfac5a4b9c"><path d="M 76.1875 21 L 307.816406 21 L 307.816406 137.648438 L 76.1875 137.648438 Z M 76.1875 21 " clip-rule="nonzero"/></clipPath><clipPath id="eec0f2684f"><path d="M 75 20 L 310 20 L 310 137.648438 L 75 137.648438 Z M 75 20 " clip-rule="nonzero"/></clipPath><clipPath id="da918faa5d"><path d="M 76 20 L 77.441406 20 L 77.441406 137.648438 L 76 137.648438 Z M 76 20 " clip-rule="nonzero"/></clipPath><clipPath id="67f39968a4"><path d="M 239 125 L 311.480469 125 L 311.480469 137.648438 L 239 137.648438 Z M 239 125 " clip-rule="nonzero"/></clipPath><clipPath id="de3f771713"><path d="M 7.816406 18.253906 L 267.699219 18.253906 L 267.699219 187.972656 L 7.816406 187.972656 Z M 7.816406 18.253906 " clip-rule="nonzero"/></clipPath><clipPath id="5567649fdb"><path d="M 76.1875 21 L 286.792969 21 L 286.792969 192.890625 L 76.1875 192.890625 Z M 76.1875 21 " clip-rule="nonzero"/></clipPath><clipPath id="d99e739dd7"><path d="M 75 20 L 286.792969 20 L 286.792969 194 L 75 194 Z M 75 20 " clip-rule="nonzero"/></clipPath><clipPath id="f421bd5be4"><path d="M 76 20 L 77.441406 20 L 77.441406 189.132812 L 76 189.132812 Z M 76 20 " clip-rule="nonzero"/></clipPath><clipPath id="54d10eba83"><path d="M 239 125 L 286.792969 125 L 286.792969 196 L 239 196 Z M 239 125 " clip-rule="nonzero"/></clipPath></defs><g clip-path="url(#8e855cb310)"><path fill="#000000" d="M 7.816406 187.972656 L 45.617188 187.972656 L 61.046875 150.171875 L 89.6875 150.171875 C 97.59375 138.601562 106.175781 127.703125 115.339844 117.386719 L 74.355469 117.386719 L 96.628906 62.804688 L 117.84375 114.492188 C 126.136719 105.332031 134.914062 96.652344 144.074219 88.457031 L 114.179688 18.15625 L 80.042969 18.15625 Z M 267.699219 19.507812 L 150.921875 19.507812 L 150.921875 52.003906 L 194.21875 52.003906 C 217.074219 38.410156 241.664062 27.511719 267.699219 19.507812 Z M 267.699219 19.507812 " fill-opacity="1" fill-rule="evenodd"/></g><g clip-path="url(#bfac5a4b9c)"><path fill="#000000" d="M 148.027344 187.972656 L 288.335938 187.972656 L 288.335938 155.476562 L 195.664062 155.476562 L 288.335938 47.664062 L 288.335938 29.730469 C 294.703125 26.644531 301.164062 23.847656 307.71875 21.148438 C 207.238281 39.757812 123.824219 102.148438 76.957031 192.890625 L 140.796875 192.890625 C 142.726562 184.40625 145.136719 176.113281 148.027344 168.300781 Z M 231.925781 62.226562 L 154.972656 151.8125 C 172.039062 114.878906 199.136719 85.5625 231.925781 62.226562 Z M 231.925781 62.226562 " fill-opacity="1" fill-rule="evenodd"/></g><g clip-path="url(#eec0f2684f)"><path fill="#faab11" d="M 154.394531 152.101562 C 166.15625 130.308594 189.011719 95.015625 229.320312 63.964844 C 259.503906 40.820312 288.914062 27.992188 309.839844 20.859375 C 281.296875 25.96875 227.199219 39.566406 172.425781 79.679688 C 117.171875 120.183594 88.335938 167.820312 75.125 193.375 C 96.726562 193.375 118.421875 193.375 140.023438 193.375 C 141.761719 185.851562 144.171875 177.65625 147.351562 168.882812 C 149.667969 162.804688 151.980469 157.210938 154.394531 152.101562 Z M 154.394531 152.101562 " fill-opacity="1" fill-rule="nonzero"/></g><g clip-path="url(#da918faa5d)"><path fill="#000000" d="M 147.546875 187.683594 L 287.855469 187.683594 C 287.855469 169.75 273.292969 155.1875 255.355469 155.1875 L 195.183594 155.1875 L 287.855469 47.472656 L 287.855469 29.535156 C 294.21875 26.449219 300.679688 23.65625 307.238281 20.953125 C 206.753906 39.566406 123.339844 101.957031 76.476562 192.699219 L 140.3125 192.699219 C 142.242188 184.214844 144.652344 175.921875 147.546875 168.109375 Z M 231.441406 62.035156 L 154.394531 151.621094 C 171.558594 114.589844 198.65625 85.371094 231.441406 62.035156 Z M 231.441406 62.035156 " fill-opacity="1" fill-rule="evenodd"/></g><g clip-path="url(#67f39968a4)"><path fill="#000000" d="M 240.023438 283.925781 L 239.445312 264.832031 L 246.390625 248.050781 L 321.316406 159.914062 C 329.320312 153.644531 338.964844 146.992188 350.148438 140.53125 C 360.949219 134.261719 371.171875 129.535156 380.238281 125.777344 C 380.238281 131.753906 380.238281 137.734375 380.238281 143.710938 L 287.566406 251.523438 L 380.332031 251.523438 L 380.332031 284.019531 L 240.023438 284.019531 Z M 240.023438 283.925781 " fill-opacity="1" fill-rule="nonzero"/></g><g clip-path="url(#de3f771713)"><path fill="#000000" d="M 7.816406 187.972656 L 45.617188 187.972656 L 61.046875 150.171875 L 89.6875 150.171875 C 97.59375 138.601562 106.175781 127.703125 115.339844 117.386719 L 74.355469 117.386719 L 96.628906 62.804688 L 117.84375 114.492188 C 126.136719 105.332031 134.914062 96.652344 144.074219 88.457031 L 114.179688 18.15625 L 80.042969 18.15625 Z M 267.699219 19.507812 L 150.921875 19.507812 L 150.921875 52.003906 L 194.21875 52.003906 C 217.074219 38.410156 241.664062 27.511719 267.699219 19.507812 Z M 267.699219 19.507812 " fill-opacity="1" fill-rule="evenodd"/></g><g clip-path="url(#5567649fdb)"><path fill="#000000" d="M 148.027344 187.972656 L 288.335938 187.972656 L 288.335938 155.476562 L 195.664062 155.476562 L 288.335938 47.664062 L 288.335938 29.730469 C 294.703125 26.644531 301.164062 23.847656 307.71875 21.148438 C 207.238281 39.757812 123.824219 102.148438 76.957031 192.890625 L 140.796875 192.890625 C 142.726562 184.40625 145.136719 176.113281 148.027344 168.300781 Z M 231.925781 62.226562 L 154.972656 151.8125 C 172.039062 114.878906 199.136719 85.5625 231.925781 62.226562 Z M 231.925781 62.226562 " fill-opacity="1" fill-rule="evenodd"/></g><g clip-path="url(#d99e739dd7)"><path fill="#faab11" d="M 154.394531 152.101562 C 166.15625 130.308594 189.011719 95.015625 229.320312 63.964844 C 259.503906 40.820312 288.914062 27.992188 309.839844 20.859375 C 281.296875 25.96875 227.199219 39.566406 172.425781 79.679688 C 117.171875 120.183594 88.335938 167.820312 75.125 193.375 C 96.726562 193.375 118.421875 193.375 140.023438 193.375 C 141.761719 185.851562 144.171875 177.65625 147.351562 168.882812 C 149.667969 162.804688 151.980469 157.210938 154.394531 152.101562 Z M 154.394531 152.101562 " fill-opacity="1" fill-rule="nonzero"/></g><g clip-path="url(#f421bd5be4)"><path fill="#000000" d="M 147.546875 187.683594 L 287.855469 187.683594 C 287.855469 169.75 273.292969 155.1875 255.355469 155.1875 L 195.183594 155.1875 L 287.855469 47.472656 L 287.855469 29.535156 C 294.21875 26.449219 300.679688 23.65625 307.238281 20.953125 C 206.753906 39.566406 123.339844 101.957031 76.476562 192.699219 L 140.3125 192.699219 C 142.242188 184.214844 144.652344 175.921875 147.546875 168.109375 Z M 231.441406 62.035156 L 154.394531 151.621094 C 171.558594 114.589844 198.65625 85.371094 231.441406 62.035156 Z M 231.441406 62.035156 " fill-opacity="1" fill-rule="evenodd"/></g><g clip-path="url(#54d10eba83)"><path fill="#000000" d="M 240.023438 283.925781 L 239.445312 264.832031 L 246.390625 248.050781 L 321.316406 159.914062 C 329.320312 153.644531 338.964844 146.992188 350.148438 140.53125 C 360.949219 134.261719 371.171875 129.535156 380.238281 125.777344 C 380.238281 131.753906 380.238281 137.734375 380.238281 143.710938 L 287.566406 251.523438 L 380.332031 251.523438 L 380.332031 284.019531 L 240.023438 284.019531 Z M 240.023438 283.925781 " fill-opacity="1" fill-rule="nonzero"/></g></svg>