<svg xmlns="http://www.w3.org/2000/svg" xmlns:xlink="http://www.w3.org/1999/xlink" width="238" zoomAndPan="magnify" viewBox="0 0 178.5 215.249992" height="287" preserveAspectRatio="xMidYMid meet" version="1.0"><defs><clipPath id="1e94ec692e"><path d="M 0.0625 0 L 177.699219 0 L 177.699219 214.335938 L 0.0625 214.335938 Z M 0.0625 0 " clip-rule="nonzero"/></clipPath><clipPath id="51062900ca"><path d="M 122.054688 6.488281 C 111.425781 2.1875 100.210938 0 88.683594 0 C 77.15625 0 65.941406 2.1875 55.3125 6.488281 C 44.332031 10.941406 34.445312 17.503906 26.007812 25.945312 C 9.515625 42.476562 0.296875 64.4375 0.0625 87.765625 C -0.171875 111.054688 8.578125 133.167969 24.71875 149.972656 L 24.679688 150.011719 L 88.683594 214.015625 L 152.339844 150.363281 L 152.300781 150.324219 C 168.59375 133.519531 177.464844 111.40625 177.308594 88 C 177.152344 64.554688 167.929688 42.554688 151.363281 25.945312 C 142.882812 17.503906 133.035156 10.941406 122.054688 6.488281 Z M 122.054688 6.488281 " clip-rule="nonzero"/></clipPath><clipPath id="2f18ee217a"><path d="M 0.0625 0 L 177.523438 0 L 177.523438 214 L 0.0625 214 Z M 0.0625 0 " clip-rule="nonzero"/></clipPath><clipPath id="e67f929d1e"><path d="M 122.054688 6.488281 C 111.425781 2.1875 100.210938 0 88.683594 0 C 77.15625 0 65.941406 2.1875 55.3125 6.488281 C 44.332031 10.941406 34.445312 17.503906 26.007812 25.945312 C 9.515625 42.476562 0.296875 64.4375 0.0625 87.765625 C -0.171875 111.054688 8.578125 133.167969 24.71875 149.972656 L 24.679688 150.011719 L 88.683594 214.015625 L 152.339844 150.363281 L 152.300781 150.324219 C 168.59375 133.519531 177.464844 111.40625 177.308594 88 C 177.152344 64.554688 167.929688 42.554688 151.363281 25.945312 C 142.882812 17.503906 133.035156 10.941406 122.054688 6.488281 Z M 122.054688 6.488281 " clip-rule="nonzero"/></clipPath><clipPath id="b2eae1f405"><rect x="0" width="178" y="0" height="215"/></clipPath><clipPath id="810d23dda9"><path d="M 8.257812 8.199219 L 169 8.199219 L 169 168.65625 L 8.257812 168.65625 Z M 8.257812 8.199219 " clip-rule="nonzero"/></clipPath><clipPath id="df830e75db"><path d="M 88.644531 8.285156 C 44.40625 8.285156 8.539062 44.148438 8.539062 88.390625 C 8.539062 132.628906 44.40625 168.492188 88.644531 168.492188 C 132.886719 168.492188 168.75 132.628906 168.75 88.390625 C 168.75 44.148438 132.886719 8.285156 88.644531 8.285156 Z M 88.644531 8.285156 " clip-rule="nonzero"/></clipPath><clipPath id="b6ef40eca5"><path d="M 0.429688 0.199219 L 160.914062 0.199219 L 160.914062 160.613281 L 0.429688 160.613281 Z M 0.429688 0.199219 " clip-rule="nonzero"/></clipPath><clipPath id="7707438e27"><path d="M 80.644531 0.285156 C 36.40625 0.285156 0.539062 36.148438 0.539062 80.390625 C 0.539062 124.628906 36.40625 160.492188 80.644531 160.492188 C 124.886719 160.492188 160.75 124.628906 160.75 80.390625 C 160.75 36.148438 124.886719 0.285156 80.644531 0.285156 Z M 80.644531 0.285156 " clip-rule="nonzero"/></clipPath><clipPath id="f578eafd96"><rect x="0" width="161" y="0" height="161"/></clipPath><clipPath id="762d0397bd"><path d="M 15 13 L 162 13 L 162 158 L 15 158 Z M 15 13 " clip-rule="nonzero"/></clipPath><clipPath id="100f9e3a8b"><path d="M 23.480469 13.382812 L 161.511719 21.433594 L 153.550781 157.972656 L 15.515625 149.921875 Z M 23.480469 13.382812 " clip-rule="nonzero"/></clipPath><clipPath id="37041002cb"><path d="M 4 3 L 144 3 L 144 142 L 4 142 Z M 4 3 " clip-rule="nonzero"/></clipPath><clipPath id="b4180b4803"><path d="M 8.480469 0.382812 L 146.511719 8.433594 L 138.550781 144.972656 L 0.515625 136.921875 Z M 8.480469 0.382812 " clip-rule="nonzero"/></clipPath><clipPath id="ac84597b4f"><path d="M 146.863281 8.453125 L 8.828125 0.402344 L 0.867188 136.945312 L 138.898438 144.996094 Z M 146.863281 8.453125 " clip-rule="nonzero"/></clipPath><clipPath id="77034170f7"><path d="M 146.863281 8.457031 L 8.480469 0.386719 L 0.5 137.199219 L 138.882812 145.269531 Z M 146.863281 8.457031 " clip-rule="nonzero"/></clipPath><clipPath id="34c1ad648e"><rect x="0" width="147" y="0" height="145"/></clipPath></defs><g clip-path="url(#1e94ec692e)"><g clip-path="url(#51062900ca)"><g transform="matrix(1, 0, 0, 1, 0.000000000000000007, 0)"><g clip-path="url(#b2eae1f405)"><g clip-path="url(#2f18ee217a)"><g clip-path="url(#e67f929d1e)"><path fill="#faab11" d="M 0.0625 0 L 177.308594 0 L 177.308594 213.945312 L 0.0625 213.945312 Z M 0.0625 0 " fill-opacity="1" fill-rule="nonzero"/></g></g></g></g></g></g><g clip-path="url(#810d23dda9)"><g clip-path="url(#df830e75db)"><g transform="matrix(1, 0, 0, 1, 8, 8)"><g clip-path="url(#f578eafd96)"><g clip-path="url(#b6ef40eca5)"><g clip-path="url(#7707438e27)"><rect x="-47.27" width="257.04" fill="#ffffff" height="309.959989" y="-55.354998" fill-opacity="1"/></g></g></g></g></g></g><g clip-path="url(#762d0397bd)"><g clip-path="url(#100f9e3a8b)"><g transform="matrix(1, 0, 0, 1, 15, 13)"><g clip-path="url(#34c1ad648e)"><g clip-path="url(#37041002cb)"><g clip-path="url(#b4180b4803)"><g clip-path="url(#ac84597b4f)"><g clip-path="url(#77034170f7)"><path fill="#1800ad" d="M 113.363281 112.773438 C 114.824219 112.765625 116.1875 113.304688 117.117188 114.398438 C 118.976562 116.582031 118.386719 120.140625 115.796875 122.347656 C 113.210938 124.550781 109.605469 124.570312 107.746094 122.386719 C 105.886719 120.203125 106.472656 116.644531 109.0625 114.4375 C 110.359375 113.335938 111.90625 112.777344 113.363281 112.773438 Z M 73.964844 45.386719 C 72.863281 45.378906 71.757812 45.4375 70.65625 45.558594 L 68.671875 45.878906 L 84.210938 64.125 L 79.5 79.738281 L 63.34375 81.914062 L 47.796875 63.667969 L 47.167969 65.582031 C 44.796875 74.121094 46.570312 83.648438 52.75 90.898438 C 58.929688 98.152344 68.050781 101.414062 76.855469 100.429688 L 78.839844 100.109375 L 104.742188 130.511719 C 107.574219 133.835938 112.5625 134.234375 115.890625 131.402344 L 124.722656 123.871094 C 128.046875 121.039062 128.445312 116.046875 125.617188 112.722656 L 99.710938 82.316406 L 100.34375 80.40625 C 102.710938 71.867188 100.941406 62.339844 94.761719 55.089844 C 89.359375 48.742188 81.699219 45.453125 73.964844 45.386719 Z M 68.800781 3.90625 C 66.339844 3.757812 64.222656 5.632812 64.074219 8.09375 L 63.402344 19.28125 L 63.433594 19.976562 L 63.164062 20.019531 C 58.738281 20.878906 54.496094 22.273438 50.507812 24.140625 L 49.539062 24.652344 L 41.964844 15.761719 C 40.269531 13.769531 37.273438 13.53125 35.277344 15.230469 L 22.015625 26.535156 C 21.019531 27.386719 20.457031 28.558594 20.363281 29.769531 C 20.265625 30.980469 20.628906 32.226562 21.480469 33.222656 L 29.070312 42.128906 L 27.238281 44.773438 C 24.90625 48.511719 23.011719 52.558594 21.628906 56.847656 L 21.558594 57.078125 L 21.144531 57.011719 L 9.796875 56.328125 C 7.300781 56.175781 5.148438 58.082031 5 60.582031 L 4.558594 67.859375 L 4.464844 69.460938 L 4.027344 76.738281 C 3.875 79.238281 5.777344 81.390625 8.28125 81.539062 L 19.628906 82.222656 L 20.046875 82.207031 L 20.085938 82.445312 C 20.945312 86.867188 22.339844 91.113281 24.207031 95.101562 L 25.707031 97.949219 L 17.101562 105.878906 C 16.140625 106.765625 15.628906 107.960938 15.578125 109.175781 C 15.527344 110.386719 15.941406 111.617188 16.832031 112.582031 L 28.644531 125.398438 C 30.417969 127.324219 33.417969 127.449219 35.34375 125.671875 L 43.929688 117.757812 L 44.828125 118.382812 C 48.566406 120.710938 52.613281 122.609375 56.898438 123.992188 L 57.15625 124.066406 L 57.046875 124.753906 L 56.375 135.941406 C 56.226562 138.402344 58.097656 140.519531 60.5625 140.667969 L 78.511719 141.75 C 80.972656 141.898438 83.089844 140.019531 83.238281 137.558594 L 83.910156 126.371094 L 83.882812 125.675781 L 84.152344 125.632812 C 86.363281 125.203125 88.523438 124.640625 90.636719 123.949219 L 90.679688 123.9375 L 81.5 113.164062 L 78.214844 113.691406 C 65.097656 115.164062 51.507812 110.300781 42.296875 99.492188 C 27.566406 82.203125 29.636719 56.238281 46.925781 41.5 C 64.214844 26.765625 90.171875 28.835938 104.90625 46.128906 C 114.109375 56.9375 116.753906 71.132812 113.21875 83.855469 L 112.175781 87.015625 L 121.667969 98.152344 L 121.742188 98.019531 C 123.324219 95.101562 124.648438 92.023438 125.6875 88.808594 L 125.753906 88.570312 L 126.230469 88.644531 L 137.570312 89.328125 C 140.070312 89.480469 142.210938 87.578125 142.363281 85.078125 L 142.804688 77.796875 L 142.898438 76.195312 L 143.335938 68.910156 C 143.488281 66.414062 141.585938 64.269531 139.089844 64.117188 L 127.753906 63.433594 L 127.269531 63.453125 L 127.226562 63.210938 C 126.371094 58.785156 124.972656 54.542969 123.113281 50.550781 L 121.8125 48.097656 L 122.433594 47.628906 L 130.679688 40.027344 C 132.496094 38.351562 132.613281 35.523438 130.933594 33.707031 L 118.761719 20.492188 C 117.082031 18.675781 114.257812 18.558594 112.4375 20.234375 L 104.191406 27.835938 L 103.851562 28.222656 L 102.484375 27.273438 C 98.746094 24.941406 94.699219 23.046875 90.414062 21.664062 L 90.152344 21.589844 L 90.265625 20.898438 L 90.9375 9.714844 C 91.085938 7.25 89.210938 5.132812 86.75 4.984375 Z M 68.800781 3.90625 " fill-opacity="1" fill-rule="evenodd"/></g></g></g></g></g></g></g></g></svg>